<svg xmlns="http://www.w3.org/2000/svg" xmlns:xlink="http://www.w3.org/1999/xlink" contentStyleType="text/css" data-diagram-type="CLASS" height="1130px" preserveAspectRatio="none" style="width:944px;height:1130px;background:#FFFFFF;" version="1.1" viewBox="0 0 944 1130" width="944px" zoomAndPan="magnify"><defs/><g><!--class dataset_items--><g class="entity" data-entity="dataset_items" data-source-line="3" data-uid="ent0002" id="entity_dataset_items"><rect fill="#F1F1F1" height="290.0742" rx="2.5" ry="2.5" style="stroke:#181818;stroke-width:0.5;" width="229.875" x="203.5" y="626"/><ellipse cx="270.6084" cy="642" fill="#FFAAAA" rx="11" ry="11" style="stroke:#181818;stroke-width:1;"/><path d="M271.5303,639.3906 L271.5303,646.0469 L272.6865,646.0469 Q273.2959,646.0469 273.5459,646.2813 Q273.8115,646.5156 273.8115,646.9063 Q273.8115,647.2813 273.5459,647.5156 Q273.2959,647.75 272.6865,647.75 L268.7021,647.75 Q268.0771,647.75 267.8115,647.5156 Q267.5615,647.2813 267.5615,646.8906 Q267.5615,646.5156 267.8115,646.2813 Q268.0771,646.0469 268.7021,646.0469 L269.8271,646.0469 L269.8271,639.3906 L267.9834,639.3906 L267.9834,641 Q267.9834,641.6094 267.749,641.875 Q267.5146,642.1406 267.1396,642.1406 Q266.7646,642.1406 266.5303,641.875 Q266.2959,641.6094 266.2959,641 L266.2959,637.6875 L275.1084,637.6875 L275.1084,641 Q275.1084,641.6094 274.8584,641.875 Q274.624,642.1406 274.249,642.1406 Q273.874,642.1406 273.6396,641.875 Q273.4053,641.6094 273.4053,641 L273.4053,639.3906 L271.5303,639.3906 Z " fill="#000000"/><text fill="#000000" font-family="sans-serif" font-size="14" lengthAdjust="spacing" textLength="87.1582" x="291.1084" y="647.7969">dataset_items</text><line style="stroke:#181818;stroke-width:0.5;" x1="204.5" x2="432.375" y1="658" y2="658"/><text fill="#000000" font-family="sans-serif" font-size="14" lengthAdjust="spacing" textLength="56.7861" x="209.5" y="677.1074">id : UUID</text><text fill="#000000" font-family="sans-serif" font-size="14" lengthAdjust="spacing" textLength="106.5928" x="209.5" y="695.7285">project_id : UUID</text><text fill="#000000" font-family="sans-serif" font-size="14" lengthAdjust="spacing" textLength="82.4688" x="209.5" y="714.3496">name : TEXT</text><text fill="#000000" font-family="sans-serif" font-size="14" lengthAdjust="spacing" textLength="87.124" x="209.5" y="732.9707">format : TEXT</text><text fill="#000000" font-family="sans-serif" font-size="14" lengthAdjust="spacing" textLength="106.5791" x="209.5" y="751.5918">width : INTEGER</text><text fill="#000000" font-family="sans-serif" font-size="14" lengthAdjust="spacing" textLength="112.041" x="209.5" y="770.2129">height : INTEGER</text><text fill="#000000" font-family="sans-serif" font-size="14" lengthAdjust="spacing" textLength="98.793" x="209.5" y="788.834">size : INTEGER</text><text fill="#000000" font-family="sans-serif" font-size="14" lengthAdjust="spacing" textLength="149.4336" x="209.5" y="807.4551">annotation_data : JSON</text><text fill="#000000" font-family="sans-serif" font-size="14" lengthAdjust="spacing" textLength="170.4063" x="209.5" y="826.0762">user_reviewed : BOOLEAN</text><text fill="#000000" font-family="sans-serif" font-size="14" lengthAdjust="spacing" textLength="171.1924" x="209.5" y="844.6973">prediction_model_id : UUID</text><text fill="#000000" font-family="sans-serif" font-size="14" lengthAdjust="spacing" textLength="106.5928" x="209.5" y="863.3184">source_id : UUID</text><text fill="#000000" font-family="sans-serif" font-size="14" lengthAdjust="spacing" textLength="88.6963" x="209.5" y="881.9395">subset : TEXT</text><text fill="#000000" font-family="sans-serif" font-size="14" lengthAdjust="spacing" textLength="217.875" x="209.5" y="900.5605">subset_assigned_at : TIMESTAMP</text><line style="stroke:#181818;stroke-width:0.5;" x1="204.5" x2="432.375" y1="908.0742" y2="908.0742"/></g><!--class dataset_items_tags--><g class="entity" data-entity="dataset_items_tags" data-source-line="19" data-uid="ent0003" id="entity_dataset_items_tags"><rect fill="#F1F1F1" height="85.2422" rx="2.5" ry="2.5" style="stroke:#181818;stroke-width:0.5;" width="156.7305" x="7" y="1037.5"/><ellipse cx="23.4959" cy="1053.5" fill="#FFAAAA" rx="11" ry="11" style="stroke:#181818;stroke-width:1;"/><path d="M24.4178,1050.8906 L24.4178,1057.5469 L25.574,1057.5469 Q26.1834,1057.5469 26.4334,1057.7813 Q26.699,1058.0156 26.699,1058.4063 Q26.699,1058.7813 26.4334,1059.0156 Q26.1834,1059.25 25.574,1059.25 L21.5896,1059.25 Q20.9646,1059.25 20.699,1059.0156 Q20.449,1058.7813 20.449,1058.3906 Q20.449,1058.0156 20.699,1057.7813 Q20.9646,1057.5469 21.5896,1057.5469 L22.7146,1057.5469 L22.7146,1050.8906 L20.8709,1050.8906 L20.8709,1052.5 Q20.8709,1053.1094 20.6365,1053.375 Q20.4021,1053.6406 20.0271,1053.6406 Q19.6521,1053.6406 19.4178,1053.375 Q19.1834,1053.1094 19.1834,1052.5 L19.1834,1049.1875 L27.9959,1049.1875 L27.9959,1052.5 Q27.9959,1053.1094 27.7459,1053.375 Q27.5115,1053.6406 27.1365,1053.6406 Q26.7615,1053.6406 26.5271,1053.375 Q26.2928,1053.1094 26.2928,1052.5 L26.2928,1050.8906 L24.4178,1050.8906 Z " fill="#000000"/><text fill="#000000" font-family="sans-serif" font-size="14" lengthAdjust="spacing" textLength="121.4063" x="37.8283" y="1059.2969">dataset_items_tags</text><line style="stroke:#181818;stroke-width:0.5;" x1="8" x2="162.7305" y1="1069.5" y2="1069.5"/><text fill="#000000" font-family="sans-serif" font-size="14" lengthAdjust="spacing" textLength="144.7305" x="13" y="1088.6074">dataset_item_id : UUID</text><text fill="#000000" font-family="sans-serif" font-size="14" lengthAdjust="spacing" textLength="66.9102" x="13" y="1107.2285">tag : TEXT</text><line style="stroke:#181818;stroke-width:0.5;" x1="8" x2="162.7305" y1="1114.7422" y2="1114.7422"/></g><!--class dataset_views--><g class="entity" data-entity="dataset_views" data-source-line="26" data-uid="ent0005" id="entity_dataset_views"><rect fill="#F1F1F1" height="85.2422" rx="2.5" ry="2.5" style="stroke:#181818;stroke-width:0.5;" width="120.7168" x="341" y="213"/><ellipse cx="356" cy="229" fill="#FFAAAA" rx="11" ry="11" style="stroke:#181818;stroke-width:1;"/><path d="M356.9219,226.3906 L356.9219,233.0469 L358.0781,233.0469 Q358.6875,233.0469 358.9375,233.2813 Q359.2031,233.5156 359.2031,233.9063 Q359.2031,234.2813 358.9375,234.5156 Q358.6875,234.75 358.0781,234.75 L354.0938,234.75 Q353.4688,234.75 353.2031,234.5156 Q352.9531,234.2813 352.9531,233.8906 Q352.9531,233.5156 353.2031,233.2813 Q353.4688,233.0469 354.0938,233.0469 L355.2188,233.0469 L355.2188,226.3906 L353.375,226.3906 L353.375,228 Q353.375,228.6094 353.1406,228.875 Q352.9063,229.1406 352.5313,229.1406 Q352.1563,229.1406 351.9219,228.875 Q351.6875,228.6094 351.6875,228 L351.6875,224.6875 L360.5,224.6875 L360.5,228 Q360.5,228.6094 360.25,228.875 Q360.0156,229.1406 359.6406,229.1406 Q359.2656,229.1406 359.0313,228.875 Q358.7969,228.6094 358.7969,228 L358.7969,226.3906 L356.9219,226.3906 Z " fill="#000000"/><text fill="#000000" font-family="sans-serif" font-size="14" lengthAdjust="spacing" textLength="88.7168" x="370" y="234.7969">dataset_views</text><line style="stroke:#181818;stroke-width:0.5;" x1="342" x2="460.7168" y1="245" y2="245"/><text fill="#000000" font-family="sans-serif" font-size="14" lengthAdjust="spacing" textLength="56.7861" x="347" y="264.1074">id : UUID</text><text fill="#000000" font-family="sans-serif" font-size="14" lengthAdjust="spacing" textLength="82.4688" x="347" y="282.7285">name : TEXT</text><line style="stroke:#181818;stroke-width:0.5;" x1="342" x2="460.7168" y1="290.2422" y2="290.2422"/></g><!--class dataset_views_items--><g class="entity" data-entity="dataset_views_items" data-source-line="31" data-uid="ent0006" id="entity_dataset_views_items"><rect fill="#F1F1F1" height="85.2422" rx="2.5" ry="2.5" style="stroke:#181818;stroke-width:0.5;" width="161.9512" x="320.5" y="419.5"/><ellipse cx="335.5" cy="435.5" fill="#FFAAAA" rx="11" ry="11" style="stroke:#181818;stroke-width:1;"/><path d="M336.4219,432.8906 L336.4219,439.5469 L337.5781,439.5469 Q338.1875,439.5469 338.4375,439.7813 Q338.7031,440.0156 338.7031,440.4063 Q338.7031,440.7813 338.4375,441.0156 Q338.1875,441.25 337.5781,441.25 L333.5938,441.25 Q332.9688,441.25 332.7031,441.0156 Q332.4531,440.7813 332.4531,440.3906 Q332.4531,440.0156 332.7031,439.7813 Q332.9688,439.5469 333.5938,439.5469 L334.7188,439.5469 L334.7188,432.8906 L332.875,432.8906 L332.875,434.5 Q332.875,435.1094 332.6406,435.375 Q332.4063,435.6406 332.0313,435.6406 Q331.6563,435.6406 331.4219,435.375 Q331.1875,435.1094 331.1875,434.5 L331.1875,431.1875 L340,431.1875 L340,434.5 Q340,435.1094 339.75,435.375 Q339.5156,435.6406 339.1406,435.6406 Q338.7656,435.6406 338.5313,435.375 Q338.2969,435.1094 338.2969,434.5 L338.2969,432.8906 L336.4219,432.8906 Z " fill="#000000"/><text fill="#000000" font-family="sans-serif" font-size="14" lengthAdjust="spacing" textLength="129.9512" x="349.5" y="441.2969">dataset_views_items</text><line style="stroke:#181818;stroke-width:0.5;" x1="321.5" x2="481.4512" y1="451.5" y2="451.5"/><text fill="#000000" font-family="sans-serif" font-size="14" lengthAdjust="spacing" textLength="146.2891" x="326.5" y="470.6074">dataset_view_id : UUID</text><text fill="#000000" font-family="sans-serif" font-size="14" lengthAdjust="spacing" textLength="144.7305" x="326.5" y="489.2285">dataset_item_id : UUID</text><line style="stroke:#181818;stroke-width:0.5;" x1="321.5" x2="481.4512" y1="496.7422" y2="496.7422"/></g><!--class dataset_revisions--><g class="entity" data-entity="dataset_revisions" data-source-line="40" data-uid="ent0009" id="entity_dataset_revisions"><rect fill="#F1F1F1" height="85.2422" rx="2.5" ry="2.5" style="stroke:#181818;stroke-width:0.5;" width="169.9717" x="586.5" y="213"/><ellipse cx="614.5592" cy="229" fill="#FFAAAA" rx="11" ry="11" style="stroke:#181818;stroke-width:1;"/><path d="M615.4811,226.3906 L615.4811,233.0469 L616.6374,233.0469 Q617.2467,233.0469 617.4967,233.2813 Q617.7624,233.5156 617.7624,233.9063 Q617.7624,234.2813 617.4967,234.5156 Q617.2467,234.75 616.6374,234.75 L612.653,234.75 Q612.028,234.75 611.7624,234.5156 Q611.5124,234.2813 611.5124,233.8906 Q611.5124,233.5156 611.7624,233.2813 Q612.028,233.0469 612.653,233.0469 L613.778,233.0469 L613.778,226.3906 L611.9342,226.3906 L611.9342,228 Q611.9342,228.6094 611.6999,228.875 Q611.4655,229.1406 611.0905,229.1406 Q610.7155,229.1406 610.4811,228.875 Q610.2467,228.6094 610.2467,228 L610.2467,224.6875 L619.0592,224.6875 L619.0592,228 Q619.0592,228.6094 618.8092,228.875 Q618.5749,229.1406 618.1999,229.1406 Q617.8249,229.1406 617.5905,228.875 Q617.3561,228.6094 617.3561,228 L617.3561,226.3906 L615.4811,226.3906 Z " fill="#000000"/><text fill="#000000" font-family="sans-serif" font-size="14" lengthAdjust="spacing" textLength="108.9512" x="631.4613" y="234.7969">dataset_revisions</text><line style="stroke:#181818;stroke-width:0.5;" x1="587.5" x2="755.4717" y1="245" y2="245"/><text fill="#000000" font-family="sans-serif" font-size="14" lengthAdjust="spacing" textLength="106.5928" x="592.5" y="264.1074">project_id : UUID</text><text fill="#000000" font-family="sans-serif" font-size="14" lengthAdjust="spacing" textLength="157.9717" x="592.5" y="282.7285">files_deleted : BOOLEAN</text><line style="stroke:#181818;stroke-width:0.5;" x1="587.5" x2="755.4717" y1="290.2422" y2="290.2422"/></g><g class="entity" data-entity="MediaBinary" data-source-line="45" data-uid="ent0010" id="entity_MediaBinary"><rect fill="#F1F1F1" height="86.4844" rx="2.5" ry="2.5" style="stroke:#181818;stroke-width:0.5;" width="237.6953" x="199.5" y="1037"/><text fill="#000000" font-family="sans-serif" font-size="14" lengthAdjust="spacing" textLength="77.8135" x="279.4409" y="1054.1074">MediaBinary</text><line style="stroke:#181818;stroke-width:0.5;" x1="200.5" x2="436.1953" y1="1059.6211" y2="1059.6211"/><text fill="#000000" font-family="sans-serif" font-size="14" font-style="italic" lengthAdjust="spacing" textLength="39.6758" x="205.5" y="1078.7285">format</text><text fill="#000000" font-family="sans-serif" font-size="14" lengthAdjust="spacing" textLength="61.4893" x="249.0654" y="1078.7285">: jpg / png</text><text fill="#000000" font-family="sans-serif" font-size="14" font-style="italic" lengthAdjust="spacing" textLength="34.2344" x="205.5" y="1097.3496">prefix</text><text fill="#000000" font-family="sans-serif" font-size="14" lengthAdjust="spacing" textLength="184.4473" x="243.624" y="1097.3496">: projects/{project_id}/dataset/</text><text fill="#000000" font-family="sans-serif" font-size="14" font-style="italic" lengthAdjust="spacing" textLength="52.917" x="205.5" y="1115.9707">filename</text><text fill="#000000" font-family="sans-serif" font-size="14" lengthAdjust="spacing" textLength="168.8887" x="262.3066" y="1115.9707">: {dataset_item_id}.{format}</text></g><g class="entity" data-entity="MediaThumbnail" data-source-line="51" data-uid="ent0011" id="entity_MediaThumbnail"><rect fill="#F1F1F1" height="86.4844" rx="2.5" ry="2.5" style="stroke:#181818;stroke-width:0.5;" width="250.9229" x="473" y="1037"/><text fill="#000000" font-family="sans-serif" font-size="14" lengthAdjust="spacing" textLength="103.4961" x="546.7134" y="1054.1074">MediaThumbnail</text><line style="stroke:#181818;stroke-width:0.5;" x1="474" x2="722.9229" y1="1059.6211" y2="1059.6211"/><text fill="#000000" font-family="sans-serif" font-size="14" font-style="italic" lengthAdjust="spacing" textLength="39.6758" x="479" y="1078.7285">format</text><text fill="#000000" font-family="sans-serif" font-size="14" lengthAdjust="spacing" textLength="26.4619" x="522.5654" y="1078.7285">: jpg</text><text fill="#000000" font-family="sans-serif" font-size="14" font-style="italic" lengthAdjust="spacing" textLength="34.2344" x="479" y="1097.3496">prefix</text><text fill="#000000" font-family="sans-serif" font-size="14" lengthAdjust="spacing" textLength="184.4473" x="517.124" y="1097.3496">: projects/{project_id}/dataset/</text><text fill="#000000" font-family="sans-serif" font-size="14" font-style="italic" lengthAdjust="spacing" textLength="52.917" x="479" y="1115.9707">filename</text><text fill="#000000" font-family="sans-serif" font-size="14" lengthAdjust="spacing" textLength="182.1162" x="535.8066" y="1115.9707">: {dataset_item_id}-thumb.jpg</text></g><g class="entity" data-entity="DatasetRevision" data-source-line="57" data-uid="ent0012" id="entity_DatasetRevision"><rect fill="#F1F1F1" height="86.4844" rx="2.5" ry="2.5" style="stroke:#181818;stroke-width:0.5;" width="377.7637" x="517.5" y="419"/><text fill="#000000" font-family="sans-serif" font-size="14" lengthAdjust="spacing" textLength="101.9375" x="655.4131" y="436.1074">DatasetRevision</text><line style="stroke:#181818;stroke-width:0.5;" x1="518.5" x2="894.2637" y1="441.6211" y2="441.6211"/><text fill="#000000" font-family="sans-serif" font-size="14" font-style="italic" lengthAdjust="spacing" textLength="39.6758" x="523.5" y="460.7285">format</text><text fill="#000000" font-family="sans-serif" font-size="14" lengthAdjust="spacing" textLength="42.7861" x="567.0654" y="460.7285">: arrow</text><text fill="#000000" font-family="sans-serif" font-size="14" font-style="italic" lengthAdjust="spacing" textLength="34.2344" x="523.5" y="479.3496">prefix</text><text fill="#000000" font-family="sans-serif" font-size="14" lengthAdjust="spacing" textLength="327.6396" x="561.624" y="479.3496">: projects/{project_id}/dataset_revisions/{revision_id}/</text><text fill="#000000" font-family="sans-serif" font-size="14" font-style="italic" lengthAdjust="spacing" textLength="52.917" x="523.5" y="497.9707">filename</text><text fill="#000000" font-family="sans-serif" font-size="14" lengthAdjust="spacing" textLength="123.7305" x="580.3066" y="497.9707">: &lt;shard_idx&gt;.arrow</text></g><!--class projects--><g class="entity" data-entity="projects" data-source-line="70" data-uid="ent0016" id="entity_projects"><rect fill="#F1F1F1" height="66.6211" rx="2.5" ry="2.5" style="stroke:#181818;stroke-width:0.5;" width="81.0205" x="361" y="16"/><ellipse cx="376" cy="32" fill="#CCCCCC" rx="11" ry="11" style="stroke:#181818;stroke-width:1;"/><path d="M376.9219,29.3906 L376.9219,36.0469 L378.0781,36.0469 Q378.6875,36.0469 378.9375,36.2813 Q379.2031,36.5156 379.2031,36.9063 Q379.2031,37.2813 378.9375,37.5156 Q378.6875,37.75 378.0781,37.75 L374.0938,37.75 Q373.4688,37.75 373.2031,37.5156 Q372.9531,37.2813 372.9531,36.8906 Q372.9531,36.5156 373.2031,36.2813 Q373.4688,36.0469 374.0938,36.0469 L375.2188,36.0469 L375.2188,29.3906 L373.375,29.3906 L373.375,31 Q373.375,31.6094 373.1406,31.875 Q372.9063,32.1406 372.5313,32.1406 Q372.1563,32.1406 371.9219,31.875 Q371.6875,31.6094 371.6875,31 L371.6875,27.6875 L380.5,27.6875 L380.5,31 Q380.5,31.6094 380.25,31.875 Q380.0156,32.1406 379.6406,32.1406 Q379.2656,32.1406 379.0313,31.875 Q378.7969,31.6094 378.7969,31 L378.7969,29.3906 L376.9219,29.3906 Z " fill="#000000"/><text fill="#000000" font-family="sans-serif" font-size="14" lengthAdjust="spacing" textLength="49.0205" x="390" y="37.7969">projects</text><line style="stroke:#181818;stroke-width:0.5;" x1="362" x2="441.0205" y1="48" y2="48"/><text fill="#000000" font-family="sans-serif" font-size="14" lengthAdjust="spacing" textLength="56.7861" x="367" y="67.1074">id : UUID</text><line style="stroke:#181818;stroke-width:0.5;" x1="362" x2="441.0205" y1="74.6211" y2="74.6211"/></g><!--class model_revisions--><g class="entity" data-entity="model_revisions" data-source-line="78" data-uid="ent0020" id="entity_model_revisions"><rect fill="#F1F1F1" height="85.2422" rx="2.5" ry="2.5" style="stroke:#181818;stroke-width:0.5;" width="176.1992" x="547.5" y="7"/><ellipse cx="581.8685" cy="23" fill="#CCCCCC" rx="11" ry="11" style="stroke:#181818;stroke-width:1;"/><path d="M582.7903,20.3906 L582.7903,27.0469 L583.9466,27.0469 Q584.556,27.0469 584.806,27.2813 Q585.0716,27.5156 585.0716,27.9063 Q585.0716,28.2813 584.806,28.5156 Q584.556,28.75 583.9466,28.75 L579.9622,28.75 Q579.3372,28.75 579.0716,28.5156 Q578.8216,28.2813 578.8216,27.8906 Q578.8216,27.5156 579.0716,27.2813 Q579.3372,27.0469 579.9622,27.0469 L581.0872,27.0469 L581.0872,20.3906 L579.2435,20.3906 L579.2435,22 Q579.2435,22.6094 579.0091,22.875 Q578.7747,23.1406 578.3997,23.1406 Q578.0247,23.1406 577.7903,22.875 Q577.556,22.6094 577.556,22 L577.556,18.6875 L586.3685,18.6875 L586.3685,22 Q586.3685,22.6094 586.1185,22.875 Q585.8841,23.1406 585.5091,23.1406 Q585.1341,23.1406 584.8997,22.875 Q584.6653,22.6094 584.6653,22 L584.6653,20.3906 L582.7903,20.3906 Z " fill="#000000"/><text fill="#000000" font-family="sans-serif" font-size="14" lengthAdjust="spacing" textLength="101.1582" x="600.1726" y="28.7969">model_revisions</text><line style="stroke:#181818;stroke-width:0.5;" x1="548.5" x2="722.6992" y1="39" y2="39"/><text fill="#000000" font-family="sans-serif" font-size="14" lengthAdjust="spacing" textLength="56.7861" x="553.5" y="58.1074">id : UUID</text><text fill="#000000" font-family="sans-serif" font-size="14" lengthAdjust="spacing" textLength="164.1992" x="553.5" y="76.7285">training_dataset_id : UUID</text><line style="stroke:#181818;stroke-width:0.5;" x1="548.5" x2="722.6992" y1="84.2422" y2="84.2422"/></g><!--class evaluations--><g class="entity" data-entity="evaluations" data-source-line="85" data-uid="ent0022" id="entity_evaluations"><rect fill="#F1F1F1" height="85.2422" rx="2.5" ry="2.5" style="stroke:#181818;stroke-width:0.5;" width="178.5234" x="759" y="7"/><ellipse cx="808.5981" cy="23" fill="#CCCCCC" rx="11" ry="11" style="stroke:#181818;stroke-width:1;"/><path d="M809.52,20.3906 L809.52,27.0469 L810.6763,27.0469 Q811.2856,27.0469 811.5356,27.2813 Q811.8013,27.5156 811.8013,27.9063 Q811.8013,28.2813 811.5356,28.5156 Q811.2856,28.75 810.6763,28.75 L806.6919,28.75 Q806.0669,28.75 805.8013,28.5156 Q805.5513,28.2813 805.5513,27.8906 Q805.5513,27.5156 805.8013,27.2813 Q806.0669,27.0469 806.6919,27.0469 L807.8169,27.0469 L807.8169,20.3906 L805.9731,20.3906 L805.9731,22 Q805.9731,22.6094 805.7388,22.875 Q805.5044,23.1406 805.1294,23.1406 Q804.7544,23.1406 804.52,22.875 Q804.2856,22.6094 804.2856,22 L804.2856,18.6875 L813.0981,18.6875 L813.0981,22 Q813.0981,22.6094 812.8481,22.875 Q812.6138,23.1406 812.2388,23.1406 Q811.8638,23.1406 811.6294,22.875 Q811.395,22.6094 811.395,22 L811.395,20.3906 L809.52,20.3906 Z " fill="#000000"/><text fill="#000000" font-family="sans-serif" font-size="14" lengthAdjust="spacing" textLength="70.8271" x="829.0981" y="28.7969">evaluations</text><line style="stroke:#181818;stroke-width:0.5;" x1="760" x2="936.5234" y1="39" y2="39"/><text fill="#000000" font-family="sans-serif" font-size="14" lengthAdjust="spacing" textLength="56.7861" x="765" y="58.1074">id : UUID</text><text fill="#000000" font-family="sans-serif" font-size="14" lengthAdjust="spacing" textLength="166.5234" x="765" y="76.7285">dataset_revision_id : UUID</text><line style="stroke:#181818;stroke-width:0.5;" x1="760" x2="936.5234" y1="84.2422" y2="84.2422"/></g><!--link dataset_items to dataset_items_tags--><g class="link" data-entity-1="dataset_items" data-entity-2="dataset_items_tags" data-source-line="24" data-uid="lnk4" id="link_dataset_items_dataset_items_tags"><path codeLine="24" d="M204.3242,922.433 C170.6342,966.833 151.8526,991.5823 127.8826,1023.1623" fill="none" id="dataset_items-dataset_items_tags" style="stroke:#181818;stroke-width:1;"/><line style="stroke:#181818;stroke-width:1;" x1="203.5556" x2="209.9286" y1="916.8286" y2="921.6644"/><line style="stroke:#181818;stroke-width:1;" x1="201.7422" x2="208.1152" y1="919.2185" y2="924.0543"/><line style="stroke:#181818;stroke-width:1;" x1="204.3242" x2="209.16" y1="922.433" y2="916.06"/><line style="stroke:#181818;stroke-width:1;" x1="121.8367" x2="121.7792" y1="1031.1277" y2="1041.1275"/><line style="stroke:#181818;stroke-width:1;" x1="121.8367" x2="112.2208" y1="1031.1277" y2="1033.8725"/><line style="stroke:#181818;stroke-width:1;" x1="121.8367" x2="117" y1="1031.1277" y2="1037.5"/><ellipse cx="125.4643" cy="1026.3485" fill="none" rx="4" ry="4" style="stroke:#181818;stroke-width:1;"/></g><!--link dataset_views to dataset_views_items--><g class="link" data-entity-1="dataset_views" data-entity-2="dataset_views_items" data-source-line="36" data-uid="lnk7" id="link_dataset_views_dataset_views_items"><path codeLine="36" d="M401.5,306.38 C401.5,341.67 401.5,365.9 401.5,401.18" fill="none" id="dataset_views-dataset_views_items" style="stroke:#181818;stroke-width:1;"/><line style="stroke:#181818;stroke-width:1;" x1="397.5" x2="405.5" y1="302.38" y2="302.38"/><line style="stroke:#181818;stroke-width:1;" x1="397.5" x2="405.5" y1="305.38" y2="305.38"/><line style="stroke:#181818;stroke-width:1;" x1="401.5" x2="401.5" y1="306.38" y2="298.38"/><line style="stroke:#181818;stroke-width:1;" x1="401.5" x2="407.5" y1="411.18" y2="419.18"/><line style="stroke:#181818;stroke-width:1;" x1="401.5" x2="395.5" y1="411.18" y2="419.18"/><line style="stroke:#181818;stroke-width:1;" x1="401.5" x2="401.5" y1="411.18" y2="419.18"/><ellipse cx="401.5" cy="405.18" fill="none" rx="4" ry="4" style="stroke:#181818;stroke-width:1;"/></g><!--link dataset_views_items to dataset_items--><g class="link" data-entity-1="dataset_views_items" data-entity-2="dataset_items" data-source-line="38" data-uid="lnk8" id="link_dataset_views_items_dataset_items"><path codeLine="38" d="M385.5235,522.0965 C376.9935,553.6565 371.5177,573.8872 359.5477,618.1672" fill="none" id="dataset_views_items-dataset_items" style="stroke:#181818;stroke-width:1;"/><line style="stroke:#181818;stroke-width:1;" x1="388.1327" x2="384.4278" y1="512.4429" y2="503.1545"/><line style="stroke:#181818;stroke-width:1;" x1="388.1327" x2="396.0122" y1="512.4429" y2="506.2855"/><line style="stroke:#181818;stroke-width:1;" x1="388.1327" x2="390.22" y1="512.4429" y2="504.72"/><ellipse cx="386.5672" cy="518.2351" fill="none" rx="4" ry="4" style="stroke:#181818;stroke-width:1;"/><line style="stroke:#181818;stroke-width:1;" x1="362.3652" x2="354.6424" y1="623.0724" y2="620.9848"/><line style="stroke:#181818;stroke-width:1;" x1="363.1481" x2="355.4253" y1="620.1764" y2="618.0887"/><line style="stroke:#181818;stroke-width:1;" x1="359.5477" x2="357.46" y1="618.1672" y2="625.89"/></g><!--link dataset_items to MediaBinary--><g class="link" data-entity-1="dataset_items" data-entity-2="MediaBinary" data-source-line="63" data-uid="lnk13" id="link_dataset_items_MediaBinary"><path codeLine="63" d="M318.5,924.06 C318.5,968.15 318.5,997.28 318.5,1028.83" fill="none" id="dataset_items-MediaBinary" style="stroke:#181818;stroke-width:1;"/><line style="stroke:#181818;stroke-width:1;" x1="314.5" x2="322.5" y1="920.06" y2="920.06"/><line style="stroke:#181818;stroke-width:1;" x1="314.5" x2="322.5" y1="923.06" y2="923.06"/><line style="stroke:#181818;stroke-width:1;" x1="318.5" x2="318.5" y1="924.06" y2="916.06"/><line style="stroke:#181818;stroke-width:1;" x1="322.5" x2="314.5" y1="1032.83" y2="1032.83"/><line style="stroke:#181818;stroke-width:1;" x1="322.5" x2="314.5" y1="1029.83" y2="1029.83"/><line style="stroke:#181818;stroke-width:1;" x1="318.5" x2="318.5" y1="1028.83" y2="1036.83"/></g><!--link dataset_items to MediaThumbnail--><g class="link" data-entity-1="dataset_items" data-entity-2="MediaThumbnail" data-source-line="65" data-uid="lnk14" id="link_dataset_items_MediaThumbnail"><path codeLine="65" d="M438.9909,904.1109 C484.0909,953.5609 521.9698,995.0885 554.6498,1030.9285" fill="none" id="dataset_items-MediaThumbnail" style="stroke:#181818;stroke-width:1;"/><line style="stroke:#181818;stroke-width:1;" x1="433.34" x2="439.2509" y1="903.8509" y2="898.46"/><line style="stroke:#181818;stroke-width:1;" x1="435.3616" x2="441.2725" y1="906.0674" y2="900.6766"/><line style="stroke:#181818;stroke-width:1;" x1="438.9909" x2="433.6" y1="904.1109" y2="898.2"/><line style="stroke:#181818;stroke-width:1;" x1="560.3006" x2="554.3892" y1="1031.1892" y2="1036.5794"/><line style="stroke:#181818;stroke-width:1;" x1="558.2793" x2="552.3678" y1="1028.9724" y2="1034.3626"/><line style="stroke:#181818;stroke-width:1;" x1="554.6498" x2="560.04" y1="1030.9285" y2="1036.84"/></g><!--link dataset_revisions to DatasetRevision--><g class="link" data-entity-1="dataset_revisions" data-entity-2="DatasetRevision" data-source-line="67" data-uid="lnk15" id="link_dataset_revisions_DatasetRevision"><path codeLine="67" d="M680.0197,306.2653 C686.0397,341.4353 691.9015,375.6845 697.9315,410.9445" fill="none" id="dataset_revisions-DatasetRevision" style="stroke:#181818;stroke-width:1;"/><line style="stroke:#181818;stroke-width:1;" x1="675.4022" x2="683.2875" y1="302.9975" y2="301.6478"/><line style="stroke:#181818;stroke-width:1;" x1="675.9083" x2="683.7937" y1="305.9545" y2="304.6048"/><line style="stroke:#181818;stroke-width:1;" x1="680.0197" x2="678.67" y1="306.2653" y2="298.38"/><line style="stroke:#181818;stroke-width:1;" x1="702.5485" x2="694.663" y1="414.213" y2="415.5615"/><line style="stroke:#181818;stroke-width:1;" x1="702.0428" x2="694.1573" y1="411.2559" y2="412.6044"/><line style="stroke:#181818;stroke-width:1;" x1="697.9315" x2="699.28" y1="410.9445" y2="418.83"/></g><!--link projects to dataset_items--><g class="link" data-entity-1="projects" data-entity-2="dataset_items" data-source-line="74" data-uid="lnk17" id="link_projects_dataset_items"><path codeLine="74" d="M356.9003,88.4678 C317.3303,125.5178 267.5,184.58 267.5,254.5 C267.5,254.5 267.5,254.5 267.5,463 C267.5,516.62 271.9239,557.1051 281.3039,608.2651" fill="none" id="projects-dataset_items" style="stroke:#181818;stroke-width:1;"/><line style="stroke:#181818;stroke-width:1;" x1="357.0862" x2="362.554" y1="82.814" y2="88.6538"/><line style="stroke:#181818;stroke-width:1;" x1="354.8963" x2="360.3641" y1="84.8645" y2="90.7042"/><line style="stroke:#181818;stroke-width:1;" x1="356.9003" x2="362.74" y1="88.4678" y2="83"/><line style="stroke:#181818;stroke-width:1;" x1="283.1073" x2="290.4516" y1="618.1012" y2="624.888"/><line style="stroke:#181818;stroke-width:1;" x1="283.1073" x2="278.6484" y1="618.1012" y2="627.052"/><line style="stroke:#181818;stroke-width:1;" x1="283.1073" x2="284.55" y1="618.1012" y2="625.97"/><ellipse cx="282.0252" cy="612.1995" fill="none" rx="4" ry="4" style="stroke:#181818;stroke-width:1;"/></g><!--link projects to dataset_views--><g class="link" data-entity-1="projects" data-entity-2="dataset_views" data-source-line="75" data-uid="lnk18" id="link_projects_dataset_views"><path codeLine="75" d="M401.5,91.28 C401.5,126.53 401.5,156.67 401.5,194.99" fill="none" id="projects-dataset_views" style="stroke:#181818;stroke-width:1;"/><line style="stroke:#181818;stroke-width:1;" x1="397.5" x2="405.5" y1="87.28" y2="87.28"/><line style="stroke:#181818;stroke-width:1;" x1="397.5" x2="405.5" y1="90.28" y2="90.28"/><line style="stroke:#181818;stroke-width:1;" x1="401.5" x2="401.5" y1="91.28" y2="83.28"/><line style="stroke:#181818;stroke-width:1;" x1="401.5" x2="407.5" y1="204.99" y2="212.99"/><line style="stroke:#181818;stroke-width:1;" x1="401.5" x2="395.5" y1="204.99" y2="212.99"/><line style="stroke:#181818;stroke-width:1;" x1="401.5" x2="401.5" y1="204.99" y2="212.99"/><ellipse cx="401.5" cy="198.99" fill="none" rx="4" ry="4" style="stroke:#181818;stroke-width:1;"/></g><!--link projects to dataset_revisions--><g class="link" data-entity-1="projects" data-entity-2="dataset_revisions" data-source-line="76" data-uid="lnk19" id="link_projects_dataset_revisions"><path codeLine="76" d="M448.5933,86.0822 C495.0033,121.1422 550.3478,162.9698 602.0378,202.0198" fill="none" id="projects-dataset_revisions" style="stroke:#181818;stroke-width:1;"/><line style="stroke:#181818;stroke-width:1;" x1="442.9905" x2="447.8127" y1="86.8627" y2="80.4795"/><line style="stroke:#181818;stroke-width:1;" x1="445.3843" x2="450.2065" y1="88.6711" y2="82.2878"/><line style="stroke:#181818;stroke-width:1;" x1="448.5933" x2="442.21" y1="86.0822" y2="81.26"/><line style="stroke:#181818;stroke-width:1;" x1="610.0168" x2="620.0167" y1="208.0477" y2="208.0826"/><line style="stroke:#181818;stroke-width:1;" x1="610.0168" x2="612.7833" y1="208.0477" y2="217.6574"/><line style="stroke:#181818;stroke-width:1;" x1="610.0168" x2="616.4" y1="208.0477" y2="212.87"/><ellipse cx="605.2294" cy="204.431" fill="none" rx="4" ry="4" style="stroke:#181818;stroke-width:1;"/></g><!--link model_revisions to dataset_revisions--><g class="link" data-entity-1="model_revisions" data-entity-2="dataset_revisions" data-source-line="83" data-uid="lnk21" id="link_model_revisions_dataset_revisions"><path codeLine="83" d="M645.4753,107.042 C651.6853,142.252 656.5397,169.7117 662.7497,204.9017" fill="none" id="model_revisions-dataset_revisions" style="stroke:#181818;stroke-width:1;"/><line style="stroke:#181818;stroke-width:1;" x1="644.7806" x2="642.87" y1="103.1028" y2="92.27"/><ellipse cx="644.7806" cy="103.1028" fill="none" rx="4" ry="4" style="stroke:#181818;stroke-width:1;"/><line style="stroke:#181818;stroke-width:1;" x1="639.6256" x2="647.504" y1="96.904" y2="95.5144"/><line style="stroke:#181818;stroke-width:1;" x1="667.384" x2="659.5057" y1="208.1457" y2="209.536"/><line style="stroke:#181818;stroke-width:1;" x1="666.8626" x2="658.9844" y1="205.1914" y2="206.5817"/><line style="stroke:#181818;stroke-width:1;" x1="662.7497" x2="664.14" y1="204.9017" y2="212.78"/></g><!--link evaluations to dataset_revisions--><g class="link" data-entity-1="evaluations" data-entity-2="dataset_revisions" data-source-line="90" data-uid="lnk23" id="link_evaluations_dataset_revisions"><path codeLine="90" d="M802.4215,103.6014 C771.8815,138.8114 743.4726,171.5472 712.9426,206.7372" fill="none" id="evaluations-dataset_revisions" style="stroke:#181818;stroke-width:1;"/><line style="stroke:#181818;stroke-width:1;" x1="805.0424" x2="812.25" y1="100.5797" y2="92.27"/><ellipse cx="805.0424" cy="100.5797" fill="none" rx="4" ry="4" style="stroke:#181818;stroke-width:1;"/><line style="stroke:#181818;stroke-width:1;" x1="806.6074" x2="812.6508" y1="92.6708" y2="97.9126"/><line style="stroke:#181818;stroke-width:1;" x1="713.3427" x2="707.2999" y1="212.3799" y2="207.1373"/><line style="stroke:#181818;stroke-width:1;" x1="715.3087" x2="709.2659" y1="210.1138" y2="204.8713"/><line style="stroke:#181818;stroke-width:1;" x1="712.9426" x2="707.7" y1="206.7372" y2="212.78"/></g><!--SRC=[jLHDRwCm4BtpAopjeQsqXFiA8QLRMcMrILOfbVQ6dE20Mx0ZspJD4lxx3c02k51r3yi9UpxUcvddkK9tM659b2r8YXM9aCBRb4Xhbs8fKTGOGwf89f7heklWwvVx-pbyDyZpK64XH2Fq3JqzBUxW_o3uCzc1V- -EuOp0AV1_1t3QSv5XrPsFD58971Uhm7_mDt2J41edQd0bwHyokC2CSOKLvIoiA8Bjn-Dw1OPS4X4Ayah9aLGSRjVhd_vyLLCZ4TtL8HcFI3hWA7akTcHubM-XyeveSmwXApHc90gR8XPB_p6OBtzPfJNMib3XUAflVSS1CiIqi91rE8BpsRPjNeoWcFXL2pupilvuoj4a7qw_xpceOgAyNaKDGxEY7gJXgdcK70BEvs4BJEAL12JCUehsc53t58GVWZI86cW7AFDjvOsM825yInaMfpgBIxr6pwv3FOXuFiJ8GGSMDpQGt9w-QPj6b4xHOPUEvklePC2WceSEAOmUbhEYWIjDJa6IPrk6QJf5wpyHibK5FAi0EaPwespq24OfOI7uyLz9TLDrYlQtje-ITMM2HGJsDs_Mm8s_9f1IRwuVkbpQt7brGcizZV8jwmfjz6vbdDawKEzPTCrPUggs8cmzXbx8ITveARUjQ1NylVv6tZ2KTV4TtG_JvlfTJPilnRNFgzcSxnxN93LOPW9JHbaSNXZrUPlvpiRRVaU0lE8qhnV_Py3DD4FmVgvfuBy0]--></g></svg>