<svg xmlns="http://www.w3.org/2000/svg" xmlns:xlink="http://www.w3.org/1999/xlink" contentStyleType="text/css" data-diagram-type="CLASS" height="512px" preserveAspectRatio="none" style="width:280px;height:512px;background:#FFFFFF;" version="1.1" viewBox="0 0 280 512" width="280px" zoomAndPan="magnify"><title>&lt;size:16&gt;&lt;b&gt;Geti Tune - Labels&lt;/b&gt;&lt;/size&gt;</title><defs/><g><g class="title" data-source-line="5"><text fill="#000000" font-family="sans-serif" font-size="16" font-weight="bold" lengthAdjust="spacing" textLength="138.6875" x="63.8696" y="27.2656">Geti Tune - Labels</text><text fill="#000000" font-family="sans-serif" font-size="12" font-weight="bold" lengthAdjust="spacing" textLength="58.6816" x="103.8726" y="44.2305">DB Tables</text></g><!--class projects--><g class="entity" data-entity="projects" data-source-line="12" data-uid="ent0002" id="entity_projects"><rect fill="#F1F1F1" height="141.1055" rx="2.5" ry="2.5" style="stroke:#181818;stroke-width:0.5;" width="266.4268" x="7" y="65.2422"/><ellipse cx="111.4531" cy="81.2422" fill="#FFAAAA" rx="11" ry="11" style="stroke:#181818;stroke-width:1;"/><path d="M112.375,78.6328 L112.375,85.2891 L113.5313,85.2891 Q114.1406,85.2891 114.3906,85.5234 Q114.6563,85.7578 114.6563,86.1484 Q114.6563,86.5234 114.3906,86.7578 Q114.1406,86.9922 113.5313,86.9922 L109.5469,86.9922 Q108.9219,86.9922 108.6563,86.7578 Q108.4063,86.5234 108.4063,86.1328 Q108.4063,85.7578 108.6563,85.5234 Q108.9219,85.2891 109.5469,85.2891 L110.6719,85.2891 L110.6719,78.6328 L108.8281,78.6328 L108.8281,80.2422 Q108.8281,80.8516 108.5938,81.1172 Q108.3594,81.3828 107.9844,81.3828 Q107.6094,81.3828 107.375,81.1172 Q107.1406,80.8516 107.1406,80.2422 L107.1406,76.9297 L115.9531,76.9297 L115.9531,80.2422 Q115.9531,80.8516 115.7031,81.1172 Q115.4688,81.3828 115.0938,81.3828 Q114.7188,81.3828 114.4844,81.1172 Q114.25,80.8516 114.25,80.2422 L114.25,78.6328 L112.375,78.6328 Z " fill="#000000"/><text fill="#000000" font-family="sans-serif" font-size="14" lengthAdjust="spacing" textLength="49.0205" x="131.9531" y="87.0391">projects</text><line style="stroke:#181818;stroke-width:0.5;" x1="8" x2="272.4268" y1="97.2422" y2="97.2422"/><text fill="#000000" font-family="sans-serif" font-size="14" lengthAdjust="spacing" text-decoration="underline" textLength="10.8965" x="13" y="116.3496">id</text><text fill="#000000" font-family="sans-serif" font-size="14" lengthAdjust="spacing" textLength="42" x="27.7861" y="116.3496">: UUID</text><text fill="#000000" font-family="sans-serif" font-size="14" lengthAdjust="spacing" textLength="155.5928" x="13" y="134.9707">name : TEXT NOT NULL</text><text fill="#000000" font-family="sans-serif" font-size="14" lengthAdjust="spacing" textLength="11.6689" x="13" y="153.5918">...</text><line style="stroke:#181818;stroke-width:1;" x1="8" x2="272.4268" y1="161.1055" y2="161.1055"/><text fill="#000000" font-family="sans-serif" font-size="14" lengthAdjust="spacing" textLength="180.4961" x="13" y="180.2129">task_type : TEXT NOT NULL</text><text fill="#000000" font-family="sans-serif" font-size="14" lengthAdjust="spacing" textLength="254.4268" x="13" y="198.834">exclusive_labels : BOOLEAN NOT NULL</text></g><!--class labels--><g class="entity" data-entity="labels" data-source-line="22" data-uid="ent0003" id="entity_labels"><rect fill="#F1F1F1" height="178.3477" rx="2.5" ry="2.5" style="stroke:#181818;stroke-width:0.5;" width="248.5303" x="15.5" y="327.2422"/><ellipse cx="117.2256" cy="343.2422" fill="#FFAAAA" rx="11" ry="11" style="stroke:#181818;stroke-width:1;"/><path d="M118.1475,340.6328 L118.1475,347.2891 L119.3037,347.2891 Q119.9131,347.2891 120.1631,347.5234 Q120.4287,347.7578 120.4287,348.1484 Q120.4287,348.5234 120.1631,348.7578 Q119.9131,348.9922 119.3037,348.9922 L115.3193,348.9922 Q114.6943,348.9922 114.4287,348.7578 Q114.1787,348.5234 114.1787,348.1328 Q114.1787,347.7578 114.4287,347.5234 Q114.6943,347.2891 115.3193,347.2891 L116.4443,347.2891 L116.4443,340.6328 L114.6006,340.6328 L114.6006,342.2422 Q114.6006,342.8516 114.3662,343.1172 Q114.1318,343.3828 113.7568,343.3828 Q113.3818,343.3828 113.1475,343.1172 Q112.9131,342.8516 112.9131,342.2422 L112.9131,338.9297 L121.7256,338.9297 L121.7256,342.2422 Q121.7256,342.8516 121.4756,343.1172 Q121.2412,343.3828 120.8662,343.3828 Q120.4912,343.3828 120.2568,343.1172 Q120.0225,342.8516 120.0225,342.2422 L120.0225,340.6328 L118.1475,340.6328 Z " fill="#000000"/><text fill="#000000" font-family="sans-serif" font-size="14" lengthAdjust="spacing" textLength="36.5791" x="137.7256" y="349.0391">labels</text><line style="stroke:#181818;stroke-width:0.5;" x1="16.5" x2="263.0303" y1="359.2422" y2="359.2422"/><text fill="#000000" font-family="sans-serif" font-size="14" lengthAdjust="spacing" text-decoration="underline" textLength="10.8965" x="21.5" y="378.3496">id</text><text fill="#000000" font-family="sans-serif" font-size="14" lengthAdjust="spacing" textLength="42" x="36.2861" y="378.3496">: UUID</text><text fill="#000000" font-family="sans-serif" font-size="14" lengthAdjust="spacing" textLength="155.5928" x="21.5" y="396.9707">name : TEXT NOT NULL</text><text fill="#000000" font-family="sans-serif" font-size="14" font-style="italic" lengthAdjust="spacing" textLength="60.7031" x="21.5" y="415.5918">project_id</text><text fill="#000000" font-family="sans-serif" font-size="14" lengthAdjust="spacing" textLength="115.124" x="86.0928" y="415.5918">: UUID NOT NULL</text><text fill="#000000" font-family="sans-serif" font-size="14" lengthAdjust="spacing" textLength="232.6201" x="21.5" y="434.2129">created_at : TIMESTAMP NOT NULL</text><text fill="#000000" font-family="sans-serif" font-size="14" lengthAdjust="spacing" textLength="236.5303" x="21.5" y="452.834">updated_at : TIMESTAMP NOT NULL</text><line style="stroke:#181818;stroke-width:1;" x1="16.5" x2="263.0303" y1="460.3477" y2="460.3477"/><text fill="#000000" font-family="sans-serif" font-size="14" lengthAdjust="spacing" textLength="77.793" x="21.5" y="479.4551">color : TEXT</text><text fill="#000000" font-family="sans-serif" font-size="14" lengthAdjust="spacing" textLength="88.6963" x="21.5" y="498.0762">hotkey : TEXT</text></g><!--link projects to labels--><g class="link" data-entity-1="projects" data-entity-2="labels" data-source-line="35" data-uid="lnk4" id="link_projects_labels"><path codeLine="35" d="M140,214.3022 C140,250.8722 140,280.0922 140,319.0922" fill="none" id="projects-labels" style="stroke:#181818;stroke-width:1;"/><line style="stroke:#181818;stroke-width:1;" x1="136" x2="144" y1="210.3022" y2="210.3022"/><line style="stroke:#181818;stroke-width:1;" x1="136" x2="144" y1="213.3022" y2="213.3022"/><line style="stroke:#181818;stroke-width:1;" x1="140" x2="140" y1="214.3022" y2="206.3022"/><line style="stroke:#181818;stroke-width:1;" x1="140" x2="146" y1="319.0922" y2="327.0922"/><line style="stroke:#181818;stroke-width:1;" x1="140" x2="134" y1="319.0922" y2="327.0922"/><line style="stroke:#181818;stroke-width:1;" x1="140" x2="140" y1="319.0922" y2="327.0922"/><line style="stroke:#181818;stroke-width:1;" x1="144" x2="136" y1="317.0922" y2="317.0922"/></g><!--SRC=[bP5VQy8m5CNVyockx44BgsLxs8E4WA8EeUhOMl2jzCyLCxEsDEceqttttLYBFWp60WdSarzkpabw6MvbZc3YHE6WSI1LiTRG0ESm2ExlvlCn3GU4OBqBMkujnslHSA- -ojjMbbQMWZ4ZZKB6jVp2qSEJu8buHYCXg8brmOyJL9fxYU2UHKH7Fehf10BhHdSxc6VGTcFzTeUwd_sMLV6EgT4E71bOOp9pO0HXk9XIdSSVI5KmsmImMjCCVP_auN18g-lIGktqtgrGnGOpoD34KcdI3ScHEPI_7SScLRMMdnYfSmP29kkrFnklhjHtPx15_cMFtl4IAxhYjq1QeRKRnSQUNYndRy5u-N9Br6Ns1-6sySE55sw0hYknCX9jzBHGHNMnHUMkC7iyT3NbwiEhVIvPv7edIyswBu3JYPgUZj16PZy0]--></g></svg>