<svg xmlns="http://www.w3.org/2000/svg" xmlns:xlink="http://www.w3.org/1999/xlink" contentStyleType="text/css" data-diagram-type="CLASS" height="1510px" preserveAspectRatio="none" style="width:901px;height:1510px;background:#FFFFFF;" version="1.1" viewBox="0 0 901 1510" width="901px" zoomAndPan="magnify"><defs/><g><!--class media--><g class="entity" data-entity="media" data-source-line="4" data-uid="ent0002" id="entity_media"><rect fill="#F1F1F1" height="260.832" rx="2.5" ry="2.5" style="stroke:#181818;stroke-width:0.5;" width="170.7168" x="110.5" y="1018"/><ellipse cx="172.543" cy="1034" fill="#FFAAAA" rx="11" ry="11" style="stroke:#181818;stroke-width:1;"/><path d="M173.4648,1031.3906 L173.4648,1038.0469 L174.6211,1038.0469 Q175.2305,1038.0469 175.4805,1038.2813 Q175.7461,1038.5156 175.7461,1038.9063 Q175.7461,1039.2813 175.4805,1039.5156 Q175.2305,1039.75 174.6211,1039.75 L170.6367,1039.75 Q170.0117,1039.75 169.7461,1039.5156 Q169.4961,1039.2813 169.4961,1038.8906 Q169.4961,1038.5156 169.7461,1038.2813 Q170.0117,1038.0469 170.6367,1038.0469 L171.7617,1038.0469 L171.7617,1031.3906 L169.918,1031.3906 L169.918,1033 Q169.918,1033.6094 169.6836,1033.875 Q169.4492,1034.1406 169.0742,1034.1406 Q168.6992,1034.1406 168.4648,1033.875 Q168.2305,1033.6094 168.2305,1033 L168.2305,1029.6875 L177.043,1029.6875 L177.043,1033 Q177.043,1033.6094 176.793,1033.875 Q176.5586,1034.1406 176.1836,1034.1406 Q175.8086,1034.1406 175.5742,1033.875 Q175.3398,1033.6094 175.3398,1033 L175.3398,1031.3906 L173.4648,1031.3906 Z " fill="#000000"/><text fill="#000000" font-family="sans-serif" font-size="14" lengthAdjust="spacing" textLength="38.1309" x="193.043" y="1039.7969">media</text><line style="stroke:#181818;stroke-width:0.5;" x1="111.5" x2="280.2168" y1="1050" y2="1050"/><text fill="#000000" font-family="sans-serif" font-size="14" lengthAdjust="spacing" textLength="56.7861" x="116.5" y="1069.1074">id : UUID</text><text fill="#000000" font-family="sans-serif" font-size="14" lengthAdjust="spacing" textLength="106.5928" x="116.5" y="1087.7285">project_id : UUID</text><text fill="#000000" font-family="sans-serif" font-size="14" lengthAdjust="spacing" textLength="73.9102" x="116.5" y="1106.3496">type : TEXT</text><text fill="#000000" font-family="sans-serif" font-size="14" lengthAdjust="spacing" textLength="82.4688" x="116.5" y="1124.9707">name : TEXT</text><text fill="#000000" font-family="sans-serif" font-size="14" lengthAdjust="spacing" textLength="87.124" x="116.5" y="1143.5918">format : TEXT</text><text fill="#000000" font-family="sans-serif" font-size="14" lengthAdjust="spacing" textLength="106.5791" x="116.5" y="1162.2129">width : INTEGER</text><text fill="#000000" font-family="sans-serif" font-size="14" lengthAdjust="spacing" textLength="112.041" x="116.5" y="1180.834">height : INTEGER</text><text fill="#000000" font-family="sans-serif" font-size="14" lengthAdjust="spacing" textLength="98.793" x="116.5" y="1199.4551">size : INTEGER</text><line style="stroke:#181818;stroke-width:1;" x1="111.5" x2="280.2168" y1="1206.9688" y2="1206.9688"/><text fill="#000000" font-family="sans-serif" font-size="14" lengthAdjust="spacing" textLength="92.5723" x="116.5" y="1226.0762">fps : INTEGER</text><text fill="#000000" font-family="sans-serif" font-size="14" lengthAdjust="spacing" textLength="158.7168" x="116.5" y="1244.6973">frame_count : INTEGER</text><line style="stroke:#181818;stroke-width:1;" x1="111.5" x2="280.2168" y1="1252.2109" y2="1252.2109"/><text fill="#000000" font-family="sans-serif" font-size="14" lengthAdjust="spacing" textLength="106.5928" x="116.5" y="1271.3184">source_id : UUID</text></g><!--class video_frames--><g class="entity" data-entity="video_frames" data-source-line="20" data-uid="ent0003" id="entity_video_frames"><rect fill="#F1F1F1" height="103.8633" rx="2.5" ry="2.5" style="stroke:#181818;stroke-width:0.5;" width="150.4688" x="7" y="1400"/><ellipse cx="37.4925" cy="1416" fill="#FFAAAA" rx="11" ry="11" style="stroke:#181818;stroke-width:1;"/><path d="M38.4144,1413.3906 L38.4144,1420.0469 L39.5706,1420.0469 Q40.18,1420.0469 40.43,1420.2813 Q40.6956,1420.5156 40.6956,1420.9063 Q40.6956,1421.2813 40.43,1421.5156 Q40.18,1421.75 39.5706,1421.75 L35.5862,1421.75 Q34.9612,1421.75 34.6956,1421.5156 Q34.4456,1421.2813 34.4456,1420.8906 Q34.4456,1420.5156 34.6956,1420.2813 Q34.9612,1420.0469 35.5862,1420.0469 L36.7112,1420.0469 L36.7112,1413.3906 L34.8675,1413.3906 L34.8675,1415 Q34.8675,1415.6094 34.6331,1415.875 Q34.3987,1416.1406 34.0237,1416.1406 Q33.6487,1416.1406 33.4144,1415.875 Q33.18,1415.6094 33.18,1415 L33.18,1411.6875 L41.9925,1411.6875 L41.9925,1415 Q41.9925,1415.6094 41.7425,1415.875 Q41.5081,1416.1406 41.1331,1416.1406 Q40.7581,1416.1406 40.5237,1415.875 Q40.2894,1415.6094 40.2894,1415 L40.2894,1413.3906 L38.4144,1413.3906 Z " fill="#000000"/><text fill="#000000" font-family="sans-serif" font-size="14" lengthAdjust="spacing" textLength="84.041" x="54.9353" y="1421.7969">video_frames</text><line style="stroke:#181818;stroke-width:0.5;" x1="8" x2="156.4688" y1="1432" y2="1432"/><text fill="#000000" font-family="sans-serif" font-size="14" lengthAdjust="spacing" textLength="102.7031" x="13" y="1451.1074">media_id : UUID</text><text fill="#000000" font-family="sans-serif" font-size="14" lengthAdjust="spacing" textLength="98.041" x="13" y="1469.7285">video_id : UUID</text><text fill="#000000" font-family="sans-serif" font-size="14" lengthAdjust="spacing" textLength="138.4688" x="13" y="1488.3496">timestamp : INTEGER</text><line style="stroke:#181818;stroke-width:0.5;" x1="8" x2="156.4688" y1="1495.8633" y2="1495.8633"/></g><!--class dataset_items--><g class="entity" data-entity="dataset_items" data-source-line="27" data-uid="ent0004" id="entity_dataset_items"><rect fill="#F1F1F1" height="271.4531" rx="2.5" ry="2.5" style="stroke:#181818;stroke-width:0.5;" width="229.875" x="264" y="626"/><ellipse cx="331.1084" cy="642" fill="#FFAAAA" rx="11" ry="11" style="stroke:#181818;stroke-width:1;"/><path d="M332.0303,639.3906 L332.0303,646.0469 L333.1865,646.0469 Q333.7959,646.0469 334.0459,646.2813 Q334.3115,646.5156 334.3115,646.9063 Q334.3115,647.2813 334.0459,647.5156 Q333.7959,647.75 333.1865,647.75 L329.2021,647.75 Q328.5771,647.75 328.3115,647.5156 Q328.0615,647.2813 328.0615,646.8906 Q328.0615,646.5156 328.3115,646.2813 Q328.5771,646.0469 329.2021,646.0469 L330.3271,646.0469 L330.3271,639.3906 L328.4834,639.3906 L328.4834,641 Q328.4834,641.6094 328.249,641.875 Q328.0146,642.1406 327.6396,642.1406 Q327.2646,642.1406 327.0303,641.875 Q326.7959,641.6094 326.7959,641 L326.7959,637.6875 L335.6084,637.6875 L335.6084,641 Q335.6084,641.6094 335.3584,641.875 Q335.124,642.1406 334.749,642.1406 Q334.374,642.1406 334.1396,641.875 Q333.9053,641.6094 333.9053,641 L333.9053,639.3906 L332.0303,639.3906 Z " fill="#000000"/><text fill="#000000" font-family="sans-serif" font-size="14" lengthAdjust="spacing" textLength="87.1582" x="351.6084" y="647.7969">dataset_items</text><line style="stroke:#181818;stroke-width:0.5;" x1="265" x2="492.875" y1="658" y2="658"/><text fill="#000000" font-family="sans-serif" font-size="14" lengthAdjust="spacing" textLength="102.7031" x="270" y="677.1074">media_id : UUID</text><text fill="#000000" font-family="sans-serif" font-size="14" lengthAdjust="spacing" textLength="106.5928" x="270" y="695.7285">project_id : UUID</text><text fill="#000000" font-family="sans-serif" font-size="14" lengthAdjust="spacing" textLength="82.4688" x="270" y="714.3496">name : TEXT</text><text fill="#000000" font-family="sans-serif" font-size="14" lengthAdjust="spacing" textLength="87.124" x="270" y="732.9707">format : TEXT</text><text fill="#000000" font-family="sans-serif" font-size="14" lengthAdjust="spacing" textLength="106.5791" x="270" y="751.5918">width : INTEGER</text><text fill="#000000" font-family="sans-serif" font-size="14" lengthAdjust="spacing" textLength="112.041" x="270" y="770.2129">height : INTEGER</text><text fill="#000000" font-family="sans-serif" font-size="14" lengthAdjust="spacing" textLength="98.793" x="270" y="788.834">size : INTEGER</text><text fill="#000000" font-family="sans-serif" font-size="14" lengthAdjust="spacing" textLength="149.4336" x="270" y="807.4551">annotation_data : JSON</text><text fill="#000000" font-family="sans-serif" font-size="14" lengthAdjust="spacing" textLength="170.4063" x="270" y="826.0762">user_reviewed : BOOLEAN</text><text fill="#000000" font-family="sans-serif" font-size="14" lengthAdjust="spacing" textLength="171.1924" x="270" y="844.6973">prediction_model_id : UUID</text><text fill="#000000" font-family="sans-serif" font-size="14" lengthAdjust="spacing" textLength="88.6963" x="270" y="863.3184">subset : TEXT</text><text fill="#000000" font-family="sans-serif" font-size="14" lengthAdjust="spacing" textLength="217.875" x="270" y="881.9395">subset_assigned_at : TIMESTAMP</text><line style="stroke:#181818;stroke-width:0.5;" x1="265" x2="492.875" y1="889.4531" y2="889.4531"/></g><!--class dataset_items_tags--><g class="entity" data-entity="dataset_items_tags" data-source-line="42" data-uid="ent0005" id="entity_dataset_items_tags"><rect fill="#F1F1F1" height="85.2422" rx="2.5" ry="2.5" style="stroke:#181818;stroke-width:0.5;" width="153.4063" x="316.5" y="1106"/><ellipse cx="331.5" cy="1122" fill="#FFAAAA" rx="11" ry="11" style="stroke:#181818;stroke-width:1;"/><path d="M332.4219,1119.3906 L332.4219,1126.0469 L333.5781,1126.0469 Q334.1875,1126.0469 334.4375,1126.2813 Q334.7031,1126.5156 334.7031,1126.9063 Q334.7031,1127.2813 334.4375,1127.5156 Q334.1875,1127.75 333.5781,1127.75 L329.5938,1127.75 Q328.9688,1127.75 328.7031,1127.5156 Q328.4531,1127.2813 328.4531,1126.8906 Q328.4531,1126.5156 328.7031,1126.2813 Q328.9688,1126.0469 329.5938,1126.0469 L330.7188,1126.0469 L330.7188,1119.3906 L328.875,1119.3906 L328.875,1121 Q328.875,1121.6094 328.6406,1121.875 Q328.4063,1122.1406 328.0313,1122.1406 Q327.6563,1122.1406 327.4219,1121.875 Q327.1875,1121.6094 327.1875,1121 L327.1875,1117.6875 L336,1117.6875 L336,1121 Q336,1121.6094 335.75,1121.875 Q335.5156,1122.1406 335.1406,1122.1406 Q334.7656,1122.1406 334.5313,1121.875 Q334.2969,1121.6094 334.2969,1121 L334.2969,1119.3906 L332.4219,1119.3906 Z " fill="#000000"/><text fill="#000000" font-family="sans-serif" font-size="14" lengthAdjust="spacing" textLength="121.4063" x="345.5" y="1127.7969">dataset_items_tags</text><line style="stroke:#181818;stroke-width:0.5;" x1="317.5" x2="468.9063" y1="1138" y2="1138"/><text fill="#000000" font-family="sans-serif" font-size="14" lengthAdjust="spacing" textLength="102.7031" x="322.5" y="1157.1074">media_id : UUID</text><text fill="#000000" font-family="sans-serif" font-size="14" lengthAdjust="spacing" textLength="66.9102" x="322.5" y="1175.7285">tag : TEXT</text><line style="stroke:#181818;stroke-width:0.5;" x1="317.5" x2="468.9063" y1="1183.2422" y2="1183.2422"/></g><!--class dataset_views--><g class="entity" data-entity="dataset_views" data-source-line="49" data-uid="ent0007" id="entity_dataset_views"><rect fill="#F1F1F1" height="85.2422" rx="2.5" ry="2.5" style="stroke:#181818;stroke-width:0.5;" width="120.7168" x="325.5" y="213"/><ellipse cx="340.5" cy="229" fill="#FFAAAA" rx="11" ry="11" style="stroke:#181818;stroke-width:1;"/><path d="M341.4219,226.3906 L341.4219,233.0469 L342.5781,233.0469 Q343.1875,233.0469 343.4375,233.2813 Q343.7031,233.5156 343.7031,233.9063 Q343.7031,234.2813 343.4375,234.5156 Q343.1875,234.75 342.5781,234.75 L338.5938,234.75 Q337.9688,234.75 337.7031,234.5156 Q337.4531,234.2813 337.4531,233.8906 Q337.4531,233.5156 337.7031,233.2813 Q337.9688,233.0469 338.5938,233.0469 L339.7188,233.0469 L339.7188,226.3906 L337.875,226.3906 L337.875,228 Q337.875,228.6094 337.6406,228.875 Q337.4063,229.1406 337.0313,229.1406 Q336.6563,229.1406 336.4219,228.875 Q336.1875,228.6094 336.1875,228 L336.1875,224.6875 L345,224.6875 L345,228 Q345,228.6094 344.75,228.875 Q344.5156,229.1406 344.1406,229.1406 Q343.7656,229.1406 343.5313,228.875 Q343.2969,228.6094 343.2969,228 L343.2969,226.3906 L341.4219,226.3906 Z " fill="#000000"/><text fill="#000000" font-family="sans-serif" font-size="14" lengthAdjust="spacing" textLength="88.7168" x="354.5" y="234.7969">dataset_views</text><line style="stroke:#181818;stroke-width:0.5;" x1="326.5" x2="445.2168" y1="245" y2="245"/><text fill="#000000" font-family="sans-serif" font-size="14" lengthAdjust="spacing" textLength="56.7861" x="331.5" y="264.1074">id : UUID</text><text fill="#000000" font-family="sans-serif" font-size="14" lengthAdjust="spacing" textLength="82.4688" x="331.5" y="282.7285">name : TEXT</text><line style="stroke:#181818;stroke-width:0.5;" x1="326.5" x2="445.2168" y1="290.2422" y2="290.2422"/></g><!--class dataset_views_items--><g class="entity" data-entity="dataset_views_items" data-source-line="54" data-uid="ent0008" id="entity_dataset_views_items"><rect fill="#F1F1F1" height="85.2422" rx="2.5" ry="2.5" style="stroke:#181818;stroke-width:0.5;" width="161.9512" x="320" y="419.5"/><ellipse cx="335" cy="435.5" fill="#FFAAAA" rx="11" ry="11" style="stroke:#181818;stroke-width:1;"/><path d="M335.9219,432.8906 L335.9219,439.5469 L337.0781,439.5469 Q337.6875,439.5469 337.9375,439.7813 Q338.2031,440.0156 338.2031,440.4063 Q338.2031,440.7813 337.9375,441.0156 Q337.6875,441.25 337.0781,441.25 L333.0938,441.25 Q332.4688,441.25 332.2031,441.0156 Q331.9531,440.7813 331.9531,440.3906 Q331.9531,440.0156 332.2031,439.7813 Q332.4688,439.5469 333.0938,439.5469 L334.2188,439.5469 L334.2188,432.8906 L332.375,432.8906 L332.375,434.5 Q332.375,435.1094 332.1406,435.375 Q331.9063,435.6406 331.5313,435.6406 Q331.1563,435.6406 330.9219,435.375 Q330.6875,435.1094 330.6875,434.5 L330.6875,431.1875 L339.5,431.1875 L339.5,434.5 Q339.5,435.1094 339.25,435.375 Q339.0156,435.6406 338.6406,435.6406 Q338.2656,435.6406 338.0313,435.375 Q337.7969,435.1094 337.7969,434.5 L337.7969,432.8906 L335.9219,432.8906 Z " fill="#000000"/><text fill="#000000" font-family="sans-serif" font-size="14" lengthAdjust="spacing" textLength="129.9512" x="349" y="441.2969">dataset_views_items</text><line style="stroke:#181818;stroke-width:0.5;" x1="321" x2="480.9512" y1="451.5" y2="451.5"/><text fill="#000000" font-family="sans-serif" font-size="14" lengthAdjust="spacing" textLength="146.2891" x="326" y="470.6074">dataset_view_id : UUID</text><text fill="#000000" font-family="sans-serif" font-size="14" lengthAdjust="spacing" textLength="102.7031" x="326" y="489.2285">media_id : UUID</text><line style="stroke:#181818;stroke-width:0.5;" x1="321" x2="480.9512" y1="496.7422" y2="496.7422"/></g><!--class dataset_revisions--><g class="entity" data-entity="dataset_revisions" data-source-line="63" data-uid="ent0011" id="entity_dataset_revisions"><rect fill="#F1F1F1" height="85.2422" rx="2.5" ry="2.5" style="stroke:#181818;stroke-width:0.5;" width="169.9717" x="619" y="213"/><ellipse cx="647.0592" cy="229" fill="#FFAAAA" rx="11" ry="11" style="stroke:#181818;stroke-width:1;"/><path d="M647.9811,226.3906 L647.9811,233.0469 L649.1374,233.0469 Q649.7467,233.0469 649.9967,233.2813 Q650.2624,233.5156 650.2624,233.9063 Q650.2624,234.2813 649.9967,234.5156 Q649.7467,234.75 649.1374,234.75 L645.153,234.75 Q644.528,234.75 644.2624,234.5156 Q644.0124,234.2813 644.0124,233.8906 Q644.0124,233.5156 644.2624,233.2813 Q644.528,233.0469 645.153,233.0469 L646.278,233.0469 L646.278,226.3906 L644.4342,226.3906 L644.4342,228 Q644.4342,228.6094 644.1999,228.875 Q643.9655,229.1406 643.5905,229.1406 Q643.2155,229.1406 642.9811,228.875 Q642.7467,228.6094 642.7467,228 L642.7467,224.6875 L651.5592,224.6875 L651.5592,228 Q651.5592,228.6094 651.3092,228.875 Q651.0749,229.1406 650.6999,229.1406 Q650.3249,229.1406 650.0905,228.875 Q649.8561,228.6094 649.8561,228 L649.8561,226.3906 L647.9811,226.3906 Z " fill="#000000"/><text fill="#000000" font-family="sans-serif" font-size="14" lengthAdjust="spacing" textLength="108.9512" x="663.9613" y="234.7969">dataset_revisions</text><line style="stroke:#181818;stroke-width:0.5;" x1="620" x2="787.9717" y1="245" y2="245"/><text fill="#000000" font-family="sans-serif" font-size="14" lengthAdjust="spacing" textLength="106.5928" x="625" y="264.1074">project_id : UUID</text><text fill="#000000" font-family="sans-serif" font-size="14" lengthAdjust="spacing" textLength="157.9717" x="625" y="282.7285">files_deleted : BOOLEAN</text><line style="stroke:#181818;stroke-width:0.5;" x1="620" x2="787.9717" y1="290.2422" y2="290.2422"/></g><g class="entity" data-entity="MediaBinary" data-source-line="68" data-uid="ent0012" id="entity_MediaBinary"><rect fill="#F1F1F1" height="86.4844" rx="2.5" ry="2.5" style="stroke:#181818;stroke-width:0.5;" width="234.5713" x="192.5" y="1409"/><text fill="#000000" font-family="sans-serif" font-size="14" lengthAdjust="spacing" textLength="77.8135" x="270.8789" y="1426.1074">MediaBinary</text><line style="stroke:#181818;stroke-width:0.5;" x1="193.5" x2="426.0713" y1="1431.6211" y2="1431.6211"/><text fill="#000000" font-family="sans-serif" font-size="14" font-style="italic" lengthAdjust="spacing" textLength="39.6758" x="198.5" y="1450.7285">format</text><text fill="#000000" font-family="sans-serif" font-size="14" lengthAdjust="spacing" textLength="61.4893" x="242.0654" y="1450.7285">: jpg / png</text><text fill="#000000" font-family="sans-serif" font-size="14" font-style="italic" lengthAdjust="spacing" textLength="34.2344" x="198.5" y="1469.3496">prefix</text><text fill="#000000" font-family="sans-serif" font-size="14" lengthAdjust="spacing" textLength="184.4473" x="236.624" y="1469.3496">: projects/{project_id}/dataset/</text><text fill="#000000" font-family="sans-serif" font-size="14" font-style="italic" lengthAdjust="spacing" textLength="52.917" x="198.5" y="1487.9707">filename</text><text fill="#000000" font-family="sans-serif" font-size="14" lengthAdjust="spacing" textLength="126.8613" x="255.3066" y="1487.9707">: {media_id}.{format}</text></g><g class="entity" data-entity="MediaThumbnail" data-source-line="74" data-uid="ent0013" id="entity_MediaThumbnail"><rect fill="#F1F1F1" height="86.4844" rx="2.5" ry="2.5" style="stroke:#181818;stroke-width:0.5;" width="234.5713" x="462.5" y="1409"/><text fill="#000000" font-family="sans-serif" font-size="14" lengthAdjust="spacing" textLength="103.4961" x="528.0376" y="1426.1074">MediaThumbnail</text><line style="stroke:#181818;stroke-width:0.5;" x1="463.5" x2="696.0713" y1="1431.6211" y2="1431.6211"/><text fill="#000000" font-family="sans-serif" font-size="14" font-style="italic" lengthAdjust="spacing" textLength="39.6758" x="468.5" y="1450.7285">format</text><text fill="#000000" font-family="sans-serif" font-size="14" lengthAdjust="spacing" textLength="26.4619" x="512.0654" y="1450.7285">: jpg</text><text fill="#000000" font-family="sans-serif" font-size="14" font-style="italic" lengthAdjust="spacing" textLength="34.2344" x="468.5" y="1469.3496">prefix</text><text fill="#000000" font-family="sans-serif" font-size="14" lengthAdjust="spacing" textLength="184.4473" x="506.624" y="1469.3496">: projects/{project_id}/dataset/</text><text fill="#000000" font-family="sans-serif" font-size="14" font-style="italic" lengthAdjust="spacing" textLength="52.917" x="468.5" y="1487.9707">filename</text><text fill="#000000" font-family="sans-serif" font-size="14" lengthAdjust="spacing" textLength="140.0889" x="525.3066" y="1487.9707">: {media_id}-thumb.jpg</text></g><g class="entity" data-entity="DatasetRevision" data-source-line="80" data-uid="ent0014" id="entity_DatasetRevision"><rect fill="#F1F1F1" height="86.4844" rx="2.5" ry="2.5" style="stroke:#181818;stroke-width:0.5;" width="377.7637" x="517" y="419"/><text fill="#000000" font-family="sans-serif" font-size="14" lengthAdjust="spacing" textLength="101.9375" x="654.9131" y="436.1074">DatasetRevision</text><line style="stroke:#181818;stroke-width:0.5;" x1="518" x2="893.7637" y1="441.6211" y2="441.6211"/><text fill="#000000" font-family="sans-serif" font-size="14" font-style="italic" lengthAdjust="spacing" textLength="39.6758" x="523" y="460.7285">format</text><text fill="#000000" font-family="sans-serif" font-size="14" lengthAdjust="spacing" textLength="42.7861" x="566.5654" y="460.7285">: arrow</text><text fill="#000000" font-family="sans-serif" font-size="14" font-style="italic" lengthAdjust="spacing" textLength="34.2344" x="523" y="479.3496">prefix</text><text fill="#000000" font-family="sans-serif" font-size="14" lengthAdjust="spacing" textLength="327.6396" x="561.124" y="479.3496">: projects/{project_id}/dataset_revisions/{revision_id}/</text><text fill="#000000" font-family="sans-serif" font-size="14" font-style="italic" lengthAdjust="spacing" textLength="52.917" x="523" y="497.9707">filename</text><text fill="#000000" font-family="sans-serif" font-size="14" lengthAdjust="spacing" textLength="123.7305" x="579.8066" y="497.9707">: &lt;shard_idx&gt;.arrow</text></g><!--class projects--><g class="entity" data-entity="projects" data-source-line="89" data-uid="ent0016" id="entity_projects"><rect fill="#F1F1F1" height="66.6211" rx="2.5" ry="2.5" style="stroke:#181818;stroke-width:0.5;" width="81.0205" x="278.5" y="16"/><ellipse cx="293.5" cy="32" fill="#CCCCCC" rx="11" ry="11" style="stroke:#181818;stroke-width:1;"/><path d="M294.4219,29.3906 L294.4219,36.0469 L295.5781,36.0469 Q296.1875,36.0469 296.4375,36.2813 Q296.7031,36.5156 296.7031,36.9063 Q296.7031,37.2813 296.4375,37.5156 Q296.1875,37.75 295.5781,37.75 L291.5938,37.75 Q290.9688,37.75 290.7031,37.5156 Q290.4531,37.2813 290.4531,36.8906 Q290.4531,36.5156 290.7031,36.2813 Q290.9688,36.0469 291.5938,36.0469 L292.7188,36.0469 L292.7188,29.3906 L290.875,29.3906 L290.875,31 Q290.875,31.6094 290.6406,31.875 Q290.4063,32.1406 290.0313,32.1406 Q289.6563,32.1406 289.4219,31.875 Q289.1875,31.6094 289.1875,31 L289.1875,27.6875 L298,27.6875 L298,31 Q298,31.6094 297.75,31.875 Q297.5156,32.1406 297.1406,32.1406 Q296.7656,32.1406 296.5313,31.875 Q296.2969,31.6094 296.2969,31 L296.2969,29.3906 L294.4219,29.3906 Z " fill="#000000"/><text fill="#000000" font-family="sans-serif" font-size="14" lengthAdjust="spacing" textLength="49.0205" x="307.5" y="37.7969">projects</text><line style="stroke:#181818;stroke-width:0.5;" x1="279.5" x2="358.5205" y1="48" y2="48"/><text fill="#000000" font-family="sans-serif" font-size="14" lengthAdjust="spacing" textLength="56.7861" x="284.5" y="67.1074">id : UUID</text><line style="stroke:#181818;stroke-width:0.5;" x1="279.5" x2="358.5205" y1="74.6211" y2="74.6211"/></g><!--class model_revisions--><g class="entity" data-entity="model_revisions" data-source-line="106" data-uid="ent0026" id="entity_model_revisions"><rect fill="#F1F1F1" height="85.2422" rx="2.5" ry="2.5" style="stroke:#181818;stroke-width:0.5;" width="176.1992" x="426" y="7"/><ellipse cx="460.3685" cy="23" fill="#CCCCCC" rx="11" ry="11" style="stroke:#181818;stroke-width:1;"/><path d="M461.2903,20.3906 L461.2903,27.0469 L462.4466,27.0469 Q463.056,27.0469 463.306,27.2813 Q463.5716,27.5156 463.5716,27.9063 Q463.5716,28.2813 463.306,28.5156 Q463.056,28.75 462.4466,28.75 L458.4622,28.75 Q457.8372,28.75 457.5716,28.5156 Q457.3216,28.2813 457.3216,27.8906 Q457.3216,27.5156 457.5716,27.2813 Q457.8372,27.0469 458.4622,27.0469 L459.5872,27.0469 L459.5872,20.3906 L457.7435,20.3906 L457.7435,22 Q457.7435,22.6094 457.5091,22.875 Q457.2747,23.1406 456.8997,23.1406 Q456.5247,23.1406 456.2903,22.875 Q456.056,22.6094 456.056,22 L456.056,18.6875 L464.8685,18.6875 L464.8685,22 Q464.8685,22.6094 464.6185,22.875 Q464.3841,23.1406 464.0091,23.1406 Q463.6341,23.1406 463.3997,22.875 Q463.1653,22.6094 463.1653,22 L463.1653,20.3906 L461.2903,20.3906 Z " fill="#000000"/><text fill="#000000" font-family="sans-serif" font-size="14" lengthAdjust="spacing" textLength="101.1582" x="478.6726" y="28.7969">model_revisions</text><line style="stroke:#181818;stroke-width:0.5;" x1="427" x2="601.1992" y1="39" y2="39"/><text fill="#000000" font-family="sans-serif" font-size="14" lengthAdjust="spacing" textLength="56.7861" x="432" y="58.1074">id : UUID</text><text fill="#000000" font-family="sans-serif" font-size="14" lengthAdjust="spacing" textLength="164.1992" x="432" y="76.7285">training_dataset_id : UUID</text><line style="stroke:#181818;stroke-width:0.5;" x1="427" x2="601.1992" y1="84.2422" y2="84.2422"/></g><!--class evaluations--><g class="entity" data-entity="evaluations" data-source-line="113" data-uid="ent0028" id="entity_evaluations"><rect fill="#F1F1F1" height="85.2422" rx="2.5" ry="2.5" style="stroke:#181818;stroke-width:0.5;" width="178.5234" x="637.5" y="7"/><ellipse cx="687.0981" cy="23" fill="#CCCCCC" rx="11" ry="11" style="stroke:#181818;stroke-width:1;"/><path d="M688.02,20.3906 L688.02,27.0469 L689.1763,27.0469 Q689.7856,27.0469 690.0356,27.2813 Q690.3013,27.5156 690.3013,27.9063 Q690.3013,28.2813 690.0356,28.5156 Q689.7856,28.75 689.1763,28.75 L685.1919,28.75 Q684.5669,28.75 684.3013,28.5156 Q684.0513,28.2813 684.0513,27.8906 Q684.0513,27.5156 684.3013,27.2813 Q684.5669,27.0469 685.1919,27.0469 L686.3169,27.0469 L686.3169,20.3906 L684.4731,20.3906 L684.4731,22 Q684.4731,22.6094 684.2388,22.875 Q684.0044,23.1406 683.6294,23.1406 Q683.2544,23.1406 683.02,22.875 Q682.7856,22.6094 682.7856,22 L682.7856,18.6875 L691.5981,18.6875 L691.5981,22 Q691.5981,22.6094 691.3481,22.875 Q691.1138,23.1406 690.7388,23.1406 Q690.3638,23.1406 690.1294,22.875 Q689.895,22.6094 689.895,22 L689.895,20.3906 L688.02,20.3906 Z " fill="#000000"/><text fill="#000000" font-family="sans-serif" font-size="14" lengthAdjust="spacing" textLength="70.8271" x="707.5981" y="28.7969">evaluations</text><line style="stroke:#181818;stroke-width:0.5;" x1="638.5" x2="815.0234" y1="39" y2="39"/><text fill="#000000" font-family="sans-serif" font-size="14" lengthAdjust="spacing" textLength="56.7861" x="643.5" y="58.1074">id : UUID</text><text fill="#000000" font-family="sans-serif" font-size="14" lengthAdjust="spacing" textLength="166.5234" x="643.5" y="76.7285">dataset_revision_id : UUID</text><line style="stroke:#181818;stroke-width:0.5;" x1="638.5" x2="815.0234" y1="84.2422" y2="84.2422"/></g><!--link dataset_items to dataset_items_tags--><g class="link" data-entity-1="dataset_items" data-entity-2="dataset_items_tags" data-source-line="47" data-uid="lnk6" id="link_dataset_items_dataset_items_tags"><path codeLine="47" d="M384.1901,905.1447 C386.8501,978.4447 389.029,1038.0818 390.829,1087.8218" fill="none" id="dataset_items-dataset_items_tags" style="stroke:#181818;stroke-width:1;"/><line style="stroke:#181818;stroke-width:1;" x1="380.0477" x2="388.0424" y1="901.2924" y2="901.0023"/><line style="stroke:#181818;stroke-width:1;" x1="380.1565" x2="388.1512" y1="904.2905" y2="904.0003"/><line style="stroke:#181818;stroke-width:1;" x1="384.1901" x2="383.9" y1="905.1447" y2="897.15"/><line style="stroke:#181818;stroke-width:1;" x1="391.1907" x2="397.4761" y1="1097.8152" y2="1105.593"/><line style="stroke:#181818;stroke-width:1;" x1="391.1907" x2="385.4839" y1="1097.8152" y2="1106.027"/><line style="stroke:#181818;stroke-width:1;" x1="391.1907" x2="391.48" y1="1097.8152" y2="1105.81"/><ellipse cx="390.9737" cy="1091.8192" fill="none" rx="4" ry="4" style="stroke:#181818;stroke-width:1;"/></g><!--link dataset_views to dataset_views_items--><g class="link" data-entity-1="dataset_views" data-entity-2="dataset_views_items" data-source-line="59" data-uid="lnk9" id="link_dataset_views_dataset_views_items"><path codeLine="59" d="M389.6556,306.3585 C392.2456,341.6485 394.0372,365.9479 396.6172,401.2279" fill="none" id="dataset_views-dataset_views_items" style="stroke:#181818;stroke-width:1;"/><line style="stroke:#181818;stroke-width:1;" x1="385.3735" x2="393.3521" y1="302.6621" y2="302.0765"/><line style="stroke:#181818;stroke-width:1;" x1="385.5931" x2="393.5716" y1="305.654" y2="305.0684"/><line style="stroke:#181818;stroke-width:1;" x1="389.6556" x2="389.07" y1="306.3585" y2="298.38"/><line style="stroke:#181818;stroke-width:1;" x1="397.3465" x2="403.914" y1="411.2013" y2="418.7424"/><line style="stroke:#181818;stroke-width:1;" x1="397.3465" x2="391.946" y1="411.2013" y2="419.6176"/><line style="stroke:#181818;stroke-width:1;" x1="397.3465" x2="397.93" y1="411.2013" y2="419.18"/><ellipse cx="396.9089" cy="405.2173" fill="none" rx="4" ry="4" style="stroke:#181818;stroke-width:1;"/></g><!--link dataset_views_items to dataset_items--><g class="link" data-entity-1="dataset_views_items" data-entity-2="dataset_items" data-source-line="61" data-uid="lnk10" id="link_dataset_views_items_dataset_items"><path codeLine="61" d="M396.5909,522.6309 C394.2409,554.3709 392.7904,574.0218 389.5404,617.9418" fill="none" id="dataset_views_items-dataset_items" style="stroke:#181818;stroke-width:1;"/><line style="stroke:#181818;stroke-width:1;" x1="397.3293" x2="391.9364" y1="512.6582" y2="504.237"/><line style="stroke:#181818;stroke-width:1;" x1="397.3293" x2="403.9036" y1="512.6582" y2="505.123"/><line style="stroke:#181818;stroke-width:1;" x1="397.3293" x2="397.92" y1="512.6582" y2="504.68"/><ellipse cx="396.8863" cy="518.6418" fill="none" rx="4" ry="4" style="stroke:#181818;stroke-width:1;"/><line style="stroke:#181818;stroke-width:1;" x1="393.2343" x2="385.2561" y1="622.2261" y2="621.6357"/><line style="stroke:#181818;stroke-width:1;" x1="393.4557" x2="385.4775" y1="619.2343" y2="618.6439"/><line style="stroke:#181818;stroke-width:1;" x1="389.5404" x2="388.95" y1="617.9418" y2="625.92"/></g><!--link dataset_revisions to DatasetRevision--><g class="link" data-entity-1="dataset_revisions" data-entity-2="DatasetRevision" data-source-line="86" data-uid="lnk15" id="link_dataset_revisions_DatasetRevision"><path codeLine="86" d="M704.4873,306.3796 C704.8273,341.5496 705.1606,375.5704 705.5106,410.8304" fill="none" id="dataset_revisions-DatasetRevision" style="stroke:#181818;stroke-width:1;"/><line style="stroke:#181818;stroke-width:1;" x1="700.4489" x2="708.4485" y1="302.4185" y2="302.3411"/><line style="stroke:#181818;stroke-width:1;" x1="700.4779" x2="708.4775" y1="305.4183" y2="305.341"/><line style="stroke:#181818;stroke-width:1;" x1="704.4873" x2="704.41" y1="306.3796" y2="298.38"/><line style="stroke:#181818;stroke-width:1;" x1="709.5501" x2="701.5505" y1="414.7905" y2="414.8699"/><line style="stroke:#181818;stroke-width:1;" x1="709.5203" x2="701.5207" y1="411.7906" y2="411.87"/><line style="stroke:#181818;stroke-width:1;" x1="705.5106" x2="705.59" y1="410.8304" y2="418.83"/></g><!--link projects to dataset_items--><g class="link" data-entity-1="projects" data-entity-2="dataset_items" data-source-line="93" data-uid="lnk17" id="link_projects_dataset_items"><path codeLine="93" d="M302.447,90.5186 C287.037,130.2486 267,192.37 267,254.5 C267,254.5 267,254.5 267,463 C267,518.46 277.2638,559.6453 298.2338,609.3553" fill="none" id="projects-dataset_items" style="stroke:#181818;stroke-width:1;"/><line style="stroke:#181818;stroke-width:1;" x1="300.1642" x2="307.6228" y1="85.3428" y2="88.2358"/><line style="stroke:#181818;stroke-width:1;" x1="299.0794" x2="306.538" y1="88.1398" y2="91.0328"/><line style="stroke:#181818;stroke-width:1;" x1="302.447" x2="305.34" y1="90.5186" y2="83.06"/><line style="stroke:#181818;stroke-width:1;" x1="302.1206" x2="310.7582" y1="618.569" y2="623.6079"/><line style="stroke:#181818;stroke-width:1;" x1="302.1206" x2="299.7018" y1="618.569" y2="628.2721"/><line style="stroke:#181818;stroke-width:1;" x1="302.1206" x2="305.23" y1="618.569" y2="625.94"/><ellipse cx="299.7885" cy="613.0408" fill="none" rx="4" ry="4" style="stroke:#181818;stroke-width:1;"/></g><!--link projects to dataset_views--><g class="link" data-entity-1="projects" data-entity-2="dataset_views" data-source-line="94" data-uid="lnk18" id="link_projects_dataset_views"><path codeLine="94" d="M332.2568,90.8804 C343.8368,126.1304 354.1616,157.5693 366.7516,195.8893" fill="none" id="projects-dataset_views" style="stroke:#181818;stroke-width:1;"/><line style="stroke:#181818;stroke-width:1;" x1="327.2082" x2="334.8086" y1="88.3286" y2="85.8318"/><line style="stroke:#181818;stroke-width:1;" x1="328.1445" x2="335.7449" y1="91.1787" y2="88.6819"/><line style="stroke:#181818;stroke-width:1;" x1="332.2568" x2="329.76" y1="90.8804" y2="83.28"/><line style="stroke:#181818;stroke-width:1;" x1="369.8729" x2="378.0702" y1="205.3897" y2="211.1172"/><line style="stroke:#181818;stroke-width:1;" x1="369.8729" x2="366.6698" y1="205.3897" y2="214.8628"/><line style="stroke:#181818;stroke-width:1;" x1="369.8729" x2="372.37" y1="205.3897" y2="212.99"/><ellipse cx="368.0001" cy="199.6895" fill="none" rx="4" ry="4" style="stroke:#181818;stroke-width:1;"/></g><!--link projects to dataset_revisions--><g class="link" data-entity-1="projects" data-entity-2="dataset_revisions" data-source-line="95" data-uid="lnk19" id="link_projects_dataset_revisions"><path codeLine="95" d="M366.9088,75.8859 C429.8988,109.2659 528.9244,161.7331 609.4444,204.3931" fill="none" id="projects-dataset_revisions" style="stroke:#181818;stroke-width:1;"/><line style="stroke:#181818;stroke-width:1;" x1="361.5014" x2="365.2474" y1="77.5474" y2="70.4786"/><line style="stroke:#181818;stroke-width:1;" x1="364.1522" x2="367.8982" y1="78.9521" y2="71.8833"/><line style="stroke:#181818;stroke-width:1;" x1="366.9088" x2="359.84" y1="75.8859" y2="72.14"/><line style="stroke:#181818;stroke-width:1;" x1="618.2809" x2="628.159" y1="209.0747" y2="207.5181"/><line style="stroke:#181818;stroke-width:1;" x1="618.2809" x2="622.541" y1="209.0747" y2="218.1219"/><line style="stroke:#181818;stroke-width:1;" x1="618.2809" x2="625.35" y1="209.0747" y2="212.82"/><ellipse cx="612.979" cy="206.2658" fill="none" rx="4" ry="4" style="stroke:#181818;stroke-width:1;"/></g><!--link projects to media--><g class="link" data-entity-1="projects" data-entity-2="media" data-source-line="96" data-uid="lnk20" id="link_projects_media"><path codeLine="96" d="M278.1865,89.0487 C241.8465,126.5987 196,186.06 196,254.5 C196,254.5 196,254.5 196,762.5 C196,847.55 196,925.18 196,999.85" fill="none" id="projects-media" style="stroke:#181818;stroke-width:1;"/><line style="stroke:#181818;stroke-width:1;" x1="278.0939" x2="283.8426" y1="83.3926" y2="88.9561"/><line style="stroke:#181818;stroke-width:1;" x1="276.0076" x2="281.7563" y1="85.5484" y2="91.1119"/><line style="stroke:#181818;stroke-width:1;" x1="278.1865" x2="283.75" y1="89.0487" y2="83.3"/><line style="stroke:#181818;stroke-width:1;" x1="196" x2="202" y1="1009.85" y2="1017.85"/><line style="stroke:#181818;stroke-width:1;" x1="196" x2="190" y1="1009.85" y2="1017.85"/><line style="stroke:#181818;stroke-width:1;" x1="196" x2="196" y1="1009.85" y2="1017.85"/><ellipse cx="196" cy="1003.85" fill="none" rx="4" ry="4" style="stroke:#181818;stroke-width:1;"/></g><!--link dataset_items to media--><g class="link" data-entity-1="dataset_items" data-entity-2="media" data-source-line="98" data-uid="lnk21" id="link_dataset_items_media"><path codeLine="98" d="M311.5648,904.3749 C292.9548,943.5149 279.5548,971.7249 261.0948,1010.5549" fill="none" id="dataset_items-media" style="stroke:#181818;stroke-width:1;"/><line style="stroke:#181818;stroke-width:1;" x1="309.6699" x2="316.8948" y1="899.0448" y2="902.4801"/><line style="stroke:#181818;stroke-width:1;" x1="308.3817" x2="315.6066" y1="901.7542" y2="905.1894"/><line style="stroke:#181818;stroke-width:1;" x1="311.5648" x2="315" y1="904.3749" y2="897.15"/><line style="stroke:#181818;stroke-width:1;" x1="262.99" x2="255.7649" y1="1015.8849" y2="1012.45"/><line style="stroke:#181818;stroke-width:1;" x1="264.278" x2="257.0529" y1="1013.1755" y2="1009.7406"/><line style="stroke:#181818;stroke-width:1;" x1="261.0948" x2="257.66" y1="1010.5549" y2="1017.78"/></g><!--link media to video_frames--><g class="link" data-entity-1="media" data-entity-2="video_frames" data-source-line="101" data-uid="lnk22" id="link_media_video_frames"><path codeLine="101" d="M131.4526,1286.5669 C114.8926,1329.1869 106.1513,1352.3064 95.9013,1385.5364" fill="none" id="media-video_frames" style="stroke:#181818;stroke-width:1;"/><line style="stroke:#181818;stroke-width:1;" x1="129.1729" x2="136.6298" y1="1281.3898" y2="1284.2871"/><line style="stroke:#181818;stroke-width:1;" x1="128.0864" x2="135.5432" y1="1284.1861" y2="1287.0835"/><line style="stroke:#181818;stroke-width:1;" x1="131.4526" x2="134.35" y1="1286.5669" y2="1279.11"/><line style="stroke:#181818;stroke-width:1;" x1="94.7223" x2="91.48" y1="1389.3587" y2="1399.87"/><ellipse cx="94.7223" cy="1389.3587" fill="none" rx="4" ry="4" style="stroke:#181818;stroke-width:1;"/><line style="stroke:#181818;stroke-width:1;" x1="96.4813" x2="88.8367" y1="1397.2267" y2="1394.8687"/></g><!--link media to video_frames--><g class="link" data-entity-1="media" data-entity-2="video_frames" data-source-line="102" data-uid="lnk23" id="link_media_video_frames"><path codeLine="102" d="M157.6155,1286.6209 C141.9855,1329.2409 134.1898,1350.2359 119.1798,1383.4659" fill="none" id="media-video_frames-1" style="stroke:#181818;stroke-width:1;"/><line style="stroke:#181818;stroke-width:1;" x1="155.2373" x2="162.7482" y1="1281.4882" y2="1284.2427"/><line style="stroke:#181818;stroke-width:1;" x1="154.2044" x2="161.7153" y1="1284.3048" y2="1287.0592"/><line style="stroke:#181818;stroke-width:1;" x1="157.6155" x2="160.37" y1="1286.6209" y2="1279.11"/><line style="stroke:#181818;stroke-width:1;" x1="115.0632" x2="117.238" y1="1392.5793" y2="1402.3399"/><line style="stroke:#181818;stroke-width:1;" x1="115.0632" x2="106.302" y1="1392.5793" y2="1397.4001"/><line style="stroke:#181818;stroke-width:1;" x1="115.0632" x2="111.77" y1="1392.5793" y2="1399.87"/><ellipse cx="117.5331" cy="1387.1112" fill="none" rx="4" ry="4" style="stroke:#181818;stroke-width:1;"/></g><!--link media to MediaBinary--><g class="link" data-entity-1="media" data-entity-2="MediaBinary" data-source-line="103" data-uid="lnk24" id="link_media_MediaBinary"><path codeLine="103" d="M247.8389,1286.5932 C265.4589,1333.2032 278.4614,1367.5868 291.2414,1401.3968" fill="none" id="media-MediaBinary" style="stroke:#181818;stroke-width:1;"/><line style="stroke:#181818;stroke-width:1;" x1="242.6829" x2="250.166" y1="1284.266" y2="1281.4371"/><line style="stroke:#181818;stroke-width:1;" x1="243.7437" x2="251.2268" y1="1287.0722" y2="1284.2433"/><line style="stroke:#181818;stroke-width:1;" x1="247.8389" x2="245.01" y1="1286.5932" y2="1279.11"/><line style="stroke:#181818;stroke-width:1;" x1="296.3973" x2="288.9141" y1="1403.7241" y2="1406.5527"/><line style="stroke:#181818;stroke-width:1;" x1="295.3366" x2="287.8533" y1="1400.9179" y2="1403.7465"/><line style="stroke:#181818;stroke-width:1;" x1="291.2414" x2="294.07" y1="1401.3968" y2="1408.88"/></g><!--link media to MediaThumbnail--><g class="link" data-entity-1="media" data-entity-2="MediaThumbnail" data-source-line="104" data-uid="lnk25" id="link_media_MediaThumbnail"><path codeLine="104" d="M287.1427,1268.0503 C292.8427,1273.8803 293.08,1273.77 299,1279 C358.45,1331.57 428.9398,1373.9179 487.5098,1405.1279" fill="none" id="media-MediaThumbnail" style="stroke:#181818;stroke-width:1;"/><line style="stroke:#181818;stroke-width:1;" x1="281.4862" x2="287.2065" y1="1267.9865" y2="1262.3938"/><line style="stroke:#181818;stroke-width:1;" x1="283.5835" x2="289.3038" y1="1270.1316" y2="1264.5389"/><line style="stroke:#181818;stroke-width:1;" x1="287.1427" x2="281.55" y1="1268.0503" y2="1262.33"/><line style="stroke:#181818;stroke-width:1;" x1="492.921" x2="489.1588" y1="1403.4788" y2="1410.539"/><line style="stroke:#181818;stroke-width:1;" x1="490.2734" x2="486.5113" y1="1402.068" y2="1409.1282"/><line style="stroke:#181818;stroke-width:1;" x1="487.5098" x2="494.57" y1="1405.1279" y2="1408.89"/></g><!--link model_revisions to dataset_revisions--><g class="link" data-entity-1="model_revisions" data-entity-2="dataset_revisions" data-source-line="111" data-uid="lnk27" id="link_model_revisions_dataset_revisions"><path codeLine="111" d="M563.1327,103.2471 C595.9227,138.4571 626.918,171.7354 659.688,206.9254" fill="none" id="model_revisions-dataset_revisions" style="stroke:#181818;stroke-width:1;"/><line style="stroke:#181818;stroke-width:1;" x1="560.4066" x2="552.91" y1="100.3199" y2="92.27"/><ellipse cx="560.4066" cy="100.3199" fill="none" rx="4" ry="4" style="stroke:#181818;stroke-width:1;"/><line style="stroke:#181818;stroke-width:1;" x1="552.7088" x2="558.5633" y1="97.9233" y2="92.4712"/><line style="stroke:#181818;stroke-width:1;" x1="665.3413" x2="659.4867" y1="207.1267" y2="212.5787"/><line style="stroke:#181818;stroke-width:1;" x1="663.2968" x2="657.4422" y1="204.9313" y2="210.3832"/><line style="stroke:#181818;stroke-width:1;" x1="659.688" x2="665.14" y1="206.9254" y2="212.78"/></g><!--link evaluations to dataset_revisions--><g class="link" data-entity-1="evaluations" data-entity-2="dataset_revisions" data-source-line="118" data-uid="lnk29" id="link_evaluations_dataset_revisions"><path codeLine="118" d="M720.6094,107.1756 C716.6394,142.3856 713.5668,169.6404 709.5968,204.8304" fill="none" id="evaluations-dataset_revisions" style="stroke:#181818;stroke-width:1;"/><line style="stroke:#181818;stroke-width:1;" x1="721.0575" x2="722.29" y1="103.2007" y2="92.27"/><ellipse cx="721.0575" cy="103.2007" fill="none" rx="4" ry="4" style="stroke:#181818;stroke-width:1;"/><line style="stroke:#181818;stroke-width:1;" x1="717.867" x2="725.8166" y1="95.7966" y2="96.693"/><line style="stroke:#181818;stroke-width:1;" x1="713.1232" x2="705.1736" y1="209.2536" y2="208.3568"/><line style="stroke:#181818;stroke-width:1;" x1="713.4595" x2="705.5099" y1="206.2725" y2="205.3757"/><line style="stroke:#181818;stroke-width:1;" x1="709.5968" x2="708.7" y1="204.8304" y2="212.78"/></g><!--SRC=[jLLDZvim4BtdLrZgONUb4kvL52dRpLQfcgJAib9lo0aEyHPiX4soAV3VEs0JR09LAhMSi9zdtfiFZ-_GaWGKevH4M980IRoDY1YDTX4M0iKrDfcWU-_ZX-Vd6NmFQ3f5-GWX6g1FwFLryGJ_IShVo4xwvfuy9mHMtlo71ok6OsErvscCPRi-qK0UOBbOUVClymti70WD3zBQ4lGNiJOSftAL26jpdmAJy7SyO_BwjE1PkYE6ph89zKW3mdrbFH1ndGqhHcLaHKt1Nk8uCRY1umuzOOa5aKudqOeyKA1F9OblP-_B-l_8CsQCIomfPtub5B2lB-iL09aWgP-I8oKdKcbuNA-_pMUhMXgetTKcCGz8P6aKsHQ2RLMfjG-9e24ZWQyKBvRp5s-s_DwMoCgIBt5uUwhWSCC7xknq5uNZE3plSTybhW8LDrm7imXbhvC_LjeyQKNHZSi8HKdhXc9mTOvg0IK7WwAmO-yghYeie9H3UllwS4-XktseF95MQu1algrEgxdpI1bEpxMN2PsgTfsuT0eMRqc8N9ImK67GKNlwhZ7DADoyvIvThTVLpa11LGXjaZV9AyUvuYcxOhn35cyPfj6Gdd-jn94LuxZot4hHWsAZazwh1QSfF_sjchQERjxyrdYloeauu3G0_7qwLdH6jxKTKNSSD517TJNnDdhICSuSRQYd7hhdB3fNqmcc3qC_oLayw9vh8cXQxNFzzTmoK7Cvstk3X-7w0Wp3b-2kZzILwvqVa08DZjIZgKmAwrsne7mG0b_6vUX3BfrwUQZh8NjrKGUp1nCnnPHH5lgNOCpKTlqLdJdHvaWB84SSPVKRSGjvrurDRleQ9luD]--></g></svg>