<svg xmlns="http://www.w3.org/2000/svg" xmlns:xlink="http://www.w3.org/1999/xlink" contentStyleType="text/css" data-diagram-type="CLASS" height="1708px" preserveAspectRatio="none" style="width:1022px;height:1708px;background:#FFFFFF;" version="1.1" viewBox="0 0 1022 1708" width="1022px" zoomAndPan="magnify"><defs/><g><!--class media--><g class="entity" data-entity="media" data-source-line="4" data-uid="ent0002" id="entity_media"><rect fill="#F1F1F1" height="196.9688" rx="2.5" ry="2.5" style="stroke:#181818;stroke-width:0.5;" width="124.041" x="254.5" y="1037"/><ellipse cx="293.7596" cy="1053" fill="#FFAAAA" rx="11" ry="11" style="stroke:#181818;stroke-width:1;"/><path d="M294.6814,1050.3906 L294.6814,1057.0469 L295.8377,1057.0469 Q296.4471,1057.0469 296.6971,1057.2813 Q296.9627,1057.5156 296.9627,1057.9063 Q296.9627,1058.2813 296.6971,1058.5156 Q296.4471,1058.75 295.8377,1058.75 L291.8533,1058.75 Q291.2283,1058.75 290.9627,1058.5156 Q290.7127,1058.2813 290.7127,1057.8906 Q290.7127,1057.5156 290.9627,1057.2813 Q291.2283,1057.0469 291.8533,1057.0469 L292.9783,1057.0469 L292.9783,1050.3906 L291.1346,1050.3906 L291.1346,1052 Q291.1346,1052.6094 290.9002,1052.875 Q290.6658,1053.1406 290.2908,1053.1406 Q289.9158,1053.1406 289.6814,1052.875 Q289.4471,1052.6094 289.4471,1052 L289.4471,1048.6875 L298.2596,1048.6875 L298.2596,1052 Q298.2596,1052.6094 298.0096,1052.875 Q297.7752,1053.1406 297.4002,1053.1406 Q297.0252,1053.1406 296.7908,1052.875 Q296.5564,1052.6094 296.5564,1052 L296.5564,1050.3906 L294.6814,1050.3906 Z " fill="#000000"/><text fill="#000000" font-family="sans-serif" font-size="14" lengthAdjust="spacing" textLength="38.1309" x="313.1506" y="1058.7969">media</text><line style="stroke:#181818;stroke-width:0.5;" x1="255.5" x2="377.541" y1="1069" y2="1069"/><text fill="#000000" font-family="sans-serif" font-size="14" lengthAdjust="spacing" textLength="56.7861" x="260.5" y="1088.1074">id : UUID</text><text fill="#000000" font-family="sans-serif" font-size="14" lengthAdjust="spacing" textLength="106.5928" x="260.5" y="1106.7285">project_id : UUID</text><text fill="#000000" font-family="sans-serif" font-size="14" lengthAdjust="spacing" textLength="73.9102" x="260.5" y="1125.3496">type : TEXT</text><text fill="#000000" font-family="sans-serif" font-size="14" lengthAdjust="spacing" textLength="82.4688" x="260.5" y="1143.9707">name : TEXT</text><text fill="#000000" font-family="sans-serif" font-size="14" lengthAdjust="spacing" textLength="87.124" x="260.5" y="1162.5918">format : TEXT</text><text fill="#000000" font-family="sans-serif" font-size="14" lengthAdjust="spacing" textLength="106.5791" x="260.5" y="1181.2129">width : INTEGER</text><text fill="#000000" font-family="sans-serif" font-size="14" lengthAdjust="spacing" textLength="112.041" x="260.5" y="1199.834">height : INTEGER</text><text fill="#000000" font-family="sans-serif" font-size="14" lengthAdjust="spacing" textLength="98.793" x="260.5" y="1218.4551">size : INTEGER</text><line style="stroke:#181818;stroke-width:0.5;" x1="255.5" x2="377.541" y1="1225.9688" y2="1225.9688"/></g><!--class videos--><g class="entity" data-entity="videos" data-source-line="15" data-uid="ent0003" id="entity_videos"><rect fill="#F1F1F1" height="122.4844" rx="2.5" ry="2.5" style="stroke:#181818;stroke-width:0.5;" width="170.7168" x="7" y="1355"/><ellipse cx="67.874" cy="1371" fill="#FFAAAA" rx="11" ry="11" style="stroke:#181818;stroke-width:1;"/><path d="M68.7959,1368.3906 L68.7959,1375.0469 L69.9521,1375.0469 Q70.5615,1375.0469 70.8115,1375.2813 Q71.0771,1375.5156 71.0771,1375.9063 Q71.0771,1376.2813 70.8115,1376.5156 Q70.5615,1376.75 69.9521,1376.75 L65.9678,1376.75 Q65.3428,1376.75 65.0771,1376.5156 Q64.8271,1376.2813 64.8271,1375.8906 Q64.8271,1375.5156 65.0771,1375.2813 Q65.3428,1375.0469 65.9678,1375.0469 L67.0928,1375.0469 L67.0928,1368.3906 L65.249,1368.3906 L65.249,1370 Q65.249,1370.6094 65.0146,1370.875 Q64.7803,1371.1406 64.4053,1371.1406 Q64.0303,1371.1406 63.7959,1370.875 Q63.5615,1370.6094 63.5615,1370 L63.5615,1366.6875 L72.374,1366.6875 L72.374,1370 Q72.374,1370.6094 72.124,1370.875 Q71.8896,1371.1406 71.5146,1371.1406 Q71.1396,1371.1406 70.9053,1370.875 Q70.6709,1370.6094 70.6709,1370 L70.6709,1368.3906 L68.7959,1368.3906 Z " fill="#000000"/><text fill="#000000" font-family="sans-serif" font-size="14" lengthAdjust="spacing" textLength="40.4688" x="88.374" y="1376.7969">videos</text><line style="stroke:#181818;stroke-width:0.5;" x1="8" x2="176.7168" y1="1387" y2="1387"/><text fill="#000000" font-family="sans-serif" font-size="14" lengthAdjust="spacing" textLength="56.7861" x="13" y="1406.1074">id : UUID</text><text fill="#000000" font-family="sans-serif" font-size="14" lengthAdjust="spacing" textLength="73.9102" x="13" y="1424.7285">type : TEXT</text><text fill="#000000" font-family="sans-serif" font-size="14" lengthAdjust="spacing" textLength="92.5723" x="13" y="1443.3496">fps : INTEGER</text><text fill="#000000" font-family="sans-serif" font-size="14" lengthAdjust="spacing" textLength="158.7168" x="13" y="1461.9707">frames_count : INTEGER</text><line style="stroke:#181818;stroke-width:0.5;" x1="8" x2="176.7168" y1="1469.4844" y2="1469.4844"/></g><!--class video_frames--><g class="entity" data-entity="video_frames" data-source-line="22" data-uid="ent0004" id="entity_video_frames"><rect fill="#F1F1F1" height="103.8633" rx="2.5" ry="2.5" style="stroke:#181818;stroke-width:0.5;" width="150.4688" x="86.5" y="1598"/><ellipse cx="116.9925" cy="1614" fill="#FFAAAA" rx="11" ry="11" style="stroke:#181818;stroke-width:1;"/><path d="M117.9144,1611.3906 L117.9144,1618.0469 L119.0706,1618.0469 Q119.68,1618.0469 119.93,1618.2813 Q120.1956,1618.5156 120.1956,1618.9063 Q120.1956,1619.2813 119.93,1619.5156 Q119.68,1619.75 119.0706,1619.75 L115.0862,1619.75 Q114.4612,1619.75 114.1956,1619.5156 Q113.9456,1619.2813 113.9456,1618.8906 Q113.9456,1618.5156 114.1956,1618.2813 Q114.4612,1618.0469 115.0862,1618.0469 L116.2112,1618.0469 L116.2112,1611.3906 L114.3675,1611.3906 L114.3675,1613 Q114.3675,1613.6094 114.1331,1613.875 Q113.8987,1614.1406 113.5237,1614.1406 Q113.1487,1614.1406 112.9144,1613.875 Q112.68,1613.6094 112.68,1613 L112.68,1609.6875 L121.4925,1609.6875 L121.4925,1613 Q121.4925,1613.6094 121.2425,1613.875 Q121.0081,1614.1406 120.6331,1614.1406 Q120.2581,1614.1406 120.0237,1613.875 Q119.7894,1613.6094 119.7894,1613 L119.7894,1611.3906 L117.9144,1611.3906 Z " fill="#000000"/><text fill="#000000" font-family="sans-serif" font-size="14" lengthAdjust="spacing" textLength="84.041" x="134.4353" y="1619.7969">video_frames</text><line style="stroke:#181818;stroke-width:0.5;" x1="87.5" x2="235.9688" y1="1630" y2="1630"/><text fill="#000000" font-family="sans-serif" font-size="14" lengthAdjust="spacing" textLength="56.7861" x="92.5" y="1649.1074">id : UUID</text><text fill="#000000" font-family="sans-serif" font-size="14" lengthAdjust="spacing" textLength="73.9102" x="92.5" y="1667.7285">type : TEXT</text><text fill="#000000" font-family="sans-serif" font-size="14" lengthAdjust="spacing" textLength="138.4688" x="92.5" y="1686.3496">timestamp : INTEGER</text><line style="stroke:#181818;stroke-width:0.5;" x1="87.5" x2="235.9688" y1="1693.8633" y2="1693.8633"/></g><!--class dataset_items--><g class="entity" data-entity="dataset_items" data-source-line="29" data-uid="ent0005" id="entity_dataset_items"><rect fill="#F1F1F1" height="290.0742" rx="2.5" ry="2.5" style="stroke:#181818;stroke-width:0.5;" width="229.875" x="372.5" y="626"/><ellipse cx="439.6084" cy="642" fill="#FFAAAA" rx="11" ry="11" style="stroke:#181818;stroke-width:1;"/><path d="M440.5303,639.3906 L440.5303,646.0469 L441.6865,646.0469 Q442.2959,646.0469 442.5459,646.2813 Q442.8115,646.5156 442.8115,646.9063 Q442.8115,647.2813 442.5459,647.5156 Q442.2959,647.75 441.6865,647.75 L437.7021,647.75 Q437.0771,647.75 436.8115,647.5156 Q436.5615,647.2813 436.5615,646.8906 Q436.5615,646.5156 436.8115,646.2813 Q437.0771,646.0469 437.7021,646.0469 L438.8271,646.0469 L438.8271,639.3906 L436.9834,639.3906 L436.9834,641 Q436.9834,641.6094 436.749,641.875 Q436.5146,642.1406 436.1396,642.1406 Q435.7646,642.1406 435.5303,641.875 Q435.2959,641.6094 435.2959,641 L435.2959,637.6875 L444.1084,637.6875 L444.1084,641 Q444.1084,641.6094 443.8584,641.875 Q443.624,642.1406 443.249,642.1406 Q442.874,642.1406 442.6396,641.875 Q442.4053,641.6094 442.4053,641 L442.4053,639.3906 L440.5303,639.3906 Z " fill="#000000"/><text fill="#000000" font-family="sans-serif" font-size="14" lengthAdjust="spacing" textLength="87.1582" x="460.1084" y="647.7969">dataset_items</text><line style="stroke:#181818;stroke-width:0.5;" x1="373.5" x2="601.375" y1="658" y2="658"/><text fill="#000000" font-family="sans-serif" font-size="14" lengthAdjust="spacing" textLength="102.7031" x="378.5" y="677.1074">media_id : UUID</text><text fill="#000000" font-family="sans-serif" font-size="14" lengthAdjust="spacing" textLength="106.5928" x="378.5" y="695.7285">project_id : UUID</text><text fill="#000000" font-family="sans-serif" font-size="14" lengthAdjust="spacing" textLength="82.4688" x="378.5" y="714.3496">name : TEXT</text><text fill="#000000" font-family="sans-serif" font-size="14" lengthAdjust="spacing" textLength="87.124" x="378.5" y="732.9707">format : TEXT</text><text fill="#000000" font-family="sans-serif" font-size="14" lengthAdjust="spacing" textLength="106.5791" x="378.5" y="751.5918">width : INTEGER</text><text fill="#000000" font-family="sans-serif" font-size="14" lengthAdjust="spacing" textLength="112.041" x="378.5" y="770.2129">height : INTEGER</text><text fill="#000000" font-family="sans-serif" font-size="14" lengthAdjust="spacing" textLength="98.793" x="378.5" y="788.834">size : INTEGER</text><text fill="#000000" font-family="sans-serif" font-size="14" lengthAdjust="spacing" textLength="149.4336" x="378.5" y="807.4551">annotation_data : JSON</text><text fill="#000000" font-family="sans-serif" font-size="14" lengthAdjust="spacing" textLength="170.4063" x="378.5" y="826.0762">user_reviewed : BOOLEAN</text><text fill="#000000" font-family="sans-serif" font-size="14" lengthAdjust="spacing" textLength="171.1924" x="378.5" y="844.6973">prediction_model_id : UUID</text><text fill="#000000" font-family="sans-serif" font-size="14" lengthAdjust="spacing" textLength="106.5928" x="378.5" y="863.3184">source_id : UUID</text><text fill="#000000" font-family="sans-serif" font-size="14" lengthAdjust="spacing" textLength="88.6963" x="378.5" y="881.9395">subset : TEXT</text><text fill="#000000" font-family="sans-serif" font-size="14" lengthAdjust="spacing" textLength="217.875" x="378.5" y="900.5605">subset_assigned_at : TIMESTAMP</text><line style="stroke:#181818;stroke-width:0.5;" x1="373.5" x2="601.375" y1="908.0742" y2="908.0742"/></g><!--class dataset_items_tags--><g class="entity" data-entity="dataset_items_tags" data-source-line="45" data-uid="ent0006" id="entity_dataset_items_tags"><rect fill="#F1F1F1" height="85.2422" rx="2.5" ry="2.5" style="stroke:#181818;stroke-width:0.5;" width="153.4063" x="414" y="1093"/><ellipse cx="429" cy="1109" fill="#FFAAAA" rx="11" ry="11" style="stroke:#181818;stroke-width:1;"/><path d="M429.9219,1106.3906 L429.9219,1113.0469 L431.0781,1113.0469 Q431.6875,1113.0469 431.9375,1113.2813 Q432.2031,1113.5156 432.2031,1113.9063 Q432.2031,1114.2813 431.9375,1114.5156 Q431.6875,1114.75 431.0781,1114.75 L427.0938,1114.75 Q426.4688,1114.75 426.2031,1114.5156 Q425.9531,1114.2813 425.9531,1113.8906 Q425.9531,1113.5156 426.2031,1113.2813 Q426.4688,1113.0469 427.0938,1113.0469 L428.2188,1113.0469 L428.2188,1106.3906 L426.375,1106.3906 L426.375,1108 Q426.375,1108.6094 426.1406,1108.875 Q425.9063,1109.1406 425.5313,1109.1406 Q425.1563,1109.1406 424.9219,1108.875 Q424.6875,1108.6094 424.6875,1108 L424.6875,1104.6875 L433.5,1104.6875 L433.5,1108 Q433.5,1108.6094 433.25,1108.875 Q433.0156,1109.1406 432.6406,1109.1406 Q432.2656,1109.1406 432.0313,1108.875 Q431.7969,1108.6094 431.7969,1108 L431.7969,1106.3906 L429.9219,1106.3906 Z " fill="#000000"/><text fill="#000000" font-family="sans-serif" font-size="14" lengthAdjust="spacing" textLength="121.4063" x="443" y="1114.7969">dataset_items_tags</text><line style="stroke:#181818;stroke-width:0.5;" x1="415" x2="566.4063" y1="1125" y2="1125"/><text fill="#000000" font-family="sans-serif" font-size="14" lengthAdjust="spacing" textLength="102.7031" x="420" y="1144.1074">media_id : UUID</text><text fill="#000000" font-family="sans-serif" font-size="14" lengthAdjust="spacing" textLength="66.9102" x="420" y="1162.7285">tag : TEXT</text><line style="stroke:#181818;stroke-width:0.5;" x1="415" x2="566.4063" y1="1170.2422" y2="1170.2422"/></g><!--class dataset_views--><g class="entity" data-entity="dataset_views" data-source-line="52" data-uid="ent0008" id="entity_dataset_views"><rect fill="#F1F1F1" height="85.2422" rx="2.5" ry="2.5" style="stroke:#181818;stroke-width:0.5;" width="120.7168" x="446" y="213"/><ellipse cx="461" cy="229" fill="#FFAAAA" rx="11" ry="11" style="stroke:#181818;stroke-width:1;"/><path d="M461.9219,226.3906 L461.9219,233.0469 L463.0781,233.0469 Q463.6875,233.0469 463.9375,233.2813 Q464.2031,233.5156 464.2031,233.9063 Q464.2031,234.2813 463.9375,234.5156 Q463.6875,234.75 463.0781,234.75 L459.0938,234.75 Q458.4688,234.75 458.2031,234.5156 Q457.9531,234.2813 457.9531,233.8906 Q457.9531,233.5156 458.2031,233.2813 Q458.4688,233.0469 459.0938,233.0469 L460.2188,233.0469 L460.2188,226.3906 L458.375,226.3906 L458.375,228 Q458.375,228.6094 458.1406,228.875 Q457.9063,229.1406 457.5313,229.1406 Q457.1563,229.1406 456.9219,228.875 Q456.6875,228.6094 456.6875,228 L456.6875,224.6875 L465.5,224.6875 L465.5,228 Q465.5,228.6094 465.25,228.875 Q465.0156,229.1406 464.6406,229.1406 Q464.2656,229.1406 464.0313,228.875 Q463.7969,228.6094 463.7969,228 L463.7969,226.3906 L461.9219,226.3906 Z " fill="#000000"/><text fill="#000000" font-family="sans-serif" font-size="14" lengthAdjust="spacing" textLength="88.7168" x="475" y="234.7969">dataset_views</text><line style="stroke:#181818;stroke-width:0.5;" x1="447" x2="565.7168" y1="245" y2="245"/><text fill="#000000" font-family="sans-serif" font-size="14" lengthAdjust="spacing" textLength="56.7861" x="452" y="264.1074">id : UUID</text><text fill="#000000" font-family="sans-serif" font-size="14" lengthAdjust="spacing" textLength="82.4688" x="452" y="282.7285">name : TEXT</text><line style="stroke:#181818;stroke-width:0.5;" x1="447" x2="565.7168" y1="290.2422" y2="290.2422"/></g><!--class dataset_views_items--><g class="entity" data-entity="dataset_views_items" data-source-line="57" data-uid="ent0009" id="entity_dataset_views_items"><rect fill="#F1F1F1" height="85.2422" rx="2.5" ry="2.5" style="stroke:#181818;stroke-width:0.5;" width="161.9512" x="440.5" y="419.5"/><ellipse cx="455.5" cy="435.5" fill="#FFAAAA" rx="11" ry="11" style="stroke:#181818;stroke-width:1;"/><path d="M456.4219,432.8906 L456.4219,439.5469 L457.5781,439.5469 Q458.1875,439.5469 458.4375,439.7813 Q458.7031,440.0156 458.7031,440.4063 Q458.7031,440.7813 458.4375,441.0156 Q458.1875,441.25 457.5781,441.25 L453.5938,441.25 Q452.9688,441.25 452.7031,441.0156 Q452.4531,440.7813 452.4531,440.3906 Q452.4531,440.0156 452.7031,439.7813 Q452.9688,439.5469 453.5938,439.5469 L454.7188,439.5469 L454.7188,432.8906 L452.875,432.8906 L452.875,434.5 Q452.875,435.1094 452.6406,435.375 Q452.4063,435.6406 452.0313,435.6406 Q451.6563,435.6406 451.4219,435.375 Q451.1875,435.1094 451.1875,434.5 L451.1875,431.1875 L460,431.1875 L460,434.5 Q460,435.1094 459.75,435.375 Q459.5156,435.6406 459.1406,435.6406 Q458.7656,435.6406 458.5313,435.375 Q458.2969,435.1094 458.2969,434.5 L458.2969,432.8906 L456.4219,432.8906 Z " fill="#000000"/><text fill="#000000" font-family="sans-serif" font-size="14" lengthAdjust="spacing" textLength="129.9512" x="469.5" y="441.2969">dataset_views_items</text><line style="stroke:#181818;stroke-width:0.5;" x1="441.5" x2="601.4512" y1="451.5" y2="451.5"/><text fill="#000000" font-family="sans-serif" font-size="14" lengthAdjust="spacing" textLength="146.2891" x="446.5" y="470.6074">dataset_view_id : UUID</text><text fill="#000000" font-family="sans-serif" font-size="14" lengthAdjust="spacing" textLength="102.7031" x="446.5" y="489.2285">media_id : UUID</text><line style="stroke:#181818;stroke-width:0.5;" x1="441.5" x2="601.4512" y1="496.7422" y2="496.7422"/></g><!--class dataset_revisions--><g class="entity" data-entity="dataset_revisions" data-source-line="66" data-uid="ent0012" id="entity_dataset_revisions"><rect fill="#F1F1F1" height="85.2422" rx="2.5" ry="2.5" style="stroke:#181818;stroke-width:0.5;" width="169.9717" x="739.5" y="213"/><ellipse cx="767.5592" cy="229" fill="#FFAAAA" rx="11" ry="11" style="stroke:#181818;stroke-width:1;"/><path d="M768.4811,226.3906 L768.4811,233.0469 L769.6374,233.0469 Q770.2467,233.0469 770.4967,233.2813 Q770.7624,233.5156 770.7624,233.9063 Q770.7624,234.2813 770.4967,234.5156 Q770.2467,234.75 769.6374,234.75 L765.653,234.75 Q765.028,234.75 764.7624,234.5156 Q764.5124,234.2813 764.5124,233.8906 Q764.5124,233.5156 764.7624,233.2813 Q765.028,233.0469 765.653,233.0469 L766.778,233.0469 L766.778,226.3906 L764.9342,226.3906 L764.9342,228 Q764.9342,228.6094 764.6999,228.875 Q764.4655,229.1406 764.0905,229.1406 Q763.7155,229.1406 763.4811,228.875 Q763.2467,228.6094 763.2467,228 L763.2467,224.6875 L772.0592,224.6875 L772.0592,228 Q772.0592,228.6094 771.8092,228.875 Q771.5749,229.1406 771.1999,229.1406 Q770.8249,229.1406 770.5905,228.875 Q770.3561,228.6094 770.3561,228 L770.3561,226.3906 L768.4811,226.3906 Z " fill="#000000"/><text fill="#000000" font-family="sans-serif" font-size="14" lengthAdjust="spacing" textLength="108.9512" x="784.4613" y="234.7969">dataset_revisions</text><line style="stroke:#181818;stroke-width:0.5;" x1="740.5" x2="908.4717" y1="245" y2="245"/><text fill="#000000" font-family="sans-serif" font-size="14" lengthAdjust="spacing" textLength="106.5928" x="745.5" y="264.1074">project_id : UUID</text><text fill="#000000" font-family="sans-serif" font-size="14" lengthAdjust="spacing" textLength="157.9717" x="745.5" y="282.7285">files_deleted : BOOLEAN</text><line style="stroke:#181818;stroke-width:0.5;" x1="740.5" x2="908.4717" y1="290.2422" y2="290.2422"/></g><g class="entity" data-entity="MediaBinary" data-source-line="71" data-uid="ent0013" id="entity_MediaBinary"><rect fill="#F1F1F1" height="86.4844" rx="2.5" ry="2.5" style="stroke:#181818;stroke-width:0.5;" width="234.5713" x="285" y="1373"/><text fill="#000000" font-family="sans-serif" font-size="14" lengthAdjust="spacing" textLength="77.8135" x="363.3789" y="1390.1074">MediaBinary</text><line style="stroke:#181818;stroke-width:0.5;" x1="286" x2="518.5713" y1="1395.6211" y2="1395.6211"/><text fill="#000000" font-family="sans-serif" font-size="14" font-style="italic" lengthAdjust="spacing" textLength="39.6758" x="291" y="1414.7285">format</text><text fill="#000000" font-family="sans-serif" font-size="14" lengthAdjust="spacing" textLength="61.4893" x="334.5654" y="1414.7285">: jpg / png</text><text fill="#000000" font-family="sans-serif" font-size="14" font-style="italic" lengthAdjust="spacing" textLength="34.2344" x="291" y="1433.3496">prefix</text><text fill="#000000" font-family="sans-serif" font-size="14" lengthAdjust="spacing" textLength="184.4473" x="329.124" y="1433.3496">: projects/{project_id}/dataset/</text><text fill="#000000" font-family="sans-serif" font-size="14" font-style="italic" lengthAdjust="spacing" textLength="52.917" x="291" y="1451.9707">filename</text><text fill="#000000" font-family="sans-serif" font-size="14" lengthAdjust="spacing" textLength="126.8613" x="347.8066" y="1451.9707">: {media_id}.{format}</text></g><g class="entity" data-entity="MediaThumbnail" data-source-line="77" data-uid="ent0014" id="entity_MediaThumbnail"><rect fill="#F1F1F1" height="86.4844" rx="2.5" ry="2.5" style="stroke:#181818;stroke-width:0.5;" width="234.5713" x="555" y="1373"/><text fill="#000000" font-family="sans-serif" font-size="14" lengthAdjust="spacing" textLength="103.4961" x="620.5376" y="1390.1074">MediaThumbnail</text><line style="stroke:#181818;stroke-width:0.5;" x1="556" x2="788.5713" y1="1395.6211" y2="1395.6211"/><text fill="#000000" font-family="sans-serif" font-size="14" font-style="italic" lengthAdjust="spacing" textLength="39.6758" x="561" y="1414.7285">format</text><text fill="#000000" font-family="sans-serif" font-size="14" lengthAdjust="spacing" textLength="26.4619" x="604.5654" y="1414.7285">: jpg</text><text fill="#000000" font-family="sans-serif" font-size="14" font-style="italic" lengthAdjust="spacing" textLength="34.2344" x="561" y="1433.3496">prefix</text><text fill="#000000" font-family="sans-serif" font-size="14" lengthAdjust="spacing" textLength="184.4473" x="599.124" y="1433.3496">: projects/{project_id}/dataset/</text><text fill="#000000" font-family="sans-serif" font-size="14" font-style="italic" lengthAdjust="spacing" textLength="52.917" x="561" y="1451.9707">filename</text><text fill="#000000" font-family="sans-serif" font-size="14" lengthAdjust="spacing" textLength="140.0889" x="617.8066" y="1451.9707">: {media_id}-thumb.jpg</text></g><g class="entity" data-entity="DatasetRevision" data-source-line="83" data-uid="ent0015" id="entity_DatasetRevision"><rect fill="#F1F1F1" height="86.4844" rx="2.5" ry="2.5" style="stroke:#181818;stroke-width:0.5;" width="377.7637" x="637.5" y="419"/><text fill="#000000" font-family="sans-serif" font-size="14" lengthAdjust="spacing" textLength="101.9375" x="775.4131" y="436.1074">DatasetRevision</text><line style="stroke:#181818;stroke-width:0.5;" x1="638.5" x2="1014.2637" y1="441.6211" y2="441.6211"/><text fill="#000000" font-family="sans-serif" font-size="14" font-style="italic" lengthAdjust="spacing" textLength="39.6758" x="643.5" y="460.7285">format</text><text fill="#000000" font-family="sans-serif" font-size="14" lengthAdjust="spacing" textLength="42.7861" x="687.0654" y="460.7285">: arrow</text><text fill="#000000" font-family="sans-serif" font-size="14" font-style="italic" lengthAdjust="spacing" textLength="34.2344" x="643.5" y="479.3496">prefix</text><text fill="#000000" font-family="sans-serif" font-size="14" lengthAdjust="spacing" textLength="327.6396" x="681.624" y="479.3496">: projects/{project_id}/dataset_revisions/{revision_id}/</text><text fill="#000000" font-family="sans-serif" font-size="14" font-style="italic" lengthAdjust="spacing" textLength="52.917" x="643.5" y="497.9707">filename</text><text fill="#000000" font-family="sans-serif" font-size="14" lengthAdjust="spacing" textLength="123.7305" x="700.3066" y="497.9707">: &lt;shard_idx&gt;.arrow</text></g><!--class projects--><g class="entity" data-entity="projects" data-source-line="92" data-uid="ent0017" id="entity_projects"><rect fill="#F1F1F1" height="66.6211" rx="2.5" ry="2.5" style="stroke:#181818;stroke-width:0.5;" width="81.0205" x="399" y="16"/><ellipse cx="414" cy="32" fill="#CCCCCC" rx="11" ry="11" style="stroke:#181818;stroke-width:1;"/><path d="M414.9219,29.3906 L414.9219,36.0469 L416.0781,36.0469 Q416.6875,36.0469 416.9375,36.2813 Q417.2031,36.5156 417.2031,36.9063 Q417.2031,37.2813 416.9375,37.5156 Q416.6875,37.75 416.0781,37.75 L412.0938,37.75 Q411.4688,37.75 411.2031,37.5156 Q410.9531,37.2813 410.9531,36.8906 Q410.9531,36.5156 411.2031,36.2813 Q411.4688,36.0469 412.0938,36.0469 L413.2188,36.0469 L413.2188,29.3906 L411.375,29.3906 L411.375,31 Q411.375,31.6094 411.1406,31.875 Q410.9063,32.1406 410.5313,32.1406 Q410.1563,32.1406 409.9219,31.875 Q409.6875,31.6094 409.6875,31 L409.6875,27.6875 L418.5,27.6875 L418.5,31 Q418.5,31.6094 418.25,31.875 Q418.0156,32.1406 417.6406,32.1406 Q417.2656,32.1406 417.0313,31.875 Q416.7969,31.6094 416.7969,31 L416.7969,29.3906 L414.9219,29.3906 Z " fill="#000000"/><text fill="#000000" font-family="sans-serif" font-size="14" lengthAdjust="spacing" textLength="49.0205" x="428" y="37.7969">projects</text><line style="stroke:#181818;stroke-width:0.5;" x1="400" x2="479.0205" y1="48" y2="48"/><text fill="#000000" font-family="sans-serif" font-size="14" lengthAdjust="spacing" textLength="56.7861" x="405" y="67.1074">id : UUID</text><line style="stroke:#181818;stroke-width:0.5;" x1="400" x2="479.0205" y1="74.6211" y2="74.6211"/></g><!--class model_revisions--><g class="entity" data-entity="model_revisions" data-source-line="109" data-uid="ent0028" id="entity_model_revisions"><rect fill="#F1F1F1" height="85.2422" rx="2.5" ry="2.5" style="stroke:#181818;stroke-width:0.5;" width="176.1992" x="546.5" y="7"/><ellipse cx="580.8685" cy="23" fill="#CCCCCC" rx="11" ry="11" style="stroke:#181818;stroke-width:1;"/><path d="M581.7903,20.3906 L581.7903,27.0469 L582.9466,27.0469 Q583.556,27.0469 583.806,27.2813 Q584.0716,27.5156 584.0716,27.9063 Q584.0716,28.2813 583.806,28.5156 Q583.556,28.75 582.9466,28.75 L578.9622,28.75 Q578.3372,28.75 578.0716,28.5156 Q577.8216,28.2813 577.8216,27.8906 Q577.8216,27.5156 578.0716,27.2813 Q578.3372,27.0469 578.9622,27.0469 L580.0872,27.0469 L580.0872,20.3906 L578.2435,20.3906 L578.2435,22 Q578.2435,22.6094 578.0091,22.875 Q577.7747,23.1406 577.3997,23.1406 Q577.0247,23.1406 576.7903,22.875 Q576.556,22.6094 576.556,22 L576.556,18.6875 L585.3685,18.6875 L585.3685,22 Q585.3685,22.6094 585.1185,22.875 Q584.8841,23.1406 584.5091,23.1406 Q584.1341,23.1406 583.8997,22.875 Q583.6653,22.6094 583.6653,22 L583.6653,20.3906 L581.7903,20.3906 Z " fill="#000000"/><text fill="#000000" font-family="sans-serif" font-size="14" lengthAdjust="spacing" textLength="101.1582" x="599.1726" y="28.7969">model_revisions</text><line style="stroke:#181818;stroke-width:0.5;" x1="547.5" x2="721.6992" y1="39" y2="39"/><text fill="#000000" font-family="sans-serif" font-size="14" lengthAdjust="spacing" textLength="56.7861" x="552.5" y="58.1074">id : UUID</text><text fill="#000000" font-family="sans-serif" font-size="14" lengthAdjust="spacing" textLength="164.1992" x="552.5" y="76.7285">training_dataset_id : UUID</text><line style="stroke:#181818;stroke-width:0.5;" x1="547.5" x2="721.6992" y1="84.2422" y2="84.2422"/></g><!--class evaluations--><g class="entity" data-entity="evaluations" data-source-line="116" data-uid="ent0030" id="entity_evaluations"><rect fill="#F1F1F1" height="85.2422" rx="2.5" ry="2.5" style="stroke:#181818;stroke-width:0.5;" width="178.5234" x="758" y="7"/><ellipse cx="807.5981" cy="23" fill="#CCCCCC" rx="11" ry="11" style="stroke:#181818;stroke-width:1;"/><path d="M808.52,20.3906 L808.52,27.0469 L809.6763,27.0469 Q810.2856,27.0469 810.5356,27.2813 Q810.8013,27.5156 810.8013,27.9063 Q810.8013,28.2813 810.5356,28.5156 Q810.2856,28.75 809.6763,28.75 L805.6919,28.75 Q805.0669,28.75 804.8013,28.5156 Q804.5513,28.2813 804.5513,27.8906 Q804.5513,27.5156 804.8013,27.2813 Q805.0669,27.0469 805.6919,27.0469 L806.8169,27.0469 L806.8169,20.3906 L804.9731,20.3906 L804.9731,22 Q804.9731,22.6094 804.7388,22.875 Q804.5044,23.1406 804.1294,23.1406 Q803.7544,23.1406 803.52,22.875 Q803.2856,22.6094 803.2856,22 L803.2856,18.6875 L812.0981,18.6875 L812.0981,22 Q812.0981,22.6094 811.8481,22.875 Q811.6138,23.1406 811.2388,23.1406 Q810.8638,23.1406 810.6294,22.875 Q810.395,22.6094 810.395,22 L810.395,20.3906 L808.52,20.3906 Z " fill="#000000"/><text fill="#000000" font-family="sans-serif" font-size="14" lengthAdjust="spacing" textLength="70.8271" x="828.0981" y="28.7969">evaluations</text><line style="stroke:#181818;stroke-width:0.5;" x1="759" x2="935.5234" y1="39" y2="39"/><text fill="#000000" font-family="sans-serif" font-size="14" lengthAdjust="spacing" textLength="56.7861" x="764" y="58.1074">id : UUID</text><text fill="#000000" font-family="sans-serif" font-size="14" lengthAdjust="spacing" textLength="166.5234" x="764" y="76.7285">dataset_revision_id : UUID</text><line style="stroke:#181818;stroke-width:0.5;" x1="759" x2="935.5234" y1="84.2422" y2="84.2422"/></g><!--link dataset_items to dataset_items_tags--><g class="link" data-entity-1="dataset_items" data-entity-2="dataset_items_tags" data-source-line="50" data-uid="lnk7" id="link_dataset_items_dataset_items_tags"><path codeLine="50" d="M488.7567,924.0497 C489.2867,987.6597 489.65,1031.6706 490.01,1074.8606" fill="none" id="dataset_items-dataset_items_tags" style="stroke:#181818;stroke-width:1;"/><line style="stroke:#181818;stroke-width:1;" x1="484.7235" x2="492.7232" y1="920.0832" y2="920.0165"/><line style="stroke:#181818;stroke-width:1;" x1="484.7485" x2="492.7482" y1="923.0831" y2="923.0164"/><line style="stroke:#181818;stroke-width:1;" x1="488.7567" x2="488.69" y1="924.0497" y2="916.05"/><line style="stroke:#181818;stroke-width:1;" x1="490.0933" x2="496.1598" y1="1084.8603" y2="1092.81"/><line style="stroke:#181818;stroke-width:1;" x1="490.0933" x2="484.1602" y1="1084.8603" y2="1092.91"/><line style="stroke:#181818;stroke-width:1;" x1="490.0933" x2="490.16" y1="1084.8603" y2="1092.86"/><ellipse cx="490.0433" cy="1078.8605" fill="none" rx="4" ry="4" style="stroke:#181818;stroke-width:1;"/></g><!--link dataset_views to dataset_views_items--><g class="link" data-entity-1="dataset_views" data-entity-2="dataset_views_items" data-source-line="62" data-uid="lnk10" id="link_dataset_views_dataset_views_items"><path codeLine="62" d="M510.1556,306.3585 C512.7456,341.6485 514.5372,365.9479 517.1172,401.2279" fill="none" id="dataset_views-dataset_views_items" style="stroke:#181818;stroke-width:1;"/><line style="stroke:#181818;stroke-width:1;" x1="505.8735" x2="513.8521" y1="302.6621" y2="302.0765"/><line style="stroke:#181818;stroke-width:1;" x1="506.0931" x2="514.0716" y1="305.654" y2="305.0684"/><line style="stroke:#181818;stroke-width:1;" x1="510.1556" x2="509.57" y1="306.3585" y2="298.38"/><line style="stroke:#181818;stroke-width:1;" x1="517.8465" x2="524.414" y1="411.2013" y2="418.7424"/><line style="stroke:#181818;stroke-width:1;" x1="517.8465" x2="512.446" y1="411.2013" y2="419.6176"/><line style="stroke:#181818;stroke-width:1;" x1="517.8465" x2="518.43" y1="411.2013" y2="419.18"/><ellipse cx="517.4089" cy="405.2173" fill="none" rx="4" ry="4" style="stroke:#181818;stroke-width:1;"/></g><!--link dataset_views_items to dataset_items--><g class="link" data-entity-1="dataset_views_items" data-entity-2="dataset_items" data-source-line="64" data-uid="lnk11" id="link_dataset_views_items_dataset_items"><path codeLine="64" d="M514.896,522.6103 C511.396,554.1703 509.2399,573.6585 504.3399,617.9385" fill="none" id="dataset_views_items-dataset_items" style="stroke:#181818;stroke-width:1;"/><line style="stroke:#181818;stroke-width:1;" x1="515.9982" x2="510.9166" y1="512.6713" y2="504.0587"/><line style="stroke:#181818;stroke-width:1;" x1="515.9982" x2="522.8434" y1="512.6713" y2="505.3813"/><line style="stroke:#181818;stroke-width:1;" x1="515.9982" x2="516.88" y1="512.6713" y2="504.72"/><ellipse cx="515.3369" cy="518.6347" fill="none" rx="4" ry="4" style="stroke:#181818;stroke-width:1;"/><line style="stroke:#181818;stroke-width:1;" x1="507.8757" x2="499.9242" y1="622.3542" y2="621.4743"/><line style="stroke:#181818;stroke-width:1;" x1="508.2056" x2="500.2542" y1="619.3724" y2="618.4925"/><line style="stroke:#181818;stroke-width:1;" x1="504.3399" x2="503.46" y1="617.9385" y2="625.89"/></g><!--link dataset_revisions to DatasetRevision--><g class="link" data-entity-1="dataset_revisions" data-entity-2="DatasetRevision" data-source-line="89" data-uid="lnk16" id="link_dataset_revisions_DatasetRevision"><path codeLine="89" d="M824.9873,306.3796 C825.3273,341.5496 825.6606,375.5704 826.0106,410.8304" fill="none" id="dataset_revisions-DatasetRevision" style="stroke:#181818;stroke-width:1;"/><line style="stroke:#181818;stroke-width:1;" x1="820.9489" x2="828.9485" y1="302.4185" y2="302.3411"/><line style="stroke:#181818;stroke-width:1;" x1="820.9779" x2="828.9775" y1="305.4183" y2="305.341"/><line style="stroke:#181818;stroke-width:1;" x1="824.9873" x2="824.91" y1="306.3796" y2="298.38"/><line style="stroke:#181818;stroke-width:1;" x1="830.0501" x2="822.0505" y1="414.7905" y2="414.8699"/><line style="stroke:#181818;stroke-width:1;" x1="830.0203" x2="822.0207" y1="411.7906" y2="411.87"/><line style="stroke:#181818;stroke-width:1;" x1="826.0106" x2="826.09" y1="410.8304" y2="418.83"/></g><!--link projects to dataset_items--><g class="link" data-entity-1="projects" data-entity-2="dataset_items" data-source-line="96" data-uid="lnk18" id="link_projects_dataset_items"><path codeLine="96" d="M422.947,90.5186 C407.537,130.2486 387.5,192.37 387.5,254.5 C387.5,254.5 387.5,254.5 387.5,463 C387.5,517.79 396.0181,558.5515 414.0481,608.9615" fill="none" id="projects-dataset_items" style="stroke:#181818;stroke-width:1;"/><line style="stroke:#181818;stroke-width:1;" x1="420.6642" x2="428.1228" y1="85.3428" y2="88.2358"/><line style="stroke:#181818;stroke-width:1;" x1="419.5794" x2="427.038" y1="88.1398" y2="91.0328"/><line style="stroke:#181818;stroke-width:1;" x1="422.947" x2="425.84" y1="90.5186" y2="83.06"/><line style="stroke:#181818;stroke-width:1;" x1="417.4158" x2="425.7595" y1="618.3773" y2="623.8894"/><line style="stroke:#181818;stroke-width:1;" x1="417.4158" x2="414.4605" y1="618.3773" y2="627.9306"/><line style="stroke:#181818;stroke-width:1;" x1="417.4158" x2="420.11" y1="618.3773" y2="625.91"/><ellipse cx="415.3952" cy="612.7278" fill="none" rx="4" ry="4" style="stroke:#181818;stroke-width:1;"/></g><!--link projects to dataset_views--><g class="link" data-entity-1="projects" data-entity-2="dataset_views" data-source-line="97" data-uid="lnk19" id="link_projects_dataset_views"><path codeLine="97" d="M452.7568,90.8804 C464.3368,126.1304 474.6616,157.5693 487.2516,195.8893" fill="none" id="projects-dataset_views" style="stroke:#181818;stroke-width:1;"/><line style="stroke:#181818;stroke-width:1;" x1="447.7082" x2="455.3086" y1="88.3286" y2="85.8318"/><line style="stroke:#181818;stroke-width:1;" x1="448.6445" x2="456.2449" y1="91.1787" y2="88.6819"/><line style="stroke:#181818;stroke-width:1;" x1="452.7568" x2="450.26" y1="90.8804" y2="83.28"/><line style="stroke:#181818;stroke-width:1;" x1="490.3729" x2="498.5702" y1="205.3897" y2="211.1172"/><line style="stroke:#181818;stroke-width:1;" x1="490.3729" x2="487.1698" y1="205.3897" y2="214.8628"/><line style="stroke:#181818;stroke-width:1;" x1="490.3729" x2="492.87" y1="205.3897" y2="212.99"/><ellipse cx="488.5001" cy="199.6895" fill="none" rx="4" ry="4" style="stroke:#181818;stroke-width:1;"/></g><!--link projects to dataset_revisions--><g class="link" data-entity-1="projects" data-entity-2="dataset_revisions" data-source-line="98" data-uid="lnk20" id="link_projects_dataset_revisions"><path codeLine="98" d="M487.4088,75.8859 C550.3988,109.2659 649.4244,161.7331 729.9444,204.3931" fill="none" id="projects-dataset_revisions" style="stroke:#181818;stroke-width:1;"/><line style="stroke:#181818;stroke-width:1;" x1="482.0014" x2="485.7474" y1="77.5474" y2="70.4786"/><line style="stroke:#181818;stroke-width:1;" x1="484.6522" x2="488.3982" y1="78.9521" y2="71.8833"/><line style="stroke:#181818;stroke-width:1;" x1="487.4088" x2="480.34" y1="75.8859" y2="72.14"/><line style="stroke:#181818;stroke-width:1;" x1="738.7809" x2="748.659" y1="209.0747" y2="207.5181"/><line style="stroke:#181818;stroke-width:1;" x1="738.7809" x2="743.041" y1="209.0747" y2="218.1219"/><line style="stroke:#181818;stroke-width:1;" x1="738.7809" x2="745.85" y1="209.0747" y2="212.82"/><ellipse cx="733.479" cy="206.2658" fill="none" rx="4" ry="4" style="stroke:#181818;stroke-width:1;"/></g><!--link projects to media--><g class="link" data-entity-1="projects" data-entity-2="media" data-source-line="99" data-uid="lnk21" id="link_projects_media"><path codeLine="99" d="M398.6865,89.0487 C362.3465,126.5987 316.5,186.06 316.5,254.5 C316.5,254.5 316.5,254.5 316.5,772 C316.5,861.68 316.5,945.84 316.5,1018.8" fill="none" id="projects-media" style="stroke:#181818;stroke-width:1;"/><line style="stroke:#181818;stroke-width:1;" x1="398.5939" x2="404.3426" y1="83.3926" y2="88.9561"/><line style="stroke:#181818;stroke-width:1;" x1="396.5076" x2="402.2563" y1="85.5484" y2="91.1119"/><line style="stroke:#181818;stroke-width:1;" x1="398.6865" x2="404.25" y1="89.0487" y2="83.3"/><line style="stroke:#181818;stroke-width:1;" x1="316.5" x2="322.5" y1="1028.8" y2="1036.8"/><line style="stroke:#181818;stroke-width:1;" x1="316.5" x2="310.5" y1="1028.8" y2="1036.8"/><line style="stroke:#181818;stroke-width:1;" x1="316.5" x2="316.5" y1="1028.8" y2="1036.8"/><ellipse cx="316.5" cy="1022.8" fill="none" rx="4" ry="4" style="stroke:#181818;stroke-width:1;"/></g><!--link dataset_items to media--><g class="link" data-entity-1="dataset_items" data-entity-2="media" data-source-line="101" data-uid="lnk22" id="link_dataset_items_media"><path codeLine="101" d="M416.1361,923.285 C397.0261,963.785 383.5338,992.4049 366.0238,1029.5149" fill="none" id="dataset_items-media" style="stroke:#181818;stroke-width:1;"/><line style="stroke:#181818;stroke-width:1;" x1="414.2256" x2="421.4606" y1="917.9606" y2="921.3744"/><line style="stroke:#181818;stroke-width:1;" x1="412.9454" x2="420.1804" y1="920.6737" y2="924.0876"/><line style="stroke:#181818;stroke-width:1;" x1="416.1361" x2="419.55" y1="923.285" y2="916.05"/><line style="stroke:#181818;stroke-width:1;" x1="367.9344" x2="360.6994" y1="1034.8394" y2="1031.4256"/><line style="stroke:#181818;stroke-width:1;" x1="369.2146" x2="361.9795" y1="1032.1262" y2="1028.7124"/><line style="stroke:#181818;stroke-width:1;" x1="366.0238" x2="362.61" y1="1029.5149" y2="1036.75"/></g><!--link media to videos--><g class="link" data-entity-1="media" data-entity-2="videos" data-source-line="103" data-uid="lnk23" id="link_media_videos"><path codeLine="103" d="M249.3864,1219.9441 C213.5264,1264.5341 183.4907,1301.8713 150.2507,1343.2013" fill="none" id="media-videos" style="stroke:#181818;stroke-width:1;"/><line style="stroke:#181818;stroke-width:1;" x1="248.7762" x2="255.0103" y1="1214.3203" y2="1219.3338"/><line style="stroke:#181818;stroke-width:1;" x1="246.8961" x2="253.1302" y1="1216.6581" y2="1221.6716"/><line style="stroke:#181818;stroke-width:1;" x1="249.3864" x2="254.4" y1="1219.9441" y2="1213.71"/><line style="stroke:#181818;stroke-width:1;" x1="147.7439" x2="140.85" y1="1346.3183" y2="1354.89"/><ellipse cx="147.7439" cy="1346.3183" fill="none" rx="4" ry="4" style="stroke:#181818;stroke-width:1;"/><line style="stroke:#181818;stroke-width:1;" x1="146.4739" x2="140.2399" y1="1354.2799" y2="1349.2661"/></g><!--link media to video_frames--><g class="link" data-entity-1="media" data-entity-2="video_frames" data-source-line="104" data-uid="lnk24" id="link_media_video_frames"><path codeLine="104" d="M284.6643,1241.7575 C251.9043,1350.0875 206.9313,1498.762 181.3213,1583.462" fill="none" id="media-video_frames" style="stroke:#181818;stroke-width:1;"/><line style="stroke:#181818;stroke-width:1;" x1="281.9934" x2="289.6509" y1="1236.7709" y2="1239.0866"/><line style="stroke:#181818;stroke-width:1;" x1="281.125" x2="288.7825" y1="1239.6425" y2="1241.9582"/><line style="stroke:#181818;stroke-width:1;" x1="284.6643" x2="286.98" y1="1241.7575" y2="1234.1"/><line style="stroke:#181818;stroke-width:1;" x1="180.1636" x2="176.98" y1="1587.2908" y2="1597.82"/><ellipse cx="180.1636" cy="1587.2908" fill="none" rx="4" ry="4" style="stroke:#181818;stroke-width:1;"/><line style="stroke:#181818;stroke-width:1;" x1="181.9665" x2="174.3089" y1="1595.1489" y2="1592.8335"/></g><!--link media to MediaBinary--><g class="link" data-entity-1="media" data-entity-2="MediaBinary" data-source-line="105" data-uid="lnk25" id="link_media_MediaBinary"><path codeLine="105" d="M349.0597,1241.9441 C363.7197,1289.4341 375.8485,1328.7065 387.1685,1365.3465" fill="none" id="media-MediaBinary" style="stroke:#181818;stroke-width:1;"/><line style="stroke:#181818;stroke-width:1;" x1="344.0578" x2="351.7019" y1="1239.3019" y2="1236.9422"/><line style="stroke:#181818;stroke-width:1;" x1="344.9427" x2="352.5868" y1="1242.1684" y2="1239.8087"/><line style="stroke:#181818;stroke-width:1;" x1="349.0597" x2="346.7" y1="1241.9441" y2="1234.3"/><line style="stroke:#181818;stroke-width:1;" x1="392.171" x2="384.5275" y1="1367.9875" y2="1370.349"/><line style="stroke:#181818;stroke-width:1;" x1="391.2855" x2="383.6419" y1="1365.1212" y2="1367.4827"/><line style="stroke:#181818;stroke-width:1;" x1="387.1685" x2="389.53" y1="1365.3465" y2="1372.99"/></g><!--link media to MediaThumbnail--><g class="link" data-entity-1="media" data-entity-2="MediaThumbnail" data-source-line="106" data-uid="lnk26" id="link_media_MediaThumbnail"><path codeLine="106" d="M384.2377,1222.4016 C390.0177,1228.5116 390.47,1228.58 396.5,1234 C457.77,1289.06 530.3262,1335.3425 588.2562,1368.8725" fill="none" id="media-MediaThumbnail" style="stroke:#181818;stroke-width:1;"/><line style="stroke:#181818;stroke-width:1;" x1="378.5831" x2="384.3947" y1="1222.2447" y2="1216.7469"/><line style="stroke:#181818;stroke-width:1;" x1="380.6447" x2="386.4563" y1="1224.424" y2="1218.9263"/><line style="stroke:#181818;stroke-width:1;" x1="384.2377" x2="378.74" y1="1222.4016" y2="1216.59"/><line style="stroke:#181818;stroke-width:1;" x1="593.7218" x2="589.7143" y1="1367.4143" y2="1374.3382"/><line style="stroke:#181818;stroke-width:1;" x1="591.1254" x2="587.1179" y1="1365.9115" y2="1372.8353"/><line style="stroke:#181818;stroke-width:1;" x1="588.2562" x2="595.18" y1="1368.8725" y2="1372.88"/></g><!--link videos to video_frames--><g class="link" data-entity-1="videos" data-entity-2="video_frames" data-source-line="107" data-uid="lnk27" id="link_videos_video_frames"><path codeLine="107" d="M112.6404,1484.7181 C123.7804,1522.1781 130.5455,1544.9478 141.1555,1580.5978" fill="none" id="videos-video_frames" style="stroke:#181818;stroke-width:1;"/><line style="stroke:#181818;stroke-width:1;" x1="107.6661" x2="115.3342" y1="1482.0242" y2="1479.7439"/><line style="stroke:#181818;stroke-width:1;" x1="108.5213" x2="116.1894" y1="1484.8998" y2="1482.6194"/><line style="stroke:#181818;stroke-width:1;" x1="112.6404" x2="110.36" y1="1484.7181" y2="1477.05"/><line style="stroke:#181818;stroke-width:1;" x1="144.008" x2="152.0407" y1="1590.1824" y2="1596.1385"/><line style="stroke:#181818;stroke-width:1;" x1="144.008" x2="140.5393" y1="1590.1824" y2="1599.5615"/><line style="stroke:#181818;stroke-width:1;" x1="144.008" x2="146.29" y1="1590.1824" y2="1597.85"/><ellipse cx="142.2965" cy="1584.4317" fill="none" rx="4" ry="4" style="stroke:#181818;stroke-width:1;"/></g><!--link model_revisions to dataset_revisions--><g class="link" data-entity-1="model_revisions" data-entity-2="dataset_revisions" data-source-line="114" data-uid="lnk29" id="link_model_revisions_dataset_revisions"><path codeLine="114" d="M683.6327,103.2471 C716.4227,138.4571 747.418,171.7354 780.188,206.9254" fill="none" id="model_revisions-dataset_revisions" style="stroke:#181818;stroke-width:1;"/><line style="stroke:#181818;stroke-width:1;" x1="680.9066" x2="673.41" y1="100.3199" y2="92.27"/><ellipse cx="680.9066" cy="100.3199" fill="none" rx="4" ry="4" style="stroke:#181818;stroke-width:1;"/><line style="stroke:#181818;stroke-width:1;" x1="673.2088" x2="679.0633" y1="97.9233" y2="92.4712"/><line style="stroke:#181818;stroke-width:1;" x1="785.8413" x2="779.9867" y1="207.1267" y2="212.5787"/><line style="stroke:#181818;stroke-width:1;" x1="783.7968" x2="777.9422" y1="204.9313" y2="210.3832"/><line style="stroke:#181818;stroke-width:1;" x1="780.188" x2="785.64" y1="206.9254" y2="212.78"/></g><!--link evaluations to dataset_revisions--><g class="link" data-entity-1="evaluations" data-entity-2="dataset_revisions" data-source-line="121" data-uid="lnk31" id="link_evaluations_dataset_revisions"><path codeLine="121" d="M841.1094,107.1756 C837.1394,142.3856 834.0668,169.6404 830.0968,204.8304" fill="none" id="evaluations-dataset_revisions" style="stroke:#181818;stroke-width:1;"/><line style="stroke:#181818;stroke-width:1;" x1="841.5575" x2="842.79" y1="103.2007" y2="92.27"/><ellipse cx="841.5575" cy="103.2007" fill="none" rx="4" ry="4" style="stroke:#181818;stroke-width:1;"/><line style="stroke:#181818;stroke-width:1;" x1="838.367" x2="846.3166" y1="95.7966" y2="96.693"/><line style="stroke:#181818;stroke-width:1;" x1="833.6232" x2="825.6736" y1="209.2536" y2="208.3568"/><line style="stroke:#181818;stroke-width:1;" x1="833.9595" x2="826.0099" y1="206.2725" y2="205.3757"/><line style="stroke:#181818;stroke-width:1;" x1="830.0968" x2="829.2" y1="204.8304" y2="212.78"/></g><!--SRC=[hLLHRvim47xFhx2qXxRI2EzJ52bTqodJaamfbVPcES4Xxi16s2JDWF- -0vk0AMofL9wmxtpVTtUVppTeINr6K493egYF5Dc6L8v6kv18YQBADfcWM-_pfyV76NntQ3f5sGWXvgClwFbvyG3_SI9Uw4xXzfuwnnHMtloN1ojEejPgBvA8g6PzOhuwm7AnykRVvXlOEL0M79Ir9TaVsjeeQf97vbCXhs1fCzh7qWg_Ju2Yn3kHSZK8WxNNky4KWrEAHB4T-GOz44KaLKwd_XhIrqRC58s6CAiMuVyru-FBZn3XN2YYcE2u90gsxq_h5HXIIHESq2EZ9rfok5-lVyndgueQiDrLHoBXqz3YA4MQxAYzbMuX_uQeNcEe3GiuzR5EOh6SFtcpvS-cLrRXi2B1zTK3vneFmjaTo7F7SKJM4xuBNEP-ZKhQVIbwW_op-MrFAujkNgrKDBLkAYsiZgiXK0WuaETsxbt6PTCbT7U8Rvyqzmm4Zq4CL5bg0SfYMthh2NNFE4dELPG9cse5JrmsXHClSO1S5FD0sq1aU_PgR0PHkbc3NRY6hsk20OEo4UP8LXUl66SQf-YIyGvfjEM4XKDyFfg9eqh4SHcveM9cnyOKlPSBIH9nUY-RfezkLlzMzbwM4taWYG_sr-bOmxNKrYYYKXm8gCEw788RC_ouu8uvQ0OXkXKyF9S32mOIHx_fMTuPpTKPr5BxMdqzjmpON7nxR_2mkRe0m-PBSczTgixrpWyeWJ7grrMVoCqprhTf7fss2OAqRaMVvIBHaNaVQsPMoFgThuRnczixM58OambXdF40Np9irxiRB-yCZwPmXW0zaZ2jtf9hmBjXRF1sh67Wlm00]--></g></svg>