<svg width="16" height="16" viewBox="0 0 16 16" fill="none" xmlns="http://www.w3.org/2000/svg">
<path d="M3.99936 14.0002H2.99936V12.0002H3.99936V14.0002Z" />
<path d="M7.99936 7.00021C8.76616 7.00021 9.43132 7.43219 9.76693 8.06564C9.77459 8.08003 9.78111 8.09499 9.78842 8.10959C9.8086 8.15006 9.82857 8.19066 9.84604 8.23264C9.86109 8.26867 9.87311 8.30592 9.88608 8.34299C9.89416 8.36619 9.90422 8.38874 9.91147 8.41232C9.92036 8.44115 9.92632 8.47085 9.93393 8.50021C9.97514 8.66016 9.99936 8.8274 9.99936 9.00021V12.0002C9.99924 12.9765 9.29965 13.7876 8.37436 13.9631C8.32969 13.9716 8.28427 13.978 8.23861 13.9836C8.22717 13.985 8.21594 13.9883 8.20443 13.9895L7.99936 14.0002H4.99936V12.0002H7.49936L7.59994 11.9904C7.62935 11.9844 7.65762 11.9741 7.6849 11.9631C7.69141 11.9605 7.69807 11.9572 7.70443 11.9543C7.72639 11.9444 7.74778 11.933 7.76791 11.9201C7.77296 11.9169 7.7786 11.9138 7.78354 11.9104C7.82452 11.8819 7.85924 11.8459 7.88998 11.8069C7.90177 11.7921 7.91302 11.777 7.92318 11.761C7.93426 11.743 7.94464 11.7247 7.95346 11.7053C7.95635 11.6989 7.95961 11.6923 7.96225 11.6858C7.97322 11.6584 7.98355 11.6303 7.98959 11.6008C7.9962 11.5684 7.99934 11.5346 7.99936 11.5002V9.50021C7.99936 9.22407 7.7755 9.00021 7.49936 9.00021H4.99936V7.00021H7.99936Z" />
<path d="M13.2035 1.09787C13.355 0.986437 13.5566 0.969047 13.7249 1.05393C13.893 1.1389 13.9993 1.31184 13.9994 1.50021V8.50021C13.9989 8.7292 13.8426 8.92904 13.6205 8.98459L10.9994 9.63986V9.00021C10.9993 8.87028 10.99 8.742 10.974 8.61643L12.9994 8.10959V2.48947L9.72006 4.90256C9.61465 4.98002 9.48252 5.0139 9.35287 4.99533L3.3099 4.12228L4.11459 6.00021H3.0267L2.04037 3.6965C1.96931 3.5308 1.99324 3.33885 2.10287 3.19553C2.21277 3.05236 2.39184 2.9794 2.57065 3.0051L9.2933 3.9758L13.2035 1.09787Z" />
<path d="M3.99936 7.00021V9.00021H2.99936V7.00021H3.99936Z" />
</svg>
