<svg width="73" height="18" viewBox="0 0 73 18" fill="none" xmlns="http://www.w3.org/2000/svg">
<path d="M18.1404 8.34231C18.1058 8.34231 18.0712 8.34231 18.0365 8.34231L14.9558 2.73462C15.025 2.63077 15.025 2.52692 15.025 2.38846C15.025 1.97308 14.6788 1.66154 14.2981 1.66154C14.0904 1.66154 13.8827 1.76538 13.7788 1.90385L7.68654 0.657692C7.65192 0.276923 7.34038 0 6.95962 0C6.54423 0 6.23269 0.346154 6.23269 0.726923C6.23269 0.865385 6.26731 0.969231 6.30192 1.07308L1.55962 7.89231C1.49038 7.89231 1.42115 7.85769 1.35192 7.85769C0.936538 7.85769 0.625 8.20385 0.625 8.58462C0.625 9 0.971154 9.31154 1.35192 9.31154H1.38654L3.94808 15.6462C3.91346 15.75 3.87885 15.8538 3.87885 15.9577C3.87885 16.3731 4.225 16.6846 4.60577 16.6846C4.81346 16.6846 5.02115 16.5808 5.125 16.4423L12.8096 17.2038C12.8788 17.5154 13.1904 17.7577 13.5365 17.7577C13.9519 17.7577 14.2635 17.4115 14.2635 17.0308C14.2635 16.8577 14.1942 16.6846 14.0904 16.5462L17.9673 9.79615C18.0019 9.79615 18.0365 9.79615 18.1058 9.79615C18.5212 9.79615 18.8327 9.45 18.8327 9.06923C18.8673 8.68846 18.5558 8.34231 18.1404 8.34231ZM13.7096 2.83846C13.8135 2.94231 13.9173 3.04615 14.0558 3.08077L12.8788 11.8731C12.8096 11.8731 12.7404 11.9077 12.6712 11.9423L6.26731 6.40385C6.26731 6.33462 6.30192 6.26538 6.30192 6.19615C6.30192 6.16154 6.30192 6.09231 6.30192 6.05769L13.7096 2.83846ZM17.4135 9.31154L13.4673 12.0115C13.4327 11.9769 13.3981 11.9769 13.3635 11.9423L14.575 3.08077L17.5865 8.61923C17.4827 8.75769 17.4135 8.93077 17.4135 9.10385C17.3788 9.17308 17.4135 9.24231 17.4135 9.31154ZM5.47115 5.46923C5.125 5.53846 4.84808 5.81538 4.84808 6.19615V6.23077L2.21731 7.78846L6.30192 1.93846L5.47115 5.46923ZM5.74808 6.92308C5.85192 6.88846 5.95577 6.85385 6.025 6.81923L12.3596 12.3231C12.325 12.3923 12.325 12.4962 12.325 12.6V12.6346L5.22885 15.5423C5.125 15.4038 4.95192 15.2654 4.77885 15.2308L5.74808 6.92308ZM12.4981 13.0846C12.6019 13.1885 12.7404 13.2577 12.8788 13.2923L13.225 16.3731C13.0865 16.4423 12.9481 16.5808 12.8788 16.7192L5.43654 15.9923L12.4981 13.0846ZM13.3981 13.2577C13.6404 13.1538 13.8135 12.8769 13.8135 12.6C13.8135 12.5308 13.8135 12.4615 13.7788 12.4269L17.3788 9.96923L13.7442 16.2692L13.3981 13.2577ZM13.5712 2.35385L6.05962 5.64231C6.025 5.60769 5.99038 5.60769 5.99038 5.57308L6.95962 1.48846H6.99423C7.27115 1.48846 7.47885 1.35 7.61731 1.14231L13.5712 2.35385ZM2.11346 8.58462C2.11346 8.55 2.11346 8.48077 2.11346 8.44615L5.09038 6.68077C5.15962 6.75 5.22885 6.78462 5.29808 6.81923L4.32885 15.1269L1.90577 9.13846C2.00962 9 2.11346 8.82692 2.11346 8.58462Z" />
<path d="M27.2096 11.8038V6.50769C27.2096 3.94615 29.1481 2.97692 31.675 2.97692C34.1673 2.97692 36.1404 3.94615 36.1404 6.50769V11.8038C36.1404 14.3654 34.1673 15.3346 31.675 15.3346C29.1481 15.3346 27.2096 14.3654 27.2096 11.8038ZM35.0327 6.50769C35.0327 4.63846 33.7865 3.80769 31.675 3.80769C29.5635 3.80769 28.3173 4.67308 28.3173 6.50769V11.8038C28.3173 13.6731 29.5635 14.5038 31.675 14.5038C33.7865 14.5038 35.0327 13.6385 35.0327 11.8038V6.50769Z" />
<path d="M47.1135 14.6077L40.6058 4.98462V14.85C40.6058 15.0923 40.3288 15.2308 40.0519 15.2308C39.775 15.2308 39.4981 15.1269 39.4981 14.85V3.35769C39.4981 3.08077 39.775 3.01154 40.0519 3.01154C40.4673 3.01154 40.7442 3.42692 40.9519 3.70385L47.3558 13.2577V3.35769C47.3558 3.11538 47.6327 3.01154 47.9096 3.01154C48.1865 3.01154 48.4635 3.11538 48.4635 3.35769V14.85C48.4635 15.0923 48.1865 15.2308 47.9096 15.2308C47.5635 15.2308 47.3212 14.8846 47.1135 14.6077Z" />
<path d="M59.575 14.6077L53.0673 4.98462V14.85C53.0673 15.0923 52.7904 15.2308 52.5135 15.2308C52.2365 15.2308 51.9596 15.1269 51.9596 14.85V3.35769C51.9596 3.08077 52.2365 3.01154 52.5135 3.01154C52.9289 3.01154 53.2058 3.42692 53.4135 3.70385L59.8173 13.2577V3.35769C59.8173 3.11538 60.0942 3.01154 60.3712 3.01154C60.6481 3.01154 60.925 3.11538 60.925 3.35769V14.85C60.925 15.0923 60.6481 15.2308 60.3712 15.2308C60.0596 15.2308 59.7827 14.8846 59.575 14.6077Z" />
<path d="M67.8135 9.9L64.525 14.6769C64.3865 14.9192 64.1788 15.2308 63.8673 15.2308C63.5904 15.2308 63.2442 15.0577 63.2442 14.8154C63.2442 14.7462 63.2788 14.6769 63.3481 14.6077L67.1558 9.10385L63.4173 3.63462C63.3135 3.53077 63.2788 3.42692 63.2788 3.32308C63.2788 3.11538 63.5558 2.97692 63.9019 2.97692C64.2135 2.97692 64.4212 3.28846 64.5942 3.56538L67.8135 8.30769L71.0327 3.56538C71.2058 3.32308 71.4135 2.97692 71.725 2.97692C72.0712 2.97692 72.3481 3.11538 72.3481 3.32308C72.3481 3.42692 72.3135 3.53077 72.2096 3.63462L68.4365 9.10385L72.2788 14.6077C72.3135 14.6769 72.3827 14.7462 72.3827 14.8154C72.3827 15.0577 72.0712 15.2308 71.7596 15.2308C71.4135 15.2308 71.2404 14.8846 71.1019 14.6769L67.8135 9.9Z" />
</svg>
