<svg width="10" height="8" viewBox="0 0 10 8" fill="none" xmlns="http://www.w3.org/2000/svg">
<path d="M6.99951 7.74999L6.99951 3L5.2505 3C5.02777 3 4.91623 2.73071 5.07372 2.57322L7.32273 0.0830278C7.37155 0.0342126 7.43553 1.06297e-06 7.49951 0C7.56349 -8.4438e-07 7.62747 0.0342107 7.67629 0.0830269L9.92578 2.57322C10.0833 2.73071 9.97173 3 9.74901 3L7.99951 3L7.99951 7.74999C7.99951 7.88807 7.88758 7.99999 7.74951 7.99999H7.24951C7.11143 7.99999 6.99951 7.88807 6.99951 7.74999Z" fill="white"/>
<path d="M1.99951 0.250013L1.99951 5.00001L0.250502 5.00001C0.0277749 5.00001 -0.0837669 5.2693 0.0737248 5.42679L2.32273 7.91698C2.37155 7.9658 2.43553 8.00001 2.49951 8.00001C2.56349 8.00001 2.62747 7.9658 2.67629 7.91698L4.92578 5.42679C5.08327 5.2693 4.97173 5.00001 4.74901 5.00001L2.99951 5.00001L2.99951 0.250013C2.99951 0.111942 2.88758 1.33575e-05 2.74951 1.33514e-05L2.24951 1.33514e-05C2.11144 1.33454e-05 1.99951 0.111942 1.99951 0.250013Z" fill="white"/>
</svg>
