<svg width="16" height="16" viewBox="0 0 16 16" xmlns="http://www.w3.org/2000/svg">
<path d="M4 4H8V5H4V4Z" />
<path d="M7 7V8H1V7H7Z" />
<path d="M4 10H8V11H4V10Z" />
<path d="M14.7747 7.56036L10.7853 5.07529C10.6079 4.9648 10.3885 4.98311 10.2268 5.08828C10.094 5.17464 10 5.31957 10 5.49986V10.4999C10 10.6987 10.1159 10.8565 10.2726 10.9386C10.4278 11.02 10.6231 11.027 10.7853 10.926L14.7747 8.44093C14.9315 8.34323 15.0099 8.17194 15.0099 8.00065C15.0099 7.82936 14.9315 7.65806 14.7747 7.56036Z" />
</svg>
