<svg width="74" height="18" viewBox="0 0 74 18" fill="none" xmlns="http://www.w3.org/2000/svg">
<path d="M9.88675 4.20992L8.90494 5.19174C10.5115 6.79835 10.5115 9.38678 8.90494 10.9636C7.29832 12.5702 4.70989 12.5702 3.13303 10.9636C1.52642 9.35703 1.52642 6.7686 3.13303 5.19174L6.03386 2.29091V0.371902L2.19584 4.20992C0.0536963 6.35207 0.0536963 9.80331 2.19584 11.9455C4.33799 14.0876 7.78923 14.0876 9.88675 11.9455C12.0289 9.78843 12.0289 6.35207 9.88675 4.20992Z" />
<path d="M8.6818 3.25785C8.6818 3.65222 8.36211 3.9719 7.96775 3.9719C7.57338 3.9719 7.2537 3.65222 7.2537 3.25785C7.2537 2.86349 7.57338 2.5438 7.96775 2.5438C8.36211 2.5438 8.6818 2.86349 8.6818 3.25785Z" />
<path d="M19.809 9.11903H18.1578V13.3587H16.9082V1.29424H19.9429C23.1115 1.29424 24.6288 2.85623 24.6288 5.043C24.6735 7.73556 22.7991 9.11903 19.809 9.11903ZM19.9429 2.4992C19.809 2.4992 18.2024 2.4992 18.2024 2.4992V8.04796L19.8983 8.00333C22.1743 7.9587 23.4239 7.06614 23.4239 5.19176C23.4239 3.43639 22.1743 2.4992 19.9429 2.4992Z" />
<path d="M30.2222 13.3141L29.5082 15.2331C28.7049 17.3752 27.8569 18 26.652 18C25.9826 18 25.4917 17.8215 24.9561 17.5984L25.3131 16.4827C25.7148 16.7058 26.1611 16.8843 26.652 16.8843C27.3214 16.8843 27.8123 16.5273 28.4817 14.8314L29.0619 13.2694L25.6255 4.55209H26.9198L29.6867 11.8413L32.409 4.55209H33.6586L30.2222 13.3141Z" />
<path d="M37.7346 2.4992V13.4033H36.485V2.4992H32.2454V1.33887H41.9446V2.4992C41.9297 2.4992 37.7346 2.4992 37.7346 2.4992Z" />
<path d="M45.4702 13.6265C43.0156 13.6265 41.2305 11.7967 41.2305 8.98515C41.2305 6.17358 43.1049 4.2992 45.6041 4.2992C48.1032 4.2992 49.8437 6.12895 49.8437 8.94052C49.7991 11.7521 47.9247 13.6265 45.4702 13.6265ZM45.5148 5.4149C43.6404 5.4149 42.4355 6.88763 42.4355 8.98515C42.4355 11.1273 43.685 12.6 45.5594 12.6C47.4338 12.6 48.6388 11.1273 48.6388 9.02978C48.6388 6.843 47.3892 5.4149 45.5148 5.4149Z" />
<path d="M52.8338 13.4033H51.6288V4.55209L52.8338 4.28432V6.1587C53.414 5.043 54.2619 4.28432 55.4222 4.28432C56.0024 4.28432 56.5379 4.46284 56.9842 4.68598L56.6718 5.80168C56.2702 5.57854 55.8239 5.40003 55.333 5.40003C54.3958 5.40003 53.5479 6.11408 52.8338 7.67606V13.4033Z" />
<path d="M61.685 13.6265C59.0074 13.6265 57.3561 11.7075 57.3561 8.98515C57.3561 6.21821 59.1859 4.2992 61.685 4.2992C62.7561 4.2992 63.6933 4.56697 64.452 5.05788L64.1396 6.12895C63.4702 5.68267 62.6222 5.4149 61.685 5.4149C59.766 5.4149 58.6057 6.843 58.6057 8.94052C58.6057 11.0827 59.8553 12.5108 61.7297 12.5108C62.6222 12.5108 63.5148 12.243 64.1842 11.7967L64.452 12.9124C63.6487 13.3587 62.7115 13.6265 61.685 13.6265Z" />
<path d="M71.8305 7.67606C71.8305 6.11408 71.2057 5.44465 69.9561 5.44465C68.9297 5.44465 67.9479 5.98019 67.2338 6.69424V13.4033H66.0289V0.40168L67.2338 0.133911V5.7273C68.171 4.79011 69.3313 4.34383 70.3131 4.34383C72.009 4.34383 73.0801 5.45953 73.0801 7.37854V13.4182H71.8305V7.67606Z" />
</svg>
