<svg width="16" height="16" viewBox="0 0 16 16" fill="none" xmlns="http://www.w3.org/2000/svg">
<path d="M8 3C5.3202 3 3.13239 5.10474 3.00204 7.75004C2.99525 7.88794 2.88388 8 2.74569 8H2.24528C2.1071 8 1.99454 7.88774 2.0002 7.74978C2.13149 4.55211 4.76746 2 8 2C9.64847 2 11.1418 2.66371 12.2269 3.73827L13.2678 2.69825C13.4244 2.54178 13.6922 2.6526 13.6922 2.87389V5.75162C13.6922 5.88879 13.5809 6 13.4436 6L10.5635 6C10.342 6 10.2311 5.73246 10.3877 5.57598L11.5192 4.44538C10.6152 3.55178 9.3721 3 8 3Z" fill="#242528"/>
<path d="M13.2543 8C13.1161 8 13.0048 8.11207 12.998 8.24997C12.8676 10.8953 10.6798 13 8 13C6.6279 13 5.38477 12.4482 4.48077 11.5546L5.61229 10.424C5.7689 10.2675 5.65798 10 5.43651 10H2.55642C2.41913 10 2.30783 10.1112 2.30783 10.2484L2.30783 13.1261C2.30783 13.3474 2.5756 13.4582 2.7322 13.3018L3.77307 12.2617C4.8582 13.3363 6.35153 14 8 14C11.2325 14 13.8685 11.4479 13.9998 8.25022C14.0055 8.11227 13.8929 8 13.7547 8H13.2543Z" fill="#242528"/>
<path d="M10.11 6.76149C10.2078 6.85914 10.2078 7.01754 10.11 7.11519L7.63298 9.59021C7.53537 9.68774 7.37719 9.68774 7.27957 9.59021L5.86405 8.17585C5.76632 8.0782 5.76632 7.9198 5.86405 7.82215L6.21804 7.46845C6.31565 7.37092 6.47383 7.37092 6.57145 7.46845L7.45628 8.35255L9.40263 6.40779C9.50025 6.31026 9.65843 6.31026 9.75604 6.40779L10.11 6.76149Z" fill="#242528"/>
</svg>
