<svg width="16" height="16" viewBox="0 0 16 16" fill="none" xmlns="http://www.w3.org/2000/svg">
<path d="M14 6.99991C14 6.48078 13.52 5.99991 13 5.99991H9C9 5.99991 9.27497 4.85929 9.40164 4.3656C9.67188 3.31241 9.63675 2.07715 8.88252 2.00765C8.25613 1.9493 8.12914 2.50961 8.0562 2.78248C7.83482 3.59334 6.54601 5.92985 6.54601 5.92985L5 7.99991H2.25C2.11193 7.99991 2 8.11184 2 8.24991V12.1668C2 12.3049 2.11193 12.4168 2.25 12.4168H5.70511C6.42188 12.7968 7.09545 12.9999 8 12.9999C8 12.9999 11.5938 12.9999 12 12.9999C12.4062 12.9999 12.875 12.644 12.875 12.1249C12.875 11.7783 12.686 11.4754 12.4062 11.3124C12.8808 11.2635 13.25 10.8606 13.25 10.3749C13.25 10.0283 13.061 9.75669 12.7812 9.59366C13.2558 9.54389 13.625 9.14268 13.625 8.65616C13.625 8.31122 13.4343 8.03794 13.1562 7.87491C13.629 7.82428 14 7.48472 14 6.99991Z" fill="#B7B9BE"/>
</svg>
