<svg xmlns="http://www.w3.org/2000/svg" xmlns:xlink="http://www.w3.org/1999/xlink" contentStyleType="text/css" data-diagram-type="CLASS" height="543px" preserveAspectRatio="none" style="width:993px;height:543px;background:#FFFFFF;" version="1.1" viewBox="0 0 993 543" width="993px" zoomAndPan="magnify"><title>&lt;size:16&gt;&lt;b&gt;Dataset Management - Database Schema&lt;/b&gt;&lt;/size&gt;</title><defs/><g><g class="title" data-source-line="5"><text fill="#000000" font-family="sans-serif" font-size="16" font-weight="bold" lengthAdjust="spacing" textLength="311.2266" x="333.9375" y="27.2656">Dataset Management - Database Schema</text><text fill="#000000" font-family="sans-serif" font-size="12" font-weight="bold" lengthAdjust="spacing" textLength="83.332" x="447.8848" y="44.2305">JSONB Option</text></g><!--class datasets--><g class="entity" data-entity="datasets" data-source-line="10" data-uid="ent0002" id="entity_datasets"><rect fill="#F1F1F1" height="122.4844" rx="2.5" ry="2.5" style="stroke:#181818;stroke-width:0.5;" width="248.5303" x="537.5" y="112.2422"/><ellipse cx="631.0532" cy="128.2422" fill="#FFAAAA" rx="11" ry="11" style="stroke:#181818;stroke-width:1;"/><path d="M631.9751,125.6328 L631.9751,132.2891 L633.1313,132.2891 Q633.7407,132.2891 633.9907,132.5234 Q634.2563,132.7578 634.2563,133.1484 Q634.2563,133.5234 633.9907,133.7578 Q633.7407,133.9922 633.1313,133.9922 L629.147,133.9922 Q628.522,133.9922 628.2563,133.7578 Q628.0063,133.5234 628.0063,133.1328 Q628.0063,132.7578 628.2563,132.5234 Q628.522,132.2891 629.147,132.2891 L630.272,132.2891 L630.272,125.6328 L628.4282,125.6328 L628.4282,127.2422 Q628.4282,127.8516 628.1938,128.1172 Q627.9595,128.3828 627.5845,128.3828 Q627.2095,128.3828 626.9751,128.1172 Q626.7407,127.8516 626.7407,127.2422 L626.7407,123.9297 L635.5532,123.9297 L635.5532,127.2422 Q635.5532,127.8516 635.3032,128.1172 Q635.0688,128.3828 634.6938,128.3828 Q634.3188,128.3828 634.0845,128.1172 Q633.8501,127.8516 633.8501,127.2422 L633.8501,125.6328 L631.9751,125.6328 Z " fill="#000000"/><text fill="#000000" font-family="sans-serif" font-size="14" lengthAdjust="spacing" textLength="52.9238" x="651.5532" y="134.0391">datasets</text><line style="stroke:#181818;stroke-width:0.5;" x1="538.5" x2="785.0303" y1="144.2422" y2="144.2422"/><text fill="#000000" font-family="sans-serif" font-size="14" lengthAdjust="spacing" text-decoration="underline" textLength="10.8965" x="543.5" y="163.3496">id</text><text fill="#000000" font-family="sans-serif" font-size="14" lengthAdjust="spacing" textLength="42" x="558.2861" y="163.3496">: UUID</text><text fill="#000000" font-family="sans-serif" font-size="14" lengthAdjust="spacing" textLength="213.9307" x="543.5" y="181.9707">name : TEXT UNIQUE NOT NULL</text><text fill="#000000" font-family="sans-serif" font-size="14" lengthAdjust="spacing" textLength="232.6201" x="543.5" y="200.5918">created_at : TIMESTAMP NOT NULL</text><text fill="#000000" font-family="sans-serif" font-size="14" lengthAdjust="spacing" textLength="236.5303" x="543.5" y="219.2129">updated_at : TIMESTAMP NOT NULL</text><line style="stroke:#181818;stroke-width:0.5;" x1="538.5" x2="785.0303" y1="226.7266" y2="226.7266"/></g><!--class media--><g class="entity" data-entity="media" data-source-line="17" data-uid="ent0003" id="entity_media"><rect fill="#F1F1F1" height="215.5898" rx="2.5" ry="2.5" style="stroke:#181818;stroke-width:0.5;" width="244.6201" x="51.5" y="65.2422"/><ellipse cx="150.4946" cy="81.2422" fill="#FFAAAA" rx="11" ry="11" style="stroke:#181818;stroke-width:1;"/><path d="M151.4165,78.6328 L151.4165,85.2891 L152.5728,85.2891 Q153.1821,85.2891 153.4321,85.5234 Q153.6978,85.7578 153.6978,86.1484 Q153.6978,86.5234 153.4321,86.7578 Q153.1821,86.9922 152.5728,86.9922 L148.5884,86.9922 Q147.9634,86.9922 147.6978,86.7578 Q147.4478,86.5234 147.4478,86.1328 Q147.4478,85.7578 147.6978,85.5234 Q147.9634,85.2891 148.5884,85.2891 L149.7134,85.2891 L149.7134,78.6328 L147.8696,78.6328 L147.8696,80.2422 Q147.8696,80.8516 147.6353,81.1172 Q147.4009,81.3828 147.0259,81.3828 Q146.6509,81.3828 146.4165,81.1172 Q146.1821,80.8516 146.1821,80.2422 L146.1821,76.9297 L154.9946,76.9297 L154.9946,80.2422 Q154.9946,80.8516 154.7446,81.1172 Q154.5103,81.3828 154.1353,81.3828 Q153.7603,81.3828 153.5259,81.1172 Q153.2915,80.8516 153.2915,80.2422 L153.2915,78.6328 L151.4165,78.6328 Z " fill="#000000"/><text fill="#000000" font-family="sans-serif" font-size="14" lengthAdjust="spacing" textLength="38.1309" x="170.9946" y="87.0391">media</text><line style="stroke:#181818;stroke-width:0.5;" x1="52.5" x2="295.1201" y1="97.2422" y2="97.2422"/><text fill="#000000" font-family="sans-serif" font-size="14" lengthAdjust="spacing" text-decoration="underline" textLength="10.8965" x="57.5" y="116.3496">id</text><text fill="#000000" font-family="sans-serif" font-size="14" lengthAdjust="spacing" textLength="42" x="72.2861" y="116.3496">: UUID</text><text fill="#000000" font-family="sans-serif" font-size="14" lengthAdjust="spacing" textLength="131.5029" x="57.5" y="134.9707">original_name: TEXT</text><text fill="#000000" font-family="sans-serif" font-size="14" lengthAdjust="spacing" textLength="156.3584" x="57.5" y="153.5918">format: TEXT NOT NULL</text><text fill="#000000" font-family="sans-serif" font-size="14" lengthAdjust="spacing" textLength="175.8135" x="57.5" y="172.2129">width: INTEGER NOT NULL</text><text fill="#000000" font-family="sans-serif" font-size="14" lengthAdjust="spacing" textLength="181.2754" x="57.5" y="190.834">height: INTEGER NOT NULL</text><text fill="#000000" font-family="sans-serif" font-size="14" lengthAdjust="spacing" textLength="168.0273" x="57.5" y="209.4551">size: INTEGER NOT NULL</text><text fill="#000000" font-family="sans-serif" font-size="14" font-style="italic" lengthAdjust="spacing" textLength="77.8066" x="57.5" y="228.0762">from_source</text><text fill="#000000" font-family="sans-serif" font-size="14" lengthAdjust="spacing" textLength="42" x="135.3066" y="228.0762">: UUID</text><text fill="#000000" font-family="sans-serif" font-size="14" lengthAdjust="spacing" textLength="187.5234" x="57.5" y="246.6973">thumbhash: BLOB NOT NULL</text><text fill="#000000" font-family="sans-serif" font-size="14" lengthAdjust="spacing" textLength="232.6201" x="57.5" y="265.3184">created_at : TIMESTAMP NOT NULL</text><line style="stroke:#181818;stroke-width:0.5;" x1="52.5" x2="295.1201" y1="272.832" y2="272.832"/></g><!--class dataset_media--><g class="entity" data-entity="dataset_media" data-source-line="29" data-uid="ent0004" id="entity_dataset_media"><rect fill="#F1F1F1" height="122.4844" rx="2.5" ry="2.5" style="stroke:#181818;stroke-width:0.5;" width="253.9648" x="535" y="396.2422"/><ellipse cx="611.812" cy="412.2422" fill="#FFAAAA" rx="11" ry="11" style="stroke:#181818;stroke-width:1;"/><path d="M612.7339,409.6328 L612.7339,416.2891 L613.8901,416.2891 Q614.4995,416.2891 614.7495,416.5234 Q615.0151,416.7578 615.0151,417.1484 Q615.0151,417.5234 614.7495,417.7578 Q614.4995,417.9922 613.8901,417.9922 L609.9058,417.9922 Q609.2808,417.9922 609.0151,417.7578 Q608.7651,417.5234 608.7651,417.1328 Q608.7651,416.7578 609.0151,416.5234 Q609.2808,416.2891 609.9058,416.2891 L611.0308,416.2891 L611.0308,409.6328 L609.187,409.6328 L609.187,411.2422 Q609.187,411.8516 608.9526,412.1172 Q608.7183,412.3828 608.3433,412.3828 Q607.9683,412.3828 607.7339,412.1172 Q607.4995,411.8516 607.4995,411.2422 L607.4995,407.9297 L616.312,407.9297 L616.312,411.2422 Q616.312,411.8516 616.062,412.1172 Q615.8276,412.3828 615.4526,412.3828 Q615.0776,412.3828 614.8433,412.1172 Q614.6089,411.8516 614.6089,411.2422 L614.6089,409.6328 L612.7339,409.6328 Z " fill="#000000"/><text fill="#000000" font-family="sans-serif" font-size="14" lengthAdjust="spacing" textLength="91.8408" x="632.312" y="418.0391">dataset_media</text><line style="stroke:#181818;stroke-width:0.5;" x1="536" x2="787.9648" y1="428.2422" y2="428.2422"/><text fill="#000000" font-family="sans-serif" font-size="14" font-style="italic" lengthAdjust="spacing" textLength="64.6064" x="541" y="447.3496">dataset_id</text><text fill="#000000" font-family="sans-serif" font-size="14" lengthAdjust="spacing" textLength="115.124" x="609.4961" y="447.3496">: UUID NOT NULL</text><text fill="#000000" font-family="sans-serif" font-size="14" font-style="italic" lengthAdjust="spacing" textLength="56.8135" x="541" y="465.9707">media_id</text><text fill="#000000" font-family="sans-serif" font-size="14" lengthAdjust="spacing" textLength="115.124" x="601.7031" y="465.9707">: UUID NOT NULL</text><text fill="#000000" font-family="sans-serif" font-size="14" lengthAdjust="spacing" textLength="84.8066" x="541" y="484.5918">subset: TEXT</text><text fill="#000000" font-family="sans-serif" font-size="14" lengthAdjust="spacing" textLength="241.9648" x="541" y="503.2129">assigned_at : TIMESTAMP NOT NULL</text><line style="stroke:#181818;stroke-width:0.5;" x1="536" x2="787.9648" y1="510.7266" y2="510.7266"/></g><!--class annotations--><g class="entity" data-entity="annotations" data-source-line="36" data-uid="ent0005" id="entity_annotations"><rect fill="#F1F1F1" height="159.7266" rx="2.5" ry="2.5" style="stroke:#181818;stroke-width:0.5;" width="251.6406" x="7" y="377.2422"/><ellipse cx="92.374" cy="393.2422" fill="#FFAAAA" rx="11" ry="11" style="stroke:#181818;stroke-width:1;"/><path d="M93.2959,390.6328 L93.2959,397.2891 L94.4521,397.2891 Q95.0615,397.2891 95.3115,397.5234 Q95.5771,397.7578 95.5771,398.1484 Q95.5771,398.5234 95.3115,398.7578 Q95.0615,398.9922 94.4521,398.9922 L90.4678,398.9922 Q89.8428,398.9922 89.5771,398.7578 Q89.3271,398.5234 89.3271,398.1328 Q89.3271,397.7578 89.5771,397.5234 Q89.8428,397.2891 90.4678,397.2891 L91.5928,397.2891 L91.5928,390.6328 L89.749,390.6328 L89.749,392.2422 Q89.749,392.8516 89.5146,393.1172 Q89.2803,393.3828 88.9053,393.3828 Q88.5303,393.3828 88.2959,393.1172 Q88.0615,392.8516 88.0615,392.2422 L88.0615,388.9297 L96.874,388.9297 L96.874,392.2422 Q96.874,392.8516 96.624,393.1172 Q96.3896,393.3828 96.0146,393.3828 Q95.6396,393.3828 95.4053,393.1172 Q95.1709,392.8516 95.1709,392.2422 L95.1709,390.6328 L93.2959,390.6328 Z " fill="#000000"/><text fill="#000000" font-family="sans-serif" font-size="14" lengthAdjust="spacing" textLength="72.3926" x="112.874" y="399.0391">annotations</text><line style="stroke:#181818;stroke-width:0.5;" x1="8" x2="257.6406" y1="409.2422" y2="409.2422"/><text fill="#000000" font-family="sans-serif" font-size="14" font-style="italic" lengthAdjust="spacing" textLength="56.8135" x="13" y="428.3496">media_id</text><text fill="#000000" font-family="sans-serif" font-size="14" lengthAdjust="spacing" textLength="173.4619" x="73.7031" y="428.3496">: UUID UNIQUE NOT NULL</text><text fill="#000000" font-family="sans-serif" font-size="14" lengthAdjust="spacing" textLength="145.4893" x="13" y="446.9707">data: JSON NOT NULL</text><text fill="#000000" font-family="sans-serif" font-size="14" font-style="italic" lengthAdjust="spacing" textLength="73.917" x="13" y="465.5918">from_model</text><text fill="#000000" font-family="sans-serif" font-size="14" lengthAdjust="spacing" textLength="42" x="86.917" y="465.5918">: UUID</text><text fill="#000000" font-family="sans-serif" font-size="14" lengthAdjust="spacing" textLength="239.6406" x="13" y="484.2129">user_reviewed: BOOLEAN NOT NULL</text><text fill="#000000" font-family="sans-serif" font-size="14" lengthAdjust="spacing" textLength="232.6201" x="13" y="502.834">created_at : TIMESTAMP NOT NULL</text><text fill="#000000" font-family="sans-serif" font-size="14" lengthAdjust="spacing" textLength="236.5303" x="13" y="521.4551">updated_at : TIMESTAMP NOT NULL</text><line style="stroke:#181818;stroke-width:0.5;" x1="8" x2="257.6406" y1="528.9688" y2="528.9688"/></g><g class="entity" data-entity="GMN9" data-source-line="50" data-uid="ent0010" id="entity_GMN9"><path d="M331.5,159.7422 L331.5,169.2422 L296.61,173.2422 L331.5,177.2422 L331.5,187.0332 A0,0 0 0 0 331.5,187.0332 L488.3652,187.0332 A0,0 0 0 0 488.3652,187.0332 L488.3652,169.7422 L478.3652,159.7422 L331.5,159.7422 A0,0 0 0 0 331.5,159.7422" fill="#FEFFDD" style="stroke:#181818;stroke-width:0.5;"/><path d="M478.3652,159.7422 L478.3652,169.7422 L488.3652,169.7422 L478.3652,159.7422" fill="#FEFFDD" style="stroke:#181818;stroke-width:0.5;"/><text fill="#000000" font-family="sans-serif" font-size="13" lengthAdjust="spacing" textLength="135.8652" x="337.5" y="178.7705">Metadata about images</text></g><g class="entity" data-entity="GMN12" data-source-line="54" data-uid="ent0013" id="entity_GMN12"><path d="M822,159.7422 L822,169.2422 L786.78,173.2422 L822,177.2422 L822,187.0332 A0,0 0 0 0 822,187.0332 L986.1016,187.0332 A0,0 0 0 0 986.1016,187.0332 L986.1016,169.7422 L976.1016,159.7422 L822,159.7422 A0,0 0 0 0 822,159.7422" fill="#FEFFDD" style="stroke:#181818;stroke-width:0.5;"/><path d="M976.1016,159.7422 L976.1016,169.7422 L986.1016,169.7422 L976.1016,159.7422" fill="#FEFFDD" style="stroke:#181818;stroke-width:0.5;"/><text fill="#000000" font-family="sans-serif" font-size="13" lengthAdjust="spacing" textLength="143.1016" x="828" y="178.7705">Metadata about datasets</text></g><g class="entity" data-entity="GMN15" data-source-line="58" data-uid="ent0016" id="entity_GMN15"><path d="M824,434.7422 L824,453.2422 L789.09,457.2422 L824,461.2422 L824,479.3242 A0,0 0 0 0 824,479.3242 L981.5952,479.3242 A0,0 0 0 0 981.5952,479.3242 L981.5952,444.7422 L971.5952,434.7422 L824,434.7422 A0,0 0 0 0 824,434.7422" fill="#FEFFDD" style="stroke:#181818;stroke-width:0.5;"/><path d="M971.5952,434.7422 L971.5952,444.7422 L981.5952,444.7422 L971.5952,434.7422" fill="#FEFFDD" style="stroke:#181818;stroke-width:0.5;"/><text fill="#000000" font-family="sans-serif" font-size="13" lengthAdjust="spacing" textLength="119.9453" x="830" y="453.7705">Defines which media</text><text fill="#000000" font-family="sans-serif" font-size="13" lengthAdjust="spacing" textLength="136.5952" x="830" y="471.0615">belong to which dataset</text></g><g class="entity" data-entity="GMN18" data-source-line="63" data-uid="ent0019" id="entity_GMN18"><path d="M294.5,417.7422 L294.5,453.2422 L259.07,457.2422 L294.5,461.2422 L294.5,496.9063 A0,0 0 0 0 294.5,496.9063 L499.7471,496.9063 A0,0 0 0 0 499.7471,496.9063 L499.7471,427.7422 L489.7471,417.7422 L294.5,417.7422 A0,0 0 0 0 294.5,417.7422" fill="#FEFFDD" style="stroke:#181818;stroke-width:0.5;"/><path d="M489.7471,417.7422 L489.7471,427.7422 L499.7471,427.7422 L489.7471,417.7422" fill="#FEFFDD" style="stroke:#181818;stroke-width:0.5;"/><text fill="#000000" font-family="sans-serif" font-size="13" lengthAdjust="spacing" textLength="147.4243" x="300.5" y="436.7705">Stores media annotations</text><text fill="#000000" font-family="sans-serif" font-size="13" lengthAdjust="spacing" textLength="184.2471" x="300.5" y="454.0615">and predictions in JSON format,</text><text fill="#000000" font-family="sans-serif" font-size="13" lengthAdjust="spacing" textLength="143.1016" x="300.5" y="471.3525">with additional info about</text><text fill="#000000" font-family="sans-serif" font-size="13" lengthAdjust="spacing" textLength="161.1733" x="300.5" y="488.6436">the source of the annotation</text></g><!--link datasets to dataset_media--><g class="link" data-entity-1="datasets" data-entity-2="dataset_media" data-source-line="45" data-uid="lnk6" id="link_datasets_dataset_media"><path codeLine="45" d="M662,242.3922 C662,290.1122 662,330.4922 662,378.1822" fill="none" id="datasets-dataset_media" style="stroke:#181818;stroke-width:1;"/><line style="stroke:#181818;stroke-width:1;" x1="658" x2="666" y1="238.3922" y2="238.3922"/><line style="stroke:#181818;stroke-width:1;" x1="658" x2="666" y1="241.3922" y2="241.3922"/><line style="stroke:#181818;stroke-width:1;" x1="662" x2="662" y1="242.3922" y2="234.3922"/><line style="stroke:#181818;stroke-width:1;" x1="662" x2="668" y1="388.1822" y2="396.1822"/><line style="stroke:#181818;stroke-width:1;" x1="662" x2="656" y1="388.1822" y2="396.1822"/><line style="stroke:#181818;stroke-width:1;" x1="662" x2="662" y1="388.1822" y2="396.1822"/><ellipse cx="662" cy="382.1822" fill="none" rx="4" ry="4" style="stroke:#181818;stroke-width:1;"/><text fill="#000000" font-family="sans-serif" font-size="13" lengthAdjust="spacing" textLength="109.1162" x="690.0918" y="326.2705">datasets may have</text><text fill="#000000" font-family="sans-serif" font-size="13" lengthAdjust="spacing" textLength="166.9116" x="663" y="343.5615">an arbitrary number of media</text></g><!--link media to dataset_media--><g class="link" data-entity-1="media" data-entity-2="dataset_media" data-source-line="46" data-uid="lnk7" id="link_media_dataset_media"><path codeLine="46" d="M303.3476,274.6378 C309.1376,278.4578 308.25,277.7422 314,281.2422 C399.23,333.1622 428.03,332.0122 517,377.2422 C528.76,383.2222 525.08,381.1359 537.2,387.5859" fill="none" id="media-dataset_media" style="stroke:#181818;stroke-width:1;"/><line style="stroke:#181818;stroke-width:1;" x1="297.806" x2="302.2116" y1="275.7738" y2="269.0962"/><line style="stroke:#181818;stroke-width:1;" x1="300.3101" x2="304.7157" y1="277.4259" y2="270.7483"/><line style="stroke:#181818;stroke-width:1;" x1="303.3476" x2="296.67" y1="274.6378" y2="270.2322"/><line style="stroke:#181818;stroke-width:1;" x1="546.0278" x2="555.9088" y1="392.2838" y2="390.7455"/><line style="stroke:#181818;stroke-width:1;" x1="546.0278" x2="550.2712" y1="392.2838" y2="401.3388"/><line style="stroke:#181818;stroke-width:1;" x1="546.0278" x2="553.09" y1="392.2838" y2="396.0422"/><ellipse cx="540.7311" cy="389.4651" fill="none" rx="4" ry="4" style="stroke:#181818;stroke-width:1;"/><text fill="#000000" font-family="sans-serif" font-size="13" lengthAdjust="spacing" textLength="102.6289" x="454.8818" y="326.2705">media can belong</text><text fill="#000000" font-family="sans-serif" font-size="13" lengthAdjust="spacing" textLength="112.0044" x="452" y="343.5615">to multiple datasets</text></g><!--link media to annotations--><g class="link" data-entity-1="media" data-entity-2="annotations" data-source-line="47" data-uid="lnk8" id="link_media_annotations"><path codeLine="47" d="M157.2895,289.169 C152.6695,320.959 150.9956,332.4379 146.6856,362.1179" fill="none" id="media-annotations" style="stroke:#181818;stroke-width:1;"/><line style="stroke:#181818;stroke-width:1;" x1="153.9063" x2="161.8231" y1="284.6353" y2="285.7859"/><line style="stroke:#181818;stroke-width:1;" x1="153.4749" x2="161.3917" y1="287.6041" y2="288.7547"/><line style="stroke:#181818;stroke-width:1;" x1="157.2895" x2="158.44" y1="289.169" y2="281.2522"/><line style="stroke:#181818;stroke-width:1;" x1="146.1108" x2="144.53" y1="366.0764" y2="376.9622"/><ellipse cx="146.1108" cy="366.0764" fill="none" rx="4" ry="4" style="stroke:#181818;stroke-width:1;"/><line style="stroke:#181818;stroke-width:1;" x1="149.0633" x2="141.1464" y1="373.5785" y2="372.4289"/><text fill="#000000" font-family="sans-serif" font-size="13" lengthAdjust="spacing" textLength="153.2261" x="155" y="326.2705">media have an annotation,</text><text fill="#000000" font-family="sans-serif" font-size="13" lengthAdjust="spacing" textLength="114.9116" x="175.9631" y="343.5615">a prediction or none</text></g><!--SRC=[hLHDRzim3BtxLx3TfG5I5DjXXy0maABfa24Vsv80Emm8Q9k9XTbI8CbDkhR_lPGLsscQxWEOJnRv7ldqHEaifPMG11RZd2vs7KXoD0Ps48PmCU- -kxtjyzU1A0hEzj3DJuSBosWNNfLjUEN3meL550HMs9o2q8XVr7l_CGhZw0Oj6h8mHebhAaXQk0GNZ3aCioIZ0iEhE0gl72cgkH-YpxFfv1gc6okKh9CaK_0j0gyzzTLD1nu2S295se4UB1R36rvBB8XNyy7tEImcmw-B0KocSvWiHYFE9fhGKhf4wp33yM0sxu-_72BAJVfRn5Cjew1Ku6aDIekra9WldHYlXQChfGkqUsa77RSYjLaFXfFvuDFWss4c8x7ExCbKvTYf19_EIgjYQLIf4-eqccnM5d66XZjTZwRN_sBAqv7pouEjSxiwsbfmfAU2lv4sPSpSnYCUIR6MVwC5fLGMtQ2OHichHgy7m8djWPkpKwOLAgMyzQmqf9UQxWHjAMNVfjFHe3_vx_DK3pGyFbvUgWTuOJEppXj0WVUGuHt13uaIKCV2QjJt8FbiIODQGSKv3pprhNh-9-4ICULAhhcSLL2KkHMRd6gyUL7c4GuSRujKQfoM9jbruc2ZEPsuDTy6a4hIUH0mX42xcMwaiaDZikXQ0iQgj20AVZDCTUqT_fXLYtjDR39_e2xhnZVLUsPWcuaaQ-JiBM53V7pFUhFgWItCdbcbkQGtvsKAkK1hYm4X_HpwTw5RlGGs0qnJuG2OCsAb_EQg2qpWBxNhwbPj-LRSCm00]--></g></svg>