<svg xmlns="http://www.w3.org/2000/svg" xmlns:xlink="http://www.w3.org/1999/xlink" contentStyleType="text/css" data-diagram-type="CLASS" height="429px" preserveAspectRatio="none" style="width:652px;height:429px;background:#FFFFFF;" version="1.1" viewBox="0 0 652 429" width="652px" zoomAndPan="magnify"><defs/><g><!--class tasks--><g class="entity" data-entity="tasks" data-source-line="6" data-uid="ent0002" id="entity_tasks"><rect fill="#F1F1F1" height="141.1055" rx="2.5" ry="2.5" style="stroke:#181818;stroke-width:0.5;" width="266.4268" x="158.5" y="7"/><ellipse cx="271.1255" cy="23" fill="#FFAAAA" rx="11" ry="11" style="stroke:#181818;stroke-width:1;"/><path d="M272.0474,20.3906 L272.0474,27.0469 L273.2036,27.0469 Q273.813,27.0469 274.063,27.2813 Q274.3286,27.5156 274.3286,27.9063 Q274.3286,28.2813 274.063,28.5156 Q273.813,28.75 273.2036,28.75 L269.2192,28.75 Q268.5942,28.75 268.3286,28.5156 Q268.0786,28.2813 268.0786,27.8906 Q268.0786,27.5156 268.3286,27.2813 Q268.5942,27.0469 269.2192,27.0469 L270.3442,27.0469 L270.3442,20.3906 L268.5005,20.3906 L268.5005,22 Q268.5005,22.6094 268.2661,22.875 Q268.0317,23.1406 267.6567,23.1406 Q267.2817,23.1406 267.0474,22.875 Q266.813,22.6094 266.813,22 L266.813,18.6875 L275.6255,18.6875 L275.6255,22 Q275.6255,22.6094 275.3755,22.875 Q275.1411,23.1406 274.7661,23.1406 Q274.3911,23.1406 274.1567,22.875 Q273.9224,22.6094 273.9224,22 L273.9224,20.3906 L272.0474,20.3906 Z " fill="#000000"/><text fill="#000000" font-family="sans-serif" font-size="14" lengthAdjust="spacing" textLength="32.6758" x="291.6255" y="28.7969">tasks</text><line style="stroke:#181818;stroke-width:0.5;" x1="159.5" x2="423.9268" y1="39" y2="39"/><text fill="#000000" font-family="sans-serif" font-size="14" lengthAdjust="spacing" text-decoration="underline" textLength="10.8965" x="164.5" y="58.1074">id</text><text fill="#000000" font-family="sans-serif" font-size="14" lengthAdjust="spacing" textLength="42" x="179.2861" y="58.1074">: UUID</text><text fill="#000000" font-family="sans-serif" font-size="14" lengthAdjust="spacing" textLength="147.0342" x="164.5" y="76.7285">type : TEXT NOT NULL</text><text fill="#000000" font-family="sans-serif" font-size="14" lengthAdjust="spacing" textLength="254.4268" x="164.5" y="95.3496">exclusive_labels : BOOLEAN NOT NULL</text><text fill="#000000" font-family="sans-serif" font-size="14" lengthAdjust="spacing" textLength="159.4961" x="164.5" y="113.9707">created_at : TIMESTAMP</text><text fill="#000000" font-family="sans-serif" font-size="14" lengthAdjust="spacing" textLength="163.4063" x="164.5" y="132.5918">updated_at : TIMESTAMP</text><line style="stroke:#181818;stroke-width:0.5;" x1="159.5" x2="423.9268" y1="140.1055" y2="140.1055"/></g><!--class labels--><g class="entity" data-entity="labels" data-source-line="15" data-uid="ent0003" id="entity_labels"><rect fill="#F1F1F1" height="178.3477" rx="2.5" ry="2.5" style="stroke:#181818;stroke-width:0.5;" width="175.4063" x="7" y="244"/><ellipse cx="72.1636" cy="260" fill="#FFAAAA" rx="11" ry="11" style="stroke:#181818;stroke-width:1;"/><path d="M73.0854,257.3906 L73.0854,264.0469 L74.2417,264.0469 Q74.8511,264.0469 75.1011,264.2813 Q75.3667,264.5156 75.3667,264.9063 Q75.3667,265.2813 75.1011,265.5156 Q74.8511,265.75 74.2417,265.75 L70.2573,265.75 Q69.6323,265.75 69.3667,265.5156 Q69.1167,265.2813 69.1167,264.8906 Q69.1167,264.5156 69.3667,264.2813 Q69.6323,264.0469 70.2573,264.0469 L71.3823,264.0469 L71.3823,257.3906 L69.5386,257.3906 L69.5386,259 Q69.5386,259.6094 69.3042,259.875 Q69.0698,260.1406 68.6948,260.1406 Q68.3198,260.1406 68.0854,259.875 Q67.8511,259.6094 67.8511,259 L67.8511,255.6875 L76.6636,255.6875 L76.6636,259 Q76.6636,259.6094 76.4136,259.875 Q76.1792,260.1406 75.8042,260.1406 Q75.4292,260.1406 75.1948,259.875 Q74.9604,259.6094 74.9604,259 L74.9604,257.3906 L73.0854,257.3906 Z " fill="#000000"/><text fill="#000000" font-family="sans-serif" font-size="14" lengthAdjust="spacing" textLength="36.5791" x="92.6636" y="265.7969">labels</text><line style="stroke:#181818;stroke-width:0.5;" x1="8" x2="181.4063" y1="276" y2="276"/><text fill="#000000" font-family="sans-serif" font-size="14" lengthAdjust="spacing" text-decoration="underline" textLength="10.8965" x="13" y="295.1074">id</text><text fill="#000000" font-family="sans-serif" font-size="14" lengthAdjust="spacing" textLength="42" x="27.7861" y="295.1074">: UUID</text><text fill="#000000" font-family="sans-serif" font-size="14" font-style="italic" lengthAdjust="spacing" textLength="44.3584" x="13" y="313.7285">task_id</text><text fill="#000000" font-family="sans-serif" font-size="14" lengthAdjust="spacing" textLength="115.124" x="57.3584" y="313.7285">: UUID NOT NULL</text><text fill="#000000" font-family="sans-serif" font-size="14" lengthAdjust="spacing" textLength="155.5928" x="13" y="332.3496">name : TEXT NOT NULL</text><text fill="#000000" font-family="sans-serif" font-size="14" lengthAdjust="spacing" textLength="77.793" x="13" y="350.9707">color : TEXT</text><text fill="#000000" font-family="sans-serif" font-size="14" lengthAdjust="spacing" textLength="88.6963" x="13" y="369.5918">hotkey : TEXT</text><text fill="#000000" font-family="sans-serif" font-size="14" lengthAdjust="spacing" textLength="159.4961" x="13" y="388.2129">created_at : TIMESTAMP</text><text fill="#000000" font-family="sans-serif" font-size="14" lengthAdjust="spacing" textLength="163.4063" x="13" y="406.834">updated_at : TIMESTAMP</text><line style="stroke:#181818;stroke-width:0.5;" x1="8" x2="181.4063" y1="414.3477" y2="414.3477"/></g><!--class pipelines--><g class="entity" data-entity="pipelines" data-source-line="25" data-uid="ent0004" id="entity_pipelines"><rect fill="#F1F1F1" height="103.8633" rx="2.5" ry="2.5" style="stroke:#181818;stroke-width:0.5;" width="98.3584" x="439.5" y="281"/><ellipse cx="459.4935" cy="297" fill="#FFAAAA" rx="11" ry="11" style="stroke:#181818;stroke-width:1;"/><path d="M460.4154,294.3906 L460.4154,301.0469 L461.5716,301.0469 Q462.181,301.0469 462.431,301.2813 Q462.6966,301.5156 462.6966,301.9063 Q462.6966,302.2813 462.431,302.5156 Q462.181,302.75 461.5716,302.75 L457.5873,302.75 Q456.9623,302.75 456.6966,302.5156 Q456.4466,302.2813 456.4466,301.8906 Q456.4466,301.5156 456.6966,301.2813 Q456.9623,301.0469 457.5873,301.0469 L458.7123,301.0469 L458.7123,294.3906 L456.8685,294.3906 L456.8685,296 Q456.8685,296.6094 456.6341,296.875 Q456.3998,297.1406 456.0248,297.1406 Q455.6498,297.1406 455.4154,296.875 Q455.181,296.6094 455.181,296 L455.181,292.6875 L463.9935,292.6875 L463.9935,296 Q463.9935,296.6094 463.7435,296.875 Q463.5091,297.1406 463.1341,297.1406 Q462.7591,297.1406 462.5248,296.875 Q462.2904,296.6094 462.2904,296 L462.2904,294.3906 L460.4154,294.3906 Z " fill="#000000"/><text fill="#000000" font-family="sans-serif" font-size="14" lengthAdjust="spacing" textLength="55.2617" x="474.6032" y="302.7969">pipelines</text><line style="stroke:#181818;stroke-width:0.5;" x1="440.5" x2="536.8584" y1="313" y2="313"/><text fill="#000000" font-family="sans-serif" font-size="14" lengthAdjust="spacing" text-decoration="underline" textLength="10.8965" x="445.5" y="332.1074">id</text><text fill="#000000" font-family="sans-serif" font-size="14" lengthAdjust="spacing" textLength="42" x="460.2861" y="332.1074">: UUID</text><text fill="#000000" font-family="sans-serif" font-size="14" font-style="italic" lengthAdjust="spacing" textLength="44.3584" x="445.5" y="350.7285">task_id</text><text fill="#000000" font-family="sans-serif" font-size="14" lengthAdjust="spacing" textLength="42" x="489.8584" y="350.7285">: UUID</text><text fill="#000000" font-family="sans-serif" font-size="14" lengthAdjust="spacing" textLength="11.6689" x="445.5" y="369.3496">...</text><line style="stroke:#181818;stroke-width:0.5;" x1="440.5" x2="536.8584" y1="376.8633" y2="376.8633"/></g><g class="entity" data-entity="GMN7" data-source-line="35" data-uid="ent0008" id="entity_GMN7"><path d="M459.5,46.5 L459.5,73.5 L424.55,77.5 L459.5,81.5 L459.5,108.373 A0,0 0 0 0 459.5,108.373 L645.2661,108.373 A0,0 0 0 0 645.2661,108.373 L645.2661,56.5 L635.2661,46.5 L459.5,46.5 A0,0 0 0 0 459.5,46.5" fill="#FEFFDD" style="stroke:#181818;stroke-width:0.5;"/><path d="M635.2661,46.5 L635.2661,56.5 L645.2661,56.5 L635.2661,46.5" fill="#FEFFDD" style="stroke:#181818;stroke-width:0.5;"/><text fill="#000000" font-family="sans-serif" font-size="13" lengthAdjust="spacing" textLength="95.3862" x="465.5" y="65.5283">Task defines the</text><text fill="#000000" font-family="sans-serif" font-size="13" lengthAdjust="spacing" textLength="164.7661" x="465.5" y="82.8193">labels and their relationships</text><text fill="#000000" font-family="sans-serif" font-size="13" lengthAdjust="spacing" textLength="151.0298" x="465.5" y="100.1104">in a machine learning task</text></g><g class="entity" data-entity="GMN10" data-source-line="41" data-uid="ent0011" id="entity_GMN10"><path d="M217,302 L217,329 L182.25,333 L217,337 L217,363.873 A0,0 0 0 0 217,363.873 L404.1943,363.873 A0,0 0 0 0 404.1943,363.873 L404.1943,312 L394.1943,302 L217,302 A0,0 0 0 0 217,302" fill="#FEFFDD" style="stroke:#181818;stroke-width:0.5;"/><path d="M394.1943,302 L394.1943,312 L404.1943,312 L394.1943,302" fill="#FEFFDD" style="stroke:#181818;stroke-width:0.5;"/><text fill="#000000" font-family="sans-serif" font-size="13" lengthAdjust="spacing" textLength="166.1943" x="223" y="321.0283">Label represents a ML class,</text><text fill="#000000" font-family="sans-serif" font-size="13" lengthAdjust="spacing" textLength="156.0889" x="223" y="338.3193">namely a category that can</text><text fill="#000000" font-family="sans-serif" font-size="13" lengthAdjust="spacing" textLength="156.1206" x="223" y="355.6104">be assigned to a data point</text></g><!--link tasks to labels--><g class="link" data-entity-1="tasks" data-entity-2="labels" data-source-line="31" data-uid="lnk5" id="link_tasks_labels"><path codeLine="31" d="M232.5001,154.4261 C209.4901,184.0261 198.3456,198.3675 173.9656,229.7375" fill="none" id="tasks-labels" style="stroke:#181818;stroke-width:1;"/><line style="stroke:#181818;stroke-width:1;" x1="231.797" x2="238.1131" y1="148.8131" y2="153.723"/><line style="stroke:#181818;stroke-width:1;" x1="229.9558" x2="236.2719" y1="151.1816" y2="156.0915"/><line style="stroke:#181818;stroke-width:1;" x1="232.5001" x2="237.41" y1="154.4261" y2="148.11"/><line style="stroke:#181818;stroke-width:1;" x1="167.8292" x2="167.6575" y1="237.6333" y2="247.6319"/><line style="stroke:#181818;stroke-width:1;" x1="167.8292" x2="158.1825" y1="237.6333" y2="240.2681"/><line style="stroke:#181818;stroke-width:1;" x1="167.8292" x2="162.92" y1="237.6333" y2="243.95"/><ellipse cx="171.511" cy="232.8958" fill="none" rx="4" ry="4" style="stroke:#181818;stroke-width:1;"/><text fill="#000000" font-family="sans-serif" font-size="13" lengthAdjust="spacing" textLength="175.5889" x="212.5" y="193.0283">A task has one or more labels;</text><text fill="#000000" font-family="sans-serif" font-size="13" lengthAdjust="spacing" textLength="154.667" x="222.9609" y="210.3193">a label belongs to one task</text></g><!--link tasks to pipelines--><g class="link" data-entity-1="tasks" data-entity-2="pipelines" data-source-line="32" data-uid="lnk6" id="link_tasks_pipelines"><path codeLine="32" d="M375.5528,153.9597 C384.9028,163.5897 388.41,167.91 396.5,178 C422.1,209.96 441.8674,242.6869 458.7374,273.8069" fill="none" id="tasks-pipelines" style="stroke:#181818;stroke-width:1;"/><line style="stroke:#181818;stroke-width:1;" x1="369.8966" x2="375.6362" y1="153.8762" y2="148.3034"/><line style="stroke:#181818;stroke-width:1;" x1="371.9864" x2="377.726" y1="156.0286" y2="150.4558"/><line style="stroke:#181818;stroke-width:1;" x1="375.5528" x2="369.98" y1="153.9597" y2="148.22"/><line style="stroke:#181818;stroke-width:1;" x1="464.1602" x2="457.1272" y1="275.4172" y2="279.2298"/><line style="stroke:#181818;stroke-width:1;" x1="462.7305" x2="455.6974" y1="272.7798" y2="276.5924"/><line style="stroke:#181818;stroke-width:1;" x1="458.7374" x2="462.55" y1="273.8069" y2="280.84"/><text fill="#000000" font-family="sans-serif" font-size="13" lengthAdjust="spacing" textLength="146.7007" x="422.5" y="193.0283">Each pipeline has exactly</text><text fill="#000000" font-family="sans-serif" font-size="13" lengthAdjust="spacing" textLength="121.3799" x="435.1604" y="210.3193">one task (immutable)</text></g><!--SRC=[dLF1QkCm4BtxAwRPmyRGPkzj2AGqXOBJ5DQ17W9XOazi4Laoabnicltt7Lbk4aeEoneCdgStRvxqv9kSza8HEDn96hSnP1AjXHQcKnYdjp-Ud-Vyn32RHJS3jJvuthIPjTDVpHdU1rXuMCoYw2UaNlEUfUt1Hc50_nt3PmHUHkGntCDw_VB4jUjguYfTlAVmkk9tdIGCKvl9neeFsahSaRHCULojaiNyzPAL6K97-HQTbtXPBdwdy-KRBpHrVctXpuM_e3iO3CLrXxn3xt_BOC0k7IYihjdFjDHcmBaijJjGTwx_mtVmMOkQ91_xlrfbR3APX7wE08x7kplz2QSp7StxdA142vhJPDELDZGG7ZOAmoVmgrLXmUcUvvj65vh78voiUTa5PkK9wTMfnSp9RgE-sc4igghfjnMFeaXfHs14KJhG- -7o06V5n73JU7P930tUKUKU40OCINH2ArkAslS81GWL6_2Z9Q5HGXMzOaJSv0Tz7pVS1O2atwoXsf0bvNWCB9FmSzmEQSkEmOnJAhJfs097bQ7YnHq1qqIXAFV7XC1H8jHQA7SU_1S0]--></g></svg>