<svg width="315" height="250" viewBox="0 0 315 250" fill="none" xmlns="http://www.w3.org/2000/svg">
<path opacity="0.04" d="M143.291 150.593C157.216 153.843 170.106 160.913 183.141 167.196C204.163 177.328 226.556 185.663 249.496 184.943C272.436 184.223 296.133 173.003 307.938 151.478C319.743 129.953 315.746 97.9583 296.238 84.6783C274.233 69.7008 244.281 82.3908 220.373 71.4708C207.188 65.4483 197.538 53.0233 187.426 41.9683C172.338 25.4758 154.746 11.0008 134.396 4.07326C114.046 -2.85424 90.6007 -1.37924 73.0907 11.8583C55.5807 25.0958 45.8932 51.2458 53.4282 73.0758C56.1007 80.8183 60.7932 88.4558 59.5257 96.6058C57.8407 107.426 46.7007 112.931 36.8257 114.813C26.9507 116.696 15.9732 117.218 8.66573 124.718C-22.1843 156.373 37.6357 182.401 58.6932 184.183C73.5807 185.443 82.5882 177.106 92.9332 166.491C107.543 151.498 123.268 145.918 143.296 150.591L143.291 150.593Z" fill="white"/>
<path opacity="0.04" d="M92.8957 62.0833C86.2057 59.9758 81.4407 57.0783 75.9907 53.3758C70.5407 49.6733 65.4282 45.2458 59.2132 43.0633C47.6882 39.0158 34.0532 44.0558 26.6557 53.7733C19.2582 63.4933 17.7882 76.9808 21.3632 88.6608C24.9382 100.341 33.1007 110.261 42.9232 117.523C52.7457 124.786 64.1807 129.581 75.8132 133.306C104.738 142.568 135.781 145.553 165.793 140.891C195.806 136.228 224.718 123.816 248.096 104.426C255.783 98.0483 263.291 90.1008 264.356 80.1683C265.221 72.1008 261.476 63.9883 255.701 58.2858C249.926 52.5858 242.318 49.0583 234.526 46.7908C207.163 38.8283 177.953 45.4033 150.116 51.4958C122.278 57.5883 119.608 72.0158 92.8982 62.0783" fill="white"/>
<path opacity="0.08" d="M284.776 237.398C284.651 237.378 283.081 237.198 282.956 237.191C205.661 232.196 137.196 233.941 58.8133 234.711C52.7658 234.771 46.5083 234.851 41.0233 235.946C35.5358 237.043 31.0158 239.451 31.8158 241.961C32.6583 244.596 39.0133 246.378 45.3008 246.716C51.5883 247.053 57.9108 246.311 64.1433 245.763C99.4733 242.658 135.773 245.793 171.281 248.093C206.791 250.391 244.686 251.718 277.576 245.391C281.203 244.693 284.878 243.856 287.188 242.488C289.151 241.326 289.778 239.708 288.308 238.466C287.448 237.738 286.043 237.601 284.776 237.398Z" fill="white"/>
<path d="M192.643 30.0808H95.3208C87.9119 30.0808 81.9058 36.0869 81.9058 43.4958V165.651C81.9058 173.06 87.9119 179.066 95.3208 179.066H192.643C200.052 179.066 206.058 173.06 206.058 165.651V43.4958C206.058 36.0869 200.052 30.0808 192.643 30.0808Z" fill="#D2F9FF"/>
<path d="M184.728 42.2683H103.241C98.5408 42.2683 94.7307 46.0784 94.7307 50.7783V137.293C94.7307 141.993 98.5408 145.803 103.241 145.803H184.728C189.428 145.803 193.238 141.993 193.238 137.293V50.7783C193.238 46.0784 189.428 42.2683 184.728 42.2683Z" fill="#00C7FD"/>
<mask id="mask0_7803_22478" style="mask-type:luminance" maskUnits="userSpaceOnUse" x="94" y="42" width="100" height="104">
<path d="M184.728 42.2683H103.241C98.5408 42.2683 94.7307 46.0784 94.7307 50.7783V137.293C94.7307 141.993 98.5408 145.803 103.241 145.803H184.728C189.428 145.803 193.238 141.993 193.238 137.293V50.7783C193.238 46.0784 189.428 42.2683 184.728 42.2683Z" fill="white"/>
</mask>
<g mask="url(#mask0_7803_22478)">
<path d="M89.6582 149.096H206.806V115.096C202.936 114.168 198.856 113.878 194.868 113.613C184.786 113.613 175.346 112.641 166.053 109.003C156.708 105.346 153.203 95.3883 145.466 95.3883C139.848 95.3883 131.471 108.066 122.996 105.913C122.568 105.806 122.146 105.678 121.728 105.531C118.713 104.458 113.011 101.068 109.823 101.068C103.463 101.068 100.211 104.006 97.8882 105.506C95.1507 107.273 92.4032 109.028 89.6607 110.786V149.096H89.6582Z" fill="#0095CA"/>
<path d="M174.293 93.5633C175.891 92.3133 178.148 92.2758 179.751 93.5208C180.171 93.8458 180.573 94.1958 180.963 94.5408C185.353 98.4208 189.741 102.301 194.131 106.183C206.391 117.021 218.648 127.858 230.908 138.698C230.196 138.978 210.048 158.693 209.336 158.973L111.546 142.658L174.293 93.5633Z" fill="#A0EBFF"/>
<mask id="mask1_7803_22478" style="mask-type:luminance" maskUnits="userSpaceOnUse" x="111" y="92" width="120" height="67">
<path d="M174.293 93.5633C175.891 92.3133 178.148 92.2758 179.751 93.5208C180.171 93.8458 180.573 94.1958 180.963 94.5408C185.353 98.4208 189.741 102.301 194.131 106.183C206.391 117.021 218.648 127.858 230.908 138.698C230.196 138.978 210.048 158.693 209.336 158.973L111.546 142.658L174.293 93.5633Z" fill="white"/>
</mask>
<g mask="url(#mask1_7803_22478)">
<path d="M178.453 79.8558C172.591 76.4233 168.596 78.4183 163.866 83.2958C159.133 88.1708 153.691 93.7458 149.588 99.1608C139.673 112.248 123.943 124.543 111.511 131.288C105.668 134.458 105.891 137.063 103.996 142.818C101.908 149.156 104.596 157.706 110.028 161.583C115.086 165.196 121.581 166.331 127.816 166.268C145.536 166.086 154.256 156.886 163.866 141.998C173.478 127.111 183.688 106.988 176.563 90.7658C174.391 85.8208 171.366 81.0958 166.976 77.9508C162.586 74.8058 156.658 73.4708 151.646 75.4833" fill="#6DDCFF"/>
<path opacity="0.8" d="M195.061 98.8183C192.011 93.4833 188.336 87.6558 182.366 86.1908C178.131 85.1508 173.596 86.6533 170.051 89.1908C166.508 91.7308 163.778 95.2208 161.098 98.6608C160.151 99.8783 159.176 101.153 158.848 102.661C158.521 104.168 159.048 105.983 160.446 106.641C162.378 107.551 164.481 105.888 165.983 104.371C167.486 102.853 169.638 101.228 171.536 102.203C174.018 103.478 173.263 107.848 175.726 109.166C177.318 110.016 179.268 109.016 180.626 107.828C181.983 106.638 183.296 105.163 185.081 104.906C186.873 104.648 188.553 105.708 190.273 106.271C195.233 107.893 201.223 104.716 202.663 99.7008" fill="white"/>
</g>
<path d="M180.718 150.638C181.361 150.791 182.006 150.946 182.648 151.098C166.428 143.758 151.766 132.996 139.901 119.723C136.493 115.911 132.836 111.618 127.773 110.896C122.446 110.136 117.533 113.611 113.273 116.901C104.776 123.466 96.2756 130.031 87.7781 136.593L87.6831 148.991L180.718 150.638Z" fill="#005B85"/>
<mask id="mask2_7803_22478" style="mask-type:luminance" maskUnits="userSpaceOnUse" x="87" y="110" width="96" height="42">
<path d="M180.718 150.638C181.361 150.791 182.006 150.946 182.648 151.098C166.428 143.758 151.766 132.996 139.901 119.723C136.493 115.911 132.836 111.618 127.773 110.896C122.446 110.136 117.533 113.611 113.273 116.901C104.776 123.466 96.2756 130.031 87.7781 136.593L87.6831 148.991L180.718 150.638Z" fill="white"/>
</mask>
<g mask="url(#mask2_7803_22478)">
<path d="M142.008 153.728C137.816 151.428 133.043 148.183 133.153 143.401C133.233 139.891 136.076 136.481 134.868 133.186C133.811 130.298 130.328 129.326 127.403 128.383C124.478 127.441 121.156 125.311 121.551 122.263C122.076 118.223 128.518 117.288 129.301 113.291C129.873 110.373 126.713 107.818 123.741 107.831C120.768 107.843 118.111 109.568 115.646 111.231C107.736 116.568 99.8231 121.908 91.9131 127.246V145.368" fill="#005B85"/>
</g>
<mask id="mask3_7803_22478" style="mask-type:luminance" maskUnits="userSpaceOnUse" x="87" y="110" width="96" height="42">
<path d="M180.718 150.638C181.361 150.791 182.006 150.946 182.648 151.098C166.428 143.758 151.766 132.996 139.901 119.723C136.493 115.911 132.836 111.618 127.773 110.896C122.446 110.136 117.533 113.611 113.273 116.901C104.776 123.466 96.2756 130.031 87.7781 136.593L87.6831 148.991L180.718 150.638Z" fill="white"/>
</mask>
<g mask="url(#mask3_7803_22478)">
<path d="M142.008 153.728C137.816 151.428 133.043 148.183 133.153 143.401C133.233 139.891 136.076 136.481 134.868 133.186C133.811 130.298 130.328 129.326 127.403 128.383C124.478 127.441 121.156 125.311 121.551 122.263C122.076 118.223 128.518 117.288 129.301 113.291C129.873 110.373 126.713 107.818 123.741 107.831C120.768 107.843 118.111 109.568 115.646 111.231C107.736 116.568 95.6881 131.256 87.7781 136.593L87.6831 148.991" fill="#00C7FD"/>
</g>
</g>
<path d="M131.283 81.5358C124.693 81.5058 118.103 81.4758 111.513 81.4458C109.853 81.4383 108.143 81.4183 106.663 80.5858C105.183 79.7533 103.973 77.8908 104.136 75.7658C104.331 73.2058 106.443 71.2833 108.446 71.0158C110.448 70.7483 112.343 71.7033 114.151 72.6408C113.256 69.4183 116.116 65.6483 118.843 65.7383C121.571 65.8283 123.693 68.6633 124.636 71.8608C125.373 68.8108 127.863 66.4783 130.306 66.5508C132.748 66.6233 134.883 69.0958 135.168 72.1758C136.776 69.4033 140.106 68.5858 142.178 70.4308C144.248 72.2733 144.726 76.4308 143.216 79.2883C141.708 82.1458 139.118 81.7608 136.236 81.7608L131.283 81.5383V81.5358Z" fill="#A0EBFF"/>
<path d="M142.011 86.6832C151.848 86.6832 159.823 78.7083 159.823 68.8707C159.823 59.0332 151.848 51.0582 142.011 51.0582C132.173 51.0582 124.198 59.0332 124.198 68.8707C124.198 78.7083 132.173 86.6832 142.011 86.6832Z" fill="#FFE17A"/>
<mask id="mask4_7803_22478" style="mask-type:luminance" maskUnits="userSpaceOnUse" x="124" y="51" width="36" height="36">
<path d="M142.011 86.6832C151.848 86.6832 159.823 78.7083 159.823 68.8707C159.823 59.0332 151.848 51.0582 142.011 51.0582C132.173 51.0582 124.198 59.0332 124.198 68.8707C124.198 78.7083 132.173 86.6832 142.011 86.6832Z" fill="white"/>
</mask>
<g mask="url(#mask4_7803_22478)">
<path d="M135.498 85.1432C145.735 85.1432 154.033 76.8448 154.033 66.6082C154.033 56.3716 145.735 48.0732 135.498 48.0732C125.262 48.0732 116.963 56.3716 116.963 66.6082C116.963 76.8448 125.262 85.1432 135.498 85.1432Z" fill="#FEC91B"/>
</g>
<path d="M179.631 72.5958C183.451 72.5958 186.568 69.2558 186.668 65.5358C186.778 61.4333 183.398 58.0758 179.211 58.0758C178.236 58.0758 177.308 58.2633 176.456 58.5933C175.596 55.5058 172.706 53.2308 169.263 53.2308C167.738 53.2308 166.326 53.6808 165.148 54.4483C164.361 54.9608 163.406 54.8708 162.693 54.2333C161.673 53.3208 160.386 52.7758 158.983 52.7758C156.226 52.7758 153.906 54.8783 153.208 57.7408C153.033 58.4608 152.371 58.8483 151.746 58.6033L151.733 58.5983C150.876 58.2608 149.936 58.0733 148.953 58.0733C144.546 58.0733 141.031 61.7933 141.541 66.1858C141.791 68.3408 143.053 70.2408 144.846 71.4033C146.051 72.1833 147.486 72.5308 148.921 72.5333C148.921 72.5333 171.983 72.5933 179.633 72.5933L179.631 72.5958Z" fill="white"/>
<path d="M60.4083 97.0108L60.7933 99.5358C61.0158 101.006 62.1708 102.161 63.6433 102.386L66.1683 102.771C66.5183 102.823 66.5183 103.326 66.1683 103.378L63.6433 103.763C62.1733 103.986 61.0183 105.141 60.7933 106.613L60.4083 109.138C60.3558 109.488 59.8533 109.488 59.8008 109.138L59.4158 106.613C59.1933 105.143 58.0383 103.988 56.5658 103.763L54.0408 103.378C53.6908 103.326 53.6908 102.823 54.0408 102.771L56.5658 102.386C58.0358 102.163 59.1908 101.008 59.4158 99.5358L59.8008 97.0108C59.8533 96.6608 60.3558 96.6608 60.4083 97.0108Z" fill="#00C7FD"/>
<path d="M47.5107 77.3357L48.1007 81.2082C48.4432 83.4657 50.2157 85.2357 52.4707 85.5782L56.3432 86.1682C56.8782 86.2507 56.8782 87.0207 56.3432 87.1007L52.4707 87.6907C50.2132 88.0332 48.4432 89.8057 48.1007 92.0607L47.5107 95.9332C47.4282 96.4682 46.6582 96.4682 46.5782 95.9332L45.9882 92.0607C45.6457 89.8032 43.8732 88.0332 41.6182 87.6907L37.7457 87.1007C37.2107 87.0182 37.2107 86.2482 37.7457 86.1682L41.6182 85.5782C43.8757 85.2357 45.6457 83.4632 45.9882 81.2082L46.5782 77.3357C46.6607 76.8007 47.4307 76.8007 47.5107 77.3357Z" fill="#FF5662"/>
<path d="M126.848 201.586C125.548 201.028 124.148 200.681 122.711 200.558C119.811 200.313 117.163 198.566 116.223 195.813C116.156 195.613 116.078 195.416 115.993 195.218C113.763 190.088 107.103 187.711 101.823 189.563C100.848 189.906 99.9308 190.368 99.0808 190.928C97.3683 192.058 95.1308 190.636 95.3008 188.591C96.3033 176.456 93.3658 163.978 86.6883 153.753C85.0483 151.243 82.5158 149.381 79.5608 148.858C71.6783 147.463 67.6258 156.193 66.1558 163.388C65.4658 166.766 64.9033 170.171 64.4683 173.591C64.1258 176.278 60.7033 177.216 59.0158 175.098C57.1058 172.703 54.7183 170.751 51.8783 169.571C50.1183 168.838 48.2208 168.418 46.3133 168.418C36.5758 168.418 29.9383 179.586 30.9658 189.268C31.4833 194.146 33.3258 198.651 35.7933 202.901C35.5558 202.798 35.3258 202.683 35.0808 202.588C30.6708 200.901 25.1283 201.253 21.8983 204.698C18.6808 208.128 18.6883 213.728 20.9108 217.873C23.1333 222.018 27.1358 224.918 31.2983 227.108C47.0233 235.376 67.0058 234.898 82.3158 225.888C94.6883 235.873 113.838 236.303 126.648 226.888C127.616 226.176 128.556 225.393 129.403 224.536C132.143 222.226 133.998 218.751 134.183 214.448C134.441 208.431 131.313 203.243 126.848 201.591V201.586Z" fill="#FEC91B"/>
<path d="M110.291 222.978C108.866 221.078 106.521 220.221 104.171 220.286C102.888 220.321 101.703 219.421 101.466 218.161C101.398 217.808 101.293 217.461 101.151 217.128C99.8207 214.068 95.8482 212.651 92.6982 213.756C92.6782 213.763 92.6582 213.771 92.6357 213.778C90.7857 214.446 88.8682 213.126 88.9132 211.158C89.0607 204.563 87.2807 197.916 83.6607 192.381C82.7207 190.946 81.2782 189.858 79.5982 189.511C74.7807 188.513 72.3132 193.798 71.4257 198.143C70.9107 200.658 70.5157 203.198 70.2407 205.753C70.1157 206.911 68.6107 207.251 67.9832 206.271C66.7382 204.323 65.0357 202.716 62.9107 201.833C61.8607 201.396 60.7282 201.146 59.5907 201.146C53.7832 201.146 49.8232 207.806 50.4357 213.581C50.7582 216.623 51.9532 219.423 53.5282 222.061C51.4732 221.403 49.1657 221.476 47.4232 222.568C45.4757 223.306 44.0707 225.038 44.6982 227.653C44.7282 227.776 44.7707 227.893 44.8082 228.013C44.8357 228.611 44.9307 229.203 45.1007 229.773C45.7582 231.968 47.3332 233.801 49.1757 235.163C54.0607 238.778 60.5807 239.301 66.6357 238.793C72.6932 238.286 78.7057 236.886 84.7782 237.186C89.7257 237.428 94.6132 238.798 99.5607 238.518C102.766 238.336 106.133 237.196 108.488 235.128H108.546C108.613 235.056 108.676 234.976 108.741 234.901C109.898 233.816 110.788 232.496 111.246 230.933C111.216 230.901 111.188 230.868 111.158 230.838C112.108 228.163 112.011 225.278 110.293 222.988L110.291 222.978Z" fill="#FFE17A"/>
<path d="M77.4008 237.833C77.3508 237.833 77.2983 237.821 77.2508 237.793C77.1008 237.711 77.0433 237.521 77.1283 237.368C83.4708 225.838 84.0233 207.701 83.3708 194.516C82.6633 180.206 80.4183 168.481 80.3958 168.363C80.3633 168.193 80.4733 168.031 80.6433 167.998C80.8133 167.966 80.9758 168.076 81.0083 168.246C81.0308 168.363 83.2808 180.126 83.9933 194.478C84.6508 207.746 84.0883 226.008 77.6733 237.671C77.6158 237.773 77.5083 237.833 77.3983 237.833H77.4008Z" fill="#333333"/>
<path d="M79.5381 225.026C78.2306 225.026 76.4056 224.871 74.2556 224.263C70.3006 223.143 64.4806 220.201 59.2106 212.541C59.1131 212.398 59.1481 212.203 59.2906 212.106C59.4331 212.008 59.6281 212.043 59.7256 212.186C64.8806 219.676 70.5456 222.553 74.3906 223.651C78.5556 224.838 81.5456 224.251 81.5756 224.243C81.7456 224.208 81.9106 224.318 81.9456 224.486C81.9806 224.656 81.8706 224.821 81.7031 224.856C81.6406 224.868 80.8506 225.026 79.5406 225.026H79.5381Z" fill="#333333"/>
<path d="M83.6608 184.868C83.4533 184.868 83.3308 184.856 83.3233 184.856C83.1508 184.836 83.0283 184.681 83.0508 184.508C83.0708 184.338 83.2258 184.216 83.3983 184.236C83.6408 184.263 89.3308 184.818 91.3808 176.486C91.4233 176.318 91.5908 176.216 91.7583 176.256C91.9258 176.298 92.0283 176.466 91.9883 176.633C90.0908 184.336 85.0208 184.868 83.6633 184.868H83.6608Z" fill="#333333"/>
<path d="M88.1032 223.583C87.4732 221.873 87.3507 219.421 89.0507 218.766C90.5982 218.168 92.0907 219.681 93.0657 221.023C96.8757 226.271 100.686 231.516 104.496 236.763C102.203 230.266 100.838 223.443 100.456 216.563C100.343 214.548 100.606 212.053 102.466 211.273C103.583 210.806 104.918 211.206 105.838 211.993C106.758 212.781 107.331 213.893 107.801 215.008C110.668 221.813 110.351 229.883 106.961 236.446C108.436 231.676 111.406 227.383 115.348 224.321C116.893 223.121 118.921 222.071 120.736 222.803C122.391 223.473 123.196 225.486 122.946 227.253C122.696 229.021 121.616 230.558 120.406 231.873C116.456 236.171 108.418 240.833 102.498 238.211C96.1782 235.411 90.5132 230.108 88.1032 223.581V223.583Z" fill="#005B85"/>
<path d="M112.273 216.796C113.113 215.851 114.311 214.918 115.493 215.321C117.026 215.843 117.123 218.013 116.826 219.641C115.931 224.573 111.786 232.556 109.221 236.831C111.283 235.173 116.931 231.636 119.476 231.003C120.498 230.748 121.736 230.646 122.453 231.436C123.431 232.511 122.661 234.268 121.708 235.368C118.556 239.013 109.688 242.483 107.731 235.791C105.866 229.408 107.971 221.633 112.268 216.793L112.273 216.796Z" fill="#00C7FD"/>
<path d="M290.818 219.146C292.326 216.226 293.118 211.963 289.696 210.483C288.126 209.803 286.293 210.093 284.898 211.086C282.171 213.031 279.786 215.421 277.796 218.106C279.653 212.391 280.813 206.451 281.203 200.453C281.258 199.596 281.003 198.716 280.406 198.098C278.836 196.478 276.646 197.891 275.288 199.323C270.608 204.263 267.536 213.593 266.336 220.286C266.336 220.286 266.401 213.131 266.043 210.903C265.821 209.521 265.266 208.166 264.041 207.491C261.186 205.918 258.876 209.113 258.176 211.863C256.938 216.733 257.588 222.026 259.701 226.628C259.408 226.628 259.118 226.618 258.826 226.638C256.783 226.766 254.728 227.391 253.446 228.578C251.116 230.736 252.098 234.151 254.778 236.068C257.458 237.986 261.331 238.678 265.043 238.861C266.378 238.926 269.048 238.893 272.613 238.523C273.426 238.438 275.481 238.486 276.296 238.503C278.538 238.548 280.226 238.358 284.196 237.566C285.618 237.281 286.943 236.533 287.793 235.358C290.248 231.956 286.671 228.738 283.311 228.756C286.371 226.043 288.941 222.776 290.816 219.143L290.818 219.146Z" fill="#FEC91B"/>
<path d="M269.631 238.923C269.473 238.923 269.338 238.806 269.321 238.646C267.576 223.286 274.741 210.696 274.813 210.568C274.901 210.418 275.091 210.368 275.241 210.453C275.391 210.541 275.441 210.731 275.356 210.881C275.283 211.003 268.221 223.426 269.943 238.573C269.963 238.746 269.841 238.901 269.668 238.918C269.656 238.918 269.643 238.918 269.633 238.918L269.631 238.923Z" fill="#333333"/>
<path d="M269.148 231.828C268.563 231.828 266.376 231.721 264.778 230.196C263.646 229.116 263.073 227.578 263.073 225.618C263.073 225.446 263.213 225.306 263.386 225.306C263.558 225.306 263.698 225.446 263.698 225.618C263.698 227.398 264.206 228.786 265.211 229.743C266.841 231.296 269.241 231.201 269.266 231.201C269.438 231.193 269.586 231.326 269.593 231.498C269.601 231.671 269.468 231.818 269.296 231.826C269.283 231.826 269.233 231.828 269.151 231.828H269.148Z" fill="#333333"/>
<path d="M271.511 227.658C270.758 227.658 270.241 227.556 270.191 227.546C270.021 227.511 269.913 227.346 269.948 227.178C269.983 227.008 270.148 226.901 270.316 226.933C270.343 226.938 273.003 227.453 275.076 226.008C276.353 225.118 277.156 223.666 277.461 221.691C277.488 221.521 277.646 221.403 277.818 221.431C277.988 221.458 278.106 221.616 278.078 221.788C277.746 223.941 276.853 225.533 275.428 226.526C274.088 227.458 272.568 227.658 271.511 227.658Z" fill="#333333"/>
<path d="M163.598 135.186H123.708C115.926 135.186 109.618 141.494 109.618 149.276V192.796C109.618 200.577 115.926 206.886 123.708 206.886H163.598C171.38 206.886 177.688 200.577 177.688 192.796V149.276C177.688 141.494 171.38 135.186 163.598 135.186Z" fill="#FF5662"/>
<path d="M166.483 168.438L145.906 147.861C144.773 146.728 142.936 146.728 141.801 147.861L121.223 168.438C119.396 170.266 120.691 173.393 123.276 173.393H132.716V188.276C132.716 190.588 134.591 192.463 136.903 192.463H150.806C153.118 192.463 154.993 190.588 154.993 188.276V173.393H164.433C167.018 173.393 168.313 170.268 166.486 168.438H166.483Z" fill="white"/>
<path d="M232.694 69.8484C233.325 68.8459 233.137 67.5925 232.273 67.0488C231.41 66.5051 230.198 66.8769 229.567 67.8794C228.936 68.8818 229.124 70.1352 229.987 70.6789C230.851 71.2227 232.062 70.8508 232.694 69.8484Z" fill="#E6E6E6"/>
<path d="M226.893 72.9857L228.688 85.1082L222.461 85.6132L221.856 73.1332L226.893 72.9857Z" fill="#FFC599"/>
<path d="M231.906 65.9132C230.983 59.7057 225.633 55.3532 219.958 56.1932C215.431 56.8632 213.136 59.6257 212.983 64.6732C212.943 65.9532 213.043 67.3807 213.276 68.9557C214.198 75.1632 216.156 81.8932 220.553 78.2057C228.851 71.2507 232.828 72.1182 231.908 65.9107L231.906 65.9132Z" fill="#FFC599"/>
<path d="M214.246 64.1107L211.601 69.7957C211.381 70.2707 211.658 70.8282 212.173 70.9357L213.906 71.2957L214.248 64.1107H214.246Z" fill="#FFC599"/>
<path d="M229.523 75.1907C230.683 73.2457 233.031 74.0332 234.276 72.1432C235.346 70.5157 234.023 69.9307 236.391 67.2732C237.083 66.4957 237.313 65.4082 237.091 64.3907C237.031 64.1207 236.988 63.9232 236.983 63.9057C236.478 62.3782 237.568 60.8357 238.011 59.2882C238.588 57.2607 237.956 54.9357 236.428 53.4832C234.923 52.0507 233.216 51.5332 231.191 51.0707C228.961 50.5607 227.988 50.0532 225.758 49.5457C224.316 49.2157 222.743 48.9007 221.406 49.5332C219.606 50.3882 218.718 52.7607 216.768 53.1807C215.891 53.3707 215.016 52.9882 214.081 53.1557C214.076 53.1557 214.071 53.1557 214.066 53.1557C209.213 54.0357 209.923 58.8257 212.433 60.2832C212.936 60.5607 213.523 60.5882 214.491 61.1482C219.683 64.1457 225.576 57.3182 223.443 64.2032C221.711 69.7932 225.656 76.4057 226.911 76.4057C227.233 76.4057 227.421 76.9082 227.488 76.9832C228.006 77.5657 229.203 75.7357 229.526 75.1957L229.523 75.1907Z" fill="#005B85"/>
<path d="M226.556 67.1108C226.556 68.9158 224.406 70.3183 223.251 70.3183C222.096 70.3183 222.376 68.4383 222.376 67.1108C222.376 65.7833 223.311 64.7058 224.466 64.7058C225.621 64.7058 226.556 65.7833 226.556 67.1108Z" fill="#FFC599"/>
<path d="M245.008 231.981H240.061L235.148 219.258H241.396L245.008 231.981Z" fill="#DD9F76"/>
<path d="M222.891 236.231C223.593 235.583 226.166 235.308 227.338 235.086C228.168 234.931 229.083 234.686 229.861 234.356C231.588 233.621 236.718 231.533 236.718 231.533C237.688 231.008 238.833 230.926 239.871 231.301C240.263 231.443 240.636 231.573 240.861 231.641C242.646 232.171 243.696 231.761 245.286 230.791C245.693 230.541 246.216 230.843 246.203 231.321L246.646 236.551C246.723 237.478 246.023 238.108 245.058 238.266C240.616 238.993 228.158 239.066 223.728 238.266C222.613 238.066 222.106 236.951 222.888 236.231H222.891Z" fill="#005B85"/>
<path d="M215.876 150.961C217.541 155.843 218.631 160.903 219.138 166.036C220.956 184.511 222.948 200.351 229.138 218.853C229.771 220.743 230.548 222.786 232.368 223.833C234.453 225.033 237.221 224.606 239.626 224.163C240.648 223.976 243.651 223.401 243.651 223.401C246.576 222.718 248.226 219.863 247.216 217.243C243.586 207.838 238.498 198.328 236.128 188.593C235.301 185.196 234.646 182.016 234.528 179.726C234.366 176.538 234.391 171.971 234.578 164.208C234.796 155.218 237.643 143.238 234.953 134.596C234.308 132.521 234.603 132.103 232.896 130.628C229.708 127.876 222.913 135.556 218.596 136.168C216.693 136.438 214.558 136.838 213.516 138.333C212.761 139.413 212.791 140.788 212.846 142.073L215.878 150.958L215.876 150.961Z" fill="#E96115"/>
<path d="M205.721 234.601H200.773L202.073 221.878H209.041L205.721 234.601Z" fill="#FFC599"/>
<path d="M182.793 238.563C183.551 237.866 186.323 237.568 187.588 237.331C188.483 237.163 189.471 236.898 190.308 236.543C192.171 235.751 197.701 233.501 197.701 233.501C198.746 232.933 199.981 232.846 201.098 233.251C201.523 233.403 201.923 233.543 202.166 233.616C204.091 234.188 205.223 233.746 206.936 232.701C207.376 232.433 207.938 232.758 207.926 233.273L208.403 238.911C208.488 239.911 207.731 240.588 206.693 240.758C201.903 241.543 188.476 241.621 183.701 240.758C182.501 240.541 181.953 239.341 182.793 238.566V238.563Z" fill="#0095CA"/>
<path d="M215.028 135.821C204.133 163.951 197.621 192.253 196.131 222.161C196.083 223.103 196.048 224.081 196.423 224.953C197.441 227.318 200.736 227.761 203.446 227.843C207.053 227.953 211.391 227.701 213.173 224.748C214.401 222.716 213.866 220.201 213.586 217.878C212.856 211.856 214.091 205.793 215.318 199.841C216.726 193.021 217.361 187.811 218.768 180.991C219.541 177.243 221.468 167.338 223.133 163.856C225.003 159.941 227.468 154.931 230.088 151.421C235.886 143.656 235.421 140.501 235.888 136.473C236.383 132.203 234.571 134.116 231.678 130.796C227.733 126.266 223.896 129.198 217.671 129.046" fill="#FF8F51"/>
<path d="M235.138 103.183C234.073 116.181 237.851 121.856 238.973 131.668L240.843 137.976C240.843 142.013 237.288 139.638 232.986 139.453C223.991 139.068 212.593 148.433 211.098 139.256C210.366 134.771 213.431 129.828 213.531 125.948C213.623 122.276 213.906 116.683 213.811 114.021C213.811 114.021 214.758 103.236 215.588 97.9532C216.513 92.0707 217.728 84.9907 223.071 82.8707C223.071 82.8707 224.801 82.1632 226.371 82.1632C237.606 82.1632 235.138 103.178 235.138 103.178V103.183Z" fill="#0095CA"/>
<path d="M219.928 101.338C219.743 98.8608 217.203 96.3108 214.511 98.4633C213.686 99.1233 213.131 100.066 212.828 101.078C211.823 104.431 211.248 106.038 210.348 108.953C210.018 110.021 209.668 111.313 208.313 113.093C208.126 113.338 206.586 112.228 205.718 110.848C202.558 105.828 199.116 100.323 195.973 96.4283C195.488 95.8283 195.051 95.1908 194.643 94.5358L193.968 93.4483C193.968 93.4483 193.093 91.9758 191.771 88.2108C191.043 86.1408 188.726 83.0983 186.673 80.9183C185.926 80.1233 185.343 79.4308 184.748 79.3533C183.968 79.2508 183.856 79.7683 184.611 80.6758C185.776 82.0708 186.968 83.8983 187.746 85.1558L186.913 84.8833C185.838 84.5333 184.698 84.9008 184.086 85.7958L182.213 88.5283C182.041 88.7808 181.993 89.1008 182.081 89.4058L182.653 91.3983C182.801 91.9108 183.216 92.3133 183.731 92.4433L185.588 92.9308C186.043 94.4933 187.278 94.9758 188.171 95.1133C188.816 95.2133 189.381 95.6058 189.658 96.1983L192.386 102.013C194.881 106.953 199.031 113.216 202.278 117.728C203.503 119.428 205.103 122.268 207.166 122.638C209.591 123.073 212.228 119.953 213.853 118.101C217.008 114.506 219.528 109.031 219.841 104.256C219.988 102.711 220.066 103.208 219.926 101.343L219.928 101.338Z" fill="#FFC599"/>
<path d="M219.948 104.131C219.928 104.156 219.888 104.198 219.846 104.251C219.898 104.191 219.931 104.153 219.948 104.131Z" fill="#FFC599"/>
<path d="M224.573 99.3282C225.146 98.2132 225.691 96.9482 226.031 95.6432C226.158 95.2907 226.278 94.9357 226.376 94.5707C227.141 91.6582 226.663 88.1882 222.821 86.8232C222.131 86.5782 221.396 86.4532 220.666 86.4632C218.308 86.4957 217.066 87.6407 215.913 89.6107C214.701 91.6832 214.398 92.8707 213.088 96.3932C212.418 98.0257 211.751 99.6582 211.081 101.291C210.811 101.951 211.058 102.713 211.671 103.083C212.563 103.623 213.583 104.123 214.616 104.363C215.926 104.666 217.331 104.211 218.641 104.513C220.108 104.853 221.651 105.708 223.106 105.471C223.688 105.376 223.998 104.721 223.731 104.193C223.451 103.641 223.343 102.986 223.388 102.361C223.408 102.081 223.461 101.806 223.526 101.533C223.911 100.681 224.266 99.9307 224.573 99.3282Z" fill="#00C7FD"/>
</svg>
