<svg width="458" height="350" viewBox="0 0 458 350" fill="none" xmlns="http://www.w3.org/2000/svg">
<g clip-path="url(#clip0_10113_14802)">
<path opacity="0.04" d="M256.227 114.414C240.679 119.456 223.887 120.144 207.418 121.687C180.859 124.175 183.239 125.223 161.204 139.486C139.169 153.747 122.592 178.751 123.739 206.826C124.884 234.901 147.678 263.907 174.614 265.396C204.994 267.077 202.597 234.37 232.447 230.947C248.911 229.059 265.688 235.538 282.113 240.399C306.616 247.65 327.395 258.027 351.404 252.792C375.415 247.556 397.496 232.26 406.824 208.935C416.153 185.611 410.206 154.251 389.948 137.304C382.763 131.293 373.663 126.579 370.093 117.839C365.356 106.238 373.012 94.2562 381.569 86.5755C390.127 78.8948 400.562 71.8948 403.293 60.2241C414.815 10.961 340.892 20.7972 319.226 31.4903C303.907 39.0503 300.009 52.5482 296.148 69.0658C290.693 92.3951 278.592 107.158 256.224 114.411L256.227 114.414Z" fill="white"/>
<path opacity="0.04" d="M319.711 171.703C325.322 176.946 328.485 182.316 331.869 188.916C335.254 195.515 337.862 202.829 342.941 207.96C352.359 217.48 369.36 217.212 382.753 208.87C396.146 200.528 405.701 185.312 408.999 170.129C412.299 154.944 409.835 139.925 404.086 127.34C398.337 114.752 389.459 104.394 379.74 95.2072C355.572 72.3655 325.486 56.0121 291.898 49.0579C258.31 42.1038 221.224 44.6962 185.659 57.7717C173.963 62.0707 161.515 68.2862 154.498 79.5007C148.797 88.6103 147.801 99.6776 150.328 108.756C152.856 117.834 158.562 125.121 165.208 131.009C188.547 151.678 222.453 156.054 254.662 160.433C286.872 164.811 298.221 148.989 319.711 171.703Z" fill="white"/>
<path opacity="0.07" d="M423.267 314.162C300.74 305.842 191.229 311.481 66.4486 312.564C56.8306 312.649 46.8775 312.753 38.1442 313.873C29.4108 314.99 22.2106 317.421 23.4761 319.929C24.8043 322.562 34.9068 324.32 44.9081 324.633C54.9094 324.947 64.9685 324.177 74.883 323.605C131.092 320.356 188.817 323.349 245.29 325.507C301.764 327.665 362.035 328.843 414.377 322.379C420.15 321.667 426 320.815 429.676 319.437C433.355 318.058 434.36 315.671 429.891 314.814C428.288 314.508 424.932 314.278 423.267 314.165V314.162Z" fill="white"/>
<path d="M398.896 189.039C405.332 198.136 415.881 204.192 426.974 205.16L424.272 200.186C423.643 199.029 425.009 197.818 426.08 198.583L434.666 204.721C433.179 198.747 430.296 193.13 426.33 188.426C425.916 187.933 426.502 187.243 427.054 187.571L429.433 188.99C428.03 179.84 420.897 171.826 411.978 169.383C407.328 168.109 400.844 169.304 397.481 173.129C393.366 177.812 395.775 184.636 398.894 189.044L398.896 189.039Z" fill="#FEC91B"/>
<path d="M396.852 175.092C395.464 178.254 396.457 182.099 398.638 184.773C400.82 187.448 404.004 189.116 407.251 190.284C410.498 191.452 416.242 193.067 419.468 194.291C417.785 191.868 417.108 187.682 417.679 184.493C418.25 181.305 417.889 177.539 416.433 174.525C414.849 171.247 412.424 168.123 408.823 167.619L396.855 175.089L396.852 175.092Z" fill="#FFE17A"/>
<path d="M423.84 144.456C424.983 145.718 424.137 147.76 422.437 147.813C421.62 147.84 420.794 147.669 420.029 147.29C412.964 143.78 404.351 144.75 398.212 150.01L385.337 135.793L389.013 132.454C396.274 125.862 407.497 126.41 414.08 133.681L423.836 144.456H423.84Z" fill="#00C7FD"/>
<path d="M379.713 166.822L366.839 152.605L363.163 155.943C355.902 162.535 355.353 173.774 361.938 181.044L372.123 192.29C372.908 193.156 374.246 193.222 375.112 192.437C375.799 191.814 376.016 190.808 375.608 189.975C371.831 182.232 373.441 172.856 379.716 166.822H379.713Z" fill="#00C7FD"/>
<path d="M414.627 166.11L410.795 164.034L391.595 181.467L393.292 185.512C393.769 186.649 394.434 187.697 395.259 188.614C395.792 189.208 396.705 189.253 397.298 188.72L417.481 170.503C418.077 169.965 418.125 169.043 417.585 168.447L417.549 168.406C416.713 167.479 415.724 166.701 414.625 166.108L414.627 166.11Z" fill="#0095CA"/>
<mask id="mask0_10113_14802" style="mask-type:luminance" maskUnits="userSpaceOnUse" x="391" y="164" width="27" height="26">
<path d="M414.627 166.11L410.795 164.034L391.595 181.467L393.292 185.512C393.769 186.649 394.434 187.697 395.259 188.614C395.792 189.208 396.705 189.253 397.298 188.72L417.489 170.498C418.082 169.962 418.128 169.048 417.592 168.456L417.549 168.408C416.713 167.481 415.724 166.704 414.625 166.11H414.627Z" fill="white"/>
</mask>
<g mask="url(#mask0_10113_14802)">
<path d="M419.518 169.905L395.565 191.655L393.273 189.123C393.273 189.123 399.945 181.643 404.732 177.322C409.327 173.175 417.226 167.373 417.226 167.373L419.518 169.905Z" fill="#005B85"/>
</g>
<path d="M410.693 164.454C412.258 163.035 412.742 160.771 411.887 158.84C408.546 151.294 403.189 143.097 396.165 135.341C382.821 120.608 362.276 116.282 353.226 115.058C350.768 114.725 348.61 116.685 348.702 119.167C349.037 128.303 351.329 149.201 364.674 163.935C371.698 171.693 379.323 177.831 386.497 181.896C388.333 182.937 390.631 182.673 392.195 181.254L410.696 164.457L410.693 164.454Z" fill="#D2F9FF"/>
<mask id="mask1_10113_14802" style="mask-type:luminance" maskUnits="userSpaceOnUse" x="348" y="115" width="65" height="68">
<path d="M410.693 164.454C412.258 163.035 412.742 160.771 411.887 158.84C408.546 151.294 403.189 143.097 396.165 135.341C382.821 120.608 362.276 116.282 353.226 115.058C350.768 114.725 348.61 116.685 348.702 119.167C349.037 128.303 351.329 149.201 364.674 163.935C371.698 171.693 379.323 177.831 386.497 181.896C388.333 182.937 390.631 182.673 392.195 181.254L410.696 164.457L410.693 164.454Z" fill="white"/>
</mask>
<g mask="url(#mask1_10113_14802)">
<path d="M376.247 106.661C377.055 107.551 377.202 108.862 376.606 109.907C374.781 113.108 370.124 120.241 360.904 128.614C353.487 135.349 347.005 138.436 343.96 139.635C342.883 140.06 341.656 139.773 340.88 138.914L333.47 130.854C332.438 129.715 332.522 127.953 333.663 126.917L364.975 98.4851C366.113 97.452 367.873 97.5365 368.907 98.6782L376.247 106.661Z" fill="#00C7FD"/>
<path d="M400.176 182.9L420.487 164.57L420.854 162.166L402.977 140.215L380.596 122.389C392.554 129.792 406.885 145.723 386.873 175.138C380.625 184.32 389.493 184.802 400.176 182.9Z" fill="#A0EBFF"/>
</g>
<path d="M370.541 151.338C377.3 151.338 382.78 145.851 382.78 139.083C382.78 132.315 377.3 126.828 370.541 126.828C363.782 126.828 358.303 132.315 358.303 139.083C358.303 145.851 363.782 151.338 370.541 151.338Z" fill="#A0EBFF"/>
<path d="M370.541 147.695C375.291 147.695 379.142 143.839 379.142 139.083C379.142 134.326 375.291 130.47 370.541 130.47C365.791 130.47 361.94 134.326 361.94 139.083C361.94 143.839 365.791 147.695 370.541 147.695Z" fill="#0095CA"/>
<path d="M388.743 168.256C381.916 160.717 378.469 152.711 381.044 150.374C383.618 148.038 391.24 152.252 398.067 159.793C402.821 165.043 404.689 171.654 405.383 175.183C405.619 176.385 404.498 177.402 403.327 177.049C399.887 176.011 393.499 173.508 388.743 168.256Z" fill="#FF5662"/>
<path d="M109.387 313.414L107.565 312.84L138.02 215.899L154.023 165.34C154.459 163.959 155.679 163.066 157.123 163.073C158.569 163.076 159.782 163.971 160.213 165.354L204.919 312.427L203.089 312.984L158.386 165.919C158.174 165.236 157.591 164.99 157.118 164.987H157.116C156.643 164.987 156.062 165.231 155.845 165.919L139.842 216.476L109.39 313.414H109.387Z" fill="#0095CA"/>
<path d="M158.246 170.534H156.335V316.076H158.246V170.534Z" fill="#0095CA"/>
<path d="M157.292 206.498C156.06 206.498 155.062 205.498 155.062 204.265V170.535C155.062 169.301 156.06 168.302 157.292 168.302C158.523 168.302 159.521 169.301 159.521 170.535V204.265C159.521 205.498 158.523 206.498 157.292 206.498Z" fill="#005B85"/>
<path d="M143.2 204.926C142.976 204.926 142.749 204.892 142.525 204.822C141.351 204.451 140.7 203.195 141.074 202.02L152.806 164.956C153.403 163.066 155.134 161.799 157.113 161.799H157.123C159.107 161.804 160.835 163.081 161.428 164.975L172.692 201.091C173.059 202.268 172.406 203.519 171.229 203.888C170.053 204.255 168.804 203.601 168.435 202.423L157.171 166.308C157.161 166.276 157.152 166.264 157.152 166.264C157.142 166.264 157.094 166.264 157.067 166.272C157.067 166.276 157.063 166.286 157.055 166.308L145.323 203.372C145.022 204.323 144.145 204.931 143.197 204.931L143.2 204.926Z" fill="#005B85"/>
<path d="M159.341 153.247L103.248 161.888C102.553 161.994 101.9 161.529 101.775 160.836L101.059 156.855C100.934 156.163 101.384 155.496 102.071 155.354L157.646 143.843C158.359 143.695 159.056 144.166 159.184 144.883L160.418 151.733C160.548 152.453 160.059 153.136 159.341 153.247Z" fill="#005B85"/>
<path d="M153.618 156.1L129.761 159.347C129.332 159.404 128.934 159.115 128.857 158.688L127.184 149.399C127.107 148.972 127.379 148.562 127.801 148.465L151.289 143.167C151.738 143.065 152.181 143.36 152.263 143.814L154.305 155.151C154.387 155.605 154.074 156.035 153.618 156.098V156.1Z" fill="#0095CA"/>
<path d="M178.75 153.727L147.461 157.985C146.803 158.074 146.194 157.63 146.075 156.976L143.916 144.982C143.797 144.328 144.215 143.698 144.863 143.551L175.667 136.604C176.354 136.449 177.034 136.898 177.159 137.593L179.801 152.276C179.926 152.972 179.447 153.631 178.748 153.725L178.75 153.727Z" fill="#00C7FD"/>
<path d="M220.575 152.165L168.197 157.29C167.645 157.343 167.144 156.964 167.045 156.416L163.762 138.18C163.663 137.632 164 137.101 164.538 136.959L215.407 123.449C216.01 123.289 216.62 123.678 216.73 124.291L221.523 150.913C221.633 151.526 221.197 152.103 220.578 152.165H220.575Z" fill="#0095CA"/>
<path d="M216.002 121.286L209.96 122.377C209.028 122.545 208.409 123.437 208.577 124.37L213.802 153.389C213.97 154.322 214.861 154.942 215.793 154.774L221.835 153.683C222.766 153.515 223.385 152.622 223.218 151.689L217.993 122.67C217.825 121.737 216.934 121.118 216.002 121.286Z" fill="#00C7FD"/>
<path d="M104.63 154.871L100.934 155.538C100.454 155.625 100.134 156.085 100.221 156.567L101.06 161.227C101.147 161.709 101.607 162.029 102.088 161.942L105.784 161.275C106.264 161.188 106.584 160.727 106.497 160.246L105.658 155.585C105.571 155.104 105.111 154.784 104.63 154.871Z" fill="#00C7FD"/>
<path d="M162.033 170.534H152.302C150.708 170.534 149.462 169.159 149.619 167.57L150.692 156.626C151.019 153.29 153.82 150.746 157.169 150.746C160.517 150.746 163.318 153.29 163.646 156.626L164.718 167.57C164.875 169.159 163.629 170.534 162.036 170.534H162.033Z" fill="#005B85"/>
<path d="M157.205 159.549C158.719 159.549 159.946 158.321 159.946 156.805C159.946 155.289 158.719 154.06 157.205 154.06C155.691 154.06 154.464 155.289 154.464 156.805C154.464 158.321 155.691 159.549 157.205 159.549Z" fill="#FF5662"/>
<path d="M165.364 168.507H149.12C148.453 168.507 147.912 169.048 147.912 169.716C147.912 170.384 148.453 170.925 149.12 170.925H165.364C166.031 170.925 166.572 170.384 166.572 169.716C166.572 169.048 166.031 168.507 165.364 168.507Z" fill="#FF5662"/>
<path d="M31.8527 309.113H36.9316L41.972 296.037H35.5601L31.8527 309.113Z" fill="#DD9F76"/>
<path d="M54.5526 313.479C53.8319 312.815 51.1899 312.531 49.9871 312.304C49.1338 312.142 48.1961 311.893 47.3982 311.553C45.624 310.798 40.3594 308.652 40.3594 308.652C39.3639 308.111 38.1876 308.027 37.1245 308.413C36.7195 308.56 36.3387 308.693 36.1073 308.76C34.2753 309.306 33.1978 308.883 31.5658 307.887C31.1464 307.631 30.6113 307.942 30.6233 308.432L30.1677 313.805C30.0882 314.759 30.8089 315.406 31.7973 315.567C36.358 316.316 49.141 316.39 53.6897 315.567C54.8322 315.36 55.3529 314.215 54.5526 313.477V313.479Z" fill="#005B85"/>
<path d="M61.7528 225.842C60.0438 230.86 58.9229 236.059 58.4046 241.336C56.5389 260.325 54.4923 276.601 48.1406 295.62C47.4922 297.563 46.6919 299.66 44.8237 300.737C42.6856 301.97 39.8436 301.531 37.3728 301.075C36.3218 300.882 33.2411 300.293 33.2411 300.293C30.24 299.59 28.5454 296.658 29.5819 293.964C33.3062 284.297 38.5298 274.523 40.962 264.52C41.8105 261.028 42.4855 257.759 42.606 255.408C42.7748 252.133 42.7458 247.438 42.5554 239.46C42.3336 230.22 39.4121 217.91 42.1721 209.027C42.835 206.896 42.5313 206.466 44.2837 204.95C47.5548 202.121 54.5309 210.014 58.9614 210.644C60.9164 210.922 63.1051 211.335 64.1754 212.868C64.9492 213.978 64.9203 215.392 64.8624 216.71L61.7504 225.842H61.7528Z" fill="#0095CA"/>
<path d="M73.2968 309.977H78.3758L77.0428 296.904H69.8907L73.2968 309.977Z" fill="#FFC599"/>
<path d="M96.8284 314.051C96.0498 313.334 93.2053 313.028 91.9085 312.784C90.9901 312.61 89.9776 312.34 89.1171 311.973C87.2055 311.16 81.5287 308.847 81.5287 308.847C80.4561 308.265 79.1881 308.174 78.0407 308.589C77.6044 308.746 77.1946 308.891 76.9439 308.965C74.9697 309.552 73.8054 309.098 72.0481 308.024C71.5974 307.749 71.0188 308.082 71.0333 308.613L70.544 314.406C70.4572 315.434 71.2334 316.13 72.2988 316.306C77.2163 317.112 90.9949 317.192 95.8979 316.306C97.1297 316.084 97.6913 314.848 96.8284 314.051Z" fill="#0095CA"/>
<path d="M63.7464 208.457C74.9288 237.37 81.6132 266.456 83.1415 297.193C83.1897 298.161 83.2258 299.165 82.8401 300.063C81.7964 302.494 78.4144 302.95 75.6327 303.035C71.9301 303.148 67.4779 302.887 65.6483 299.853C64.39 297.765 64.9372 295.18 65.224 292.793C65.9737 286.604 64.7058 280.372 63.4451 274.255C62.0012 267.245 61.3479 261.892 59.904 254.882C59.1109 251.032 57.1319 240.851 55.4252 237.273C53.5065 233.25 50.9754 228.098 48.2877 224.495C42.3385 216.515 42.8158 213.273 42.3361 209.133C41.8275 204.743 42.5747 205.24 46.6557 203.299C53.5354 200.024 54.6418 201.658 61.0321 201.501" fill="#00C7FD"/>
<path d="M41.6346 206.275C39.9665 210.075 44.2862 209.31 48.4057 210.917C57.0161 214.277 68.9049 214.441 68.2492 207.238C67.7719 202.008 67.7454 200.666 70.949 196.963C73.1667 194.4 77.9106 193.094 79.1351 190.646C80.5742 187.769 81.4372 184.353 82.8401 179.041C84.4021 173.124 90.3778 172.255 81.8638 166.832C81.8638 166.832 80.0584 165.687 78.6072 164.901C77.4574 164.278 75.2759 163.39 75.2759 163.39C73.1474 162.685 67.9238 163.491 62.5338 177.011C57.573 189.458 51.8504 192.823 45.9976 201.112C45.0238 202.493 41.6322 206.273 41.6322 206.273L41.6346 206.275Z" fill="#FF8F51"/>
<path d="M83.4934 155.649L76.797 166.31L82.44 169.359L88.165 157.869L83.4934 155.649Z" fill="#FFBB8D"/>
<path d="M81.7072 146.92C85.1398 141.463 91.9616 139.582 96.949 142.72C100.926 145.223 101.939 148.772 99.9983 153.585C99.5065 154.806 98.8244 156.107 97.9518 157.493C94.5216 162.95 89.9006 168.473 87.2924 163.184C82.3701 153.208 78.2746 152.378 81.7072 146.92Z" fill="#FFBB8D"/>
<path d="M98.388 153.008L98.5254 159.45C98.5374 159.989 98.0433 160.397 97.5178 160.286L95.7412 159.909L98.388 153.008Z" fill="#FFBB8D"/>
<path d="M87.6034 154.613C87.9312 154.838 87.4346 155.798 87.0996 156.189C85.7087 158.263 86.4102 157.297 84.3178 159.467C81.4879 162.402 84.6143 163.406 82.4665 167.148C81.5939 168.666 79.3184 169.39 77.4358 169.439C76.0618 169.472 74.7263 168.625 74.1791 167.38C73.9984 166.967 73.468 166.878 73.0992 167.136C71.6409 168.154 69.3774 168.043 68.1769 166.68C67.2609 165.639 67.1428 164.078 67.6659 162.808C68.0275 161.932 67.7334 160.944 66.9114 160.471C65.359 159.583 64.2888 157.763 64.5901 155.972C65.0119 153.459 68.0106 151.774 70.3826 152.629C70.4718 152.66 70.5417 152.573 70.4935 152.494C69.293 150.505 70.5561 147.649 72.6075 146.45C73.632 145.851 74.7697 145.547 75.9485 145.402C77.8528 145.17 79.3907 141.885 80.1066 140.101C80.9069 138.112 82.7606 136.703 84.7397 136.003C86.8079 135.271 87.8902 135.035 91.0697 136.367C92.0508 136.778 93.5405 137.61 94.577 137.84C96.4355 138.252 98.3158 138.675 100.01 139.544C103.055 141.105 105.383 144.912 103.821 147.961C103.436 148.711 102.85 149.346 102.182 149.863C99.5282 151.912 97.2334 150.23 94.1359 148.212C94.0684 148.168 94.8012 144.26 94.7433 144.207C94.618 144.094 93.0704 147.048 92.9499 146.935L90.5876 150.473L87.6058 154.613H87.6034Z" fill="#FFE17A"/>
<path d="M91.6723 152.998C91.6603 154.632 90.5153 155.95 89.1148 155.941C87.7142 155.931 87.1454 153.995 87.1574 152.361C87.1695 150.727 87.76 150.01 89.1581 150.02C90.5563 150.029 91.682 151.364 91.6699 153.001L91.6723 152.998Z" fill="#FFBB8D"/>
<path d="M107.03 153.03L107.579 152.315C108.286 151.395 109.464 151.045 110.506 151.451L113.673 152.684C113.965 152.798 114.191 153.042 114.295 153.353L114.963 155.376C115.134 155.897 115.016 156.479 114.654 156.887L113.362 158.379C113.938 160.143 112.926 161.338 112.217 161.922C111.846 162.229 111.641 162.687 111.68 163.168L111.899 165.977C112.176 172.323 112.957 174.708 112.321 183.912C112.171 186.06 111.417 189.963 109.884 191.474C108.081 193.251 104.788 193.287 101.589 191.503C97.7999 189.391 89.8331 184.766 86.5259 181.16L91.5157 175.847C94.3095 178.109 97.0213 179.837 99.873 181.814C100.815 182.468 102.541 183.61 104.764 184.184C105.359 184.339 105.851 181.066 105.861 179.391C105.887 174.766 106.56 163.674 106.56 163.674C106.56 163.674 106.446 161.917 105.388 157.956" fill="#FFBB8D"/>
<path d="M90.1488 182.719C90.1801 182.726 90.238 182.743 90.3055 182.76C90.2259 182.739 90.1753 182.726 90.1488 182.719Z" fill="#FFBB8D"/>
<path d="M81.2853 180.832C80.2343 180.091 79.1351 179.2 78.2022 178.174C77.9178 177.913 77.6382 177.648 77.3778 177.363C75.2903 175.08 74.0706 171.693 76.9102 168.615C77.4188 168.063 78.0263 167.597 78.6964 167.256C80.8538 166.158 82.5291 166.607 84.5178 167.85C86.6101 169.156 86.7765 169.885 90.3224 172.671C91.7108 173.836 91.6048 173.554 92.9932 174.72C93.5549 175.191 93.6923 176.004 93.3138 176.632C92.7594 177.549 92.0724 178.493 91.248 179.205C90.2018 180.108 88.7073 180.363 87.6611 181.266C86.4896 182.275 86.9862 185.239 85.5519 185.72C84.9782 185.913 84.3828 185.464 84.3732 184.858C84.3635 184.221 84.149 183.574 83.8091 183.028C83.6572 182.782 83.4789 182.558 83.2884 182.34C82.5315 181.749 81.8518 181.237 81.2829 180.836L81.2853 180.832Z" fill="#E96115"/>
<path d="M368.126 63.1304C374.109 63.1304 378.959 58.2737 378.959 52.2828C378.959 46.2918 374.109 41.4352 368.126 41.4352C362.143 41.4352 357.293 46.2918 357.293 52.2828C357.293 58.2737 362.143 63.1304 368.126 63.1304Z" fill="#0095CA"/>
<path d="M117.422 75.0376C117.422 70.0917 120.731 65.9255 125.253 64.622C124.299 64.3469 123.296 64.1924 122.252 64.1924C116.269 64.1924 111.419 69.0489 111.419 75.04C111.419 81.031 116.269 85.8876 122.252 85.8876C123.294 85.8876 124.299 85.7307 125.253 85.4579C120.731 84.1545 117.422 79.9882 117.422 75.0424V75.0376Z" fill="#0095CA"/>
<path d="M232.281 82.6217C235.038 82.6217 237.273 80.3836 237.273 77.6227C237.273 74.8619 235.038 72.6238 232.281 72.6238C229.524 72.6238 227.289 74.8619 227.289 77.6227C227.289 80.3836 229.524 82.6217 232.281 82.6217Z" fill="#FFE17A"/>
<path d="M224.425 94.2562C225.494 94.2562 226.36 93.3884 226.36 92.3179C226.36 91.2474 225.494 90.3796 224.425 90.3796C223.356 90.3796 222.489 91.2474 222.489 92.3179C222.489 93.3884 223.356 94.2562 224.425 94.2562Z" fill="#FEC91B"/>
<path d="M202.038 198.201C204.379 198.201 206.276 196.301 206.276 193.958C206.276 191.614 204.379 189.714 202.038 189.714C199.698 189.714 197.801 191.614 197.801 193.958C197.801 196.301 199.698 198.201 202.038 198.201Z" fill="#00C7FD"/>
<path d="M325.202 200.024C326.271 200.024 327.137 199.156 327.137 198.085C327.137 197.015 326.271 196.147 325.202 196.147C324.133 196.147 323.266 197.015 323.266 198.085C323.266 199.156 324.133 200.024 325.202 200.024Z" fill="#FF5662"/>
<path d="M311.664 168.888L313.296 172.198C313.441 172.492 313.723 172.697 314.046 172.743L317.693 173.274C318.51 173.392 318.835 174.399 318.245 174.976L315.605 177.551C315.372 177.781 315.263 178.111 315.319 178.435L315.94 182.072C316.08 182.888 315.225 183.509 314.494 183.125L311.233 181.406C310.943 181.254 310.596 181.254 310.305 181.406L307.043 183.125C306.313 183.509 305.457 182.888 305.597 182.072L306.219 178.435C306.274 178.111 306.168 177.781 305.932 177.551L303.292 174.976C302.702 174.399 303.027 173.392 303.844 173.274L307.492 172.743C307.817 172.695 308.097 172.492 308.241 172.198L309.873 168.888C310.24 168.147 311.295 168.147 311.659 168.888H311.664Z" fill="#FEC91B"/>
<path d="M247.224 159.914L247.952 161.389C248.017 161.519 248.142 161.611 248.287 161.632L249.911 161.869C250.275 161.922 250.42 162.371 250.157 162.627L248.981 163.776C248.877 163.877 248.829 164.024 248.853 164.169L249.13 165.791C249.193 166.153 248.812 166.431 248.487 166.26L247.033 165.494C246.903 165.427 246.749 165.427 246.621 165.494L245.167 166.26C244.842 166.431 244.461 166.153 244.524 165.791L244.801 164.169C244.825 164.024 244.777 163.877 244.673 163.776L243.497 162.627C243.234 162.369 243.379 161.922 243.743 161.869L245.367 161.632C245.512 161.611 245.637 161.521 245.703 161.389L246.431 159.914C246.594 159.583 247.064 159.583 247.226 159.914H247.224Z" fill="#FFE17A"/>
<path d="M325.573 66.4878L326.462 68.2933C326.539 68.4502 326.689 68.5589 326.86 68.583L328.851 68.8727C329.285 68.9354 329.459 69.4713 329.145 69.7778L327.706 71.1827C327.581 71.3033 327.525 71.4796 327.554 71.6534L327.894 73.6375C327.969 74.072 327.513 74.4002 327.125 74.1975L325.346 73.2609C325.192 73.1789 325.006 73.1789 324.852 73.2609L323.073 74.1975C322.685 74.4027 322.229 74.072 322.304 73.6375L322.644 71.6534C322.673 71.482 322.618 71.3058 322.492 71.1827L321.053 69.7778C320.74 69.4713 320.913 68.9354 321.347 68.8727L323.338 68.583C323.512 68.5589 323.659 68.4502 323.736 68.2933L324.626 66.4878C324.821 66.0944 325.382 66.0944 325.575 66.4878H325.573Z" fill="#00C7FD"/>
<path d="M287.236 140.603C283.319 140.603 279.375 140.133 275.473 139.184C254.26 134.021 241.2 112.538 246.356 91.2969C250.49 74.2724 267.687 63.7893 284.686 67.9266C298.319 71.2455 306.715 85.0524 303.401 98.7049C301.133 108.041 292.758 114.322 283.56 114.322C281.966 114.322 280.351 114.134 278.736 113.74C269.952 111.602 264.543 102.707 266.679 93.9111C268.395 86.8435 275.535 82.489 282.593 84.2076C288.272 85.5907 291.77 91.3428 290.389 97.0297C289.275 101.611 284.647 104.433 280.072 103.32C278.283 102.886 276.769 101.778 275.812 100.201C274.855 98.6276 274.566 96.7738 275.002 94.9804C275.041 94.8186 275.205 94.7197 275.366 94.7583C275.528 94.7969 275.627 94.9611 275.588 95.1228C275.19 96.7569 275.453 98.449 276.328 99.8876C277.201 101.324 278.582 102.335 280.214 102.733C284.469 103.769 288.769 101.145 289.803 96.8873C291.105 91.5238 287.807 86.0976 282.451 84.7942C275.714 83.1552 268.901 87.3069 267.265 94.0535C265.208 102.526 270.418 111.095 278.879 113.154C289.497 115.739 300.233 109.193 302.813 98.5624C306.048 85.2335 297.852 71.7524 284.541 68.5131C267.862 64.4531 250.994 74.7359 246.937 91.4393C241.858 112.357 254.72 133.512 275.61 138.598C288.28 141.682 301.388 139.64 312.525 132.853C323.661 126.063 331.491 115.338 334.569 102.651C334.608 102.49 334.771 102.391 334.933 102.429C335.094 102.468 335.193 102.632 335.155 102.794C332.035 115.635 324.11 126.495 312.838 133.367C304.994 138.149 296.186 140.603 287.231 140.603H287.236Z" fill="#A0EBFF"/>
<path d="M106.842 313.668L106.9 313.694C110.272 315.268 113.95 316.084 117.672 316.084H165.225C170.354 316.084 174.493 311.601 173.785 306.513C173.601 305.195 173.112 303.93 172.263 302.798C170.923 301.01 168.838 300.066 166.649 299.88C164.762 299.721 163.038 298.577 162.424 296.783C162.378 296.653 162.33 296.522 162.274 296.395C160.821 293.047 156.479 291.494 153.037 292.704C152.401 292.926 151.803 293.228 151.249 293.594C150.132 294.333 148.674 293.404 148.785 292.069C149.438 284.147 147.524 276.003 143.171 269.329C142.103 267.69 140.449 266.476 138.526 266.135C133.389 265.225 130.745 270.924 129.788 275.619C129.337 277.825 128.97 280.046 128.688 282.279C128.467 284.031 126.234 284.647 125.133 283.263C123.889 281.699 122.332 280.425 120.481 279.655C119.333 279.177 118.097 278.902 116.853 278.902C110.506 278.902 106.179 286.191 106.849 292.511C107.191 295.731 108.413 298.702 110.048 301.504C110.426 302.154 109.744 302.931 109.067 302.6C108.172 302.166 107.189 301.871 106.09 301.768C103.783 301.546 101.515 302.789 100.705 304.961C99.2727 308.813 103.286 312.009 106.839 313.67L106.842 313.668Z" fill="#0095CA"/>
<path d="M157.971 308.413C157.041 307.172 155.513 306.612 153.982 306.656C153.145 306.68 152.374 306.091 152.217 305.268C152.174 305.038 152.107 304.811 152.01 304.594C151.142 302.596 148.553 301.671 146.502 302.393C146.488 302.398 146.476 302.402 146.461 302.407C145.253 302.844 144.005 301.982 144.034 300.696C144.13 296.39 142.971 292.052 140.608 288.439C139.996 287.502 139.056 286.792 137.959 286.566C134.818 285.916 133.21 289.366 132.632 292.199C132.297 293.841 132.039 295.499 131.858 297.167C131.776 297.922 130.795 298.144 130.385 297.505C129.573 296.235 128.464 295.185 127.078 294.608C126.393 294.323 125.656 294.159 124.913 294.159C121.126 294.159 118.547 298.507 118.945 302.277C119.155 304.263 119.936 306.091 120.96 307.812C119.62 307.382 118.116 307.43 116.98 308.142C115.71 308.625 114.796 309.755 115.204 311.461C115.223 311.541 115.252 311.618 115.276 311.696C115.293 312.084 115.356 312.473 115.467 312.844C115.896 314.278 116.923 315.473 118.123 316.364C121.307 318.724 125.557 319.065 129.505 318.732C133.454 318.401 137.373 317.486 141.332 317.682C144.557 317.841 147.744 318.734 150.966 318.551C153.054 318.432 155.25 317.689 156.785 316.337H156.822C156.865 316.289 156.906 316.238 156.949 316.19C157.704 315.483 158.285 314.621 158.581 313.6C158.562 313.578 158.543 313.559 158.526 313.537C159.145 311.792 159.083 309.907 157.962 308.413H157.971Z" fill="#00C7FD"/>
<path d="M139.827 318.063C139.712 318.063 139.598 317.995 139.55 317.88C133.148 303.006 137.59 276.611 137.636 276.348C137.665 276.184 137.824 276.075 137.983 276.102C138.147 276.131 138.258 276.285 138.229 276.449C138.183 276.712 133.772 302.931 140.105 317.641C140.17 317.793 140.1 317.971 139.948 318.036C139.909 318.053 139.868 318.061 139.83 318.061L139.827 318.063Z" fill="#333333"/>
<path d="M134.425 311.652C131.205 311.652 126.413 310.378 123.617 303.619C123.554 303.464 123.626 303.288 123.78 303.225C123.935 303.163 124.111 303.235 124.173 303.39C125.96 307.71 128.753 310.238 132.48 310.904C135.259 311.401 137.53 310.624 137.552 310.616C137.708 310.561 137.88 310.645 137.935 310.802C137.99 310.959 137.906 311.131 137.749 311.186C137.713 311.198 136.349 311.654 134.423 311.654L134.425 311.652Z" fill="#333333"/>
<path d="M138.716 284.82C137.839 284.82 137.147 284.61 137.096 284.596C136.937 284.547 136.848 284.378 136.899 284.219C136.947 284.06 137.116 283.971 137.275 284.019C137.294 284.024 139.283 284.62 140.64 283.698C141.397 283.184 141.831 282.276 141.929 281.006C141.941 280.84 142.084 280.717 142.252 280.729C142.419 280.741 142.542 280.888 142.53 281.052C142.414 282.515 141.891 283.575 140.975 284.197C140.259 284.683 139.427 284.82 138.719 284.82H138.716Z" fill="#333333"/>
<path d="M359.622 315.256L358.898 310.177L345.139 306.993L346.05 313.407L359.622 315.256Z" fill="#DD9F76"/>
<path d="M360.752 291.926C360.19 292.742 360.282 295.424 360.229 296.66C360.19 297.536 360.072 298.511 359.848 299.356C359.347 301.236 357.956 306.81 357.956 306.81C357.558 307.882 357.643 309.072 358.178 310.081C358.38 310.464 358.568 310.826 358.669 311.049C359.475 312.803 359.207 313.943 358.445 315.717C358.25 316.173 358.636 316.665 359.123 316.581L364.549 316.272C365.51 316.216 366.053 315.403 366.075 314.392C366.173 309.723 364.428 296.923 362.963 292.491C362.594 291.376 361.376 291.019 360.754 291.924L360.752 291.926Z" fill="#005B85"/>
<path d="M270.495 293.322C278.069 292.899 283.254 293.763 288.591 293.532C307.8 292.699 323.97 293.858 343.847 297.507C345.879 297.881 348.085 298.381 349.425 300.097C350.961 302.062 350.924 304.968 350.823 307.503C350.78 308.582 350.63 311.749 350.63 311.749C350.358 314.85 347.673 316.965 344.838 316.308C334.663 313.957 324.17 310.119 313.843 309.11C310.237 308.758 306.882 308.548 304.517 308.763C301.224 309.06 296.545 309.755 288.612 311.082C279.426 312.618 267.679 315.794 258.302 315.794C243.842 315.794 246.025 305.538 244.263 304C240.975 301.13 257.531 303.291 257.529 298.767C257.529 296.773 256.314 295.839 257.692 294.55C258.69 293.619 259.493 294.297 260.816 294.167L270.495 293.324V293.322Z" fill="#E96115"/>
<path d="M300.024 308.78H305.148L303.801 295.586H296.584L300.024 308.78Z" fill="#FFC599"/>
<path d="M323.77 312.89C322.984 312.166 320.113 311.857 318.804 311.611C317.876 311.437 316.856 311.164 315.986 310.793C314.058 309.972 308.33 307.638 308.33 307.638C307.248 307.051 305.968 306.957 304.811 307.377C304.372 307.536 303.955 307.681 303.705 307.756C301.711 308.35 300.54 307.891 298.763 306.807C298.307 306.53 297.724 306.865 297.739 307.401L297.244 313.247C297.158 314.283 297.941 314.988 299.016 315.164C303.977 315.977 317.883 316.057 322.83 315.164C324.074 314.94 324.64 313.694 323.767 312.89H323.77Z" fill="#0095CA"/>
<path d="M237.054 298.144C240.368 303.252 241.318 308.463 246.141 312.176C250.965 315.888 256.046 318.606 266.322 315.712C270.389 314.568 272.739 311.302 274.704 307.686C278.975 299.822 279.474 281.523 282.559 272.534C283.422 277.632 283.962 291.357 287.61 295.991C290.681 299.894 289.104 301.072 291.536 305.403C293.303 308.55 303.741 305.19 305.703 300.626C307.159 297.244 308.087 298.518 306.125 295.569C301.557 288.709 299.978 282.486 297.934 274.499C296.651 269.485 291.375 255.398 286.486 253.709C282.215 252.232 277.666 252.796 273.91 255.314C261.272 263.794 266.194 285.477 257.861 298.222" fill="#FF8F51"/>
<path d="M236.902 256.953C228.571 265.232 223.203 276.444 221.976 288.134C221.361 293.993 221.766 303.648 222.089 309.262C222.229 311.693 224.239 313.588 226.669 313.583C228.831 313.578 233.474 313.404 236.126 313.267C236.827 312.35 235.255 310.122 234.161 309.755C233.067 309.388 228.761 310.506 227.708 310.035C225.512 309.055 226.216 306.228 226.31 303.822C226.852 289.807 231.531 275.979 239.606 264.518" fill="#DD9F76"/>
<path d="M239.372 265.749C241.149 265.604 242.976 264.569 243.494 262.862C244.201 260.53 245.543 251.032 243.911 249.354C241.949 247.339 240.503 248.601 238.726 250.407C237.121 252.036 229.808 259.104 230.176 261.53C230.656 264.682 236.812 265.966 239.372 265.749Z" fill="#005B85"/>
<path d="M240.466 235.363C241.038 234.473 240.667 233.213 239.637 232.548C238.606 231.882 237.307 232.064 236.734 232.954C236.161 233.844 236.532 235.104 237.563 235.769C238.593 236.435 239.893 236.253 240.466 235.363Z" fill="#E6E6E6"/>
<path d="M246.308 235.531L244.738 248.143L251.198 248.517L251.526 235.562L246.308 235.531Z" fill="#FFC599"/>
<path d="M237.555 233.686C234.638 227.869 236.579 220.987 241.889 218.313C246.124 216.179 249.714 217.157 252.85 221.347C253.645 222.409 254.412 223.679 255.152 225.156C258.069 230.973 260.419 237.85 254.496 237.346C243.323 236.392 240.469 239.501 237.553 233.686H237.555Z" fill="#FFC599"/>
<path d="M251.444 221.622L257.073 224.866C257.543 225.137 257.639 225.776 257.268 226.175L256.015 227.514L251.447 221.622H251.444Z" fill="#FFC599"/>
<path d="M245.1 240.136C242.957 239.178 241.441 241.247 239.259 240.382C237.384 239.641 238.153 238.355 234.568 237.512C233.52 237.266 232.676 236.479 232.259 235.485C232.148 235.219 232.066 235.029 232.061 235.007C231.579 233.409 229.738 232.752 228.441 231.702C226.744 230.327 225.895 227.978 226.324 225.832C226.746 223.718 227.884 222.262 229.325 220.662C230.912 218.9 231.432 217.888 233.018 216.126C234.045 214.987 235.188 213.78 236.699 213.522C238.734 213.172 240.898 214.656 242.8 213.85C243.658 213.488 244.172 212.641 245.061 212.225C245.066 212.225 245.071 212.221 245.076 212.218C249.714 210.07 251.963 214.56 250.704 217.292C250.444 217.828 249.962 218.2 249.475 219.252C246.862 224.891 237.801 222.612 243.709 227.181C248.506 230.891 249.104 238.852 248.038 239.6C247.766 239.793 247.906 240.329 247.894 240.433C247.8 241.237 245.698 240.399 245.1 240.131V240.136Z" fill="#005B85"/>
<path d="M242.8 231.512C243.875 233.042 246.532 232.95 247.51 232.262C248.489 231.574 247.132 230.145 246.341 229.018C245.551 227.891 244.116 227.536 243.138 228.224C242.159 228.912 242.007 230.384 242.8 231.512Z" fill="#FFC599"/>
<path d="M248.877 243.209C245.244 243.158 241.904 246.745 239.734 249.528C237.565 252.311 235.73 257.337 234.73 260.723C230.516 274.982 230.388 287.953 237.369 301.077C238.91 303.974 241.168 306.914 244.403 307.433C248.091 308.024 251.396 305.282 254.125 302.728C257.181 299.87 259.457 299.025 259.336 294.838C259.23 291.181 256.437 285.967 255.424 282.452C253.908 277.19 257.198 267.651 258.799 262.413C260.997 255.22 259.267 243.354 248.877 243.207V243.209Z" fill="#0095CA"/>
<path d="M254.981 260.513C254.867 257.938 257.162 255 260.197 256.883C261.125 257.46 261.812 258.363 262.251 259.367C263.699 262.696 264.488 264.279 265.77 267.168C266.24 268.228 266.758 269.514 268.374 271.18C268.595 271.409 270.044 270.074 270.765 268.547C273.395 262.985 276.256 256.893 279.006 252.495C279.431 251.817 279.802 251.107 280.139 250.38L280.699 249.176C280.699 249.176 281.417 247.551 282.314 243.511C282.808 241.29 284.816 237.87 286.655 235.371C287.325 234.461 287.839 233.674 288.441 233.52C289.232 233.32 289.41 233.839 288.745 234.864C287.72 236.443 286.72 238.473 286.074 239.866L286.898 239.482C287.959 238.987 289.176 239.226 289.919 240.073L292.18 242.654C292.387 242.89 292.479 243.216 292.426 243.542L292.083 245.664C291.994 246.209 291.618 246.678 291.105 246.873L289.253 247.604C288.979 249.268 287.766 249.917 286.867 250.17C286.216 250.354 285.684 250.827 285.471 251.471L283.384 257.796C281.427 263.19 277.934 270.152 275.149 275.199C274.101 277.101 272.804 280.222 270.729 280.859C268.289 281.608 265.192 278.721 263.292 277.014C259.606 273.7 256.338 268.375 255.427 263.499C255.084 261.928 255.067 262.449 254.981 260.511V260.513Z" fill="#FFC599"/>
<path d="M255.306 263.393C255.33 263.415 255.376 263.456 255.427 263.504C255.366 263.449 255.328 263.412 255.306 263.393Z" fill="#FFC599"/>
<path d="M249.957 259.019C249.231 257.943 248.516 256.707 248.005 255.403C247.831 255.056 247.662 254.703 247.518 254.341C246.37 251.437 246.435 247.805 250.217 245.924C250.897 245.586 251.635 245.367 252.389 245.287C254.817 245.029 256.237 246.057 257.664 247.942C259.165 249.926 259.623 251.112 261.407 254.578C262.297 256.176 263.186 257.776 264.076 259.374C264.435 260.021 264.273 260.837 263.69 261.291C262.839 261.957 261.851 262.599 260.819 262.973C259.508 263.446 258.008 263.152 256.697 263.625C255.229 264.156 253.749 265.225 252.223 265.162C251.613 265.136 251.213 264.501 251.423 263.924C251.642 263.321 251.673 262.633 251.548 261.995C251.493 261.708 251.406 261.433 251.305 261.16C250.803 260.33 250.348 259.603 249.955 259.019H249.957Z" fill="#00C7FD"/>
<path d="M192.302 305.688C192.84 304.51 192.943 302.82 191.495 302.369C190.176 301.958 188.906 302.999 188.074 303.925C184.827 307.539 181.583 311.155 178.336 314.768C180.288 310.293 181.452 305.591 181.778 300.853C181.874 299.465 181.65 297.746 180.064 297.208C179.112 296.884 177.974 297.162 177.191 297.703C176.407 298.246 175.918 299.011 175.518 299.781C173.076 304.469 173.346 310.03 176.234 314.549C174.978 311.263 172.447 308.304 169.086 306.194C167.77 305.369 166.042 304.645 164.497 305.149C163.087 305.61 162.402 306.998 162.614 308.215C162.826 309.431 163.747 310.493 164.776 311.399C168.141 314.358 174.992 317.571 180.035 315.765C185.42 313.836 190.246 310.184 192.3 305.685L192.302 305.688Z" fill="#FF5662"/>
<path d="M171.709 301.01C170.993 300.358 169.973 299.716 168.966 299.993C167.659 300.353 167.577 301.847 167.83 302.97C168.595 306.368 172.126 311.867 174.31 314.812C172.553 313.67 167.741 311.232 165.572 310.798C164.699 310.621 163.646 310.551 163.034 311.094C162.199 311.835 162.858 313.045 163.667 313.803C166.353 316.313 173.91 318.705 175.575 314.095C177.164 309.699 175.371 304.341 171.709 301.007V301.01Z" fill="#00C7FD"/>
</g>
<defs>
<clipPath id="clip0_10113_14802">
<rect width="458" height="350" fill="white"/>
</clipPath>
</defs>
</svg>
