<svg width="320" height="263" viewBox="0 0 1196 977" fill="none" xmlns="http://www.w3.org/2000/svg">
<path opacity="0.04" d="M591.9 58.1797C490.98 63.1397 403.07 129.58 321.65 193.45C234.28 261.99 140.18 341.6 121.09 455.58C103.71 559.31 155.35 663.3 222.58 740.42C322.36 854.88 464.65 931.25 611.05 928.31C757.44 925.37 903.9 835.48 964.48 693.11C1028.87 541.78 968.9 420.65 897.71 291.49C829.95 168.55 740.89 50.8597 591.91 58.1897L591.9 58.1797Z" fill="white"/>
<path opacity="0.04" d="M544.83 660.56C597.74 674.8 646.73 705.79 696.26 733.34C776.14 777.76 861.24 814.29 948.42 811.14C1035.6 807.99 1125.65 758.79 1170.51 664.44C1215.37 570.08 1200.18 429.82 1126.04 371.61C1042.42 305.95 928.59 361.58 837.74 313.71C787.63 287.31 750.97 232.84 712.53 184.38C655.19 112.08 588.34 48.6301 511.01 18.2601C433.68 -12.1099 344.58 -5.64986 278.04 52.3901C211.5 110.42 174.69 225.06 203.32 320.75C213.48 354.69 231.31 388.17 226.49 423.9C220.09 471.33 177.76 495.47 140.23 503.72C102.7 511.97 60.99 514.27 33.22 547.14C-84.02 685.91 143.31 800 223.33 807.82C279.9 813.35 314.14 776.8 353.44 730.27C408.96 664.55 468.72 640.08 544.83 660.57V660.56Z" fill="white"/>
<path d="M332.35 98.7705H134.3C100.34 98.7705 72.8101 126.301 72.8101 160.26V364.25C72.8101 398.21 100.34 425.74 134.3 425.74H332.35C366.31 425.74 393.84 398.21 393.84 364.25V160.26C393.84 126.301 366.31 98.7705 332.35 98.7705Z" fill="#FF5662"/>
<path d="M238.86 146.36C181.77 139.4 129.85 180.05 122.89 237.14C115.93 294.23 156.58 346.15 213.67 353.11C270.76 360.07 322.68 319.42 329.64 262.33C336.6 205.24 295.95 153.32 238.86 146.36Z" fill="white"/>
<path d="M299.926 307.831C291.663 297.945 276.951 296.628 267.067 304.889C257.183 313.15 255.869 327.862 264.132 337.748L304.311 385.818C312.574 395.704 327.285 397.021 337.169 388.76C347.053 380.499 348.367 365.787 340.104 355.901L299.926 307.831Z" fill="white"/>
<path d="M235.2 176.41C194.7 171.48 157.88 200.3 152.94 240.8C148.01 281.3 176.83 318.12 217.33 323.06C257.83 327.99 294.65 299.17 299.59 258.67C304.52 218.17 275.7 181.35 235.2 176.41Z" fill="#FF5662"/>
<path d="M245.16 249.73L267.53 227.36C272.75 222.14 272.75 213.68 267.53 208.47C262.31 203.25 253.85 203.25 248.64 208.47L226.27 230.84L203.9 208.47C198.68 203.25 190.22 203.25 185.01 208.47C179.79 213.69 179.79 222.15 185.01 227.36L207.38 249.73L185.01 272.1C179.79 277.32 179.79 285.78 185.01 290.99C190.23 296.21 198.69 296.21 203.9 290.99L226.27 268.62L248.64 290.99C253.86 296.21 262.32 296.21 267.53 290.99C272.75 285.77 272.75 277.31 267.53 272.1L245.16 249.73Z" fill="white"/>
<path d="M447.13 591.58L442.25 578.71C436.47 563.46 421.88 553.35 405.57 553.3L242.21 552.72C214.6 552.62 195.46 580.24 205.25 606.06L344.49 973.2L808.12 974.85C831.02 974.93 846.9 952.02 838.77 930.61L729.75 643.16C723.97 627.91 709.38 617.81 693.07 617.75L483.8 617.01C467.49 616.95 452.91 606.85 447.12 591.6L447.13 591.58Z" fill="#005B85"/>
<path d="M406.4 864.24C418.83 847.69 431.37 830.96 439.97 812.06C448.57 793.16 453.02 771.65 448.47 751.35C445.12 736.4 437.14 722.96 432.42 708.39C418.28 664.72 434.73 617.56 451.01 574.66C458.42 555.14 466.58 534.58 483.05 522.01C501.52 507.91 526.34 506.9 549.45 506.45C571.09 506.03 594.67 506.25 611.61 519.91C623.89 529.82 630.45 545.13 636.54 559.8C646.01 582.64 643.85 605.48 653.32 628.31C661.11 647.08 667.38 667.29 663.43 687.26C655.97 724.98 640.08 739.72 637.47 766.17C635.83 782.78 636.17 794.08 645.4 807.9C654.62 821.72 673.38 838.12 673.14 854.81C672.91 871.5 657.29 876.26 640.58 874.99" fill="#FF8F51"/>
<path d="M841.35 705.84C797.09 720.37 765.35 720.78 711.22 685.36C689.68 671.26 662.22 639.6 655.73 614.68L685.49 599.54C714.83 600.13 744.31 594.71 773.42 598.44C802.53 602.17 832.95 618.14 841.67 646.16L841.35 705.83V705.84Z" fill="#DD9F76"/>
<path d="M708.67 511.24C722.68 525.16 731.71 543.19 740.37 560.93C742.85 566.01 756.09 598.51 755.31 604.11C751.91 628.64 660.4 662.67 658.11 643.74C654.91 617.32 617.73 593.95 610.06 573.13C588.67 515.12 666.26 469.08 708.68 511.23L708.67 511.24Z" fill="#E96115"/>
<path d="M245.09 705.84C289.35 720.37 321.09 720.78 375.22 685.36C396.76 671.26 424.22 639.6 430.71 614.68L400.95 599.54C371.61 600.13 342.13 594.71 313.02 598.44C283.91 602.17 253.49 618.14 244.77 646.16L245.09 705.83V705.84Z" fill="#DD9F76"/>
<path d="M380.24 511.24C366.23 525.16 357.2 543.19 348.54 560.93C346.06 566.01 332.82 598.51 333.6 604.11C337 628.64 428.51 662.67 430.8 643.74C434 617.32 471.18 593.95 478.85 573.13C500.24 515.12 422.65 469.08 380.23 511.23L380.24 511.24Z" fill="#E96115"/>
<path d="M517.22 184.22C491.43 180.9 464.51 194.1 448.52 217.92C441.28 228.69 435.5 240.41 431.37 253.37C418.14 294.82 397.02 302.49 374.56 324.73C372.88 326.4 371.22 328.13 369.66 330C357.19 344.95 357.07 367.71 367.29 384.83C376.87 400.87 387.02 413.28 377.69 435.53C375.54 440.65 369.6 445.6 362.86 449.02C339.29 460.98 339.4 480.11 350.16 492.22C360.6 503.97 406.6 496.9 419.12 505.46C427.7 511.33 429.38 524.78 435.06 534.3C442.09 546.1 456.3 551.26 467.83 546.21C479.36 541.16 487.14 526.36 485.75 512.09C483.55 523.85 493.55 535.37 503.88 535.55C514.21 535.73 523.48 527.2 528.64 516.77C533.8 506.34 535.62 494.19 537.35 482.32C538.54 474.19 539.73 466.05 540.92 457.92L531.91 430.39C520.92 396.81 478.16 439.42 488.78 330.16L492.32 258.01" fill="#FFE17A"/>
<path d="M585.87 185.71C611.66 182.39 638.58 195.59 654.57 219.41C661.81 230.18 667.59 241.9 671.72 254.86C684.95 296.31 706.07 303.98 728.53 326.22C730.21 327.89 731.87 329.62 733.43 331.49C745.9 346.44 746.02 369.2 735.8 386.32C726.22 402.36 716.07 414.77 725.4 437.02C727.55 442.14 733.49 447.09 740.23 450.51C763.8 462.47 763.69 481.6 752.93 493.71C742.49 505.46 696.49 498.39 683.97 506.95C675.39 512.82 673.71 526.27 668.03 535.79C661 547.59 646.79 552.75 635.26 547.7C623.73 542.65 615.95 527.85 617.34 513.58C619.54 525.34 609.54 536.86 599.21 537.04C588.88 537.22 579.61 528.69 574.45 518.26C569.29 507.83 567.47 495.68 565.74 483.81C564.55 475.68 563.36 467.54 562.17 459.41L571.18 431.88C582.17 398.3 624.93 440.91 614.31 331.65L610.77 259.5" fill="#FFE17A"/>
<path d="M585.88 531.29C601.07 542.89 490.23 543.65 504.6 531.29C532.99 506.88 518.11 402.42 518.11 402.42H573.87C573.87 402.42 554.54 507.34 585.89 531.29H585.88Z" fill="#FFBB8D"/>
<path d="M648.22 325.601C648.22 399.741 591.03 483.23 545.31 483.23C499.59 483.23 442.4 399.731 442.4 325.601C442.4 251.471 499.59 233.271 545.31 233.271C591.03 233.271 648.22 251.461 648.22 325.601Z" fill="#FFBB8D"/>
<path d="M671.19 277.08C671.19 217.95 623.25 170.01 564.12 170.01H538.11C478.98 170.01 431.04 217.95 431.04 277.08V293L444.28 282.55L432.03 319.76C432.03 319.76 486.53 313.51 486.53 249.18L496.44 293H594.53L602.46 249.18C602.46 313.5 656.96 319.76 656.96 319.76L638.55 263.83L671.2 277.08H671.19Z" fill="#FFE17A"/>
<path d="M260.57 709.5C283.4 713.1 296.33 698.94 304.41 690.7C333.93 660.59 356.21 610.81 362.36 588.94C389.35 492.91 418.08 453.46 435.99 397.36C437.79 391.71 435.62 372.07 432.69 366.31C423.39 348.04 443.47 334.1 455.28 323.41C467.04 312.76 503.18 318.55 512.52 309.98C525.64 297.94 508.75 284.72 486.42 282.01C450.17 277.61 412.36 300.19 399.02 334.18C388.95 359.84 397.46 383.26 390.41 409.91C365.28 505 266.88 561.95 232.06 647.74C230.44 651.73 228.89 655.38 227.44 658.8C217.32 682.67 234.64 709.17 260.56 709.5H260.57Z" fill="#FFC599"/>
<path d="M825.87 709.5C805.57 710.13 789.07 699.19 782.03 690.7C754.85 657.95 730.23 610.81 724.08 588.94C697.09 492.91 668.36 453.46 650.45 397.36C648.65 391.71 650.82 372.07 653.75 366.31C663.05 348.04 642.97 334.1 631.16 323.41C619.4 312.76 583.26 318.55 573.92 309.98C560.8 297.94 577.69 284.72 600.02 282.01C636.27 277.61 674.08 300.19 687.42 334.18C697.49 359.84 688.98 383.26 696.03 409.91C721.16 505 819.56 561.95 854.38 647.74C856 651.73 857.55 655.38 859 658.8C869.12 682.67 851.8 709.17 825.88 709.5H825.87Z" fill="#FFC599"/>
<path d="M560.83 365.66H531.11V328.01C531.11 328.01 535.73 333.29 546.96 333.29C556.78 333.29 560.83 328.01 560.83 328.01V365.66Z" fill="#005B85"/>
<path d="M531.77 340.23H561.49V377.88C561.49 377.88 556.87 372.6 545.64 372.6C535.82 372.6 531.77 377.88 531.77 377.88V340.23Z" fill="#005B85"/>
<path d="M485.07 408.2C515.379 408.2 539.95 383.63 539.95 353.32C539.95 323.011 515.379 298.44 485.07 298.44C454.761 298.44 430.19 323.011 430.19 353.32C430.19 383.63 454.761 408.2 485.07 408.2Z" fill="#0095CA"/>
<path d="M485.45 394.6C508.834 394.6 527.79 375.644 527.79 352.26C527.79 328.876 508.834 309.92 485.45 309.92C462.066 309.92 443.11 328.876 443.11 352.26C443.11 375.644 462.066 394.6 485.45 394.6Z" fill="#A0EBFF"/>
<path d="M609.68 408.2C639.989 408.2 664.56 383.63 664.56 353.32C664.56 323.011 639.989 298.44 609.68 298.44C579.371 298.44 554.8 323.011 554.8 353.32C554.8 383.63 579.371 408.2 609.68 408.2Z" fill="#0095CA"/>
<path d="M608.75 394.6C632.134 394.6 651.09 375.644 651.09 352.26C651.09 328.876 632.134 309.92 608.75 309.92C585.366 309.92 566.41 328.876 566.41 352.26C566.41 375.644 585.366 394.6 608.75 394.6Z" fill="#6DDCFF"/>
<path d="M484.57 946.01C408.71 970.66 327.62 979.11 248.3 970.63C231.39 968.82 213.98 966.04 199.71 956.8C185.44 947.55 175.12 930.22 179 913.66C183.48 894.55 205.16 883.62 224.76 884.57C244.36 885.52 262.27 895.37 279.38 904.98C256.14 889.82 231.78 873.39 219.98 848.28C208.18 823.17 215.34 787.02 241.4 777.5C264.65 769.01 289.84 784.96 305.95 803.76C322.06 822.56 334.48 845.48 355.56 858.45C336.42 842.52 330.69 812.59 342.61 790.72C354.53 768.85 382.78 757.44 406.55 764.89C425.71 770.9 440.23 787.27 448.69 805.48C457.15 823.69 460.39 843.82 463.54 863.65C451.72 842.87 473.77 814.8 497.68 815.44C521.58 816.08 540.94 837.31 547.36 860.34C553.78 883.37 550.16 907.87 546.39 931.48" fill="#FEC91B"/>
<path d="M367.87 931.03C367.87 931.03 367.8 931.03 367.77 931.03C335.82 928.43 314.45 907.83 302.15 891.01C288.87 872.85 283.02 855.04 282.96 854.86C282.75 854.2 283.11 853.5 283.76 853.29C284.42 853.08 285.12 853.44 285.34 854.09C285.4 854.26 291.15 871.75 304.21 889.59C316.2 905.97 336.99 926.01 367.97 928.53C368.66 928.59 369.17 929.19 369.11 929.88C369.06 930.53 368.51 931.03 367.86 931.03H367.87Z" fill="#005B85"/>
<path d="M278.24 939.13C269.94 939.13 262.09 937.04 256.18 934.87C246.64 931.37 240.13 927.04 239.85 926.85C239.28 926.47 239.12 925.69 239.51 925.12C239.89 924.55 240.67 924.39 241.24 924.78C241.5 924.95 267.25 941.95 290.04 934.94C301.85 931.31 310.93 921.86 317 906.85C317.26 906.21 317.99 905.9 318.63 906.16C319.27 906.42 319.58 907.15 319.32 907.79C312.95 923.54 303.34 933.48 290.76 937.34C286.59 938.62 282.36 939.13 278.23 939.13H278.24Z" fill="#005B85"/>
<path d="M884.89 214.11C881.59 210.81 876.25 210.81 872.96 214.11L858.83 228.24L844.7 214.11C841.41 210.81 836.06 210.81 832.77 214.11C829.47 217.4 829.47 222.75 832.77 226.04L846.9 240.17L832.77 254.3C829.47 257.59 829.47 262.94 832.77 266.23C836.07 269.53 841.41 269.53 844.7 266.23L858.83 252.1L872.96 266.23C876.26 269.53 881.6 269.53 884.89 266.23C888.18 262.93 888.18 257.59 884.89 254.3L870.76 240.17L884.89 226.04C888.18 222.74 888.18 217.4 884.89 214.11Z" fill="#FF5662"/>
<path d="M963.87 156.941L970.94 149.871C972.59 148.221 972.59 145.551 970.94 143.901C969.29 142.251 966.62 142.251 964.97 143.901L957.9 150.971L950.84 143.901C949.19 142.251 946.52 142.251 944.87 143.901C943.22 145.551 943.22 148.221 944.87 149.871L951.93 156.941L944.87 164.011C943.22 165.661 943.22 168.331 944.87 169.981C946.52 171.631 949.19 171.631 950.84 169.981L957.9 162.911L964.97 169.981C966.62 171.631 969.29 171.631 970.94 169.981C972.59 168.331 972.59 165.661 970.94 164.011L963.87 156.941Z" fill="#FF5662"/>
<path d="M758.66 694.4L743.06 723.57C736.14 736.51 722.65 744.59 707.98 744.59H490.34C475.66 744.59 462.18 752.67 455.26 765.61L343.55 974.46H814.35C839.18 974.46 862 960.79 873.71 938.89L984.41 731.93C998.59 705.43 979.38 673.38 949.33 673.38H793.75C779.07 673.38 765.59 681.46 758.67 694.4H758.66Z" fill="#00C7FD"/>
<path d="M1054.06 429.3C1059.44 429.3 1063.81 424.935 1063.81 419.55C1063.81 414.165 1059.44 409.8 1054.06 409.8C1048.68 409.8 1044.31 414.165 1044.31 419.55C1044.31 424.935 1048.68 429.3 1054.06 429.3Z" fill="#0095CA"/>
<path d="M912.3 561.311C917.685 561.311 922.05 556.945 922.05 551.561C922.05 546.176 917.685 541.811 912.3 541.811C906.915 541.811 902.55 546.176 902.55 551.561C902.55 556.945 906.915 561.311 912.3 561.311Z" fill="#0095CA"/>
<path d="M1046.55 723.85C1050.47 723.85 1053.65 720.672 1053.65 716.75C1053.65 712.829 1050.47 709.65 1046.55 709.65C1042.63 709.65 1039.45 712.829 1039.45 716.75C1039.45 720.672 1042.63 723.85 1046.55 723.85Z" fill="#0095CA"/>
<path d="M870.98 468.841C862.27 458.911 854.06 448.131 850.07 435.541C846.08 422.951 846.94 408.181 855.15 397.841C864.1 386.551 880.21 382.711 894.33 385.561C908.45 388.401 920.81 396.931 931.4 406.701C964.88 437.601 986.58 487.641 982.52 534.061C981.8 542.291 972.32 546.661 965.57 541.901C933.15 519.021 898.46 500.161 870.99 468.851L870.98 468.841Z" fill="#A0EBFF"/>
<path d="M1080.76 538.7C1096.66 527.42 1112.94 515.12 1121.41 497.56C1129.88 480 1127.69 455.72 1111.46 444.91C1095.09 434.01 1071.44 441.71 1059.12 457.04C1046.8 472.37 1043.37 492.93 1042.21 512.56C1039.59 556.89 1045.13 563.96 1080.75 538.7H1080.76Z" fill="#A0EBFF"/>
<path d="M946.14 597.54C940.45 591.86 934.31 586.09 926.58 583.87C918.85 581.65 909.12 584.23 905.86 591.58C902.56 599 907.34 608.08 914.44 612.02C921.53 615.96 930.13 615.93 938.2 615.03C956.41 613.01 958.9 610.27 946.15 597.53L946.14 597.54Z" fill="#A0EBFF"/>
<path d="M1038.03 365.55C1043.47 354.85 1046.36 341.54 1040.44 331.11C1033.71 319.24 1017.02 315.55 1004.47 320.89C991.92 326.23 983.46 338.64 979.64 351.74C974.05 370.91 979.21 413.47 1001.35 422.75C1017.2 429.39 1014.47 417.66 1018.21 406.03C1023.03 391.03 1030.93 379.54 1038.04 365.56L1038.03 365.55Z" fill="#A0EBFF"/>
<path d="M1025.87 662.71C1031.7 668.74 1039.83 673.68 1048.07 672.14C1057.44 670.39 1063.68 660.21 1063.01 650.71C1062.34 641.2 1056.07 632.79 1048.29 627.29C1036.9 619.24 1007.62 612.95 996.45 625.46C988.46 634.42 996.82 635.28 1003.66 640.4C1012.47 646.99 1018.26 654.83 1025.88 662.71H1025.87Z" fill="#A0EBFF"/>
<path d="M573.04 976.861C572.47 976.861 571.96 976.471 571.82 975.891C571.66 975.221 572.08 974.551 572.76 974.391C704.04 944.171 824.04 863.811 901.98 753.931C979.92 644.041 1016.08 504.231 1001.19 370.341C1001.11 369.651 1001.61 369.041 1002.29 368.961C1002.99 368.881 1003.59 369.381 1003.67 370.061C1018.62 504.561 982.3 645.001 904.01 755.381C825.72 865.761 705.19 946.481 573.32 976.831C573.23 976.851 573.13 976.861 573.04 976.861Z" fill="#005B85"/>
<path d="M985 545.45C984.36 545.45 983.72 545.4 983.07 545.28C970.06 543.06 958.23 518.43 946.79 494.6C936.23 472.62 925.32 449.9 915.27 449.37C914.58 449.33 914.05 448.75 914.09 448.06C914.13 447.37 914.71 446.84 915.4 446.88C926.93 447.49 937.67 469.85 949.04 493.52C960.21 516.77 971.76 540.81 983.49 542.81C986.87 543.38 990.13 542.06 993.45 538.74C993.94 538.25 994.73 538.25 995.22 538.74C995.71 539.23 995.71 540.02 995.22 540.51C991.94 543.79 988.52 545.44 985.01 545.44L985 545.45Z" fill="#005B85"/>
<path d="M1001.06 577.33C996.79 577.33 992.36 576.95 987.78 576.19C987.1 576.08 986.64 575.43 986.75 574.75C986.86 574.07 987.51 573.61 988.19 573.72C1006.73 576.81 1022.65 573.43 1035.52 563.67C1062.46 543.23 1067.29 501.26 1067.33 500.84C1067.4 500.15 1068.02 499.66 1068.71 499.73C1069.4 499.8 1069.89 500.42 1069.82 501.11C1069.77 501.54 1064.85 544.55 1037.04 565.66C1026.8 573.43 1014.74 577.34 1001.06 577.34V577.33Z" fill="#005B85"/>
<path d="M1038.92 653.84C1038.6 653.84 1038.27 653.72 1038.03 653.47C1037.65 653.08 999.71 615.11 968.9 634.17C968.32 634.53 967.54 634.35 967.18 633.76C966.82 633.17 967 632.4 967.59 632.04C981.09 623.69 997.89 624.47 1016.19 634.31C1029.86 641.66 1039.41 651.3 1039.81 651.71C1040.29 652.2 1040.29 652.99 1039.79 653.48C1039.55 653.72 1039.23 653.84 1038.91 653.84H1038.92Z" fill="#005B85"/>
<path d="M968.24 634.35C967.64 634.35 967.12 633.92 967.01 633.32C962.83 609.45 940.45 602.12 920.92 603.22C920.25 603.26 919.64 602.73 919.6 602.04C919.56 601.35 920.09 600.76 920.78 600.72C941.39 599.56 965.02 607.4 969.48 632.88C969.6 633.56 969.14 634.21 968.46 634.33C968.39 634.34 968.31 634.35 968.24 634.35Z" fill="#005B85"/>
</svg>
