<svg width="400" height="400" viewBox="0 0 1174 1176" fill="none" xmlns="http://www.w3.org/2000/svg">
<path opacity="0.16" d="M619.92 48.7002C504.31 48.7002 365.68 129.06 303.48 279.11C253.57 399.51 425.7 466.2 139.19 657.2C47.1398 718.57 104.65 857.6 181.56 951.71C295.7 1091.39 467.02 1175.88 634.53 1175.88C928.22 1175.88 1048.11 1057.67 1071.42 871.35C1096.1 674.06 1043.9 556.37 962.46 398.75C884.94 248.72 885.85 48.7102 619.92 48.7102V48.7002Z" fill="white"/>
<path opacity="0.12" d="M612.55 875.79C674.83 872.03 737.54 885.53 799.87 895.56C900.4 911.74 890.69 899.11 987.64 874.01C1150.33 831.9 996.88 700.58 1081.29 634.64C1186.49 552.45 1074.21 406.14 976.09 374.92C865.41 339.7 925.17 484.29 811.59 468.41C748.95 459.65 693.12 419.72 637.05 386.09C553.41 335.92 486.52 277.79 392.79 274.17C299.06 270.56 276.66 305.93 219.94 383.11C163.21 460.28 155.28 581.71 213.99 663.6C234.81 692.65 263.95 718.73 268.8 754.4C275.24 801.74 161.72 838.65 122.77 858.82C83.8201 879 38.5701 894.86 17.3501 935.33C-72.2199 1106.14 210.36 1140.44 300.63 1121.67C364.45 1108.4 391.74 1062.31 421.76 1005.03C464.17 924.13 522.98 881.2 612.56 875.8L612.55 875.79Z" fill="white"/>
<path d="M315.01 870.47C285.09 927.91 196.5 942.69 149.56 898.06C102.62 853.43 112.9 764.21 168.75 731.42C119.24 743.73 63.5999 703.54 59.7299 652.67C55.8599 601.8 104.8 553.66 155.6 558.35C122.44 521.22 91.6099 478.75 84.6799 429.46C77.7599 380.17 102.26 323.43 149.81 308.69C190.37 296.11 235.31 317.39 262.89 349.68C290.48 381.97 304.41 423.41 317.73 463.74C310.38 437.97 320.76 408.12 342.51 392.46C364.26 376.81 395.86 376.45 417.97 391.6C441.71 407.88 452.3 438.46 451.81 467.24C451.32 496.02 441.44 523.71 431.68 550.79C432.74 520.75 454.71 492.6 483.6 484.29C512.49 475.98 546.07 488.14 562.93 513.02C579.85 537.98 579.34 571.58 569.03 599.91C558.73 628.25 539.86 652.52 521.29 676.27C544.22 647.86 596.05 669.27 604.99 704.67C613.93 740.07 593.5 776.36 568.73 803.18C520.97 854.9 453.57 888.04 383.45 894.27" fill="#00C7FD"/>
<path d="M371.16 783.87C370.46 783.87 369.89 783.31 369.88 782.6C369.13 734.03 358.33 683.41 337.78 632.15C321.32 591.11 298.62 549.58 270.29 508.71C222.03 439.08 173.54 394.93 173.05 394.5C172.52 394.02 172.48 393.21 172.96 392.69C173.44 392.16 174.25 392.12 174.77 392.6C175.26 393.04 223.93 437.34 272.36 507.2C300.81 548.24 323.62 589.95 340.15 631.17C360.83 682.73 371.7 733.67 372.45 782.57C372.46 783.28 371.89 783.86 371.18 783.87C371.18 783.87 371.17 783.87 371.16 783.87Z" fill="#333333"/>
<path d="M189.48 659.37C175.32 659.37 166.33 657.02 165.76 656.86C165.07 656.68 164.67 655.97 164.85 655.29C165.03 654.61 165.74 654.2 166.42 654.38C166.63 654.44 187.93 659.99 216.64 653.92C243.11 648.33 281.51 631.41 314.06 582.57C314.45 581.98 315.25 581.82 315.84 582.21C316.43 582.6 316.59 583.4 316.2 583.99C283.13 633.6 244.02 650.78 217.04 656.45C206.64 658.64 197.27 659.35 189.47 659.35L189.48 659.37Z" fill="#333333"/>
<path opacity="0.25" d="M619.92 48.7002C504.31 48.7002 365.68 129.06 303.48 279.11C253.57 399.51 425.7 466.2 139.19 657.2C47.1398 718.57 104.65 857.6 181.56 951.71C295.7 1091.39 467.02 1175.88 634.53 1175.88C928.22 1175.88 1048.11 1057.67 1071.42 871.35C1096.1 674.06 1043.9 556.37 962.46 398.75C884.94 248.72 885.85 48.7102 619.92 48.7102V48.7002Z" fill="black"/>
<path d="M848.11 901.13C1138.05 984.45 1276.99 601.03 1060.72 717.49C1116.25 672.18 1180.49 590.01 1173.44 533.23C1168.4 492.66 1141.13 484.48 1112.61 492.9C1100.06 496.61 1089.02 483.8 1094.89 472.1C1156.66 348.93 1091.55 276.36 1025.72 359.25C1017.23 369.94 999.94 364.66 999.2 351.03C992.56 227.61 870.19 303.02 883.29 480.16C879.76 432.42 836.93 380.59 795.34 425.81C757.46 477.62 761.18 544.74 772.05 608.73C760.86 549 681.15 489.07 651.34 569.5C612.19 700.9 703.23 859.49 848.11 901.13Z" fill="#FEC91B"/>
<path d="M1017.77 519.28C1017.77 519.28 943.46 881.53 817.89 1000.72L1017.77 519.28Z" fill="#FEC91B"/>
<path d="M817.9 1001.97C817.57 1001.97 817.24 1001.84 816.99 1001.58C816.51 1001.08 816.54 1000.29 817.04 999.81C845.57 972.73 873.81 930.63 900.97 874.67C922.73 829.85 943.84 776.11 963.73 714.93C997.59 610.74 1016.37 519.92 1016.55 519.02C1016.69 518.34 1017.35 517.91 1018.03 518.05C1018.71 518.19 1019.14 518.85 1019 519.53C1018.81 520.44 1000.02 611.37 966.11 715.69C946.19 776.98 925.03 830.83 903.22 875.76C875.92 931.99 847.5 974.34 818.75 1001.63C818.51 1001.86 818.2 1001.97 817.89 1001.97H817.9Z" fill="#333333"/>
<path d="M805.23 708.729C840.14 823.969 922.95 832.69 922.95 832.69L805.23 708.729Z" fill="#FEC91B"/>
<path d="M922.95 833.94C922.95 833.94 922.86 833.94 922.82 833.94C921.96 833.85 901.53 831.54 876.5 814.98C853.46 799.74 822.19 768.99 804.04 709.1C803.84 708.44 804.21 707.74 804.87 707.54C805.53 707.34 806.23 707.71 806.43 708.37C824.33 767.47 855.1 797.78 877.75 812.8C902.29 829.07 922.88 831.42 923.08 831.44C923.77 831.51 924.26 832.13 924.19 832.81C924.12 833.45 923.58 833.93 922.95 833.93V833.94Z" fill="#333333"/>
<path d="M998.44 604.5C998.44 604.5 1036.69 621.91 1068.41 570.16L998.44 604.5Z" fill="#FEC91B"/>
<path d="M1014.05 608.57C1004.51 608.57 998.25 605.78 997.93 605.64C997.3 605.35 997.03 604.61 997.31 603.99C997.6 603.36 998.34 603.08 998.96 603.37C999.05 603.41 1008.45 607.57 1021.48 605.49C1038.75 602.74 1054.61 590.3 1067.35 569.52C1067.71 568.93 1068.48 568.75 1069.07 569.11C1069.66 569.47 1069.84 570.24 1069.48 570.83C1060.3 585.81 1044.56 604.41 1021.72 607.98C1018.98 608.41 1016.41 608.58 1014.04 608.58L1014.05 608.57Z" fill="#333333"/>
<path d="M941.88 787.15C941.88 787.15 1013.44 787.09 1026.03 684.5L941.88 787.15Z" fill="#FEC91B"/>
<path d="M941.88 788.4C941.19 788.4 940.63 787.84 940.63 787.15C940.63 786.46 941.19 785.9 941.88 785.9C942.06 785.9 959.73 785.71 978.67 773.17C1010.36 752.19 1021.24 713.29 1024.79 684.35C1024.87 683.67 1025.5 683.18 1026.18 683.26C1026.87 683.34 1027.35 683.97 1027.27 684.65C1023.65 714.16 1012.5 753.85 979.93 775.34C960.38 788.24 942.63 788.4 941.89 788.4H941.88Z" fill="#333333"/>
<path opacity="0.25" d="M612.55 875.79C674.83 872.03 737.54 885.53 799.87 895.56C900.4 911.74 890.69 899.11 987.64 874.01C1150.33 831.9 996.88 700.58 1081.29 634.64C1186.49 552.45 1074.21 406.14 976.09 374.92C865.41 339.7 925.17 484.29 811.59 468.41C748.95 459.65 693.12 419.72 637.05 386.09C553.41 335.92 486.52 277.79 392.79 274.17C299.06 270.56 276.66 305.93 219.94 383.11C163.21 460.28 155.28 581.71 213.99 663.6C234.81 692.65 263.95 718.73 268.8 754.4C275.24 801.74 161.72 838.65 122.77 858.82C83.8201 879 38.5701 894.86 17.3501 935.33C-72.2199 1106.14 210.36 1140.44 300.63 1121.67C364.45 1108.4 391.74 1062.31 421.76 1005.03C464.17 924.13 522.98 881.2 612.56 875.8L612.55 875.79Z" fill="black"/>
<path d="M332.04 215.899H898.86C934.57 215.899 963.57 244.899 963.57 280.609V673.649C963.57 695.619 945.73 713.459 923.76 713.459H307.15C285.18 713.459 267.34 695.619 267.34 673.649V280.609C267.34 244.899 296.34 215.899 332.05 215.899H332.04Z" fill="#00C7FD"/>
<path d="M267.33 643.67H964.69V683.54C964.69 700.05 951.28 713.46 934.77 713.46H297.26C280.75 713.46 267.34 700.05 267.34 683.54V643.67H267.33Z" fill="#A0EBFF"/>
<path d="M877.29 239.16H350.34C317.993 239.16 291.77 265.383 291.77 297.73V554.22C291.77 586.567 317.993 612.79 350.34 612.79H877.29C909.637 612.79 935.86 586.567 935.86 554.22V297.73C935.86 265.383 909.637 239.16 877.29 239.16Z" fill="#005B85"/>
<path d="M829.27 286.74L833.95 296.23C834.37 297.07 835.17 297.66 836.1 297.8L846.57 299.32C848.92 299.66 849.85 302.54 848.16 304.2L840.58 311.59C839.91 312.25 839.6 313.19 839.76 314.12L841.55 324.55C841.95 326.89 839.5 328.67 837.4 327.57L828.03 322.65C827.2 322.21 826.2 322.21 825.37 322.65L816 327.57C813.9 328.67 811.45 326.89 811.85 324.55L813.64 314.12C813.8 313.19 813.49 312.24 812.82 311.59L805.24 304.2C803.54 302.54 804.48 299.66 806.83 299.32L817.3 297.8C818.23 297.66 819.04 297.08 819.45 296.23L824.13 286.74C825.18 284.61 828.21 284.61 829.26 286.74H829.27Z" fill="#FFE17A"/>
<path d="M875.53 364.69L877.56 368.81C877.74 369.18 878.09 369.43 878.5 369.49L883.05 370.15C884.07 370.3 884.48 371.55 883.74 372.27L880.45 375.48C880.16 375.77 880.02 376.18 880.09 376.58L880.87 381.11C881.04 382.13 879.98 382.9 879.07 382.42L875 380.28C874.64 380.09 874.21 380.09 873.84 380.28L869.77 382.42C868.86 382.9 867.79 382.13 867.97 381.11L868.75 376.58C868.82 376.18 868.69 375.77 868.39 375.48L865.1 372.27C864.36 371.55 864.77 370.3 865.79 370.15L870.34 369.49C870.74 369.43 871.09 369.18 871.28 368.81L873.31 364.69C873.77 363.77 875.08 363.77 875.54 364.69H875.53Z" fill="#FEC91B"/>
<mask id="mask0_40585_13938" style="mask-type:luminance" maskUnits="userSpaceOnUse" x="291" y="239" width="645" height="374">
<path d="M877.29 239.16H350.34C317.993 239.16 291.77 265.383 291.77 297.73V554.22C291.77 586.567 317.993 612.79 350.34 612.79H877.29C909.637 612.79 935.86 586.567 935.86 554.22V297.73C935.86 265.383 909.637 239.16 877.29 239.16Z" fill="white"/>
</mask>
<g mask="url(#mask0_40585_13938)">
<path d="M978.59 348.271C989.16 408.591 944.12 467.221 889.18 494.251C834.23 521.281 771.15 524.541 710.21 530.461C560.99 544.961 413.62 578.381 272.74 629.681C195.2 657.911 111.41 700.241 86.62 778.951C61.94 857.291 109.23 944.28 177.66 989.72C246.09 1035.16 330.71 1047.75 412.52 1055.09C530.68 1065.69 652.02 1067.41 765.42 1032.57C878.82 997.73 984.27 921.51 1030.43 812.22C1076.58 702.93 1049.96 560.521 952.83 492.401" fill="#0095CA"/>
<path d="M1011.18 739.14C1032.19 781.26 1009.85 915.28 1056.45 921.93C1100.78 928.25 1144.82 896.21 1161.04 854.47C1177.26 812.73 1169.44 764.59 1149.42 724.54C1129.4 684.49 1090.14 662.29 1058.33 630.78C991.34 564.43 935.43 503.76 845.55 475.29C799.9 460.83 711.04 428.55 653.26 463.68C610.59 489.62 659.79 551.67 689.88 565.98C780.24 608.97 940.46 597.33 1011.19 739.14H1011.18Z" fill="#A0EBFF"/>
</g>
<path d="M677.51 534.56C708.88 559 751.19 568.82 790.12 560.7L775.76 546.49C772.42 543.19 775.85 537.64 780.3 539.15L815.98 551.27C804.75 532.4 789.11 516.18 770.71 504.2C768.79 502.95 770.08 499.98 772.3 500.53L781.9 502.92C767.68 473.11 735.05 453.09 702.03 453.93C684.82 454.37 663.86 465.13 656.3 481.66C647.04 501.89 662.3 522.72 677.5 534.56H677.51Z" fill="#FEC91B"/>
<path d="M656.17 489.03C654.67 501.26 662.03 513.37 672.24 520.26C682.46 527.15 695.06 529.57 707.36 530.21C719.66 530.86 732.02 529.89 744.31 530.75C734.61 524.48 731.17 512 729.84 500.52C728.51 489.04 728.38 476.9 722.54 466.93C715.98 455.72 702.24 449.2 689.41 451.19C676.58 453.18 665.46 463.56 662.6 476.23L656.16 489.04L656.17 489.03Z" fill="#FFE17A"/>
<path d="M709.08 343.95C714.62 347.12 713.97 355.39 707.97 357.55C705.09 358.59 701.93 358.94 698.77 358.48C669.46 354.18 639.84 367.65 624.03 393.54L561.56 357.81L570.81 341.63C589.08 309.68 629.8 298.6 661.75 316.87L709.09 343.95H709.08Z" fill="#00C7FD"/>
<path d="M577.47 474.99L515 439.26L505.75 455.44C487.48 487.39 498.56 528.1 530.51 546.38L579.93 574.65C583.74 576.83 588.59 575.51 590.77 571.7C592.5 568.68 592.11 564.84 589.68 562.34C567.21 539.12 562.08 503.81 577.48 475L577.47 474.99Z" fill="#00C7FD"/>
<path d="M701.32 431.87L685.23 428.93L636.91 513.41L647.67 525.86C650.69 529.36 654.29 532.33 658.29 534.64C660.88 536.13 664.2 535.24 665.69 532.65L716.62 444.24C718.13 441.63 717.22 438.29 714.61 436.79L714.43 436.69C710.37 434.36 705.93 432.74 701.32 431.89V431.87Z" fill="#0095CA"/>
<mask id="mask1_40585_13938" style="mask-type:luminance" maskUnits="userSpaceOnUse" x="636" y="428" width="82" height="108">
<path d="M701.32 431.87L685.23 428.93L636.91 513.41L647.67 525.86C650.69 529.36 654.29 532.33 658.29 534.64C660.88 536.13 664.2 535.24 665.69 532.65L716.63 444.21C718.13 441.61 717.23 438.29 714.63 436.8L714.42 436.68C710.36 434.35 705.92 432.73 701.31 431.88L701.32 431.87Z" fill="white"/>
</mask>
<g mask="url(#mask1_40585_13938)">
<path d="M723.19 439.72L662.9 545.12L651.77 538.75C651.77 538.75 666.91 504.32 678.99 483.35C690.58 463.23 712.06 433.35 712.06 433.35L723.19 439.72Z" fill="#005B85"/>
</g>
<path d="M685.35 430.54C689.29 423.66 688.39 415.02 683.1 409.13C662.42 386.1 633.77 363.1 599.69 343.6C534.94 306.56 456.55 315.03 422.82 321.17C413.66 322.84 408.22 332.34 411.43 341.08C423.23 373.27 455.67 445.13 520.42 482.17C554.51 501.67 588.85 514.7 619.19 520.85C626.96 522.43 634.85 518.82 638.79 511.94L685.35 430.54Z" fill="#D2F9FF"/>
<mask id="mask2_40585_13938" style="mask-type:luminance" maskUnits="userSpaceOnUse" x="410" y="315" width="278" height="207">
<path d="M685.35 430.54C689.29 423.66 688.39 415.02 683.1 409.13C662.42 386.1 633.77 363.1 599.69 343.6C534.94 306.56 456.55 315.03 422.82 321.17C413.66 322.84 408.22 332.34 411.43 341.08C423.23 373.27 455.67 445.13 520.42 482.17C554.51 501.67 588.85 514.7 619.19 520.85C626.96 522.43 634.85 518.82 638.79 511.94L685.35 430.54Z" fill="white"/>
</mask>
<g mask="url(#mask2_40585_13938)">
<path d="M495.27 264.49C499.19 266.73 501.24 271.23 500.32 275.65C497.52 289.18 489.17 320.03 465.96 360.61C447.29 393.24 427.73 411.79 418.25 419.61C414.9 422.38 410.19 422.78 406.41 420.62L370.6 400.49C365.59 397.62 363.85 391.24 366.72 386.23L445.53 248.44C448.4 243.43 454.78 241.69 459.79 244.56L495.26 264.49H495.27Z" fill="#00C7FD"/>
<path d="M669.211 508.54L720.461 419.56L718.981 410.56L629.671 353.06L529.061 315.5C580.361 328 650.021 368.15 612.701 496.31C601.051 536.32 633.271 527.73 669.211 508.53V508.54Z" fill="#A0EBFF"/>
</g>
<path d="M506.12 421.639C527.427 421.639 544.7 404.367 544.7 383.059C544.7 361.752 527.427 344.479 506.12 344.479C484.813 344.479 467.54 361.752 467.54 383.059C467.54 404.367 484.813 421.639 506.12 421.639Z" fill="#A0EBFF"/>
<path d="M506.49 411.06C522.302 411.06 535.12 398.242 535.12 382.43C535.12 366.618 522.302 353.8 506.49 353.8C490.678 353.8 477.86 366.618 477.86 382.43C477.86 398.242 490.678 411.06 506.49 411.06Z" fill="#005B85"/>
<path d="M506.12 400.179C515.575 400.179 523.24 392.515 523.24 383.059C523.24 373.604 515.575 365.939 506.12 365.939C496.665 365.939 489 373.604 489 383.059C489 392.515 496.665 400.179 506.12 400.179Z" fill="white"/>
<path d="M602.72 464.739C569.59 445.789 547.99 421.249 554.47 409.919C560.95 398.589 593.06 404.769 626.18 423.719C649.25 436.919 663.59 458.319 670.17 470.099C672.41 474.109 669.59 479.04 665 479.14C651.51 479.44 625.79 477.929 602.72 464.739Z" fill="#00C7FD"/>
<path d="M439.49 460.28H333.86C329.994 460.28 326.86 463.414 326.86 467.28V467.29C326.86 471.156 329.994 474.29 333.86 474.29H439.49C443.356 474.29 446.49 471.156 446.49 467.29V467.28C446.49 463.414 443.356 460.28 439.49 460.28Z" fill="#0095CA"/>
<path d="M439.49 487.35H333.86C329.994 487.35 326.86 490.484 326.86 494.35V494.36C326.86 498.226 329.994 501.36 333.86 501.36H439.49C443.356 501.36 446.49 498.226 446.49 494.36V494.35C446.49 490.484 443.356 487.35 439.49 487.35Z" fill="#0095CA"/>
<path d="M382.79 530.05H332.78C329.51 530.05 326.86 532.7 326.86 535.97V548.61C326.86 551.879 329.51 554.53 332.78 554.53H382.79C386.059 554.53 388.71 551.879 388.71 548.61V535.97C388.71 532.7 386.059 530.05 382.79 530.05Z" fill="#FF5662"/>
<path d="M1027.77 1042.31H194.94C158.31 1042.31 128.62 1013.5 128.62 977.96L147.58 853.8C147.58 818.26 177.27 789.45 213.9 789.45H999.32C1035.95 789.45 1065.64 818.26 1065.64 853.8L1094.08 977.96C1094.08 1013.5 1064.39 1042.31 1027.76 1042.31H1027.77Z" fill="#A0EBFF"/>
<path d="M1019.4 1013.69H806.08C784.24 1013.69 767.83 989.31 772.05 963.12L789.55 854.56C792.75 834.7 807.01 820.38 823.58 820.38H1001.19C1017.66 820.38 1031.86 834.53 1035.16 854.25L1053.37 962.81C1057.78 989.09 1041.35 1013.69 1019.4 1013.69Z" fill="#00C7FD"/>
<path d="M992.85 909.46H832.64C827.024 909.46 822.47 914.013 822.47 919.63V921.01C822.47 926.627 827.024 931.18 832.64 931.18H992.85C998.467 931.18 1003.02 926.627 1003.02 921.01V919.63C1003.02 914.013 998.467 909.46 992.85 909.46Z" fill="#6DDCFF"/>
<path d="M1002.83 949.689H822.64C816.04 949.689 810.69 955.04 810.69 961.64C810.69 968.239 816.04 973.589 822.64 973.589H1002.83C1009.43 973.589 1014.78 968.239 1014.78 961.64C1014.78 955.04 1009.43 949.689 1002.83 949.689Z" fill="#6DDCFF"/>
<path d="M411.73 1013.69H198.41C176.57 1013.69 160.16 989.31 164.38 963.12L181.88 854.56C185.08 834.7 199.34 820.38 215.91 820.38H393.52C409.99 820.38 424.19 834.53 427.49 854.25L445.7 962.81C450.11 989.09 433.68 1013.69 411.73 1013.69Z" fill="#005B85"/>
<path d="M385.18 852.6H224.97C219.353 852.6 214.8 857.153 214.8 862.77V864.15C214.8 869.766 219.353 874.32 224.97 874.32H385.18C390.797 874.32 395.35 869.766 395.35 864.15V862.77C395.35 857.153 390.797 852.6 385.18 852.6Z" fill="#0095CA"/>
<path d="M395.17 892.84H214.98C208.38 892.84 203.03 898.19 203.03 904.79C203.03 911.39 208.38 916.74 214.98 916.74H395.17C401.77 916.74 407.12 911.39 407.12 904.79C407.12 898.19 401.77 892.84 395.17 892.84Z" fill="#0095CA"/>
<path d="M264.49 962.33H312.83C320.85 962.33 327.35 968.84 327.35 976.85V984.44H249.97V976.85C249.97 968.83 256.48 962.33 264.49 962.33Z" fill="#FF5662"/>
<path d="M217.85 962.85H207.32C200.925 962.85 195.74 968.034 195.74 974.43C195.74 980.825 200.925 986.01 207.32 986.01H217.85C224.246 986.01 229.43 980.825 229.43 974.43C229.43 968.034 224.246 962.85 217.85 962.85Z" fill="#00C7FD"/>
<path d="M413.95 961.27H352.88V984.43H413.95V961.27Z" fill="#0095CA"/>
<path d="M466.23 974.83C449.42 978.62 412.06 978.87 388.01 975.13C385.31 974.71 355.15 971.83 341.78 970.59C328.42 969.35 322.29 975.75 308.38 964.98C300.1 958.57 281.68 974.82 278.99 972.46C275.76 969.63 283.53 959.63 287.54 953.76C291.78 947.54 317.79 937.58 333.23 944.94C357.05 956.29 392.7 952.05 406.71 948.95C426.32 944.61 459.36 940.94 460.42 920.88C461.99 891.24 464.85 835.47 468.44 815.08C485.01 720.77 517.54 753.86 514.78 830.34C511.59 918.62 514.91 963.86 466.24 974.84L466.23 974.83Z" fill="#FFBB8D"/>
<path d="M738.47 967.71C723.4 976.08 679.91 989.64 662.44 990.62C644.96 991.6 628.45 1005 627.38 987.52C626.15 967.47 649.11 956.4 668.05 949.74C687 943.07 722.18 937.26 717.11 917.82C670.45 738.91 727.37 717.27 745.81 810.26C762.99 896.91 786.69 940.92 738.48 967.71H738.47Z" fill="#FFBB8D"/>
<path d="M495.91 1030.93C494.53 1075.15 536.84 1068.7 556.01 1068.82C635.02 1069.33 630.84 1087.12 684.73 1070.4C727.67 1053.42 701.44 980.38 690.39 952.81C667.98 896.89 663.3 883.35 690.06 822.16C700.86 797.469 725.81 762.1 712.59 732.81C695.16 694.2 602.37 688.96 572.04 696.47C536.27 705.32 509.26 708.15 514.63 785.19C517.11 820.83 532.93 817.07 539.45 890.96C543.16 933.06 497.28 987.47 495.93 1030.93H495.91Z" fill="#FF8F51"/>
<path d="M488.59 717.73C469.76 724.48 457.68 743.74 453.9 763.38C451.33 776.74 446.11 788.72 444.01 801.23C442.49 810.26 449.52 818.47 458.68 818.29C460.54 818.25 462.45 818.23 464.34 818.2C473.77 818.06 482.61 822.14 489.18 828.89C494.04 833.89 500.66 837.22 507.63 837.72C519.25 838.56 529.22 835.35 529.61 823.71C530.17 806.95 527.08 795.23 523.53 781.37C514.93 747.73 539.58 744.52 532.11 731.09C524.37 717.17 502.41 712.78 488.58 717.73H488.59Z" fill="#E96115"/>
<path d="M733.35 718.56C751.73 726.45 762.61 746.41 765.18 766.25C766.93 779.74 771.4 792.02 772.73 804.63C773.69 813.74 766.17 821.5 757.04 820.76C755.18 820.61 753.28 820.47 751.4 820.32C742 819.6 732.93 823.13 725.95 829.47C720.79 834.16 713.98 837.08 706.99 837.16C695.34 837.29 685.58 833.47 685.91 821.83C686.37 805.07 689.97 793.49 694.57 779.94C707.33 742.38 679.81 725.4 688.09 712.45C696.67 699.03 719.85 712.76 733.35 718.55V718.56Z" fill="#E96115"/>
<path d="M600.78 486.74C556.75 486.52 515.92 524.41 512.85 568.33C511.59 586.42 515.85 605.3 509.66 622.34C504.7 635.98 493.76 646.38 484.38 657.44C474.99 668.5 466.52 682.09 468.2 696.5C469.88 710.91 486.75 723.49 499.2 716.02C487.1 725.07 486.04 745.45 497.13 755.71C508.22 765.97 528.45 763.34 536.54 750.58C531.11 765.19 537.2 783.21 550.38 791.53C563.56 799.85 582.44 797.6 593.3 786.42C604.16 775.24 605.84 756.29 597.13 743.37C603.17 753.53 609.47 763.99 619.06 770.91C628.65 777.83 642.49 780.3 652.21 773.58C661.94 766.86 663.1 749.56 652.65 744.02C665.98 752.27 685.59 747.76 693.96 734.5C702.33 721.25 697.98 701.6 684.8 693.11C691.36 708.26 710.2 716.83 725.93 711.82C741.66 706.8 752.06 688.9 748.63 672.75C745.8 659.41 733.85 648.81 720.53 646.55C716.72 645.9 714.45 642.16 715.64 638.48C718.5 629.62 717.93 619.62 713.78 611.27C708.02 599.65 694.72 595.29 682.71 590.7C680.32 589.79 678.53 586.96 678.77 584.41C681.93 550.54 678.96 542.01 666.46 520.29C658.27 506.07 639.34 490.46 600.78 486.75" fill="#FFE17A"/>
<path d="M535.2 282.729H692.42C723.094 282.729 747.96 257.863 747.96 227.189V55.6695C747.96 24.9956 723.094 0.129486 692.42 0.129486H535.2C504.526 0.129486 479.66 24.9956 479.66 55.6695V227.189C479.66 257.863 504.526 282.729 535.2 282.729Z" fill="#FF5662"/>
<path d="M523.83 151.669L604.93 232.769C609.4 237.239 616.64 237.239 621.11 232.769L702.21 151.669C709.42 144.459 704.31 132.139 694.12 132.139H656.92V73.4795C656.92 64.3695 649.53 56.9795 640.42 56.9795H585.62C576.51 56.9795 569.12 64.3695 569.12 73.4795V132.139H531.92C521.73 132.139 516.63 144.459 523.83 151.669Z" fill="white"/>
</svg>
