<svg xmlns="http://www.w3.org/2000/svg" xmlns:xlink="http://www.w3.org/1999/xlink" contentStyleType="text/css" data-diagram-type="CLASS" height="1453px" preserveAspectRatio="none" style="width:1450px;height:1453px;background:#FFFFFF;" version="1.1" viewBox="0 0 1450 1453" width="1450px" zoomAndPan="magnify"><title>&lt;size:16&gt;&lt;b&gt;Geti Tune - Complete Entity-Relationship Diagram&lt;/b&gt;&lt;/size&gt;</title><defs/><g><g class="title" data-source-line="4"><text fill="#000000" font-family="sans-serif" font-size="16" font-weight="bold" lengthAdjust="spacing" textLength="379.5938" x="528.5967" y="27.2656">Geti Tune - Complete Entity-Relationship Diagram</text><text fill="#000000" font-family="sans-serif" font-size="12" font-weight="bold" lengthAdjust="spacing" textLength="196.0488" x="620.3691" y="44.2305">System Entities and Relationships</text></g><!--class Project--><g class="entity" data-entity="Project" data-source-line="10" data-uid="ent0002" id="entity_Project"><rect fill="#F1F1F1" height="85.2422" rx="2.5" ry="2.5" style="stroke:#181818;stroke-width:0.5;" width="152.8066" x="714.5" y="65.2422"/><ellipse cx="764.8672" cy="81.2422" fill="#FFAAAA" rx="11" ry="11" style="stroke:#181818;stroke-width:1;"/><path d="M763.7266,82.0391 L763.7266,84.5391 L768.0547,84.5391 L768.0547,83.6172 Q768.0547,83.0078 768.2891,82.7422 Q768.5391,82.4766 768.9141,82.4766 Q769.2891,82.4766 769.5234,82.7422 Q769.7578,83.0078 769.7578,83.6172 L769.7578,86.2422 L761.7578,86.2422 Q761.1328,86.2422 760.8672,86.0078 Q760.6172,85.7734 760.6172,85.3828 Q760.6172,85.0078 760.8828,84.7734 Q761.1484,84.5391 761.7578,84.5391 L762.0234,84.5391 L762.0234,77.8828 L761.7578,77.8828 Q761.1328,77.8828 760.8672,77.6484 Q760.6172,77.4141 760.6172,77.0234 Q760.6172,76.6484 760.8672,76.4141 Q761.1328,76.1797 761.7578,76.1797 L769.3828,76.1797 L769.3828,78.7734 Q769.3828,79.3828 769.1484,79.6484 Q768.9297,79.8984 768.5391,79.8984 Q768.1641,79.8984 767.9297,79.6484 Q767.6953,79.3828 767.6953,78.7734 L767.6953,77.8828 L763.7266,77.8828 L763.7266,80.3359 L765.2109,80.3359 Q765.2109,79.6797 765.3359,79.4922 Q765.6016,79.0859 766.0703,79.0859 Q766.4453,79.0859 766.6797,79.3516 Q766.9141,79.6016 766.9141,80.2109 L766.9141,82.1797 Q766.9141,82.7266 766.7891,82.9141 Q766.5234,83.3047 766.0703,83.3047 Q765.6016,83.3047 765.3359,82.8984 Q765.2109,82.7109 765.2109,82.0391 L763.7266,82.0391 Z " fill="#000000"/><text fill="#000000" font-family="sans-serif" font-size="14" lengthAdjust="spacing" textLength="43.5723" x="785.3672" y="87.0391">Project</text><line style="stroke:#181818;stroke-width:0.5;" x1="715.5" x2="866.3066" y1="97.2422" y2="97.2422"/><text fill="#000000" font-family="sans-serif" font-size="14" lengthAdjust="spacing" text-decoration="underline" textLength="10.8965" x="720.5" y="116.3496">id</text><text fill="#000000" font-family="sans-serif" font-size="14" lengthAdjust="spacing" textLength="42" x="735.2861" y="116.3496">: UUID</text><text fill="#000000" font-family="sans-serif" font-size="14" lengthAdjust="spacing" textLength="140.8066" x="720.5" y="134.9707">name : TEXT UNIQUE</text><line style="stroke:#181818;stroke-width:0.5;" x1="715.5" x2="866.3066" y1="142.4844" y2="142.4844"/></g><!--class LabelSchema--><g class="entity" data-entity="LabelSchema" data-source-line="16" data-uid="ent0003" id="entity_LabelSchema"><rect fill="#F1F1F1" height="85.2422" rx="2.5" ry="2.5" style="stroke:#181818;stroke-width:0.5;" width="193.3027" x="949.5" y="263.2422"/><ellipse cx="999.0947" cy="279.2422" fill="#FFAAAA" rx="11" ry="11" style="stroke:#181818;stroke-width:1;"/><path d="M997.9541,280.0391 L997.9541,282.5391 L1002.2822,282.5391 L1002.2822,281.6172 Q1002.2822,281.0078 1002.5166,280.7422 Q1002.7666,280.4766 1003.1416,280.4766 Q1003.5166,280.4766 1003.751,280.7422 Q1003.9854,281.0078 1003.9854,281.6172 L1003.9854,284.2422 L995.9854,284.2422 Q995.3604,284.2422 995.0947,284.0078 Q994.8447,283.7734 994.8447,283.3828 Q994.8447,283.0078 995.1104,282.7734 Q995.376,282.5391 995.9854,282.5391 L996.251,282.5391 L996.251,275.8828 L995.9854,275.8828 Q995.3604,275.8828 995.0947,275.6484 Q994.8447,275.4141 994.8447,275.0234 Q994.8447,274.6484 995.0947,274.4141 Q995.3604,274.1797 995.9854,274.1797 L1003.6104,274.1797 L1003.6104,276.7734 Q1003.6104,277.3828 1003.376,277.6484 Q1003.1572,277.8984 1002.7666,277.8984 Q1002.3916,277.8984 1002.1572,277.6484 Q1001.9229,277.3828 1001.9229,276.7734 L1001.9229,275.8828 L997.9541,275.8828 L997.9541,278.3359 L999.4385,278.3359 Q999.4385,277.6797 999.5635,277.4922 Q999.8291,277.0859 1000.2979,277.0859 Q1000.6729,277.0859 1000.9072,277.3516 Q1001.1416,277.6016 1001.1416,278.2109 L1001.1416,280.1797 Q1001.1416,280.7266 1001.0166,280.9141 Q1000.751,281.3047 1000.2979,281.3047 Q999.8291,281.3047 999.5635,280.8984 Q999.4385,280.7109 999.4385,280.0391 L997.9541,280.0391 Z " fill="#000000"/><text fill="#000000" font-family="sans-serif" font-size="14" lengthAdjust="spacing" textLength="85.6133" x="1019.5947" y="285.0391">LabelSchema</text><line style="stroke:#181818;stroke-width:0.5;" x1="950.5" x2="1141.8027" y1="295.2422" y2="295.2422"/><text fill="#000000" font-family="sans-serif" font-size="14" lengthAdjust="spacing" textLength="107.3721" x="955.5" y="314.3496">task_type : TEXT</text><text fill="#000000" font-family="sans-serif" font-size="14" lengthAdjust="spacing" textLength="181.3027" x="955.5" y="332.9707">exclusive_labels : BOOLEAN</text><line style="stroke:#181818;stroke-width:0.5;" x1="950.5" x2="1141.8027" y1="340.4844" y2="340.4844"/></g><!--class LabelSchemaRevision--><g class="entity" data-entity="LabelSchemaRevision" data-source-line="21" data-uid="ent0004" id="entity_LabelSchemaRevision"><rect fill="#F1F1F1" height="66.6211" rx="2.5" ry="2.5" style="stroke:#181818;stroke-width:0.5;" width="171.3027" x="677.5" y="1251.7422"/><ellipse cx="692.5" cy="1267.7422" fill="#FFAAAA" rx="11" ry="11" style="stroke:#181818;stroke-width:1;"/><path d="M691.3594,1268.5391 L691.3594,1271.0391 L695.6875,1271.0391 L695.6875,1270.1172 Q695.6875,1269.5078 695.9219,1269.2422 Q696.1719,1268.9766 696.5469,1268.9766 Q696.9219,1268.9766 697.1563,1269.2422 Q697.3906,1269.5078 697.3906,1270.1172 L697.3906,1272.7422 L689.3906,1272.7422 Q688.7656,1272.7422 688.5,1272.5078 Q688.25,1272.2734 688.25,1271.8828 Q688.25,1271.5078 688.5156,1271.2734 Q688.7813,1271.0391 689.3906,1271.0391 L689.6563,1271.0391 L689.6563,1264.3828 L689.3906,1264.3828 Q688.7656,1264.3828 688.5,1264.1484 Q688.25,1263.9141 688.25,1263.5234 Q688.25,1263.1484 688.5,1262.9141 Q688.7656,1262.6797 689.3906,1262.6797 L697.0156,1262.6797 L697.0156,1265.2734 Q697.0156,1265.8828 696.7813,1266.1484 Q696.5625,1266.3984 696.1719,1266.3984 Q695.7969,1266.3984 695.5625,1266.1484 Q695.3281,1265.8828 695.3281,1265.2734 L695.3281,1264.3828 L691.3594,1264.3828 L691.3594,1266.8359 L692.8438,1266.8359 Q692.8438,1266.1797 692.9688,1265.9922 Q693.2344,1265.5859 693.7031,1265.5859 Q694.0781,1265.5859 694.3125,1265.8516 Q694.5469,1266.1016 694.5469,1266.7109 L694.5469,1268.6797 Q694.5469,1269.2266 694.4219,1269.4141 Q694.1563,1269.8047 693.7031,1269.8047 Q693.2344,1269.8047 692.9688,1269.3984 Q692.8438,1269.2109 692.8438,1268.5391 L691.3594,1268.5391 Z " fill="#000000"/><text fill="#000000" font-family="sans-serif" font-size="14" lengthAdjust="spacing" textLength="139.3027" x="706.5" y="1273.5391">LabelSchemaRevision</text><line style="stroke:#181818;stroke-width:0.5;" x1="678.5" x2="847.8027" y1="1283.7422" y2="1283.7422"/><text fill="#000000" font-family="sans-serif" font-size="14" lengthAdjust="spacing" textLength="11.6689" x="683.5" y="1302.8496">...</text><line style="stroke:#181818;stroke-width:0.5;" x1="678.5" x2="847.8027" y1="1310.3633" y2="1310.3633"/></g><!--class Label--><g class="entity" data-entity="Label" data-source-line="25" data-uid="ent0005" id="entity_Label"><rect fill="#F1F1F1" height="122.4844" rx="2.5" ry="2.5" style="stroke:#181818;stroke-width:0.5;" width="100.6963" x="1004.5" y="470.7422"/><ellipse cx="1034.9986" cy="486.7422" fill="#FFAAAA" rx="11" ry="11" style="stroke:#181818;stroke-width:1;"/><path d="M1033.858,487.5391 L1033.858,490.0391 L1038.1861,490.0391 L1038.1861,489.1172 Q1038.1861,488.5078 1038.4205,488.2422 Q1038.6705,487.9766 1039.0455,487.9766 Q1039.4205,487.9766 1039.6549,488.2422 Q1039.8893,488.5078 1039.8893,489.1172 L1039.8893,491.7422 L1031.8893,491.7422 Q1031.2643,491.7422 1030.9986,491.5078 Q1030.7486,491.2734 1030.7486,490.8828 Q1030.7486,490.5078 1031.0143,490.2734 Q1031.2799,490.0391 1031.8893,490.0391 L1032.1549,490.0391 L1032.1549,483.3828 L1031.8893,483.3828 Q1031.2643,483.3828 1030.9986,483.1484 Q1030.7486,482.9141 1030.7486,482.5234 Q1030.7486,482.1484 1030.9986,481.9141 Q1031.2643,481.6797 1031.8893,481.6797 L1039.5143,481.6797 L1039.5143,484.2734 Q1039.5143,484.8828 1039.2799,485.1484 Q1039.0611,485.3984 1038.6705,485.3984 Q1038.2955,485.3984 1038.0611,485.1484 Q1037.8268,484.8828 1037.8268,484.2734 L1037.8268,483.3828 L1033.858,483.3828 L1033.858,485.8359 L1035.3424,485.8359 Q1035.3424,485.1797 1035.4674,484.9922 Q1035.733,484.5859 1036.2018,484.5859 Q1036.5768,484.5859 1036.8111,484.8516 Q1037.0455,485.1016 1037.0455,485.7109 L1037.0455,487.6797 Q1037.0455,488.2266 1036.9205,488.4141 Q1036.6549,488.8047 1036.2018,488.8047 Q1035.733,488.8047 1035.4674,488.3984 Q1035.3424,488.2109 1035.3424,487.5391 L1033.858,487.5391 Z " fill="#000000"/><text fill="#000000" font-family="sans-serif" font-size="14" lengthAdjust="spacing" textLength="34.2549" x="1052.4428" y="492.5391">Label</text><line style="stroke:#181818;stroke-width:0.5;" x1="1005.5" x2="1104.1963" y1="502.7422" y2="502.7422"/><text fill="#000000" font-family="sans-serif" font-size="14" lengthAdjust="spacing" text-decoration="underline" textLength="10.8965" x="1010.5" y="521.8496">id</text><text fill="#000000" font-family="sans-serif" font-size="14" lengthAdjust="spacing" textLength="42" x="1025.2861" y="521.8496">: UUID</text><text fill="#000000" font-family="sans-serif" font-size="14" lengthAdjust="spacing" textLength="82.4688" x="1010.5" y="540.4707">name : TEXT</text><text fill="#000000" font-family="sans-serif" font-size="14" lengthAdjust="spacing" textLength="77.793" x="1010.5" y="559.0918">color : TEXT</text><text fill="#000000" font-family="sans-serif" font-size="14" lengthAdjust="spacing" textLength="88.6963" x="1010.5" y="577.7129">hotkey : TEXT</text><line style="stroke:#181818;stroke-width:0.5;" x1="1005.5" x2="1104.1963" y1="585.2266" y2="585.2266"/></g><!--class InferencePipeline--><g class="entity" data-entity="InferencePipeline" data-source-line="33" data-uid="ent0006" id="entity_InferencePipeline"><rect fill="#F1F1F1" height="66.6211" rx="2.5" ry="2.5" style="stroke:#181818;stroke-width:0.5;" width="155.958" x="396" y="272.2422"/><ellipse cx="418.0976" cy="288.2422" fill="#FFAAAA" rx="11" ry="11" style="stroke:#181818;stroke-width:1;"/><path d="M416.957,289.0391 L416.957,291.5391 L421.2851,291.5391 L421.2851,290.6172 Q421.2851,290.0078 421.5195,289.7422 Q421.7695,289.4766 422.1445,289.4766 Q422.5195,289.4766 422.7539,289.7422 Q422.9882,290.0078 422.9882,290.6172 L422.9882,293.2422 L414.9882,293.2422 Q414.3632,293.2422 414.0976,293.0078 Q413.8476,292.7734 413.8476,292.3828 Q413.8476,292.0078 414.1132,291.7734 Q414.3789,291.5391 414.9882,291.5391 L415.2539,291.5391 L415.2539,284.8828 L414.9882,284.8828 Q414.3632,284.8828 414.0976,284.6484 Q413.8476,284.4141 413.8476,284.0234 Q413.8476,283.6484 414.0976,283.4141 Q414.3632,283.1797 414.9882,283.1797 L422.6132,283.1797 L422.6132,285.7734 Q422.6132,286.3828 422.3789,286.6484 Q422.1601,286.8984 421.7695,286.8984 Q421.3945,286.8984 421.1601,286.6484 Q420.9257,286.3828 420.9257,285.7734 L420.9257,284.8828 L416.957,284.8828 L416.957,287.3359 L418.4414,287.3359 Q418.4414,286.6797 418.5664,286.4922 Q418.832,286.0859 419.3007,286.0859 Q419.6757,286.0859 419.9101,286.3516 Q420.1445,286.6016 420.1445,287.2109 L420.1445,289.1797 Q420.1445,289.7266 420.0195,289.9141 Q419.7539,290.3047 419.3007,290.3047 Q418.832,290.3047 418.5664,289.8984 Q418.4414,289.7109 418.4414,289.0391 L416.957,289.0391 Z " fill="#000000"/><text fill="#000000" font-family="sans-serif" font-size="14" lengthAdjust="spacing" textLength="108.1855" x="433.6749" y="294.0391">InferencePipeline</text><line style="stroke:#181818;stroke-width:0.5;" x1="397" x2="550.958" y1="304.2422" y2="304.2422"/><text fill="#000000" font-family="sans-serif" font-size="14" lengthAdjust="spacing" textLength="143.958" x="402" y="323.3496">is_running : BOOLEAN</text><line style="stroke:#181818;stroke-width:0.5;" x1="397" x2="550.958" y1="330.8633" y2="330.8633"/></g><!--class Source--><g class="entity" data-entity="Source" data-source-line="37" data-uid="ent0007" id="entity_Source"><rect fill="#F1F1F1" height="122.4844" rx="2.5" ry="2.5" style="stroke:#181818;stroke-width:0.5;" width="152.8066" x="206.5" y="470.7422"/><ellipse cx="256.4741" cy="486.7422" fill="#FFAAAA" rx="11" ry="11" style="stroke:#181818;stroke-width:1;"/><path d="M255.3335,487.5391 L255.3335,490.0391 L259.6616,490.0391 L259.6616,489.1172 Q259.6616,488.5078 259.896,488.2422 Q260.146,487.9766 260.521,487.9766 Q260.896,487.9766 261.1304,488.2422 Q261.3647,488.5078 261.3647,489.1172 L261.3647,491.7422 L253.3647,491.7422 Q252.7397,491.7422 252.4741,491.5078 Q252.2241,491.2734 252.2241,490.8828 Q252.2241,490.5078 252.4897,490.2734 Q252.7554,490.0391 253.3647,490.0391 L253.6304,490.0391 L253.6304,483.3828 L253.3647,483.3828 Q252.7397,483.3828 252.4741,483.1484 Q252.2241,482.9141 252.2241,482.5234 Q252.2241,482.1484 252.4741,481.9141 Q252.7397,481.6797 253.3647,481.6797 L260.9897,481.6797 L260.9897,484.2734 Q260.9897,484.8828 260.7554,485.1484 Q260.5366,485.3984 260.146,485.3984 Q259.771,485.3984 259.5366,485.1484 Q259.3022,484.8828 259.3022,484.2734 L259.3022,483.3828 L255.3335,483.3828 L255.3335,485.8359 L256.8179,485.8359 Q256.8179,485.1797 256.9429,484.9922 Q257.2085,484.5859 257.6772,484.5859 Q258.0522,484.5859 258.2866,484.8516 Q258.521,485.1016 258.521,485.7109 L258.521,487.6797 Q258.521,488.2266 258.396,488.4141 Q258.1304,488.8047 257.6772,488.8047 Q257.2085,488.8047 256.9429,488.3984 Q256.8179,488.2109 256.8179,487.5391 L255.3335,487.5391 Z " fill="#000000"/><text fill="#000000" font-family="sans-serif" font-size="14" lengthAdjust="spacing" textLength="44.3584" x="276.9741" y="492.5391">Source</text><line style="stroke:#181818;stroke-width:0.5;" x1="207.5" x2="358.3066" y1="502.7422" y2="502.7422"/><text fill="#000000" font-family="sans-serif" font-size="14" lengthAdjust="spacing" text-decoration="underline" textLength="10.8965" x="212.5" y="521.8496">id</text><text fill="#000000" font-family="sans-serif" font-size="14" lengthAdjust="spacing" textLength="42" x="227.2861" y="521.8496">: UUID</text><text fill="#000000" font-family="sans-serif" font-size="14" lengthAdjust="spacing" textLength="140.8066" x="212.5" y="540.4707">name : TEXT UNIQUE</text><text fill="#000000" font-family="sans-serif" font-size="14" lengthAdjust="spacing" textLength="123.7168" x="212.5" y="559.0918">source_type : TEXT</text><text fill="#000000" font-family="sans-serif" font-size="14" lengthAdjust="spacing" textLength="121.3994" x="212.5" y="577.7129">config_data : JSON</text><line style="stroke:#181818;stroke-width:0.5;" x1="207.5" x2="358.3066" y1="585.2266" y2="585.2266"/></g><!--class Sink--><g class="entity" data-entity="Sink" data-source-line="44" data-uid="ent0008" id="entity_Sink"><rect fill="#F1F1F1" height="122.4844" rx="2.5" ry="2.5" style="stroke:#181818;stroke-width:0.5;" width="152.8066" x="397.5" y="470.7422"/><ellipse cx="456.0361" cy="486.7422" fill="#FFAAAA" rx="11" ry="11" style="stroke:#181818;stroke-width:1;"/><path d="M454.8955,487.5391 L454.8955,490.0391 L459.2236,490.0391 L459.2236,489.1172 Q459.2236,488.5078 459.458,488.2422 Q459.708,487.9766 460.083,487.9766 Q460.458,487.9766 460.6924,488.2422 Q460.9268,488.5078 460.9268,489.1172 L460.9268,491.7422 L452.9268,491.7422 Q452.3018,491.7422 452.0361,491.5078 Q451.7861,491.2734 451.7861,490.8828 Q451.7861,490.5078 452.0518,490.2734 Q452.3174,490.0391 452.9268,490.0391 L453.1924,490.0391 L453.1924,483.3828 L452.9268,483.3828 Q452.3018,483.3828 452.0361,483.1484 Q451.7861,482.9141 451.7861,482.5234 Q451.7861,482.1484 452.0361,481.9141 Q452.3018,481.6797 452.9268,481.6797 L460.5518,481.6797 L460.5518,484.2734 Q460.5518,484.8828 460.3174,485.1484 Q460.0986,485.3984 459.708,485.3984 Q459.333,485.3984 459.0986,485.1484 Q458.8643,484.8828 458.8643,484.2734 L458.8643,483.3828 L454.8955,483.3828 L454.8955,485.8359 L456.3799,485.8359 Q456.3799,485.1797 456.5049,484.9922 Q456.7705,484.5859 457.2393,484.5859 Q457.6143,484.5859 457.8486,484.8516 Q458.083,485.1016 458.083,485.7109 L458.083,487.6797 Q458.083,488.2266 457.958,488.4141 Q457.6924,488.8047 457.2393,488.8047 Q456.7705,488.8047 456.5049,488.3984 Q456.3799,488.2109 456.3799,487.5391 L454.8955,487.5391 Z " fill="#000000"/><text fill="#000000" font-family="sans-serif" font-size="14" lengthAdjust="spacing" textLength="27.2344" x="476.5361" y="492.5391">Sink</text><line style="stroke:#181818;stroke-width:0.5;" x1="398.5" x2="549.3066" y1="502.7422" y2="502.7422"/><text fill="#000000" font-family="sans-serif" font-size="14" lengthAdjust="spacing" text-decoration="underline" textLength="10.8965" x="403.5" y="521.8496">id</text><text fill="#000000" font-family="sans-serif" font-size="14" lengthAdjust="spacing" textLength="42" x="418.2861" y="521.8496">: UUID</text><text fill="#000000" font-family="sans-serif" font-size="14" lengthAdjust="spacing" textLength="140.8066" x="403.5" y="540.4707">name : TEXT UNIQUE</text><text fill="#000000" font-family="sans-serif" font-size="14" lengthAdjust="spacing" textLength="106.5928" x="403.5" y="559.0918">sink_type : TEXT</text><text fill="#000000" font-family="sans-serif" font-size="14" lengthAdjust="spacing" textLength="121.3994" x="403.5" y="577.7129">config_data : JSON</text><line style="stroke:#181818;stroke-width:0.5;" x1="398.5" x2="549.3066" y1="585.2266" y2="585.2266"/></g><!--class DataCollectionPolicy--><g class="entity" data-entity="DataCollectionPolicy" data-source-line="51" data-uid="ent0009" id="entity_DataCollectionPolicy"><rect fill="#F1F1F1" height="141.1055" rx="2.5" ry="2.5" style="stroke:#181818;stroke-width:0.5;" width="160.3926" x="7" y="461.2422"/><ellipse cx="22" cy="477.2422" fill="#FFAAAA" rx="11" ry="11" style="stroke:#181818;stroke-width:1;"/><path d="M20.8594,478.0391 L20.8594,480.5391 L25.1875,480.5391 L25.1875,479.6172 Q25.1875,479.0078 25.4219,478.7422 Q25.6719,478.4766 26.0469,478.4766 Q26.4219,478.4766 26.6563,478.7422 Q26.8906,479.0078 26.8906,479.6172 L26.8906,482.2422 L18.8906,482.2422 Q18.2656,482.2422 18,482.0078 Q17.75,481.7734 17.75,481.3828 Q17.75,481.0078 18.0156,480.7734 Q18.2813,480.5391 18.8906,480.5391 L19.1563,480.5391 L19.1563,473.8828 L18.8906,473.8828 Q18.2656,473.8828 18,473.6484 Q17.75,473.4141 17.75,473.0234 Q17.75,472.6484 18,472.4141 Q18.2656,472.1797 18.8906,472.1797 L26.5156,472.1797 L26.5156,474.7734 Q26.5156,475.3828 26.2813,475.6484 Q26.0625,475.8984 25.6719,475.8984 Q25.2969,475.8984 25.0625,475.6484 Q24.8281,475.3828 24.8281,474.7734 L24.8281,473.8828 L20.8594,473.8828 L20.8594,476.3359 L22.3438,476.3359 Q22.3438,475.6797 22.4688,475.4922 Q22.7344,475.0859 23.2031,475.0859 Q23.5781,475.0859 23.8125,475.3516 Q24.0469,475.6016 24.0469,476.2109 L24.0469,478.1797 Q24.0469,478.7266 23.9219,478.9141 Q23.6563,479.3047 23.2031,479.3047 Q22.7344,479.3047 22.4688,478.8984 Q22.3438,478.7109 22.3438,478.0391 L20.8594,478.0391 Z " fill="#000000"/><text fill="#000000" font-family="sans-serif" font-size="14" lengthAdjust="spacing" textLength="128.3926" x="36" y="483.0391">DataCollectionPolicy</text><line style="stroke:#181818;stroke-width:0.5;" x1="8" x2="166.3926" y1="493.2422" y2="493.2422"/><text fill="#000000" font-family="sans-serif" font-size="14" lengthAdjust="spacing" text-decoration="underline" textLength="10.8965" x="13" y="512.3496">id</text><text fill="#000000" font-family="sans-serif" font-size="14" lengthAdjust="spacing" textLength="42" x="27.7861" y="512.3496">: UUID</text><text fill="#000000" font-family="sans-serif" font-size="14" lengthAdjust="spacing" textLength="82.4688" x="13" y="530.9707">name : TEXT</text><text fill="#000000" font-family="sans-serif" font-size="14" lengthAdjust="spacing" textLength="117.4893" x="13" y="549.5918">policy_type : TEXT</text><text fill="#000000" font-family="sans-serif" font-size="14" lengthAdjust="spacing" textLength="121.3994" x="13" y="568.2129">config_data : JSON</text><text fill="#000000" font-family="sans-serif" font-size="14" lengthAdjust="spacing" textLength="129.1855" x="13" y="586.834">enabled : BOOLEAN</text><line style="stroke:#181818;stroke-width:0.5;" x1="8" x2="166.3926" y1="594.3477" y2="594.3477"/></g><!--class Dataset--><g class="entity" data-entity="Dataset" data-source-line="60" data-uid="ent0010" id="entity_Dataset"><rect fill="#F1F1F1" height="48" rx="2.5" ry="2.5" style="stroke:#181818;stroke-width:0.5;" width="80.248" x="1178" y="281.7422"/><ellipse cx="1193" cy="297.7422" fill="#FFAAAA" rx="11" ry="11" style="stroke:#181818;stroke-width:1;"/><path d="M1191.8594,298.5391 L1191.8594,301.0391 L1196.1875,301.0391 L1196.1875,300.1172 Q1196.1875,299.5078 1196.4219,299.2422 Q1196.6719,298.9766 1197.0469,298.9766 Q1197.4219,298.9766 1197.6563,299.2422 Q1197.8906,299.5078 1197.8906,300.1172 L1197.8906,302.7422 L1189.8906,302.7422 Q1189.2656,302.7422 1189,302.5078 Q1188.75,302.2734 1188.75,301.8828 Q1188.75,301.5078 1189.0156,301.2734 Q1189.2813,301.0391 1189.8906,301.0391 L1190.1563,301.0391 L1190.1563,294.3828 L1189.8906,294.3828 Q1189.2656,294.3828 1189,294.1484 Q1188.75,293.9141 1188.75,293.5234 Q1188.75,293.1484 1189,292.9141 Q1189.2656,292.6797 1189.8906,292.6797 L1197.5156,292.6797 L1197.5156,295.2734 Q1197.5156,295.8828 1197.2813,296.1484 Q1197.0625,296.3984 1196.6719,296.3984 Q1196.2969,296.3984 1196.0625,296.1484 Q1195.8281,295.8828 1195.8281,295.2734 L1195.8281,294.3828 L1191.8594,294.3828 L1191.8594,296.8359 L1193.3438,296.8359 Q1193.3438,296.1797 1193.4688,295.9922 Q1193.7344,295.5859 1194.2031,295.5859 Q1194.5781,295.5859 1194.8125,295.8516 Q1195.0469,296.1016 1195.0469,296.7109 L1195.0469,298.6797 Q1195.0469,299.2266 1194.9219,299.4141 Q1194.6563,299.8047 1194.2031,299.8047 Q1193.7344,299.8047 1193.4688,299.3984 Q1193.3438,299.2109 1193.3438,298.5391 L1191.8594,298.5391 Z " fill="#000000"/><text fill="#000000" font-family="sans-serif" font-size="14" lengthAdjust="spacing" textLength="48.248" x="1207" y="303.5391">Dataset</text><line style="stroke:#181818;stroke-width:0.5;" x1="1179" x2="1257.248" y1="313.7422" y2="313.7422"/><line style="stroke:#181818;stroke-width:0.5;" x1="1179" x2="1257.248" y1="321.7422" y2="321.7422"/></g><!--class DatasetView--><g class="entity" data-entity="DatasetView" data-source-line="62" data-uid="ent0011" id="entity_DatasetView"><rect fill="#F1F1F1" height="66.6211" rx="2.5" ry="2.5" style="stroke:#181818;stroke-width:0.5;" width="110.5928" x="1109.5" y="665.2422"/><ellipse cx="1124.5" cy="681.2422" fill="#FFAAAA" rx="11" ry="11" style="stroke:#181818;stroke-width:1;"/><path d="M1123.3594,682.0391 L1123.3594,684.5391 L1127.6875,684.5391 L1127.6875,683.6172 Q1127.6875,683.0078 1127.9219,682.7422 Q1128.1719,682.4766 1128.5469,682.4766 Q1128.9219,682.4766 1129.1563,682.7422 Q1129.3906,683.0078 1129.3906,683.6172 L1129.3906,686.2422 L1121.3906,686.2422 Q1120.7656,686.2422 1120.5,686.0078 Q1120.25,685.7734 1120.25,685.3828 Q1120.25,685.0078 1120.5156,684.7734 Q1120.7813,684.5391 1121.3906,684.5391 L1121.6563,684.5391 L1121.6563,677.8828 L1121.3906,677.8828 Q1120.7656,677.8828 1120.5,677.6484 Q1120.25,677.4141 1120.25,677.0234 Q1120.25,676.6484 1120.5,676.4141 Q1120.7656,676.1797 1121.3906,676.1797 L1129.0156,676.1797 L1129.0156,678.7734 Q1129.0156,679.3828 1128.7813,679.6484 Q1128.5625,679.8984 1128.1719,679.8984 Q1127.7969,679.8984 1127.5625,679.6484 Q1127.3281,679.3828 1127.3281,678.7734 L1127.3281,677.8828 L1123.3594,677.8828 L1123.3594,680.3359 L1124.8438,680.3359 Q1124.8438,679.6797 1124.9688,679.4922 Q1125.2344,679.0859 1125.7031,679.0859 Q1126.0781,679.0859 1126.3125,679.3516 Q1126.5469,679.6016 1126.5469,680.2109 L1126.5469,682.1797 Q1126.5469,682.7266 1126.4219,682.9141 Q1126.1563,683.3047 1125.7031,683.3047 Q1125.2344,683.3047 1124.9688,682.8984 Q1124.8438,682.7109 1124.8438,682.0391 L1123.3594,682.0391 Z " fill="#000000"/><text fill="#000000" font-family="sans-serif" font-size="14" lengthAdjust="spacing" textLength="78.5928" x="1138.5" y="687.0391">DatasetView</text><line style="stroke:#181818;stroke-width:0.5;" x1="1110.5" x2="1219.0928" y1="697.2422" y2="697.2422"/><text fill="#000000" font-family="sans-serif" font-size="14" lengthAdjust="spacing" text-decoration="underline" textLength="10.8965" x="1115.5" y="716.3496">id</text><text fill="#000000" font-family="sans-serif" font-size="14" lengthAdjust="spacing" textLength="42" x="1130.2861" y="716.3496">: UUID</text><line style="stroke:#181818;stroke-width:0.5;" x1="1110.5" x2="1219.0928" y1="723.8633" y2="723.8633"/></g><!--class DatasetRevision--><g class="entity" data-entity="DatasetRevision" data-source-line="66" data-uid="ent0012" id="entity_DatasetRevision"><rect fill="#F1F1F1" height="66.6211" rx="2.5" ry="2.5" style="stroke:#181818;stroke-width:0.5;" width="133.9375" x="366" y="1251.7422"/><ellipse cx="381" cy="1267.7422" fill="#FFAAAA" rx="11" ry="11" style="stroke:#181818;stroke-width:1;"/><path d="M379.8594,1268.5391 L379.8594,1271.0391 L384.1875,1271.0391 L384.1875,1270.1172 Q384.1875,1269.5078 384.4219,1269.2422 Q384.6719,1268.9766 385.0469,1268.9766 Q385.4219,1268.9766 385.6563,1269.2422 Q385.8906,1269.5078 385.8906,1270.1172 L385.8906,1272.7422 L377.8906,1272.7422 Q377.2656,1272.7422 377,1272.5078 Q376.75,1272.2734 376.75,1271.8828 Q376.75,1271.5078 377.0156,1271.2734 Q377.2813,1271.0391 377.8906,1271.0391 L378.1563,1271.0391 L378.1563,1264.3828 L377.8906,1264.3828 Q377.2656,1264.3828 377,1264.1484 Q376.75,1263.9141 376.75,1263.5234 Q376.75,1263.1484 377,1262.9141 Q377.2656,1262.6797 377.8906,1262.6797 L385.5156,1262.6797 L385.5156,1265.2734 Q385.5156,1265.8828 385.2813,1266.1484 Q385.0625,1266.3984 384.6719,1266.3984 Q384.2969,1266.3984 384.0625,1266.1484 Q383.8281,1265.8828 383.8281,1265.2734 L383.8281,1264.3828 L379.8594,1264.3828 L379.8594,1266.8359 L381.3438,1266.8359 Q381.3438,1266.1797 381.4688,1265.9922 Q381.7344,1265.5859 382.2031,1265.5859 Q382.5781,1265.5859 382.8125,1265.8516 Q383.0469,1266.1016 383.0469,1266.7109 L383.0469,1268.6797 Q383.0469,1269.2266 382.9219,1269.4141 Q382.6563,1269.8047 382.2031,1269.8047 Q381.7344,1269.8047 381.4688,1269.3984 Q381.3438,1269.2109 381.3438,1268.5391 L379.8594,1268.5391 Z " fill="#000000"/><text fill="#000000" font-family="sans-serif" font-size="14" lengthAdjust="spacing" textLength="101.9375" x="395" y="1273.5391">DatasetRevision</text><line style="stroke:#181818;stroke-width:0.5;" x1="367" x2="498.9375" y1="1283.7422" y2="1283.7422"/><text fill="#000000" font-family="sans-serif" font-size="14" lengthAdjust="spacing" textLength="11.6689" x="372" y="1302.8496">...</text><line style="stroke:#181818;stroke-width:0.5;" x1="367" x2="498.9375" y1="1310.3633" y2="1310.3633"/></g><!--class DatasetItem--><g class="entity" data-entity="DatasetItem" data-source-line="70" data-uid="ent0013" id="entity_DatasetItem"><rect fill="#F1F1F1" height="196.9688" rx="2.5" ry="2.5" style="stroke:#181818;stroke-width:0.5;" width="124.041" x="1077" y="923.2422"/><ellipse cx="1099.4544" cy="939.2422" fill="#FFAAAA" rx="11" ry="11" style="stroke:#181818;stroke-width:1;"/><path d="M1098.3138,940.0391 L1098.3138,942.5391 L1102.6419,942.5391 L1102.6419,941.6172 Q1102.6419,941.0078 1102.8763,940.7422 Q1103.1263,940.4766 1103.5013,940.4766 Q1103.8763,940.4766 1104.1107,940.7422 Q1104.3451,941.0078 1104.3451,941.6172 L1104.3451,944.2422 L1096.3451,944.2422 Q1095.7201,944.2422 1095.4544,944.0078 Q1095.2044,943.7734 1095.2044,943.3828 Q1095.2044,943.0078 1095.4701,942.7734 Q1095.7357,942.5391 1096.3451,942.5391 L1096.6107,942.5391 L1096.6107,935.8828 L1096.3451,935.8828 Q1095.7201,935.8828 1095.4544,935.6484 Q1095.2044,935.4141 1095.2044,935.0234 Q1095.2044,934.6484 1095.4544,934.4141 Q1095.7201,934.1797 1096.3451,934.1797 L1103.9701,934.1797 L1103.9701,936.7734 Q1103.9701,937.3828 1103.7357,937.6484 Q1103.5169,937.8984 1103.1263,937.8984 Q1102.7513,937.8984 1102.5169,937.6484 Q1102.2826,937.3828 1102.2826,936.7734 L1102.2826,935.8828 L1098.3138,935.8828 L1098.3138,938.3359 L1099.7982,938.3359 Q1099.7982,937.6797 1099.9232,937.4922 Q1100.1888,937.0859 1100.6576,937.0859 Q1101.0326,937.0859 1101.2669,937.3516 Q1101.5013,937.6016 1101.5013,938.2109 L1101.5013,940.1797 Q1101.5013,940.7266 1101.3763,940.9141 Q1101.1107,941.3047 1100.6576,941.3047 Q1100.1888,941.3047 1099.9232,940.8984 Q1099.7982,940.7109 1099.7982,940.0391 L1098.3138,940.0391 Z " fill="#000000"/><text fill="#000000" font-family="sans-serif" font-size="14" lengthAdjust="spacing" textLength="75.4756" x="1115.111" y="945.0391">DatasetItem</text><line style="stroke:#181818;stroke-width:0.5;" x1="1078" x2="1200.041" y1="955.2422" y2="955.2422"/><text fill="#000000" font-family="sans-serif" font-size="14" lengthAdjust="spacing" text-decoration="underline" textLength="10.8965" x="1083" y="974.3496">id</text><text fill="#000000" font-family="sans-serif" font-size="14" lengthAdjust="spacing" textLength="42" x="1097.7861" y="974.3496">: UUID</text><text fill="#000000" font-family="sans-serif" font-size="14" lengthAdjust="spacing" textLength="82.4688" x="1083" y="992.9707">name : TEXT</text><text fill="#000000" font-family="sans-serif" font-size="14" lengthAdjust="spacing" textLength="87.124" x="1083" y="1011.5918">format : TEXT</text><text fill="#000000" font-family="sans-serif" font-size="14" lengthAdjust="spacing" textLength="106.5791" x="1083" y="1030.2129">width : INTEGER</text><text fill="#000000" font-family="sans-serif" font-size="14" lengthAdjust="spacing" textLength="112.041" x="1083" y="1048.834">height : INTEGER</text><text fill="#000000" font-family="sans-serif" font-size="14" lengthAdjust="spacing" textLength="98.793" x="1083" y="1067.4551">size : INTEGER</text><text fill="#000000" font-family="sans-serif" font-size="14" lengthAdjust="spacing" textLength="88.6963" x="1083" y="1086.0762">subset : TEXT</text><text fill="#000000" font-family="sans-serif" font-size="14" lengthAdjust="spacing" textLength="111.2549" x="1083" y="1104.6973">tags : LIST[TEXT]</text><line style="stroke:#181818;stroke-width:0.5;" x1="1078" x2="1200.041" y1="1112.2109" y2="1112.2109"/></g><!--class Annotation--><g class="entity" data-entity="Annotation" data-source-line="81" data-uid="ent0014" id="entity_Annotation"><rect fill="#F1F1F1" height="103.8633" rx="2.5" ry="2.5" style="stroke:#181818;stroke-width:0.5;" width="182.4063" x="884" y="1233.2422"/><ellipse cx="937.481" cy="1249.2422" fill="#FFAAAA" rx="11" ry="11" style="stroke:#181818;stroke-width:1;"/><path d="M936.3403,1250.0391 L936.3403,1252.5391 L940.6685,1252.5391 L940.6685,1251.6172 Q940.6685,1251.0078 940.9028,1250.7422 Q941.1528,1250.4766 941.5278,1250.4766 Q941.9028,1250.4766 942.1372,1250.7422 Q942.3716,1251.0078 942.3716,1251.6172 L942.3716,1254.2422 L934.3716,1254.2422 Q933.7466,1254.2422 933.481,1254.0078 Q933.231,1253.7734 933.231,1253.3828 Q933.231,1253.0078 933.4966,1252.7734 Q933.7622,1252.5391 934.3716,1252.5391 L934.6372,1252.5391 L934.6372,1245.8828 L934.3716,1245.8828 Q933.7466,1245.8828 933.481,1245.6484 Q933.231,1245.4141 933.231,1245.0234 Q933.231,1244.6484 933.481,1244.4141 Q933.7466,1244.1797 934.3716,1244.1797 L941.9966,1244.1797 L941.9966,1246.7734 Q941.9966,1247.3828 941.7622,1247.6484 Q941.5435,1247.8984 941.1528,1247.8984 Q940.7778,1247.8984 940.5435,1247.6484 Q940.3091,1247.3828 940.3091,1246.7734 L940.3091,1245.8828 L936.3403,1245.8828 L936.3403,1248.3359 L937.8247,1248.3359 Q937.8247,1247.6797 937.9497,1247.4922 Q938.2153,1247.0859 938.6841,1247.0859 Q939.0591,1247.0859 939.2935,1247.3516 Q939.5278,1247.6016 939.5278,1248.2109 L939.5278,1250.1797 Q939.5278,1250.7266 939.4028,1250.9141 Q939.1372,1251.3047 938.6841,1251.3047 Q938.2153,1251.3047 937.9497,1250.8984 Q937.8247,1250.7109 937.8247,1250.0391 L936.3403,1250.0391 Z " fill="#000000"/><text fill="#000000" font-family="sans-serif" font-size="14" lengthAdjust="spacing" textLength="66.9443" x="957.981" y="1255.0391">Annotation</text><line style="stroke:#181818;stroke-width:0.5;" x1="885" x2="1065.4063" y1="1265.2422" y2="1265.2422"/><text fill="#000000" font-family="sans-serif" font-size="14" lengthAdjust="spacing" text-decoration="underline" textLength="10.8965" x="890" y="1284.3496">id</text><text fill="#000000" font-family="sans-serif" font-size="14" lengthAdjust="spacing" textLength="42" x="904.7861" y="1284.3496">: UUID</text><text fill="#000000" font-family="sans-serif" font-size="14" lengthAdjust="spacing" textLength="76.2549" x="890" y="1302.9707">data : JSON</text><text fill="#000000" font-family="sans-serif" font-size="14" lengthAdjust="spacing" textLength="170.4063" x="890" y="1321.5918">user_reviewed : BOOLEAN</text><line style="stroke:#181818;stroke-width:0.5;" x1="885" x2="1065.4063" y1="1329.1055" y2="1329.1055"/></g><!--class ModelRevision--><g class="entity" data-entity="ModelRevision" data-source-line="88" data-uid="ent0015" id="entity_ModelRevision"><rect fill="#F1F1F1" height="122.4844" rx="2.5" ry="2.5" style="stroke:#181818;stroke-width:0.5;" width="159.8203" x="613" y="470.7422"/><ellipse cx="644.2" cy="486.7422" fill="#FFAAAA" rx="11" ry="11" style="stroke:#181818;stroke-width:1;"/><path d="M643.0594,487.5391 L643.0594,490.0391 L647.3875,490.0391 L647.3875,489.1172 Q647.3875,488.5078 647.6219,488.2422 Q647.8719,487.9766 648.2469,487.9766 Q648.6219,487.9766 648.8563,488.2422 Q649.0906,488.5078 649.0906,489.1172 L649.0906,491.7422 L641.0906,491.7422 Q640.4656,491.7422 640.2,491.5078 Q639.95,491.2734 639.95,490.8828 Q639.95,490.5078 640.2156,490.2734 Q640.4813,490.0391 641.0906,490.0391 L641.3563,490.0391 L641.3563,483.3828 L641.0906,483.3828 Q640.4656,483.3828 640.2,483.1484 Q639.95,482.9141 639.95,482.5234 Q639.95,482.1484 640.2,481.9141 Q640.4656,481.6797 641.0906,481.6797 L648.7156,481.6797 L648.7156,484.2734 Q648.7156,484.8828 648.4813,485.1484 Q648.2625,485.3984 647.8719,485.3984 Q647.4969,485.3984 647.2625,485.1484 Q647.0281,484.8828 647.0281,484.2734 L647.0281,483.3828 L643.0594,483.3828 L643.0594,485.8359 L644.5438,485.8359 Q644.5438,485.1797 644.6688,484.9922 Q644.9344,484.5859 645.4031,484.5859 Q645.7781,484.5859 646.0125,484.8516 Q646.2469,485.1016 646.2469,485.7109 L646.2469,487.6797 Q646.2469,488.2266 646.1219,488.4141 Q645.8563,488.8047 645.4031,488.8047 Q644.9344,488.8047 644.6688,488.3984 Q644.5438,488.2109 644.5438,487.5391 L643.0594,487.5391 Z " fill="#000000"/><text fill="#000000" font-family="sans-serif" font-size="14" lengthAdjust="spacing" textLength="91.8203" x="661.8" y="492.5391">ModelRevision</text><line style="stroke:#181818;stroke-width:0.5;" x1="614" x2="771.8203" y1="502.7422" y2="502.7422"/><text fill="#000000" font-family="sans-serif" font-size="14" lengthAdjust="spacing" text-decoration="underline" textLength="10.8965" x="619" y="521.8496">id</text><text fill="#000000" font-family="sans-serif" font-size="14" lengthAdjust="spacing" textLength="42" x="633.7861" y="521.8496">: UUID</text><text fill="#000000" font-family="sans-serif" font-size="14" lengthAdjust="spacing" textLength="120.5928" x="619" y="540.4707">architecture : TEXT</text><text fill="#000000" font-family="sans-serif" font-size="14" lengthAdjust="spacing" textLength="84.7998" x="619" y="559.0918">status : TEXT</text><text fill="#000000" font-family="sans-serif" font-size="14" lengthAdjust="spacing" textLength="147.8203" x="619" y="577.7129">training_metrics : JSON</text><line style="stroke:#181818;stroke-width:0.5;" x1="614" x2="771.8203" y1="585.2266" y2="585.2266"/></g><!--class EvaluationResult--><g class="entity" data-entity="EvaluationResult" data-source-line="95" data-uid="ent0016" id="entity_EvaluationResult"><rect fill="#F1F1F1" height="66.6211" rx="2.5" ry="2.5" style="stroke:#181818;stroke-width:0.5;" width="137.0615" x="505.5" y="795.2422"/><ellipse cx="520.5" cy="811.2422" fill="#FFAAAA" rx="11" ry="11" style="stroke:#181818;stroke-width:1;"/><path d="M519.3594,812.0391 L519.3594,814.5391 L523.6875,814.5391 L523.6875,813.6172 Q523.6875,813.0078 523.9219,812.7422 Q524.1719,812.4766 524.5469,812.4766 Q524.9219,812.4766 525.1563,812.7422 Q525.3906,813.0078 525.3906,813.6172 L525.3906,816.2422 L517.3906,816.2422 Q516.7656,816.2422 516.5,816.0078 Q516.25,815.7734 516.25,815.3828 Q516.25,815.0078 516.5156,814.7734 Q516.7813,814.5391 517.3906,814.5391 L517.6563,814.5391 L517.6563,807.8828 L517.3906,807.8828 Q516.7656,807.8828 516.5,807.6484 Q516.25,807.4141 516.25,807.0234 Q516.25,806.6484 516.5,806.4141 Q516.7656,806.1797 517.3906,806.1797 L525.0156,806.1797 L525.0156,808.7734 Q525.0156,809.3828 524.7813,809.6484 Q524.5625,809.8984 524.1719,809.8984 Q523.7969,809.8984 523.5625,809.6484 Q523.3281,809.3828 523.3281,808.7734 L523.3281,807.8828 L519.3594,807.8828 L519.3594,810.3359 L520.8438,810.3359 Q520.8438,809.6797 520.9688,809.4922 Q521.2344,809.0859 521.7031,809.0859 Q522.0781,809.0859 522.3125,809.3516 Q522.5469,809.6016 522.5469,810.2109 L522.5469,812.1797 Q522.5469,812.7266 522.4219,812.9141 Q522.1563,813.3047 521.7031,813.3047 Q521.2344,813.3047 520.9688,812.8984 Q520.8438,812.7109 520.8438,812.0391 L519.3594,812.0391 Z " fill="#000000"/><text fill="#000000" font-family="sans-serif" font-size="14" lengthAdjust="spacing" textLength="105.0615" x="534.5" y="817.0391">EvaluationResult</text><line style="stroke:#181818;stroke-width:0.5;" x1="506.5" x2="641.5615" y1="827.2422" y2="827.2422"/><text fill="#000000" font-family="sans-serif" font-size="14" lengthAdjust="spacing" text-decoration="underline" textLength="10.8965" x="511.5" y="846.3496">id</text><text fill="#000000" font-family="sans-serif" font-size="14" lengthAdjust="spacing" textLength="42" x="526.2861" y="846.3496">: UUID</text><line style="stroke:#181818;stroke-width:0.5;" x1="506.5" x2="641.5615" y1="853.8633" y2="853.8633"/></g><!--class MetricScore--><g class="entity" data-entity="MetricScore" data-source-line="99" data-uid="ent0017" id="entity_MetricScore"><rect fill="#F1F1F1" height="85.2422" rx="2.5" ry="2.5" style="stroke:#181818;stroke-width:0.5;" width="106.6826" x="535.5" y="1242.7422"/><ellipse cx="550.5" cy="1258.7422" fill="#FFAAAA" rx="11" ry="11" style="stroke:#181818;stroke-width:1;"/><path d="M549.3594,1259.5391 L549.3594,1262.0391 L553.6875,1262.0391 L553.6875,1261.1172 Q553.6875,1260.5078 553.9219,1260.2422 Q554.1719,1259.9766 554.5469,1259.9766 Q554.9219,1259.9766 555.1563,1260.2422 Q555.3906,1260.5078 555.3906,1261.1172 L555.3906,1263.7422 L547.3906,1263.7422 Q546.7656,1263.7422 546.5,1263.5078 Q546.25,1263.2734 546.25,1262.8828 Q546.25,1262.5078 546.5156,1262.2734 Q546.7813,1262.0391 547.3906,1262.0391 L547.6563,1262.0391 L547.6563,1255.3828 L547.3906,1255.3828 Q546.7656,1255.3828 546.5,1255.1484 Q546.25,1254.9141 546.25,1254.5234 Q546.25,1254.1484 546.5,1253.9141 Q546.7656,1253.6797 547.3906,1253.6797 L555.0156,1253.6797 L555.0156,1256.2734 Q555.0156,1256.8828 554.7813,1257.1484 Q554.5625,1257.3984 554.1719,1257.3984 Q553.7969,1257.3984 553.5625,1257.1484 Q553.3281,1256.8828 553.3281,1256.2734 L553.3281,1255.3828 L549.3594,1255.3828 L549.3594,1257.8359 L550.8438,1257.8359 Q550.8438,1257.1797 550.9688,1256.9922 Q551.2344,1256.5859 551.7031,1256.5859 Q552.0781,1256.5859 552.3125,1256.8516 Q552.5469,1257.1016 552.5469,1257.7109 L552.5469,1259.6797 Q552.5469,1260.2266 552.4219,1260.4141 Q552.1563,1260.8047 551.7031,1260.8047 Q551.2344,1260.8047 550.9688,1260.3984 Q550.8438,1260.2109 550.8438,1259.5391 L549.3594,1259.5391 Z " fill="#000000"/><text fill="#000000" font-family="sans-serif" font-size="14" lengthAdjust="spacing" textLength="74.6826" x="564.5" y="1264.5391">MetricScore</text><line style="stroke:#181818;stroke-width:0.5;" x1="536.5" x2="641.1826" y1="1274.7422" y2="1274.7422"/><text fill="#000000" font-family="sans-serif" font-size="14" lengthAdjust="spacing" textLength="81.6689" x="541.5" y="1293.8496">metric: TEXT</text><text fill="#000000" font-family="sans-serif" font-size="14" lengthAdjust="spacing" textLength="87.1309" x="541.5" y="1312.4707">score: FLOAT</text><line style="stroke:#181818;stroke-width:0.5;" x1="536.5" x2="641.1826" y1="1319.9844" y2="1319.9844"/></g><!--class Source --><g class="entity" data-entity="Source " data-source-line="121" data-uid="ent0031" id="entity_Source "><rect fill="#F1F1F1" height="48" rx="2.5" ry="2.5" style="stroke:#181818;stroke-width:0.5;" width="80.248" x="1151" y="1398.2422"/><ellipse cx="1166" cy="1414.2422" fill="#ADD1B2" rx="11" ry="11" style="stroke:#181818;stroke-width:1;"/><path d="M1168.7656,1410.1172 Q1168.9219,1409.8984 1169.1094,1409.7891 Q1169.2969,1409.6797 1169.5156,1409.6797 Q1169.8906,1409.6797 1170.125,1409.9453 Q1170.3594,1410.1953 1170.3594,1410.8047 L1170.3594,1412.2578 Q1170.3594,1412.8672 1170.125,1413.1328 Q1169.8906,1413.3984 1169.5156,1413.3984 Q1169.1719,1413.3984 1168.9688,1413.1953 Q1168.7656,1413.0078 1168.6563,1412.4922 Q1168.6094,1412.1328 1168.4219,1411.9453 Q1168.0938,1411.5703 1167.4844,1411.3516 Q1166.875,1411.1328 1166.25,1411.1328 Q1165.4844,1411.1328 1164.8438,1411.4609 Q1164.2188,1411.7891 1163.7188,1412.5391 Q1163.2344,1413.2891 1163.2344,1414.3203 L1163.2344,1415.4141 Q1163.2344,1416.6484 1164.125,1417.4766 Q1165.0156,1418.2891 1166.6094,1418.2891 Q1167.5469,1418.2891 1168.2031,1418.0391 Q1168.5938,1417.8828 1169.0156,1417.4453 Q1169.2813,1417.1797 1169.4219,1417.1016 Q1169.5781,1417.0234 1169.7813,1417.0234 Q1170.1094,1417.0234 1170.3594,1417.2891 Q1170.625,1417.5391 1170.625,1417.8828 Q1170.625,1418.2266 1170.2813,1418.6328 Q1169.7813,1419.2109 1168.9844,1419.5391 Q1167.9063,1419.9922 1166.6094,1419.9922 Q1165.0938,1419.9922 1163.8906,1419.3672 Q1162.9063,1418.8672 1162.2188,1417.8047 Q1161.5313,1416.7266 1161.5313,1415.4453 L1161.5313,1414.2891 Q1161.5313,1412.9609 1162.1406,1411.8203 Q1162.7656,1410.6641 1163.8594,1410.0547 Q1164.9531,1409.4297 1166.1875,1409.4297 Q1166.9219,1409.4297 1167.5625,1409.6016 Q1168.2188,1409.7578 1168.7656,1410.1172 Z " fill="#000000"/><text fill="#000000" font-family="sans-serif" font-size="14" lengthAdjust="spacing" textLength="44.3584" x="1180" y="1420.0391">Source</text><line style="stroke:#181818;stroke-width:0.5;" x1="1152" x2="1230.248" y1="1430.2422" y2="1430.2422"/><line style="stroke:#181818;stroke-width:0.5;" x1="1152" x2="1230.248" y1="1438.2422" y2="1438.2422"/></g><g class="entity" data-entity="GMN42" data-uid="ent0043" id="entity_GMN42"><path d="M339.5,300.7422 L339.5,310.7422 A0,0 0 0 0 339.5,310.7422 L360.5,310.7422 A0,0 0 0 0 360.5,310.7422 L360.5,309.7422 L395.63,305.7422 L360.5,301.7422 L360.5,310.7422 L350.5,300.7422 L339.5,300.7422 A0,0 0 0 0 339.5,300.7422" fill="#FEFFDD" style="stroke:#181818;stroke-width:0.5;"/><path d="M350.5,300.7422 L350.5,310.7422 L360.5,310.7422 L350.5,300.7422" fill="#FEFFDD" style="stroke:#181818;stroke-width:0.5;"/></g><!--link Project to LabelSchema--><g class="link" data-entity-1="Project" data-entity-2="LabelSchema" data-source-line="105" data-uid="lnk18" id="link_Project_LabelSchema"><path codeLine="105" d="M845.969,155.5437 C875.389,180.2237 907.74,206.6322 943,233.2422 C956.2,243.2122 964.0926,248.9796 977.8726,258.6096" fill="none" id="Project-LabelSchema" style="stroke:#181818;stroke-width:1;"/><line style="stroke:#181818;stroke-width:1;" x1="840.3337" x2="845.4753" y1="156.0375" y2="149.9085"/><line style="stroke:#181818;stroke-width:1;" x1="842.6321" x2="847.7736" y1="157.9655" y2="151.8365"/><line style="stroke:#181818;stroke-width:1;" x1="845.969" x2="839.84" y1="155.5437" y2="150.4022"/><line style="stroke:#181818;stroke-width:1;" x1="983.4426" x2="978.86" y1="257.6222" y2="264.1796"/><line style="stroke:#181818;stroke-width:1;" x1="980.9835" x2="976.401" y1="255.9037" y2="262.4611"/><line style="stroke:#181818;stroke-width:1;" x1="977.8726" x2="984.43" y1="258.6096" y2="263.1922"/><text fill="#000000" font-family="sans-serif" font-size="13" lengthAdjust="spacing" textLength="188.5889" x="944" y="212.2705">A project solves exactly one task</text></g><!--link Project to InferencePipeline--><g class="link" data-entity-1="Project" data-entity-2="InferencePipeline" data-source-line="106" data-uid="lnk19" id="link_Project_InferencePipeline"><path codeLine="106" d="M706.3427,111.3653 C646.8427,116.7653 573.82,132.5622 521,180.2422 C494.76,203.9322 484.533,235.9016 479.393,264.1316" fill="none" id="Project-InferencePipeline" style="stroke:#181818;stroke-width:1;"/><line style="stroke:#181818;stroke-width:1;" x1="709.9648" x2="710.6879" y1="107.0201" y2="114.9874"/><line style="stroke:#181818;stroke-width:1;" x1="706.9771" x2="707.7002" y1="107.2913" y2="115.2585"/><line style="stroke:#181818;stroke-width:1;" x1="706.3427" x2="714.31" y1="111.3653" y2="110.6422"/><line style="stroke:#181818;stroke-width:1;" x1="482.6118" x2="474.7412" y1="268.7834" y2="267.3504"/><line style="stroke:#181818;stroke-width:1;" x1="483.1492" x2="475.2786" y1="265.8319" y2="264.3989"/><line style="stroke:#181818;stroke-width:1;" x1="479.393" x2="477.96" y1="264.1316" y2="272.0022"/><text fill="#000000" font-family="sans-serif" font-size="13" lengthAdjust="spacing" textLength="210.2915" x="522" y="203.7705">Each project defines its own pipeline</text><text fill="#000000" font-family="sans-serif" font-size="13" lengthAdjust="spacing" textLength="145.2598" x="556.3218" y="221.0615">to configure the data flow</text></g><!--link Project to Dataset--><g class="link" data-entity-1="Project" data-entity-2="Dataset" data-source-line="107" data-uid="lnk20" id="link_Project_Dataset"><path codeLine="107" d="M875.654,118.658 C963.824,130.058 1094,150.8922 1137,180.2422 C1173.63,205.2422 1194.5587,245.457 1206.3387,274.007" fill="none" id="Project-Dataset" style="stroke:#181818;stroke-width:1;"/><line style="stroke:#181818;stroke-width:1;" x1="871.1741" x2="872.1999" y1="122.1121" y2="114.1781"/><line style="stroke:#181818;stroke-width:1;" x1="874.1493" x2="875.1751" y1="122.4968" y2="114.5628"/><line style="stroke:#181818;stroke-width:1;" x1="875.654" x2="867.72" y1="118.658" y2="117.6322"/><line style="stroke:#181818;stroke-width:1;" x1="1211.5619" x2="1204.1667" y1="276.1789" y2="279.2302"/><line style="stroke:#181818;stroke-width:1;" x1="1210.4177" x2="1203.0225" y1="273.4057" y2="276.457"/><line style="stroke:#181818;stroke-width:1;" x1="1206.3387" x2="1209.39" y1="274.007" y2="281.4022"/><text fill="#000000" font-family="sans-serif" font-size="13" lengthAdjust="spacing" textLength="141.6353" x="1194.5654" y="195.2705">Dataset items are bound</text><text fill="#000000" font-family="sans-serif" font-size="13" lengthAdjust="spacing" textLength="161.1543" x="1186.6118" y="212.5615">to the project to ensure they</text><text fill="#000000" font-family="sans-serif" font-size="13" lengthAdjust="spacing" textLength="127.9116" x="1203.2332" y="229.8525">have consistent labels</text></g><!--link Project to ModelRevision--><g class="link" data-entity-1="Project" data-entity-2="ModelRevision" data-source-line="108" data-uid="lnk21" id="link_Project_ModelRevision"><path codeLine="108" d="M787.5783,158.2964 C782.5683,220.5564 770.23,333.1922 740,431.2422 C735.98,444.2922 737.9493,441.4224 732.1993,454.1324" fill="none" id="Project-ModelRevision" style="stroke:#181818;stroke-width:1;"/><line style="stroke:#181818;stroke-width:1;" x1="783.912" x2="791.8863" y1="153.9885" y2="154.6301"/><line style="stroke:#181818;stroke-width:1;" x1="783.6714" x2="791.6456" y1="156.9788" y2="157.6205"/><line style="stroke:#181818;stroke-width:1;" x1="787.5783" x2="788.22" y1="158.2964" y2="150.3222"/><line style="stroke:#181818;stroke-width:1;" x1="728.0775" x2="730.2466" y1="463.2434" y2="473.0053"/><line style="stroke:#181818;stroke-width:1;" x1="728.0775" x2="719.3134" y1="463.2434" y2="468.0591"/><line style="stroke:#181818;stroke-width:1;" x1="728.0775" x2="724.78" y1="463.2434" y2="470.5322"/><ellipse cx="730.5505" cy="457.7768" fill="none" rx="4" ry="4" style="stroke:#181818;stroke-width:1;"/><text fill="#000000" font-family="sans-serif" font-size="13" lengthAdjust="spacing" textLength="135.8271" x="781.4304" y="302.7705">Users can train multiple</text><text fill="#000000" font-family="sans-serif" font-size="13" lengthAdjust="spacing" textLength="146.688" x="779.6118" y="320.0615">models within one project</text></g><!--link LabelSchema to Label--><g class="link" data-entity-1="LabelSchema" data-entity-2="Label" data-source-line="110" data-uid="lnk22" id="link_LabelSchema_Label"><path codeLine="110" d="M1047.9917,356.3457 C1049.3717,390.6357 1050.6992,423.7286 1052.2492,462.3486" fill="none" id="LabelSchema-Label" style="stroke:#181818;stroke-width:1;"/><line style="stroke:#181818;stroke-width:1;" x1="1043.8341" x2="1051.8276" y1="352.5098" y2="352.1881"/><line style="stroke:#181818;stroke-width:1;" x1="1043.9547" x2="1051.9483" y1="355.5074" y2="355.1857"/><line style="stroke:#181818;stroke-width:1;" x1="1047.9917" x2="1047.67" y1="356.3457" y2="348.3522"/><line style="stroke:#181818;stroke-width:1;" x1="1052.2492" x2="1058.5652" y1="462.3486" y2="470.1016"/><line style="stroke:#181818;stroke-width:1;" x1="1052.2492" x2="1046.5748" y1="462.3486" y2="470.5828"/><line style="stroke:#181818;stroke-width:1;" x1="1052.2492" x2="1052.57" y1="462.3486" y2="470.3422"/><line style="stroke:#181818;stroke-width:1;" x1="1056.1658" x2="1048.1722" y1="460.1898" y2="460.5106"/><text fill="#000000" font-family="sans-serif" font-size="13" lengthAdjust="spacing" textLength="81.6563" x="1065.8123" y="401.7705">A task defines</text><text fill="#000000" font-family="sans-serif" font-size="13" lengthAdjust="spacing" textLength="107.6689" x="1054.6118" y="419.0615">one or more labels</text></g><!--link LabelSchema to ModelRevision--><g class="link" data-entity-1="LabelSchema" data-entity-2="ModelRevision" data-source-line="111" data-uid="lnk23" id="link_LabelSchema_ModelRevision"><path codeLine="111" d="M973.6753,352.6387 C915.0553,389.8387 850.9381,430.5176 788.2681,470.2876" fill="none" id="LabelSchema-ModelRevision" style="stroke:#181818;stroke-width:1;"/><line style="stroke:#181818;stroke-width:1;" x1="974.9094" x2="979.1959" y1="347.1181" y2="353.8728"/><line style="stroke:#181818;stroke-width:1;" x1="972.3764" x2="976.6629" y1="348.7255" y2="355.4802"/><line style="stroke:#181818;stroke-width:1;" x1="973.6753" x2="980.43" y1="352.6387" y2="348.3522"/><line style="stroke:#181818;stroke-width:1;" x1="779.8247" x2="776.2849" y1="475.6457" y2="484.9982"/><line style="stroke:#181818;stroke-width:1;" x1="779.8247" x2="769.8551" y1="475.6457" y2="474.8662"/><line style="stroke:#181818;stroke-width:1;" x1="779.8247" x2="773.07" y1="475.6457" y2="479.9322"/><ellipse cx="784.8907" cy="472.4308" fill="none" rx="4" ry="4" style="stroke:#181818;stroke-width:1;"/><text fill="#000000" font-family="sans-serif" font-size="13" lengthAdjust="spacing" textLength="96.0972" x="932" y="401.7705">A task may have</text><text fill="#000000" font-family="sans-serif" font-size="13" lengthAdjust="spacing" textLength="90.3145" x="938.5032" y="419.0615">multiple models</text></g><!--link InferencePipeline to Source--><g class="link" data-entity-1="InferencePipeline" data-entity-2="Source" data-source-line="113" data-uid="lnk24" id="link_InferencePipeline_Source"><path codeLine="113" d="M391.4323,342.4793 C349.0923,360.8693 311.8,377.2322 311,378.2422 C290.54,404.1022 283.7832,432.15 281.7432,462.69" fill="none" id="InferencePipeline-Source" style="stroke:#181818;stroke-width:1;"/><line style="stroke:#181818;stroke-width:1;" x1="393.5076" x2="396.6947" y1="337.2169" y2="344.5546"/><line style="stroke:#181818;stroke-width:1;" x1="390.7559" x2="393.943" y1="338.412" y2="345.7498"/><line style="stroke:#181818;stroke-width:1;" x1="391.4323" x2="398.77" y1="342.4793" y2="339.2922"/><line style="stroke:#181818;stroke-width:1;" x1="285.4677" x2="277.4855" y1="466.9477" y2="466.4145"/><line style="stroke:#181818;stroke-width:1;" x1="285.6676" x2="277.6854" y1="463.9543" y2="463.4212"/><line style="stroke:#181818;stroke-width:1;" x1="281.7432" x2="281.21" y1="462.69" y2="470.6722"/><text fill="#000000" font-family="sans-serif" font-size="13" lengthAdjust="spacing" textLength="149.6016" x="312" y="410.2705">A pipeline has one source</text></g><!--link InferencePipeline to Sink--><g class="link" data-entity-1="InferencePipeline" data-entity-2="Sink" data-source-line="114" data-uid="lnk25" id="link_InferencePipeline_Sink"><path codeLine="114" d="M471.5421,357.4645 C471.0021,369.6345 471.27,365.5722 471,378.2422 C470.36,408.6922 470.6749,434.5554 471.4649,462.6254" fill="none" id="InferencePipeline-Sink" style="stroke:#181818;stroke-width:1;"/><line style="stroke:#181818;stroke-width:1;" x1="471.9854" x2="466.3459" y1="347.4743" y2="339.2162"/><line style="stroke:#181818;stroke-width:1;" x1="471.9854" x2="478.3341" y1="347.4743" y2="339.7482"/><line style="stroke:#181818;stroke-width:1;" x1="471.9854" x2="472.34" y1="347.4743" y2="339.4822"/><ellipse cx="471.7194" cy="353.4684" fill="none" rx="4" ry="4" style="stroke:#181818;stroke-width:1;"/><line style="stroke:#181818;stroke-width:1;" x1="475.5759" x2="467.5791" y1="466.5112" y2="466.7363"/><line style="stroke:#181818;stroke-width:1;" x1="475.4915" x2="467.4947" y1="463.5124" y2="463.7375"/><line style="stroke:#181818;stroke-width:1;" x1="471.4649" x2="471.69" y1="462.6254" y2="470.6222"/><text fill="#000000" font-family="sans-serif" font-size="13" lengthAdjust="spacing" textLength="133.7007" x="472" y="410.2705">A pipeline has one sink</text></g><!--link InferencePipeline to DataCollectionPolicy--><g class="link" data-entity-1="InferencePipeline" data-entity-2="DataCollectionPolicy" data-source-line="115" data-uid="lnk26" id="link_InferencePipeline_DataCollectionPolicy"><path codeLine="115" d="M397.64,342.1694 C388.65,345.5794 386.94,345.8422 378,348.2422 C322.9,363.0522 165.59,340.2722 123,378.2422 C99.85,398.8822 92.3512,413.5036 88.7412,443.2136" fill="none" id="InferencePipeline-DataCollectionPolicy" style="stroke:#181818;stroke-width:1;"/><line style="stroke:#181818;stroke-width:1;" x1="399.9614" x2="402.7986" y1="337.0108" y2="344.4908"/><line style="stroke:#181818;stroke-width:1;" x1="397.1564" x2="399.9936" y1="338.0748" y2="345.5548"/><line style="stroke:#181818;stroke-width:1;" x1="397.64" x2="405.12" y1="342.1694" y2="339.3322"/><line style="stroke:#181818;stroke-width:1;" x1="87.535" x2="92.5262" y1="453.1406" y2="461.8059"/><line style="stroke:#181818;stroke-width:1;" x1="87.535" x2="80.6138" y1="453.1406" y2="460.3585"/><line style="stroke:#181818;stroke-width:1;" x1="87.535" x2="86.57" y1="453.1406" y2="461.0822"/><ellipse cx="88.2587" cy="447.1844" fill="none" rx="4" ry="4" style="stroke:#181818;stroke-width:1;"/><text fill="#000000" font-family="sans-serif" font-size="13" lengthAdjust="spacing" textLength="154.6416" x="124" y="401.7705">A pipeline may collect data</text><text fill="#000000" font-family="sans-serif" font-size="13" lengthAdjust="spacing" textLength="144.5171" x="130.8682" y="419.0615">based on multiple criteria</text></g><!--link InferencePipeline to ModelRevision--><g class="link" data-entity-1="InferencePipeline" data-entity-2="ModelRevision" data-source-line="116" data-uid="lnk27" id="link_InferencePipeline_ModelRevision"><path codeLine="116" d="M559.3896,341.6685 C579.7996,352.3385 593.57,362.0422 610,378.2422 C624.54,392.5822 643.4027,427.2867 661.2727,463.5367" fill="none" id="InferencePipeline-ModelRevision" style="stroke:#181818;stroke-width:1;"/><line style="stroke:#181818;stroke-width:1;" x1="553.9916" x2="557.698" y1="343.3602" y2="336.2705"/><line style="stroke:#181818;stroke-width:1;" x1="556.6503" x2="560.3566" y1="344.7501" y2="337.6604"/><line style="stroke:#181818;stroke-width:1;" x1="559.3896" x2="552.3" y1="341.6685" y2="337.9622"/><line style="stroke:#181818;stroke-width:1;" x1="666.6291" x2="659.4536" y1="465.3558" y2="468.8931"/><line style="stroke:#181818;stroke-width:1;" x1="665.3026" x2="658.1271" y1="462.665" y2="466.2023"/><line style="stroke:#181818;stroke-width:1;" x1="661.2727" x2="664.81" y1="463.5367" y2="470.7122"/><text fill="#000000" font-family="sans-serif" font-size="13" lengthAdjust="spacing" textLength="88.1689" x="645" y="393.2705">A pipeline uses</text><text fill="#000000" font-family="sans-serif" font-size="13" lengthAdjust="spacing" textLength="60.709" x="660.5359" y="410.5615">one model</text><text fill="#000000" font-family="sans-serif" font-size="13" lengthAdjust="spacing" textLength="72.2617" x="654.7595" y="427.8525">for inference</text></g><!--link Dataset to DatasetItem--><g class="link" data-entity-1="Dataset" data-entity-2="DatasetItem" data-source-line="118" data-uid="lnk28" id="link_Dataset_DatasetItem"><path codeLine="118" d="M1242.3901,336.1668 C1272.9901,375.0168 1324,450.7222 1324,530.7422 C1324,530.7422 1324,530.7422 1324,829.7422 C1324,901.9922 1270.3169,948.0581 1216.5769,980.1281" fill="none" id="Dataset-DatasetItem" style="stroke:#181818;stroke-width:1;"/><line style="stroke:#181818;stroke-width:1;" x1="1236.7727" x2="1243.0574" y1="335.4995" y2="330.5495"/><line style="stroke:#181818;stroke-width:1;" x1="1238.629" x2="1244.9136" y1="337.8563" y2="332.9062"/><line style="stroke:#181818;stroke-width:1;" x1="1242.3901" x2="1237.44" y1="336.1668" y2="329.8822"/><line style="stroke:#181818;stroke-width:1;" x1="1207.9897" x2="1204.1947" y1="985.2526" y2="994.5045"/><line style="stroke:#181818;stroke-width:1;" x1="1207.9897" x2="1198.0453" y1="985.2526" y2="984.1999"/><line style="stroke:#181818;stroke-width:1;" x1="1207.9897" x2="1201.12" y1="985.2526" y2="989.3522"/><ellipse cx="1213.142" cy="982.1779" fill="none" rx="4" ry="4" style="stroke:#181818;stroke-width:1;"/><text fill="#000000" font-family="sans-serif" font-size="13" lengthAdjust="spacing" textLength="81.6563" x="1341.2595" y="687.2705">The dataset is</text><text fill="#000000" font-family="sans-serif" font-size="13" lengthAdjust="spacing" textLength="70.0972" x="1348.845" y="704.5615">the set of all</text><text fill="#000000" font-family="sans-serif" font-size="13" lengthAdjust="spacing" textLength="114.1753" x="1328.6118" y="721.8525">media of the project</text></g><!--link Dataset to DatasetView--><g class="link" data-entity-1="Dataset" data-entity-2="DatasetView" data-source-line="119" data-uid="lnk29" id="link_Dataset_DatasetView"><path codeLine="119" d="M1213.766,337.9598 C1204.746,404.5398 1182.2965,570.1051 1171.8565,647.1651" fill="none" id="Dataset-DatasetView" style="stroke:#181818;stroke-width:1;"/><line style="stroke:#181818;stroke-width:1;" x1="1210.3392" x2="1218.2668" y1="333.459" y2="334.533"/><line style="stroke:#181818;stroke-width:1;" x1="1209.9365" x2="1217.864" y1="336.4318" y2="337.5058"/><line style="stroke:#181818;stroke-width:1;" x1="1213.766" x2="1214.84" y1="337.9598" y2="330.0322"/><line style="stroke:#181818;stroke-width:1;" x1="1170.514" x2="1175.3857" y1="657.0746" y2="665.8077"/><line style="stroke:#181818;stroke-width:1;" x1="1170.514" x2="1163.4943" y1="657.0746" y2="664.1967"/><line style="stroke:#181818;stroke-width:1;" x1="1170.514" x2="1169.44" y1="657.0746" y2="665.0022"/><ellipse cx="1171.3195" cy="651.1289" fill="none" rx="4" ry="4" style="stroke:#181818;stroke-width:1;"/></g><!--link DatasetItem to Annotation--><g class="link" data-entity-1="DatasetItem" data-entity-2="Annotation" data-source-line="120" data-uid="lnk30" id="link_DatasetItem_Annotation"><path codeLine="120" d="M1070.0122,1055.6128 C1032.1122,1076.9928 993.83,1106.1022 972,1150.2422 C959.46,1175.5822 957.4993,1192.1862 961.0093,1218.2662" fill="none" id="DatasetItem-Annotation" style="stroke:#181818;stroke-width:1;"/><line style="stroke:#181818;stroke-width:1;" x1="1071.5308" x2="1075.4614" y1="1050.1636" y2="1057.1314"/><line style="stroke:#181818;stroke-width:1;" x1="1068.9179" x2="1072.8485" y1="1051.6376" y2="1058.6054"/><line style="stroke:#181818;stroke-width:1;" x1="1070.0122" x2="1076.98" y1="1055.6128" y2="1051.6822"/><line style="stroke:#181818;stroke-width:1;" x1="961.5428" x2="963.01" y1="1222.2305" y2="1233.1322"/><ellipse cx="961.5428" cy="1222.2305" fill="none" rx="4" ry="4" style="stroke:#181818;stroke-width:1;"/><line style="stroke:#181818;stroke-width:1;" x1="966.4407" x2="958.5122" y1="1228.6344" y2="1229.7015"/><text fill="#000000" font-family="sans-serif" font-size="13" lengthAdjust="spacing" textLength="182.8379" x="977.3323" y="1165.2705">Every media has an annotation,</text><text fill="#000000" font-family="sans-serif" font-size="13" lengthAdjust="spacing" textLength="187.8906" x="976.6118" y="1182.5615">or a model-generated prediction,</text><text fill="#000000" font-family="sans-serif" font-size="13" lengthAdjust="spacing" textLength="110.5762" x="1015.269" y="1199.8525">or it is unannotated</text></g><!--link DatasetItem to Source --><g class="link" data-entity-1="DatasetItem" data-entity-2="Source " data-source-line="121" data-uid="lnk32" id="link_DatasetItem_Source "><path codeLine="121" d="M1167.1207,1137.8884 C1169.1807,1147.9784 1167.46,1140.4722 1169,1150.2422 C1183.31,1241.1722 1188.0388,1335.822 1189.7388,1382.912" fill="none" id="DatasetItem-Source " style="stroke:#181818;stroke-width:1;"/><line style="stroke:#181818;stroke-width:1;" x1="1165.1203" x2="1157.6413" y1="1128.0905" y2="1121.4524"/><line style="stroke:#181818;stroke-width:1;" x1="1165.1203" x2="1169.3987" y1="1128.0905" y2="1119.052"/><line style="stroke:#181818;stroke-width:1;" x1="1165.1203" x2="1163.52" y1="1128.0905" y2="1120.2522"/><ellipse cx="1166.3205" cy="1133.9692" fill="none" rx="4" ry="4" style="stroke:#181818;stroke-width:1;"/><line style="stroke:#181818;stroke-width:1;" x1="1189.8831" x2="1190.28" y1="1386.9093" y2="1397.9022"/><ellipse cx="1189.8831" cy="1386.9093" fill="none" rx="4" ry="4" style="stroke:#181818;stroke-width:1;"/><line style="stroke:#181818;stroke-width:1;" x1="1194.1331" x2="1186.1383" y1="1393.7605" y2="1394.0491"/><text fill="#000000" font-family="sans-serif" font-size="13" lengthAdjust="spacing" textLength="135.1289" x="1188" y="1273.7705">Each media is acquired</text><text fill="#000000" font-family="sans-serif" font-size="13" lengthAdjust="spacing" textLength="98.2554" x="1208.2427" y="1291.0615">from a source, or</text><text fill="#000000" font-family="sans-serif" font-size="13" lengthAdjust="spacing" textLength="121.4243" x="1196.6582" y="1308.3525">uploaded by the user</text></g><!--link DatasetView to DatasetItem--><g class="link" data-entity-1="DatasetView" data-entity-2="DatasetItem" data-source-line="122" data-uid="lnk33" id="link_DatasetView_DatasetItem"><path codeLine="122" d="M1161.7151,740.2662 C1158.1251,784.6562 1153.6233,840.181 1148.3533,905.241" fill="none" id="DatasetView-DatasetItem" style="stroke:#181818;stroke-width:1;"/><line style="stroke:#181818;stroke-width:1;" x1="1158.0506" x2="1166.0245" y1="735.9567" y2="736.6016"/><line style="stroke:#181818;stroke-width:1;" x1="1157.8087" x2="1165.7827" y1="738.947" y2="739.5919"/><line style="stroke:#181818;stroke-width:1;" x1="1161.7151" x2="1162.36" y1="740.2662" y2="732.2922"/><line style="stroke:#181818;stroke-width:1;" x1="1147.5459" x2="1152.8804" y1="915.2083" y2="923.6666"/><line style="stroke:#181818;stroke-width:1;" x1="1147.5459" x2="1140.9196" y1="915.2083" y2="922.6978"/><line style="stroke:#181818;stroke-width:1;" x1="1147.5459" x2="1146.9" y1="915.2083" y2="923.1822"/><ellipse cx="1148.0303" cy="909.2279" fill="none" rx="4" ry="4" style="stroke:#181818;stroke-width:1;"/><text fill="#000000" font-family="sans-serif" font-size="13" lengthAdjust="spacing" textLength="136.5571" x="1158.7173" y="825.7705">A view is a set of media</text><text fill="#000000" font-family="sans-serif" font-size="13" lengthAdjust="spacing" textLength="134.3799" x="1161.6118" y="843.0615">filtered by some criteria</text></g><!--link ModelRevision to ModelRevision--><g class="link" data-entity-1="ModelRevision" data-entity-2="ModelRevision" data-source-line="124" data-uid="lnk34" id="link_ModelRevision_ModelRevision"><path codeLine="124" d="M781.0634,513.7676 C801.0434,515.0576 808,520.7022 808,531.7422 C808,542.7822 811.0226,547.7824 791.0426,549.0724" fill="none" id="ModelRevision-ModelRevision" style="stroke:#181818;stroke-width:1;"/><line style="stroke:#181818;stroke-width:1;" x1="776.814" x2="777.3294" y1="517.5016" y2="509.5182"/><line style="stroke:#181818;stroke-width:1;" x1="779.8077" x2="780.3232" y1="517.6949" y2="509.7115"/><line style="stroke:#181818;stroke-width:1;" x1="781.0634" x2="773.08" y1="513.7676" y2="513.2522"/><line style="stroke:#181818;stroke-width:1;" x1="781.0634" x2="773.4666" y1="549.7167" y2="556.2197"/><line style="stroke:#181818;stroke-width:1;" x1="781.0634" x2="772.6934" y1="549.7167" y2="544.2447"/><line style="stroke:#181818;stroke-width:1;" x1="781.0634" x2="773.08" y1="549.7167" y2="550.2322"/><ellipse cx="787.0509" cy="549.3302" fill="none" rx="4" ry="4" style="stroke:#181818;stroke-width:1;"/><text fill="#000000" font-family="sans-serif" font-size="13" lengthAdjust="spacing" textLength="150.2871" x="822.3218" y="520.2705">New revisions are created</text><text fill="#000000" font-family="sans-serif" font-size="13" lengthAdjust="spacing" textLength="159.707" x="817.6118" y="537.5615">after fine-tuning the weights</text><text fill="#000000" font-family="sans-serif" font-size="13" lengthAdjust="spacing" textLength="121.4053" x="838.5686" y="554.8525">of the parent revision</text></g><!--link ModelRevision to Annotation--><g class="link" data-entity-1="ModelRevision" data-entity-2="Annotation" data-source-line="125" data-uid="lnk35" id="link_ModelRevision_Annotation"><path codeLine="125" d="M786.5147,571.732 C838.7847,598.562 884,635.6322 884,697.7422 C884,697.7422 884,697.7422 884,1022.7422 C884,1099.1722 910.8296,1165.5547 937.4396,1216.9947" fill="none" id="ModelRevision-Annotation" style="stroke:#181818;stroke-width:1;"/><line style="stroke:#181818;stroke-width:1;" x1="782.9561" x2="773.17" y1="569.9054" y2="564.8822"/><ellipse cx="782.9561" cy="569.9054" fill="none" rx="4" ry="4" style="stroke:#181818;stroke-width:1;"/><line style="stroke:#181818;stroke-width:1;" x1="774.902" x2="778.5552" y1="570.2674" y2="563.1502"/><line style="stroke:#181818;stroke-width:1;" x1="942.0343" x2="951.0392" y1="1225.8766" y2="1230.2254"/><line style="stroke:#181818;stroke-width:1;" x1="942.0343" x2="940.3808" y1="1225.8766" y2="1235.739"/><line style="stroke:#181818;stroke-width:1;" x1="942.0343" x2="945.71" y1="1225.8766" y2="1232.9822"/><ellipse cx="939.2775" cy="1220.5474" fill="none" rx="4" ry="4" style="stroke:#181818;stroke-width:1;"/><text fill="#000000" font-family="sans-serif" font-size="13" lengthAdjust="spacing" textLength="163.3188" x="885" y="834.2705">Models generate predictions</text></g><!--link ModelRevision to LabelSchemaRevision--><g class="link" data-entity-1="ModelRevision" data-entity-2="LabelSchemaRevision" data-source-line="126" data-uid="lnk36" id="link_ModelRevision_LabelSchemaRevision"><path codeLine="126" d="M740.2655,599.6597 C757.8155,629.6997 770,660.6022 770,697.7422 C770,697.7422 770,697.7422 770,1022.7422 C770,1105.1722 766.8112,1194.169 764.7612,1243.639" fill="none" id="ModelRevision-LabelSchemaRevision" style="stroke:#181818;stroke-width:1;"/><line style="stroke:#181818;stroke-width:1;" x1="734.794" x2="741.7016" y1="598.2237" y2="594.1882"/><line style="stroke:#181818;stroke-width:1;" x1="736.3073" x2="743.2149" y1="600.8141" y2="596.7785"/><line style="stroke:#181818;stroke-width:1;" x1="740.2655" x2="736.23" y1="599.6597" y2="592.7522"/><line style="stroke:#181818;stroke-width:1;" x1="768.5922" x2="760.599" y1="1247.8012" y2="1247.47"/><line style="stroke:#181818;stroke-width:1;" x1="768.7164" x2="760.7233" y1="1244.8038" y2="1244.4726"/><line style="stroke:#181818;stroke-width:1;" x1="764.7612" x2="764.43" y1="1243.639" y2="1251.6322"/></g><!--link ModelRevision to DatasetRevision--><g class="link" data-entity-1="ModelRevision" data-entity-2="DatasetRevision" data-source-line="127" data-uid="lnk37" id="link_ModelRevision_DatasetRevision"><path codeLine="127" d="M605.8343,584.1786 C530.7643,629.0786 437,687.1322 437,697.7422 C437,697.7422 437,697.7422 437,1022.7422 C437,1105.1522 435.1791,1194.1544 434.0091,1243.6344" fill="none" id="ModelRevision-DatasetRevision" style="stroke:#181818;stroke-width:1;"/><line style="stroke:#181818;stroke-width:1;" x1="607.214" x2="611.3204" y1="578.6926" y2="585.5582"/><line style="stroke:#181818;stroke-width:1;" x1="604.6393" x2="608.7457" y1="580.2325" y2="587.0981"/><line style="stroke:#181818;stroke-width:1;" x1="605.8343" x2="612.7" y1="584.1786" y2="580.0722"/><line style="stroke:#181818;stroke-width:1;" x1="437.9134" x2="429.9157" y1="1247.7279" y2="1247.5387"/><line style="stroke:#181818;stroke-width:1;" x1="437.9844" x2="429.9866" y1="1244.7287" y2="1244.5396"/><line style="stroke:#181818;stroke-width:1;" x1="434.0091" x2="433.82" y1="1243.6344" y2="1251.6322"/></g><!--link ModelRevision to EvaluationResult--><g class="link" data-entity-1="ModelRevision" data-entity-2="EvaluationResult" data-source-line="128" data-uid="lnk38" id="link_ModelRevision_EvaluationResult"><path codeLine="128" d="M618.9666,598.8508 C600.4366,619.1508 588.13,637.3722 578,663.2422 C561.07,706.4622 562.9928,753.1684 567.4128,787.3084" fill="none" id="ModelRevision-EvaluationResult" style="stroke:#181818;stroke-width:1;"/><line style="stroke:#181818;stroke-width:1;" x1="618.709" x2="624.6176" y1="593.1998" y2="598.5932"/><line style="stroke:#181818;stroke-width:1;" x1="616.6865" x2="622.5951" y1="595.4155" y2="600.8089"/><line style="stroke:#181818;stroke-width:1;" x1="618.9666" x2="624.36" y1="598.8508" y2="592.9422"/><line style="stroke:#181818;stroke-width:1;" x1="571.8933" x2="563.9595" y1="790.7617" y2="791.7889"/><line style="stroke:#181818;stroke-width:1;" x1="571.5081" x2="563.5743" y1="787.7865" y2="788.8137"/><line style="stroke:#181818;stroke-width:1;" x1="567.4128" x2="568.44" y1="787.3084" y2="795.2422"/><text fill="#000000" font-family="sans-serif" font-size="13" lengthAdjust="spacing" textLength="120.6816" x="598.8682" y="678.2705">A model is evaluated</text><text fill="#000000" font-family="sans-serif" font-size="13" lengthAdjust="spacing" textLength="142.3208" x="589.8545" y="695.5615">with one or more metrics</text><text fill="#000000" font-family="sans-serif" font-size="13" lengthAdjust="spacing" textLength="156.8062" x="582.6118" y="712.8525">on a specific revision of the</text><text fill="#000000" font-family="sans-serif" font-size="13" lengthAdjust="spacing" textLength="105.5234" x="610.0591" y="730.1436">dataset and labels</text></g><!--link EvaluationResult to LabelSchemaRevision--><g class="link" data-entity-1="EvaluationResult" data-entity-2="LabelSchemaRevision" data-source-line="129" data-uid="lnk39" id="link_EvaluationResult_LabelSchemaRevision"><path codeLine="129" d="M592.1459,869.7207 C596.4459,879.3007 597.83,882.5222 602,892.2422 C658.88,1024.7522 720.071,1176.7135 747.021,1244.1435" fill="none" id="EvaluationResult-LabelSchemaRevision" style="stroke:#181818;stroke-width:1;"/><line style="stroke:#181818;stroke-width:1;" x1="586.8587" x2="594.1572" y1="867.7094" y2="864.4335"/><line style="stroke:#181818;stroke-width:1;" x1="588.0872" x2="595.3857" y1="870.4464" y2="867.1704"/><line style="stroke:#181818;stroke-width:1;" x1="592.1459" x2="588.87" y1="869.7207" y2="862.4222"/><line style="stroke:#181818;stroke-width:1;" x1="752.2198" x2="744.7912" y1="1246.3733" y2="1249.3424"/><line style="stroke:#181818;stroke-width:1;" x1="751.1064" x2="743.6778" y1="1243.5876" y2="1246.5566"/><line style="stroke:#181818;stroke-width:1;" x1="747.021" x2="749.99" y1="1244.1435" y2="1251.5722"/></g><!--link EvaluationResult to DatasetRevision--><g class="link" data-entity-1="EvaluationResult" data-entity-2="DatasetRevision" data-source-line="130" data-uid="lnk40" id="link_EvaluationResult_DatasetRevision"><path codeLine="130" d="M562.9331,870.1543 C544.9431,935.3843 504.61,1078.4222 463,1203.2422 C457.64,1219.3222 453.9968,1229.4983 448.4368,1244.2183" fill="none" id="EvaluationResult-DatasetRevision" style="stroke:#181818;stroke-width:1;"/><line style="stroke:#181818;stroke-width:1;" x1="560.1405" x2="567.8526" y1="865.2348" y2="867.3617"/><line style="stroke:#181818;stroke-width:1;" x1="559.3429" x2="567.055" y1="868.1268" y2="870.2537"/><line style="stroke:#181818;stroke-width:1;" x1="562.9331" x2="565.06" y1="870.1543" y2="862.4422"/><line style="stroke:#181818;stroke-width:1;" x1="450.7654" x2="443.2814" y1="1249.3736" y2="1246.5468"/><line style="stroke:#181818;stroke-width:1;" x1="451.8254" x2="444.3415" y1="1246.5672" y2="1243.7403"/><line style="stroke:#181818;stroke-width:1;" x1="448.4368" x2="445.61" y1="1244.2183" y2="1251.7022"/></g><!--link EvaluationResult to MetricScore--><g class="link" data-entity-1="EvaluationResult" data-entity-2="MetricScore" data-source-line="131" data-uid="lnk41" id="link_EvaluationResult_MetricScore"><path codeLine="131" d="M575.3439,870.4278 C578.0139,951.3278 584.3961,1144.8665 587.3561,1234.5365" fill="none" id="EvaluationResult-MetricScore" style="stroke:#181818;stroke-width:1;"/><line style="stroke:#181818;stroke-width:1;" x1="571.2141" x2="579.2098" y1="866.562" y2="866.2981"/><line style="stroke:#181818;stroke-width:1;" x1="571.3131" x2="579.3087" y1="869.5603" y2="869.2964"/><line style="stroke:#181818;stroke-width:1;" x1="575.3439" x2="575.08" y1="870.4278" y2="862.4322"/><line style="stroke:#181818;stroke-width:1;" x1="587.3561" x2="593.6167" y1="1234.5365" y2="1242.3342"/><line style="stroke:#181818;stroke-width:1;" x1="587.3561" x2="581.6233" y1="1234.5365" y2="1242.7301"/><line style="stroke:#181818;stroke-width:1;" x1="587.3561" x2="587.62" y1="1234.5365" y2="1242.5322"/><line style="stroke:#181818;stroke-width:1;" x1="591.2879" x2="583.2923" y1="1232.4057" y2="1232.6696"/></g><!--SRC=[bLTDR-Cs4BthLt3Lmsw0E45xw24m3BWRP-4YNnixHO6cC6XfRBEXI5UaRAl9_lVEaA8jMNOscvD93j-RUVD1vKCACw60WRB2bfys9ooHt1YsOTqk-pGu_Udggez_9wpNYpvKjijdikiMlKttlEX54TwK47MD-0ykVlwrrvtsle0LR5oWROTzrjbIWWKsS1IT1v3S2gtCGYpPfU3pd6VTysclUqu0lO3pIszK6WkPloR0CAvILhzimWt00-z355LntEVw7qZi2Nk96FahqXDsmHuVXvUuLZm3N8q7VuxPu-tmw-CW-XP57zcOcsUM4mEaNX2Y3Jy2z3MVWXmb2yYuXxTuRMBBPS34BTWaiZ1Y1HD9rWPFVhkxknxqRucf3VG0As4mB0zuTdQsR_RTG72LQAdptNAXxJEKOUq27AePvA0Ik1TBa9JA_MW3QSlIEo3C92-K4cf-CAAHBl84tYqwOyPTs1ClqMecvfEKMuwRlu_k6XH2FVy80Ph_2FmbxdxMKcBjO3hkjHH9-Hxjbyxo-qnO6efF9IhUqEyZ8s83rXNv3QI2jr9IMQ0tJNTnxmy1wqDUjWpVghFAP8Wzzvw8PphFkDsjroAr2rmERyU3BuC7Aa0GyuLjR56_DZUAAKMzHR5yJiroFHoD_wAjlsiEzfNIrdN_OV-QEXS6yacEySAwhVQDJa4UBNvtsfHgduldoK9Oh98YhsbYqBt2rAB9kQ1ccMHWSv6OThqDLbmMBgO7C8MqRsVnni6C4frNJUPnT_nqSi6khk_wLSStvcLKJKNs-jhflBwosW12hhZFbjMvqN95as_34ojBfd5Gq92Bzm7QymHX1ZnPR97yYs6Oi8RfjMBBOFYahAuQX2Iq2_3vcqczRl64va3qy1F5p_19mAjJNQZqIJ748vJ0Z4jGfi8kyNp1Lq2CHk2peYppaxd9fLzO8_d4-8Y5P5Z2bKydop1D0byq385bP6omzkq2JqYdYZwEehgwBeuNBxYNclGCwZpvgpYyCypVrh5zW4FELK0PBtryJpN_l7FeIJjDbQv-NbUv3sSBRfmxVZR71sv_q_uspjPZT_4eFiABOHoQidj8557YJLnXO61JJ7oAyBi8anpB81SyFXxY0SMs73WYWlPEA_oDKus9W8NIXN8ZjE1vDIGHQrnLhIj8G-9J1T9ApnYNqgN33NDSruepFePBWpogSNZ1NjbkzBaEMq5ULi2aE9OctngSKaGvupwapXmKv6xABNEyaDHCX7EwKDLTIEC6DMMPkEEgIk9jStjclCkJVmk1i2HShZCazKLpYl2uLoobvYbIJqiNFOtaBGU5UaJMFgEfxGY2c8wIQ8J4Z7j8exDw2KJDL0VeLW7S8dHUhVq4INAWy16Upn2CKLDsRE4-SyZljNl8N7v37l4QZf004-zpQy_TJDkD7nOX8xM4cFYGyyq97SwEMEuzy4UizfyRtn2kKaXkyCSeBuPAGwqnby8Zvbg6KhE4HCn4ifKXg8C6QUrp9iop5lbRKHurtW_qY24cVlTOqak84zgmjCYoac5IC2g5Bnjiy35mJO_9iBQilceiPZvoLX9chlvQyyNzqq4cqVy0]--></g></svg>