<svg xmlns="http://www.w3.org/2000/svg" xmlns:xlink="http://www.w3.org/1999/xlink" contentStyleType="text/css" data-diagram-type="CLASS" height="2071px" preserveAspectRatio="none" style="width:1779px;height:2071px;background:#FFFFFF;" version="1.1" viewBox="0 0 1779 2071" width="1779px" zoomAndPan="magnify"><title>&lt;size:16&gt;&lt;b&gt;Geti Tune - Complete Entity-Relationship Diagram&lt;/b&gt;&lt;/size&gt;</title><defs/><g><g class="title" data-source-line="4"><text fill="#000000" font-family="sans-serif" font-size="16" font-weight="bold" lengthAdjust="spacing" textLength="379.5938" x="693.0615" y="27.2656">Geti Tune - Complete Entity-Relationship Diagram</text><text fill="#000000" font-family="sans-serif" font-size="12" font-weight="bold" lengthAdjust="spacing" textLength="196.0488" x="784.834" y="44.2305">System Entities and Relationships</text></g><!--class Project--><g class="entity" data-entity="Project" data-source-line="10" data-uid="ent0002" id="entity_Project"><rect fill="#F1F1F1" height="85.2422" rx="2.5" ry="2.5" style="stroke:#181818;stroke-width:0.5;" width="152.8066" x="728" y="65.2422"/><ellipse cx="778.3672" cy="81.2422" fill="#FFAAAA" rx="11" ry="11" style="stroke:#181818;stroke-width:1;"/><path d="M777.2266,82.0391 L777.2266,84.5391 L781.5547,84.5391 L781.5547,83.6172 Q781.5547,83.0078 781.7891,82.7422 Q782.0391,82.4766 782.4141,82.4766 Q782.7891,82.4766 783.0234,82.7422 Q783.2578,83.0078 783.2578,83.6172 L783.2578,86.2422 L775.2578,86.2422 Q774.6328,86.2422 774.3672,86.0078 Q774.1172,85.7734 774.1172,85.3828 Q774.1172,85.0078 774.3828,84.7734 Q774.6484,84.5391 775.2578,84.5391 L775.5234,84.5391 L775.5234,77.8828 L775.2578,77.8828 Q774.6328,77.8828 774.3672,77.6484 Q774.1172,77.4141 774.1172,77.0234 Q774.1172,76.6484 774.3672,76.4141 Q774.6328,76.1797 775.2578,76.1797 L782.8828,76.1797 L782.8828,78.7734 Q782.8828,79.3828 782.6484,79.6484 Q782.4297,79.8984 782.0391,79.8984 Q781.6641,79.8984 781.4297,79.6484 Q781.1953,79.3828 781.1953,78.7734 L781.1953,77.8828 L777.2266,77.8828 L777.2266,80.3359 L778.7109,80.3359 Q778.7109,79.6797 778.8359,79.4922 Q779.1016,79.0859 779.5703,79.0859 Q779.9453,79.0859 780.1797,79.3516 Q780.4141,79.6016 780.4141,80.2109 L780.4141,82.1797 Q780.4141,82.7266 780.2891,82.9141 Q780.0234,83.3047 779.5703,83.3047 Q779.1016,83.3047 778.8359,82.8984 Q778.7109,82.7109 778.7109,82.0391 L777.2266,82.0391 Z " fill="#000000"/><text fill="#000000" font-family="sans-serif" font-size="14" lengthAdjust="spacing" textLength="43.5723" x="798.8672" y="87.0391">Project</text><line style="stroke:#181818;stroke-width:0.5;" x1="729" x2="879.8066" y1="97.2422" y2="97.2422"/><text fill="#000000" font-family="sans-serif" font-size="14" lengthAdjust="spacing" text-decoration="underline" textLength="10.8965" x="734" y="116.3496">id</text><text fill="#000000" font-family="sans-serif" font-size="14" lengthAdjust="spacing" textLength="42" x="748.7861" y="116.3496">: UUID</text><text fill="#000000" font-family="sans-serif" font-size="14" lengthAdjust="spacing" textLength="140.8066" x="734" y="134.9707">name : TEXT UNIQUE</text><line style="stroke:#181818;stroke-width:0.5;" x1="729" x2="879.8066" y1="142.4844" y2="142.4844"/></g><!--class LabelSchema--><g class="entity" data-entity="LabelSchema" data-source-line="16" data-uid="ent0003" id="entity_LabelSchema"><rect fill="#F1F1F1" height="85.2422" rx="2.5" ry="2.5" style="stroke:#181818;stroke-width:0.5;" width="193.3027" x="963" y="263.2422"/><ellipse cx="1012.5947" cy="279.2422" fill="#FFAAAA" rx="11" ry="11" style="stroke:#181818;stroke-width:1;"/><path d="M1011.4541,280.0391 L1011.4541,282.5391 L1015.7822,282.5391 L1015.7822,281.6172 Q1015.7822,281.0078 1016.0166,280.7422 Q1016.2666,280.4766 1016.6416,280.4766 Q1017.0166,280.4766 1017.251,280.7422 Q1017.4854,281.0078 1017.4854,281.6172 L1017.4854,284.2422 L1009.4854,284.2422 Q1008.8604,284.2422 1008.5947,284.0078 Q1008.3447,283.7734 1008.3447,283.3828 Q1008.3447,283.0078 1008.6104,282.7734 Q1008.876,282.5391 1009.4854,282.5391 L1009.751,282.5391 L1009.751,275.8828 L1009.4854,275.8828 Q1008.8604,275.8828 1008.5947,275.6484 Q1008.3447,275.4141 1008.3447,275.0234 Q1008.3447,274.6484 1008.5947,274.4141 Q1008.8604,274.1797 1009.4854,274.1797 L1017.1104,274.1797 L1017.1104,276.7734 Q1017.1104,277.3828 1016.876,277.6484 Q1016.6572,277.8984 1016.2666,277.8984 Q1015.8916,277.8984 1015.6572,277.6484 Q1015.4229,277.3828 1015.4229,276.7734 L1015.4229,275.8828 L1011.4541,275.8828 L1011.4541,278.3359 L1012.9385,278.3359 Q1012.9385,277.6797 1013.0635,277.4922 Q1013.3291,277.0859 1013.7979,277.0859 Q1014.1729,277.0859 1014.4072,277.3516 Q1014.6416,277.6016 1014.6416,278.2109 L1014.6416,280.1797 Q1014.6416,280.7266 1014.5166,280.9141 Q1014.251,281.3047 1013.7979,281.3047 Q1013.3291,281.3047 1013.0635,280.8984 Q1012.9385,280.7109 1012.9385,280.0391 L1011.4541,280.0391 Z " fill="#000000"/><text fill="#000000" font-family="sans-serif" font-size="14" lengthAdjust="spacing" textLength="85.6133" x="1033.0947" y="285.0391">LabelSchema</text><line style="stroke:#181818;stroke-width:0.5;" x1="964" x2="1155.3027" y1="295.2422" y2="295.2422"/><text fill="#000000" font-family="sans-serif" font-size="14" lengthAdjust="spacing" textLength="107.3721" x="969" y="314.3496">task_type : TEXT</text><text fill="#000000" font-family="sans-serif" font-size="14" lengthAdjust="spacing" textLength="181.3027" x="969" y="332.9707">exclusive_labels : BOOLEAN</text><line style="stroke:#181818;stroke-width:0.5;" x1="964" x2="1155.3027" y1="340.4844" y2="340.4844"/></g><!--class LabelSchemaRevision--><g class="entity" data-entity="LabelSchemaRevision" data-source-line="21" data-uid="ent0004" id="entity_LabelSchemaRevision"><rect fill="#F1F1F1" height="66.6211" rx="2.5" ry="2.5" style="stroke:#181818;stroke-width:0.5;" width="171.3027" x="314" y="1251.7422"/><ellipse cx="329" cy="1267.7422" fill="#FFAAAA" rx="11" ry="11" style="stroke:#181818;stroke-width:1;"/><path d="M327.8594,1268.5391 L327.8594,1271.0391 L332.1875,1271.0391 L332.1875,1270.1172 Q332.1875,1269.5078 332.4219,1269.2422 Q332.6719,1268.9766 333.0469,1268.9766 Q333.4219,1268.9766 333.6563,1269.2422 Q333.8906,1269.5078 333.8906,1270.1172 L333.8906,1272.7422 L325.8906,1272.7422 Q325.2656,1272.7422 325,1272.5078 Q324.75,1272.2734 324.75,1271.8828 Q324.75,1271.5078 325.0156,1271.2734 Q325.2813,1271.0391 325.8906,1271.0391 L326.1563,1271.0391 L326.1563,1264.3828 L325.8906,1264.3828 Q325.2656,1264.3828 325,1264.1484 Q324.75,1263.9141 324.75,1263.5234 Q324.75,1263.1484 325,1262.9141 Q325.2656,1262.6797 325.8906,1262.6797 L333.5156,1262.6797 L333.5156,1265.2734 Q333.5156,1265.8828 333.2813,1266.1484 Q333.0625,1266.3984 332.6719,1266.3984 Q332.2969,1266.3984 332.0625,1266.1484 Q331.8281,1265.8828 331.8281,1265.2734 L331.8281,1264.3828 L327.8594,1264.3828 L327.8594,1266.8359 L329.3438,1266.8359 Q329.3438,1266.1797 329.4688,1265.9922 Q329.7344,1265.5859 330.2031,1265.5859 Q330.5781,1265.5859 330.8125,1265.8516 Q331.0469,1266.1016 331.0469,1266.7109 L331.0469,1268.6797 Q331.0469,1269.2266 330.9219,1269.4141 Q330.6563,1269.8047 330.2031,1269.8047 Q329.7344,1269.8047 329.4688,1269.3984 Q329.3438,1269.2109 329.3438,1268.5391 L327.8594,1268.5391 Z " fill="#000000"/><text fill="#000000" font-family="sans-serif" font-size="14" lengthAdjust="spacing" textLength="139.3027" x="343" y="1273.5391">LabelSchemaRevision</text><line style="stroke:#181818;stroke-width:0.5;" x1="315" x2="484.3027" y1="1283.7422" y2="1283.7422"/><text fill="#000000" font-family="sans-serif" font-size="14" lengthAdjust="spacing" textLength="11.6689" x="320" y="1302.8496">...</text><line style="stroke:#181818;stroke-width:0.5;" x1="315" x2="484.3027" y1="1310.3633" y2="1310.3633"/></g><!--class Label--><g class="entity" data-entity="Label" data-source-line="25" data-uid="ent0005" id="entity_Label"><rect fill="#F1F1F1" height="122.4844" rx="2.5" ry="2.5" style="stroke:#181818;stroke-width:0.5;" width="100.6963" x="1009" y="470.7422"/><ellipse cx="1039.4986" cy="486.7422" fill="#FFAAAA" rx="11" ry="11" style="stroke:#181818;stroke-width:1;"/><path d="M1038.358,487.5391 L1038.358,490.0391 L1042.6861,490.0391 L1042.6861,489.1172 Q1042.6861,488.5078 1042.9205,488.2422 Q1043.1705,487.9766 1043.5455,487.9766 Q1043.9205,487.9766 1044.1549,488.2422 Q1044.3893,488.5078 1044.3893,489.1172 L1044.3893,491.7422 L1036.3893,491.7422 Q1035.7643,491.7422 1035.4986,491.5078 Q1035.2486,491.2734 1035.2486,490.8828 Q1035.2486,490.5078 1035.5143,490.2734 Q1035.7799,490.0391 1036.3893,490.0391 L1036.6549,490.0391 L1036.6549,483.3828 L1036.3893,483.3828 Q1035.7643,483.3828 1035.4986,483.1484 Q1035.2486,482.9141 1035.2486,482.5234 Q1035.2486,482.1484 1035.4986,481.9141 Q1035.7643,481.6797 1036.3893,481.6797 L1044.0143,481.6797 L1044.0143,484.2734 Q1044.0143,484.8828 1043.7799,485.1484 Q1043.5611,485.3984 1043.1705,485.3984 Q1042.7955,485.3984 1042.5611,485.1484 Q1042.3268,484.8828 1042.3268,484.2734 L1042.3268,483.3828 L1038.358,483.3828 L1038.358,485.8359 L1039.8424,485.8359 Q1039.8424,485.1797 1039.9674,484.9922 Q1040.233,484.5859 1040.7018,484.5859 Q1041.0768,484.5859 1041.3111,484.8516 Q1041.5455,485.1016 1041.5455,485.7109 L1041.5455,487.6797 Q1041.5455,488.2266 1041.4205,488.4141 Q1041.1549,488.8047 1040.7018,488.8047 Q1040.233,488.8047 1039.9674,488.3984 Q1039.8424,488.2109 1039.8424,487.5391 L1038.358,487.5391 Z " fill="#000000"/><text fill="#000000" font-family="sans-serif" font-size="14" lengthAdjust="spacing" textLength="34.2549" x="1056.9428" y="492.5391">Label</text><line style="stroke:#181818;stroke-width:0.5;" x1="1010" x2="1108.6963" y1="502.7422" y2="502.7422"/><text fill="#000000" font-family="sans-serif" font-size="14" lengthAdjust="spacing" text-decoration="underline" textLength="10.8965" x="1015" y="521.8496">id</text><text fill="#000000" font-family="sans-serif" font-size="14" lengthAdjust="spacing" textLength="42" x="1029.7861" y="521.8496">: UUID</text><text fill="#000000" font-family="sans-serif" font-size="14" lengthAdjust="spacing" textLength="82.4688" x="1015" y="540.4707">name : TEXT</text><text fill="#000000" font-family="sans-serif" font-size="14" lengthAdjust="spacing" textLength="77.793" x="1015" y="559.0918">color : TEXT</text><text fill="#000000" font-family="sans-serif" font-size="14" lengthAdjust="spacing" textLength="88.6963" x="1015" y="577.7129">hotkey : TEXT</text><line style="stroke:#181818;stroke-width:0.5;" x1="1010" x2="1108.6963" y1="585.2266" y2="585.2266"/></g><!--class InferencePipeline--><g class="entity" data-entity="InferencePipeline" data-source-line="33" data-uid="ent0006" id="entity_InferencePipeline"><rect fill="#F1F1F1" height="66.6211" rx="2.5" ry="2.5" style="stroke:#181818;stroke-width:0.5;" width="155.958" x="393.5" y="272.2422"/><ellipse cx="415.5976" cy="288.2422" fill="#FFAAAA" rx="11" ry="11" style="stroke:#181818;stroke-width:1;"/><path d="M414.457,289.0391 L414.457,291.5391 L418.7851,291.5391 L418.7851,290.6172 Q418.7851,290.0078 419.0195,289.7422 Q419.2695,289.4766 419.6445,289.4766 Q420.0195,289.4766 420.2539,289.7422 Q420.4882,290.0078 420.4882,290.6172 L420.4882,293.2422 L412.4882,293.2422 Q411.8632,293.2422 411.5976,293.0078 Q411.3476,292.7734 411.3476,292.3828 Q411.3476,292.0078 411.6132,291.7734 Q411.8789,291.5391 412.4882,291.5391 L412.7539,291.5391 L412.7539,284.8828 L412.4882,284.8828 Q411.8632,284.8828 411.5976,284.6484 Q411.3476,284.4141 411.3476,284.0234 Q411.3476,283.6484 411.5976,283.4141 Q411.8632,283.1797 412.4882,283.1797 L420.1132,283.1797 L420.1132,285.7734 Q420.1132,286.3828 419.8789,286.6484 Q419.6601,286.8984 419.2695,286.8984 Q418.8945,286.8984 418.6601,286.6484 Q418.4257,286.3828 418.4257,285.7734 L418.4257,284.8828 L414.457,284.8828 L414.457,287.3359 L415.9414,287.3359 Q415.9414,286.6797 416.0664,286.4922 Q416.332,286.0859 416.8007,286.0859 Q417.1757,286.0859 417.4101,286.3516 Q417.6445,286.6016 417.6445,287.2109 L417.6445,289.1797 Q417.6445,289.7266 417.5195,289.9141 Q417.2539,290.3047 416.8007,290.3047 Q416.332,290.3047 416.0664,289.8984 Q415.9414,289.7109 415.9414,289.0391 L414.457,289.0391 Z " fill="#000000"/><text fill="#000000" font-family="sans-serif" font-size="14" lengthAdjust="spacing" textLength="108.1855" x="431.1749" y="294.0391">InferencePipeline</text><line style="stroke:#181818;stroke-width:0.5;" x1="394.5" x2="548.458" y1="304.2422" y2="304.2422"/><text fill="#000000" font-family="sans-serif" font-size="14" lengthAdjust="spacing" textLength="143.958" x="399.5" y="323.3496">is_running : BOOLEAN</text><line style="stroke:#181818;stroke-width:0.5;" x1="394.5" x2="548.458" y1="330.8633" y2="330.8633"/></g><!--class Source--><g class="entity" data-entity="Source" data-source-line="37" data-uid="ent0007" id="entity_Source"><rect fill="#F1F1F1" height="122.4844" rx="2.5" ry="2.5" style="stroke:#181818;stroke-width:0.5;" width="152.8066" x="395" y="470.7422"/><ellipse cx="444.9741" cy="486.7422" fill="#FFAAAA" rx="11" ry="11" style="stroke:#181818;stroke-width:1;"/><path d="M443.8335,487.5391 L443.8335,490.0391 L448.1616,490.0391 L448.1616,489.1172 Q448.1616,488.5078 448.396,488.2422 Q448.646,487.9766 449.021,487.9766 Q449.396,487.9766 449.6304,488.2422 Q449.8647,488.5078 449.8647,489.1172 L449.8647,491.7422 L441.8647,491.7422 Q441.2397,491.7422 440.9741,491.5078 Q440.7241,491.2734 440.7241,490.8828 Q440.7241,490.5078 440.9897,490.2734 Q441.2554,490.0391 441.8647,490.0391 L442.1304,490.0391 L442.1304,483.3828 L441.8647,483.3828 Q441.2397,483.3828 440.9741,483.1484 Q440.7241,482.9141 440.7241,482.5234 Q440.7241,482.1484 440.9741,481.9141 Q441.2397,481.6797 441.8647,481.6797 L449.4897,481.6797 L449.4897,484.2734 Q449.4897,484.8828 449.2554,485.1484 Q449.0366,485.3984 448.646,485.3984 Q448.271,485.3984 448.0366,485.1484 Q447.8022,484.8828 447.8022,484.2734 L447.8022,483.3828 L443.8335,483.3828 L443.8335,485.8359 L445.3179,485.8359 Q445.3179,485.1797 445.4429,484.9922 Q445.7085,484.5859 446.1772,484.5859 Q446.5522,484.5859 446.7866,484.8516 Q447.021,485.1016 447.021,485.7109 L447.021,487.6797 Q447.021,488.2266 446.896,488.4141 Q446.6304,488.8047 446.1772,488.8047 Q445.7085,488.8047 445.4429,488.3984 Q445.3179,488.2109 445.3179,487.5391 L443.8335,487.5391 Z " fill="#000000"/><text fill="#000000" font-family="sans-serif" font-size="14" lengthAdjust="spacing" textLength="44.3584" x="465.4741" y="492.5391">Source</text><line style="stroke:#181818;stroke-width:0.5;" x1="396" x2="546.8066" y1="502.7422" y2="502.7422"/><text fill="#000000" font-family="sans-serif" font-size="14" lengthAdjust="spacing" text-decoration="underline" textLength="10.8965" x="401" y="521.8496">id</text><text fill="#000000" font-family="sans-serif" font-size="14" lengthAdjust="spacing" textLength="42" x="415.7861" y="521.8496">: UUID</text><text fill="#000000" font-family="sans-serif" font-size="14" lengthAdjust="spacing" textLength="140.8066" x="401" y="540.4707">name : TEXT UNIQUE</text><text fill="#000000" font-family="sans-serif" font-size="14" lengthAdjust="spacing" textLength="123.7168" x="401" y="559.0918">source_type : TEXT</text><text fill="#000000" font-family="sans-serif" font-size="14" lengthAdjust="spacing" textLength="121.3994" x="401" y="577.7129">config_data : JSON</text><line style="stroke:#181818;stroke-width:0.5;" x1="396" x2="546.8066" y1="585.2266" y2="585.2266"/></g><!--class Sink--><g class="entity" data-entity="Sink" data-source-line="44" data-uid="ent0008" id="entity_Sink"><rect fill="#F1F1F1" height="122.4844" rx="2.5" ry="2.5" style="stroke:#181818;stroke-width:0.5;" width="152.8066" x="7" y="470.7422"/><ellipse cx="65.5361" cy="486.7422" fill="#FFAAAA" rx="11" ry="11" style="stroke:#181818;stroke-width:1;"/><path d="M64.3955,487.5391 L64.3955,490.0391 L68.7236,490.0391 L68.7236,489.1172 Q68.7236,488.5078 68.958,488.2422 Q69.208,487.9766 69.583,487.9766 Q69.958,487.9766 70.1924,488.2422 Q70.4268,488.5078 70.4268,489.1172 L70.4268,491.7422 L62.4268,491.7422 Q61.8018,491.7422 61.5361,491.5078 Q61.2861,491.2734 61.2861,490.8828 Q61.2861,490.5078 61.5518,490.2734 Q61.8174,490.0391 62.4268,490.0391 L62.6924,490.0391 L62.6924,483.3828 L62.4268,483.3828 Q61.8018,483.3828 61.5361,483.1484 Q61.2861,482.9141 61.2861,482.5234 Q61.2861,482.1484 61.5361,481.9141 Q61.8018,481.6797 62.4268,481.6797 L70.0518,481.6797 L70.0518,484.2734 Q70.0518,484.8828 69.8174,485.1484 Q69.5986,485.3984 69.208,485.3984 Q68.833,485.3984 68.5986,485.1484 Q68.3643,484.8828 68.3643,484.2734 L68.3643,483.3828 L64.3955,483.3828 L64.3955,485.8359 L65.8799,485.8359 Q65.8799,485.1797 66.0049,484.9922 Q66.2705,484.5859 66.7393,484.5859 Q67.1143,484.5859 67.3486,484.8516 Q67.583,485.1016 67.583,485.7109 L67.583,487.6797 Q67.583,488.2266 67.458,488.4141 Q67.1924,488.8047 66.7393,488.8047 Q66.2705,488.8047 66.0049,488.3984 Q65.8799,488.2109 65.8799,487.5391 L64.3955,487.5391 Z " fill="#000000"/><text fill="#000000" font-family="sans-serif" font-size="14" lengthAdjust="spacing" textLength="27.2344" x="86.0361" y="492.5391">Sink</text><line style="stroke:#181818;stroke-width:0.5;" x1="8" x2="158.8066" y1="502.7422" y2="502.7422"/><text fill="#000000" font-family="sans-serif" font-size="14" lengthAdjust="spacing" text-decoration="underline" textLength="10.8965" x="13" y="521.8496">id</text><text fill="#000000" font-family="sans-serif" font-size="14" lengthAdjust="spacing" textLength="42" x="27.7861" y="521.8496">: UUID</text><text fill="#000000" font-family="sans-serif" font-size="14" lengthAdjust="spacing" textLength="140.8066" x="13" y="540.4707">name : TEXT UNIQUE</text><text fill="#000000" font-family="sans-serif" font-size="14" lengthAdjust="spacing" textLength="106.5928" x="13" y="559.0918">sink_type : TEXT</text><text fill="#000000" font-family="sans-serif" font-size="14" lengthAdjust="spacing" textLength="121.3994" x="13" y="577.7129">config_data : JSON</text><line style="stroke:#181818;stroke-width:0.5;" x1="8" x2="158.8066" y1="585.2266" y2="585.2266"/></g><!--class DataCollectionPolicy--><g class="entity" data-entity="DataCollectionPolicy" data-source-line="51" data-uid="ent0009" id="entity_DataCollectionPolicy"><rect fill="#F1F1F1" height="141.1055" rx="2.5" ry="2.5" style="stroke:#181818;stroke-width:0.5;" width="160.3926" x="195.5" y="461.2422"/><ellipse cx="210.5" cy="477.2422" fill="#FFAAAA" rx="11" ry="11" style="stroke:#181818;stroke-width:1;"/><path d="M209.3594,478.0391 L209.3594,480.5391 L213.6875,480.5391 L213.6875,479.6172 Q213.6875,479.0078 213.9219,478.7422 Q214.1719,478.4766 214.5469,478.4766 Q214.9219,478.4766 215.1563,478.7422 Q215.3906,479.0078 215.3906,479.6172 L215.3906,482.2422 L207.3906,482.2422 Q206.7656,482.2422 206.5,482.0078 Q206.25,481.7734 206.25,481.3828 Q206.25,481.0078 206.5156,480.7734 Q206.7813,480.5391 207.3906,480.5391 L207.6563,480.5391 L207.6563,473.8828 L207.3906,473.8828 Q206.7656,473.8828 206.5,473.6484 Q206.25,473.4141 206.25,473.0234 Q206.25,472.6484 206.5,472.4141 Q206.7656,472.1797 207.3906,472.1797 L215.0156,472.1797 L215.0156,474.7734 Q215.0156,475.3828 214.7813,475.6484 Q214.5625,475.8984 214.1719,475.8984 Q213.7969,475.8984 213.5625,475.6484 Q213.3281,475.3828 213.3281,474.7734 L213.3281,473.8828 L209.3594,473.8828 L209.3594,476.3359 L210.8438,476.3359 Q210.8438,475.6797 210.9688,475.4922 Q211.2344,475.0859 211.7031,475.0859 Q212.0781,475.0859 212.3125,475.3516 Q212.5469,475.6016 212.5469,476.2109 L212.5469,478.1797 Q212.5469,478.7266 212.4219,478.9141 Q212.1563,479.3047 211.7031,479.3047 Q211.2344,479.3047 210.9688,478.8984 Q210.8438,478.7109 210.8438,478.0391 L209.3594,478.0391 Z " fill="#000000"/><text fill="#000000" font-family="sans-serif" font-size="14" lengthAdjust="spacing" textLength="128.3926" x="224.5" y="483.0391">DataCollectionPolicy</text><line style="stroke:#181818;stroke-width:0.5;" x1="196.5" x2="354.8926" y1="493.2422" y2="493.2422"/><text fill="#000000" font-family="sans-serif" font-size="14" lengthAdjust="spacing" text-decoration="underline" textLength="10.8965" x="201.5" y="512.3496">id</text><text fill="#000000" font-family="sans-serif" font-size="14" lengthAdjust="spacing" textLength="42" x="216.2861" y="512.3496">: UUID</text><text fill="#000000" font-family="sans-serif" font-size="14" lengthAdjust="spacing" textLength="82.4688" x="201.5" y="530.9707">name : TEXT</text><text fill="#000000" font-family="sans-serif" font-size="14" lengthAdjust="spacing" textLength="117.4893" x="201.5" y="549.5918">policy_type : TEXT</text><text fill="#000000" font-family="sans-serif" font-size="14" lengthAdjust="spacing" textLength="121.3994" x="201.5" y="568.2129">config_data : JSON</text><text fill="#000000" font-family="sans-serif" font-size="14" lengthAdjust="spacing" textLength="129.1855" x="201.5" y="586.834">enabled : BOOLEAN</text><line style="stroke:#181818;stroke-width:0.5;" x1="196.5" x2="354.8926" y1="594.3477" y2="594.3477"/></g><!--class Dataset--><g class="entity" data-entity="Dataset" data-source-line="60" data-uid="ent0010" id="entity_Dataset"><rect fill="#F1F1F1" height="48" rx="2.5" ry="2.5" style="stroke:#181818;stroke-width:0.5;" width="80.248" x="1242.5" y="281.7422"/><ellipse cx="1257.5" cy="297.7422" fill="#FFAAAA" rx="11" ry="11" style="stroke:#181818;stroke-width:1;"/><path d="M1256.3594,298.5391 L1256.3594,301.0391 L1260.6875,301.0391 L1260.6875,300.1172 Q1260.6875,299.5078 1260.9219,299.2422 Q1261.1719,298.9766 1261.5469,298.9766 Q1261.9219,298.9766 1262.1563,299.2422 Q1262.3906,299.5078 1262.3906,300.1172 L1262.3906,302.7422 L1254.3906,302.7422 Q1253.7656,302.7422 1253.5,302.5078 Q1253.25,302.2734 1253.25,301.8828 Q1253.25,301.5078 1253.5156,301.2734 Q1253.7813,301.0391 1254.3906,301.0391 L1254.6563,301.0391 L1254.6563,294.3828 L1254.3906,294.3828 Q1253.7656,294.3828 1253.5,294.1484 Q1253.25,293.9141 1253.25,293.5234 Q1253.25,293.1484 1253.5,292.9141 Q1253.7656,292.6797 1254.3906,292.6797 L1262.0156,292.6797 L1262.0156,295.2734 Q1262.0156,295.8828 1261.7813,296.1484 Q1261.5625,296.3984 1261.1719,296.3984 Q1260.7969,296.3984 1260.5625,296.1484 Q1260.3281,295.8828 1260.3281,295.2734 L1260.3281,294.3828 L1256.3594,294.3828 L1256.3594,296.8359 L1257.8438,296.8359 Q1257.8438,296.1797 1257.9688,295.9922 Q1258.2344,295.5859 1258.7031,295.5859 Q1259.0781,295.5859 1259.3125,295.8516 Q1259.5469,296.1016 1259.5469,296.7109 L1259.5469,298.6797 Q1259.5469,299.2266 1259.4219,299.4141 Q1259.1563,299.8047 1258.7031,299.8047 Q1258.2344,299.8047 1257.9688,299.3984 Q1257.8438,299.2109 1257.8438,298.5391 L1256.3594,298.5391 Z " fill="#000000"/><text fill="#000000" font-family="sans-serif" font-size="14" lengthAdjust="spacing" textLength="48.248" x="1271.5" y="303.5391">Dataset</text><line style="stroke:#181818;stroke-width:0.5;" x1="1243.5" x2="1321.748" y1="313.7422" y2="313.7422"/><line style="stroke:#181818;stroke-width:0.5;" x1="1243.5" x2="1321.748" y1="321.7422" y2="321.7422"/></g><!--class DatasetView--><g class="entity" data-entity="DatasetView" data-source-line="62" data-uid="ent0011" id="entity_DatasetView"><rect fill="#F1F1F1" height="66.6211" rx="2.5" ry="2.5" style="stroke:#181818;stroke-width:0.5;" width="110.5928" x="1346" y="665.2422"/><ellipse cx="1361" cy="681.2422" fill="#FFAAAA" rx="11" ry="11" style="stroke:#181818;stroke-width:1;"/><path d="M1359.8594,682.0391 L1359.8594,684.5391 L1364.1875,684.5391 L1364.1875,683.6172 Q1364.1875,683.0078 1364.4219,682.7422 Q1364.6719,682.4766 1365.0469,682.4766 Q1365.4219,682.4766 1365.6563,682.7422 Q1365.8906,683.0078 1365.8906,683.6172 L1365.8906,686.2422 L1357.8906,686.2422 Q1357.2656,686.2422 1357,686.0078 Q1356.75,685.7734 1356.75,685.3828 Q1356.75,685.0078 1357.0156,684.7734 Q1357.2813,684.5391 1357.8906,684.5391 L1358.1563,684.5391 L1358.1563,677.8828 L1357.8906,677.8828 Q1357.2656,677.8828 1357,677.6484 Q1356.75,677.4141 1356.75,677.0234 Q1356.75,676.6484 1357,676.4141 Q1357.2656,676.1797 1357.8906,676.1797 L1365.5156,676.1797 L1365.5156,678.7734 Q1365.5156,679.3828 1365.2813,679.6484 Q1365.0625,679.8984 1364.6719,679.8984 Q1364.2969,679.8984 1364.0625,679.6484 Q1363.8281,679.3828 1363.8281,678.7734 L1363.8281,677.8828 L1359.8594,677.8828 L1359.8594,680.3359 L1361.3438,680.3359 Q1361.3438,679.6797 1361.4688,679.4922 Q1361.7344,679.0859 1362.2031,679.0859 Q1362.5781,679.0859 1362.8125,679.3516 Q1363.0469,679.6016 1363.0469,680.2109 L1363.0469,682.1797 Q1363.0469,682.7266 1362.9219,682.9141 Q1362.6563,683.3047 1362.2031,683.3047 Q1361.7344,683.3047 1361.4688,682.8984 Q1361.3438,682.7109 1361.3438,682.0391 L1359.8594,682.0391 Z " fill="#000000"/><text fill="#000000" font-family="sans-serif" font-size="14" lengthAdjust="spacing" textLength="78.5928" x="1375" y="687.0391">DatasetView</text><line style="stroke:#181818;stroke-width:0.5;" x1="1347" x2="1455.5928" y1="697.2422" y2="697.2422"/><text fill="#000000" font-family="sans-serif" font-size="14" lengthAdjust="spacing" text-decoration="underline" textLength="10.8965" x="1352" y="716.3496">id</text><text fill="#000000" font-family="sans-serif" font-size="14" lengthAdjust="spacing" textLength="42" x="1366.7861" y="716.3496">: UUID</text><line style="stroke:#181818;stroke-width:0.5;" x1="1347" x2="1455.5928" y1="723.8633" y2="723.8633"/></g><!--class DatasetRevision--><g class="entity" data-entity="DatasetRevision" data-source-line="66" data-uid="ent0012" id="entity_DatasetRevision"><rect fill="#F1F1F1" height="66.6211" rx="2.5" ry="2.5" style="stroke:#181818;stroke-width:0.5;" width="133.9375" x="662.5" y="1251.7422"/><ellipse cx="677.5" cy="1267.7422" fill="#FFAAAA" rx="11" ry="11" style="stroke:#181818;stroke-width:1;"/><path d="M676.3594,1268.5391 L676.3594,1271.0391 L680.6875,1271.0391 L680.6875,1270.1172 Q680.6875,1269.5078 680.9219,1269.2422 Q681.1719,1268.9766 681.5469,1268.9766 Q681.9219,1268.9766 682.1563,1269.2422 Q682.3906,1269.5078 682.3906,1270.1172 L682.3906,1272.7422 L674.3906,1272.7422 Q673.7656,1272.7422 673.5,1272.5078 Q673.25,1272.2734 673.25,1271.8828 Q673.25,1271.5078 673.5156,1271.2734 Q673.7813,1271.0391 674.3906,1271.0391 L674.6563,1271.0391 L674.6563,1264.3828 L674.3906,1264.3828 Q673.7656,1264.3828 673.5,1264.1484 Q673.25,1263.9141 673.25,1263.5234 Q673.25,1263.1484 673.5,1262.9141 Q673.7656,1262.6797 674.3906,1262.6797 L682.0156,1262.6797 L682.0156,1265.2734 Q682.0156,1265.8828 681.7813,1266.1484 Q681.5625,1266.3984 681.1719,1266.3984 Q680.7969,1266.3984 680.5625,1266.1484 Q680.3281,1265.8828 680.3281,1265.2734 L680.3281,1264.3828 L676.3594,1264.3828 L676.3594,1266.8359 L677.8438,1266.8359 Q677.8438,1266.1797 677.9688,1265.9922 Q678.2344,1265.5859 678.7031,1265.5859 Q679.0781,1265.5859 679.3125,1265.8516 Q679.5469,1266.1016 679.5469,1266.7109 L679.5469,1268.6797 Q679.5469,1269.2266 679.4219,1269.4141 Q679.1563,1269.8047 678.7031,1269.8047 Q678.2344,1269.8047 677.9688,1269.3984 Q677.8438,1269.2109 677.8438,1268.5391 L676.3594,1268.5391 Z " fill="#000000"/><text fill="#000000" font-family="sans-serif" font-size="14" lengthAdjust="spacing" textLength="101.9375" x="691.5" y="1273.5391">DatasetRevision</text><line style="stroke:#181818;stroke-width:0.5;" x1="663.5" x2="795.4375" y1="1283.7422" y2="1283.7422"/><text fill="#000000" font-family="sans-serif" font-size="14" lengthAdjust="spacing" textLength="11.6689" x="668.5" y="1302.8496">...</text><line style="stroke:#181818;stroke-width:0.5;" x1="663.5" x2="795.4375" y1="1310.3633" y2="1310.3633"/></g><!--class Media--><g class="entity" data-entity="Media" data-source-line="70" data-uid="ent0013" id="entity_Media"><rect fill="#F1F1F1" height="178.3477" rx="2.5" ry="2.5" style="stroke:#181818;stroke-width:0.5;" width="124.041" x="1407.5" y="1398.2422"/><ellipse cx="1446.7596" cy="1414.2422" fill="#FFAAAA" rx="11" ry="11" style="stroke:#181818;stroke-width:1;"/><path d="M1445.6189,1415.0391 L1445.6189,1417.5391 L1449.9471,1417.5391 L1449.9471,1416.6172 Q1449.9471,1416.0078 1450.1814,1415.7422 Q1450.4314,1415.4766 1450.8064,1415.4766 Q1451.1814,1415.4766 1451.4158,1415.7422 Q1451.6502,1416.0078 1451.6502,1416.6172 L1451.6502,1419.2422 L1443.6502,1419.2422 Q1443.0252,1419.2422 1442.7596,1419.0078 Q1442.5096,1418.7734 1442.5096,1418.3828 Q1442.5096,1418.0078 1442.7752,1417.7734 Q1443.0408,1417.5391 1443.6502,1417.5391 L1443.9158,1417.5391 L1443.9158,1410.8828 L1443.6502,1410.8828 Q1443.0252,1410.8828 1442.7596,1410.6484 Q1442.5096,1410.4141 1442.5096,1410.0234 Q1442.5096,1409.6484 1442.7596,1409.4141 Q1443.0252,1409.1797 1443.6502,1409.1797 L1451.2752,1409.1797 L1451.2752,1411.7734 Q1451.2752,1412.3828 1451.0408,1412.6484 Q1450.8221,1412.8984 1450.4314,1412.8984 Q1450.0564,1412.8984 1449.8221,1412.6484 Q1449.5877,1412.3828 1449.5877,1411.7734 L1449.5877,1410.8828 L1445.6189,1410.8828 L1445.6189,1413.3359 L1447.1033,1413.3359 Q1447.1033,1412.6797 1447.2283,1412.4922 Q1447.4939,1412.0859 1447.9627,1412.0859 Q1448.3377,1412.0859 1448.5721,1412.3516 Q1448.8064,1412.6016 1448.8064,1413.2109 L1448.8064,1415.1797 Q1448.8064,1415.7266 1448.6814,1415.9141 Q1448.4158,1416.3047 1447.9627,1416.3047 Q1447.4939,1416.3047 1447.2283,1415.8984 Q1447.1033,1415.7109 1447.1033,1415.0391 L1445.6189,1415.0391 Z " fill="#000000"/><text fill="#000000" font-family="sans-serif" font-size="14" lengthAdjust="spacing" textLength="38.1309" x="1466.1506" y="1420.0391">Media</text><line style="stroke:#181818;stroke-width:0.5;" x1="1408.5" x2="1530.541" y1="1430.2422" y2="1430.2422"/><text fill="#000000" font-family="sans-serif" font-size="14" lengthAdjust="spacing" text-decoration="underline" textLength="10.8965" x="1413.5" y="1449.3496">id</text><text fill="#000000" font-family="sans-serif" font-size="14" lengthAdjust="spacing" textLength="42" x="1428.2861" y="1449.3496">: UUID</text><text fill="#000000" font-family="sans-serif" font-size="14" lengthAdjust="spacing" textLength="73.9102" x="1413.5" y="1467.9707">type : TEXT</text><text fill="#000000" font-family="sans-serif" font-size="14" lengthAdjust="spacing" textLength="82.4688" x="1413.5" y="1486.5918">name : TEXT</text><text fill="#000000" font-family="sans-serif" font-size="14" lengthAdjust="spacing" textLength="87.124" x="1413.5" y="1505.2129">format : TEXT</text><text fill="#000000" font-family="sans-serif" font-size="14" lengthAdjust="spacing" textLength="106.5791" x="1413.5" y="1523.834">width : INTEGER</text><text fill="#000000" font-family="sans-serif" font-size="14" lengthAdjust="spacing" textLength="112.041" x="1413.5" y="1542.4551">height : INTEGER</text><text fill="#000000" font-family="sans-serif" font-size="14" lengthAdjust="spacing" textLength="98.793" x="1413.5" y="1561.0762">size : INTEGER</text><line style="stroke:#181818;stroke-width:0.5;" x1="1408.5" x2="1530.541" y1="1568.5898" y2="1568.5898"/></g><!--class Video--><g class="entity" data-entity="Video" data-source-line="80" data-uid="ent0014" id="entity_Video"><rect fill="#F1F1F1" height="103.8633" rx="2.5" ry="2.5" style="stroke:#181818;stroke-width:0.5;" width="170.7168" x="1602" y="1717.2422"/><ellipse cx="1665.2051" cy="1733.2422" fill="#FFAAAA" rx="11" ry="11" style="stroke:#181818;stroke-width:1;"/><path d="M1664.0645,1734.0391 L1664.0645,1736.5391 L1668.3926,1736.5391 L1668.3926,1735.6172 Q1668.3926,1735.0078 1668.627,1734.7422 Q1668.877,1734.4766 1669.252,1734.4766 Q1669.627,1734.4766 1669.8613,1734.7422 Q1670.0957,1735.0078 1670.0957,1735.6172 L1670.0957,1738.2422 L1662.0957,1738.2422 Q1661.4707,1738.2422 1661.2051,1738.0078 Q1660.9551,1737.7734 1660.9551,1737.3828 Q1660.9551,1737.0078 1661.2207,1736.7734 Q1661.4863,1736.5391 1662.0957,1736.5391 L1662.3613,1736.5391 L1662.3613,1729.8828 L1662.0957,1729.8828 Q1661.4707,1729.8828 1661.2051,1729.6484 Q1660.9551,1729.4141 1660.9551,1729.0234 Q1660.9551,1728.6484 1661.2051,1728.4141 Q1661.4707,1728.1797 1662.0957,1728.1797 L1669.7207,1728.1797 L1669.7207,1730.7734 Q1669.7207,1731.3828 1669.4863,1731.6484 Q1669.2676,1731.8984 1668.877,1731.8984 Q1668.502,1731.8984 1668.2676,1731.6484 Q1668.0332,1731.3828 1668.0332,1730.7734 L1668.0332,1729.8828 L1664.0645,1729.8828 L1664.0645,1732.3359 L1665.5488,1732.3359 Q1665.5488,1731.6797 1665.6738,1731.4922 Q1665.9395,1731.0859 1666.4082,1731.0859 Q1666.7832,1731.0859 1667.0176,1731.3516 Q1667.252,1731.6016 1667.252,1732.2109 L1667.252,1734.1797 Q1667.252,1734.7266 1667.127,1734.9141 Q1666.8613,1735.3047 1666.4082,1735.3047 Q1665.9395,1735.3047 1665.6738,1734.8984 Q1665.5488,1734.7109 1665.5488,1734.0391 L1664.0645,1734.0391 Z " fill="#000000"/><text fill="#000000" font-family="sans-serif" font-size="14" lengthAdjust="spacing" textLength="35.8066" x="1685.7051" y="1739.0391">Video</text><line style="stroke:#181818;stroke-width:0.5;" x1="1603" x2="1771.7168" y1="1749.2422" y2="1749.2422"/><text fill="#000000" font-family="sans-serif" font-size="14" lengthAdjust="spacing" text-decoration="underline" textLength="56.8135" x="1608" y="1768.3496">media_id</text><text fill="#000000" font-family="sans-serif" font-size="14" lengthAdjust="spacing" textLength="42" x="1668.7031" y="1768.3496">: UUID</text><text fill="#000000" font-family="sans-serif" font-size="14" lengthAdjust="spacing" textLength="92.5723" x="1608" y="1786.9707">fps : INTEGER</text><text fill="#000000" font-family="sans-serif" font-size="14" lengthAdjust="spacing" textLength="158.7168" x="1608" y="1805.5918">frames_count : INTEGER</text><line style="stroke:#181818;stroke-width:0.5;" x1="1603" x2="1771.7168" y1="1813.1055" y2="1813.1055"/></g><!--class VideoFrame--><g class="entity" data-entity="VideoFrame" data-source-line="86" data-uid="ent0015" id="entity_VideoFrame"><rect fill="#F1F1F1" height="85.2422" rx="2.5" ry="2.5" style="stroke:#181818;stroke-width:0.5;" width="146.5791" x="1338" y="1979.2422"/><ellipse cx="1370.2459" cy="1995.2422" fill="#FFAAAA" rx="11" ry="11" style="stroke:#181818;stroke-width:1;"/><path d="M1369.1053,1996.0391 L1369.1053,1998.5391 L1373.4334,1998.5391 L1373.4334,1997.6172 Q1373.4334,1997.0078 1373.6678,1996.7422 Q1373.9178,1996.4766 1374.2928,1996.4766 Q1374.6678,1996.4766 1374.9021,1996.7422 Q1375.1365,1997.0078 1375.1365,1997.6172 L1375.1365,2000.2422 L1367.1365,2000.2422 Q1366.5115,2000.2422 1366.2459,2000.0078 Q1365.9959,1999.7734 1365.9959,1999.3828 Q1365.9959,1999.0078 1366.2615,1998.7734 Q1366.5271,1998.5391 1367.1365,1998.5391 L1367.4021,1998.5391 L1367.4021,1991.8828 L1367.1365,1991.8828 Q1366.5115,1991.8828 1366.2459,1991.6484 Q1365.9959,1991.4141 1365.9959,1991.0234 Q1365.9959,1990.6484 1366.2459,1990.4141 Q1366.5115,1990.1797 1367.1365,1990.1797 L1374.7615,1990.1797 L1374.7615,1992.7734 Q1374.7615,1993.3828 1374.5271,1993.6484 Q1374.3084,1993.8984 1373.9178,1993.8984 Q1373.5428,1993.8984 1373.3084,1993.6484 Q1373.074,1993.3828 1373.074,1992.7734 L1373.074,1991.8828 L1369.1053,1991.8828 L1369.1053,1994.3359 L1370.5896,1994.3359 Q1370.5896,1993.6797 1370.7146,1993.4922 Q1370.9803,1993.0859 1371.449,1993.0859 Q1371.824,1993.0859 1372.0584,1993.3516 Q1372.2928,1993.6016 1372.2928,1994.2109 L1372.2928,1996.1797 Q1372.2928,1996.7266 1372.1678,1996.9141 Q1371.9021,1997.3047 1371.449,1997.3047 Q1370.9803,1997.3047 1370.7146,1996.8984 Q1370.5896,1996.7109 1370.5896,1996.0391 L1369.1053,1996.0391 Z " fill="#000000"/><text fill="#000000" font-family="sans-serif" font-size="14" lengthAdjust="spacing" textLength="76.2549" x="1388.0783" y="2001.0391">VideoFrame</text><line style="stroke:#181818;stroke-width:0.5;" x1="1339" x2="1483.5791" y1="2011.2422" y2="2011.2422"/><text fill="#000000" font-family="sans-serif" font-size="14" lengthAdjust="spacing" text-decoration="underline" textLength="56.8135" x="1344" y="2030.3496">media_id</text><text fill="#000000" font-family="sans-serif" font-size="14" lengthAdjust="spacing" textLength="42" x="1404.7031" y="2030.3496">: UUID</text><text fill="#000000" font-family="sans-serif" font-size="14" lengthAdjust="spacing" textLength="134.5791" x="1344" y="2048.9707">timestamp: INTEGER</text><line style="stroke:#181818;stroke-width:0.5;" x1="1339" x2="1483.5791" y1="2056.4844" y2="2056.4844"/></g><!--class DatasetItem--><g class="entity" data-entity="DatasetItem" data-source-line="91" data-uid="ent0016" id="entity_DatasetItem"><rect fill="#F1F1F1" height="196.9688" rx="2.5" ry="2.5" style="stroke:#181818;stroke-width:0.5;" width="124.041" x="1133.5" y="923.2422"/><ellipse cx="1155.9544" cy="939.2422" fill="#FFAAAA" rx="11" ry="11" style="stroke:#181818;stroke-width:1;"/><path d="M1154.8138,940.0391 L1154.8138,942.5391 L1159.1419,942.5391 L1159.1419,941.6172 Q1159.1419,941.0078 1159.3763,940.7422 Q1159.6263,940.4766 1160.0013,940.4766 Q1160.3763,940.4766 1160.6107,940.7422 Q1160.8451,941.0078 1160.8451,941.6172 L1160.8451,944.2422 L1152.8451,944.2422 Q1152.2201,944.2422 1151.9544,944.0078 Q1151.7044,943.7734 1151.7044,943.3828 Q1151.7044,943.0078 1151.9701,942.7734 Q1152.2357,942.5391 1152.8451,942.5391 L1153.1107,942.5391 L1153.1107,935.8828 L1152.8451,935.8828 Q1152.2201,935.8828 1151.9544,935.6484 Q1151.7044,935.4141 1151.7044,935.0234 Q1151.7044,934.6484 1151.9544,934.4141 Q1152.2201,934.1797 1152.8451,934.1797 L1160.4701,934.1797 L1160.4701,936.7734 Q1160.4701,937.3828 1160.2357,937.6484 Q1160.0169,937.8984 1159.6263,937.8984 Q1159.2513,937.8984 1159.0169,937.6484 Q1158.7826,937.3828 1158.7826,936.7734 L1158.7826,935.8828 L1154.8138,935.8828 L1154.8138,938.3359 L1156.2982,938.3359 Q1156.2982,937.6797 1156.4232,937.4922 Q1156.6888,937.0859 1157.1576,937.0859 Q1157.5326,937.0859 1157.7669,937.3516 Q1158.0013,937.6016 1158.0013,938.2109 L1158.0013,940.1797 Q1158.0013,940.7266 1157.8763,940.9141 Q1157.6107,941.3047 1157.1576,941.3047 Q1156.6888,941.3047 1156.4232,940.8984 Q1156.2982,940.7109 1156.2982,940.0391 L1154.8138,940.0391 Z " fill="#000000"/><text fill="#000000" font-family="sans-serif" font-size="14" lengthAdjust="spacing" textLength="75.4756" x="1171.611" y="945.0391">DatasetItem</text><line style="stroke:#181818;stroke-width:0.5;" x1="1134.5" x2="1256.541" y1="955.2422" y2="955.2422"/><text fill="#000000" font-family="sans-serif" font-size="14" lengthAdjust="spacing" text-decoration="underline" textLength="10.8965" x="1139.5" y="974.3496">id</text><text fill="#000000" font-family="sans-serif" font-size="14" lengthAdjust="spacing" textLength="42" x="1154.2861" y="974.3496">: UUID</text><text fill="#000000" font-family="sans-serif" font-size="14" lengthAdjust="spacing" textLength="82.4688" x="1139.5" y="992.9707">name : TEXT</text><text fill="#000000" font-family="sans-serif" font-size="14" lengthAdjust="spacing" textLength="87.124" x="1139.5" y="1011.5918">format : TEXT</text><text fill="#000000" font-family="sans-serif" font-size="14" lengthAdjust="spacing" textLength="106.5791" x="1139.5" y="1030.2129">width : INTEGER</text><text fill="#000000" font-family="sans-serif" font-size="14" lengthAdjust="spacing" textLength="112.041" x="1139.5" y="1048.834">height : INTEGER</text><text fill="#000000" font-family="sans-serif" font-size="14" lengthAdjust="spacing" textLength="98.793" x="1139.5" y="1067.4551">size : INTEGER</text><text fill="#000000" font-family="sans-serif" font-size="14" lengthAdjust="spacing" textLength="88.6963" x="1139.5" y="1086.0762">subset : TEXT</text><text fill="#000000" font-family="sans-serif" font-size="14" lengthAdjust="spacing" textLength="111.2549" x="1139.5" y="1104.6973">tags : LIST[TEXT]</text><line style="stroke:#181818;stroke-width:0.5;" x1="1134.5" x2="1256.541" y1="1112.2109" y2="1112.2109"/></g><!--class Annotation--><g class="entity" data-entity="Annotation" data-source-line="102" data-uid="ent0017" id="entity_Annotation"><rect fill="#F1F1F1" height="103.8633" rx="2.5" ry="2.5" style="stroke:#181818;stroke-width:0.5;" width="182.4063" x="831.5" y="1233.2422"/><ellipse cx="884.981" cy="1249.2422" fill="#FFAAAA" rx="11" ry="11" style="stroke:#181818;stroke-width:1;"/><path d="M883.8403,1250.0391 L883.8403,1252.5391 L888.1685,1252.5391 L888.1685,1251.6172 Q888.1685,1251.0078 888.4028,1250.7422 Q888.6528,1250.4766 889.0278,1250.4766 Q889.4028,1250.4766 889.6372,1250.7422 Q889.8716,1251.0078 889.8716,1251.6172 L889.8716,1254.2422 L881.8716,1254.2422 Q881.2466,1254.2422 880.981,1254.0078 Q880.731,1253.7734 880.731,1253.3828 Q880.731,1253.0078 880.9966,1252.7734 Q881.2622,1252.5391 881.8716,1252.5391 L882.1372,1252.5391 L882.1372,1245.8828 L881.8716,1245.8828 Q881.2466,1245.8828 880.981,1245.6484 Q880.731,1245.4141 880.731,1245.0234 Q880.731,1244.6484 880.981,1244.4141 Q881.2466,1244.1797 881.8716,1244.1797 L889.4966,1244.1797 L889.4966,1246.7734 Q889.4966,1247.3828 889.2622,1247.6484 Q889.0435,1247.8984 888.6528,1247.8984 Q888.2778,1247.8984 888.0435,1247.6484 Q887.8091,1247.3828 887.8091,1246.7734 L887.8091,1245.8828 L883.8403,1245.8828 L883.8403,1248.3359 L885.3247,1248.3359 Q885.3247,1247.6797 885.4497,1247.4922 Q885.7153,1247.0859 886.1841,1247.0859 Q886.5591,1247.0859 886.7935,1247.3516 Q887.0278,1247.6016 887.0278,1248.2109 L887.0278,1250.1797 Q887.0278,1250.7266 886.9028,1250.9141 Q886.6372,1251.3047 886.1841,1251.3047 Q885.7153,1251.3047 885.4497,1250.8984 Q885.3247,1250.7109 885.3247,1250.0391 L883.8403,1250.0391 Z " fill="#000000"/><text fill="#000000" font-family="sans-serif" font-size="14" lengthAdjust="spacing" textLength="66.9443" x="905.481" y="1255.0391">Annotation</text><line style="stroke:#181818;stroke-width:0.5;" x1="832.5" x2="1012.9063" y1="1265.2422" y2="1265.2422"/><text fill="#000000" font-family="sans-serif" font-size="14" lengthAdjust="spacing" text-decoration="underline" textLength="10.8965" x="837.5" y="1284.3496">id</text><text fill="#000000" font-family="sans-serif" font-size="14" lengthAdjust="spacing" textLength="42" x="852.2861" y="1284.3496">: UUID</text><text fill="#000000" font-family="sans-serif" font-size="14" lengthAdjust="spacing" textLength="76.2549" x="837.5" y="1302.9707">data : JSON</text><text fill="#000000" font-family="sans-serif" font-size="14" lengthAdjust="spacing" textLength="170.4063" x="837.5" y="1321.5918">user_reviewed : BOOLEAN</text><line style="stroke:#181818;stroke-width:0.5;" x1="832.5" x2="1012.9063" y1="1329.1055" y2="1329.1055"/></g><!--class ModelRevision--><g class="entity" data-entity="ModelRevision" data-source-line="109" data-uid="ent0018" id="entity_ModelRevision"><rect fill="#F1F1F1" height="122.4844" rx="2.5" ry="2.5" style="stroke:#181818;stroke-width:0.5;" width="159.8203" x="617.5" y="470.7422"/><ellipse cx="648.7" cy="486.7422" fill="#FFAAAA" rx="11" ry="11" style="stroke:#181818;stroke-width:1;"/><path d="M647.5594,487.5391 L647.5594,490.0391 L651.8875,490.0391 L651.8875,489.1172 Q651.8875,488.5078 652.1219,488.2422 Q652.3719,487.9766 652.7469,487.9766 Q653.1219,487.9766 653.3563,488.2422 Q653.5906,488.5078 653.5906,489.1172 L653.5906,491.7422 L645.5906,491.7422 Q644.9656,491.7422 644.7,491.5078 Q644.45,491.2734 644.45,490.8828 Q644.45,490.5078 644.7156,490.2734 Q644.9813,490.0391 645.5906,490.0391 L645.8563,490.0391 L645.8563,483.3828 L645.5906,483.3828 Q644.9656,483.3828 644.7,483.1484 Q644.45,482.9141 644.45,482.5234 Q644.45,482.1484 644.7,481.9141 Q644.9656,481.6797 645.5906,481.6797 L653.2156,481.6797 L653.2156,484.2734 Q653.2156,484.8828 652.9813,485.1484 Q652.7625,485.3984 652.3719,485.3984 Q651.9969,485.3984 651.7625,485.1484 Q651.5281,484.8828 651.5281,484.2734 L651.5281,483.3828 L647.5594,483.3828 L647.5594,485.8359 L649.0438,485.8359 Q649.0438,485.1797 649.1688,484.9922 Q649.4344,484.5859 649.9031,484.5859 Q650.2781,484.5859 650.5125,484.8516 Q650.7469,485.1016 650.7469,485.7109 L650.7469,487.6797 Q650.7469,488.2266 650.6219,488.4141 Q650.3563,488.8047 649.9031,488.8047 Q649.4344,488.8047 649.1688,488.3984 Q649.0438,488.2109 649.0438,487.5391 L647.5594,487.5391 Z " fill="#000000"/><text fill="#000000" font-family="sans-serif" font-size="14" lengthAdjust="spacing" textLength="91.8203" x="666.3" y="492.5391">ModelRevision</text><line style="stroke:#181818;stroke-width:0.5;" x1="618.5" x2="776.3203" y1="502.7422" y2="502.7422"/><text fill="#000000" font-family="sans-serif" font-size="14" lengthAdjust="spacing" text-decoration="underline" textLength="10.8965" x="623.5" y="521.8496">id</text><text fill="#000000" font-family="sans-serif" font-size="14" lengthAdjust="spacing" textLength="42" x="638.2861" y="521.8496">: UUID</text><text fill="#000000" font-family="sans-serif" font-size="14" lengthAdjust="spacing" textLength="120.5928" x="623.5" y="540.4707">architecture : TEXT</text><text fill="#000000" font-family="sans-serif" font-size="14" lengthAdjust="spacing" textLength="84.7998" x="623.5" y="559.0918">status : TEXT</text><text fill="#000000" font-family="sans-serif" font-size="14" lengthAdjust="spacing" textLength="147.8203" x="623.5" y="577.7129">training_metrics : JSON</text><line style="stroke:#181818;stroke-width:0.5;" x1="618.5" x2="776.3203" y1="585.2266" y2="585.2266"/></g><!--class EvaluationResult--><g class="entity" data-entity="EvaluationResult" data-source-line="116" data-uid="ent0019" id="entity_EvaluationResult"><rect fill="#F1F1F1" height="66.6211" rx="2.5" ry="2.5" style="stroke:#181818;stroke-width:0.5;" width="137.0615" x="491" y="795.2422"/><ellipse cx="506" cy="811.2422" fill="#FFAAAA" rx="11" ry="11" style="stroke:#181818;stroke-width:1;"/><path d="M504.8594,812.0391 L504.8594,814.5391 L509.1875,814.5391 L509.1875,813.6172 Q509.1875,813.0078 509.4219,812.7422 Q509.6719,812.4766 510.0469,812.4766 Q510.4219,812.4766 510.6563,812.7422 Q510.8906,813.0078 510.8906,813.6172 L510.8906,816.2422 L502.8906,816.2422 Q502.2656,816.2422 502,816.0078 Q501.75,815.7734 501.75,815.3828 Q501.75,815.0078 502.0156,814.7734 Q502.2813,814.5391 502.8906,814.5391 L503.1563,814.5391 L503.1563,807.8828 L502.8906,807.8828 Q502.2656,807.8828 502,807.6484 Q501.75,807.4141 501.75,807.0234 Q501.75,806.6484 502,806.4141 Q502.2656,806.1797 502.8906,806.1797 L510.5156,806.1797 L510.5156,808.7734 Q510.5156,809.3828 510.2813,809.6484 Q510.0625,809.8984 509.6719,809.8984 Q509.2969,809.8984 509.0625,809.6484 Q508.8281,809.3828 508.8281,808.7734 L508.8281,807.8828 L504.8594,807.8828 L504.8594,810.3359 L506.3438,810.3359 Q506.3438,809.6797 506.4688,809.4922 Q506.7344,809.0859 507.2031,809.0859 Q507.5781,809.0859 507.8125,809.3516 Q508.0469,809.6016 508.0469,810.2109 L508.0469,812.1797 Q508.0469,812.7266 507.9219,812.9141 Q507.6563,813.3047 507.2031,813.3047 Q506.7344,813.3047 506.4688,812.8984 Q506.3438,812.7109 506.3438,812.0391 L504.8594,812.0391 Z " fill="#000000"/><text fill="#000000" font-family="sans-serif" font-size="14" lengthAdjust="spacing" textLength="105.0615" x="520" y="817.0391">EvaluationResult</text><line style="stroke:#181818;stroke-width:0.5;" x1="492" x2="627.0615" y1="827.2422" y2="827.2422"/><text fill="#000000" font-family="sans-serif" font-size="14" lengthAdjust="spacing" text-decoration="underline" textLength="10.8965" x="497" y="846.3496">id</text><text fill="#000000" font-family="sans-serif" font-size="14" lengthAdjust="spacing" textLength="42" x="511.7861" y="846.3496">: UUID</text><line style="stroke:#181818;stroke-width:0.5;" x1="492" x2="627.0615" y1="853.8633" y2="853.8633"/></g><!--class MetricScore--><g class="entity" data-entity="MetricScore" data-source-line="120" data-uid="ent0020" id="entity_MetricScore"><rect fill="#F1F1F1" height="85.2422" rx="2.5" ry="2.5" style="stroke:#181818;stroke-width:0.5;" width="106.6826" x="520" y="1242.7422"/><ellipse cx="535" cy="1258.7422" fill="#FFAAAA" rx="11" ry="11" style="stroke:#181818;stroke-width:1;"/><path d="M533.8594,1259.5391 L533.8594,1262.0391 L538.1875,1262.0391 L538.1875,1261.1172 Q538.1875,1260.5078 538.4219,1260.2422 Q538.6719,1259.9766 539.0469,1259.9766 Q539.4219,1259.9766 539.6563,1260.2422 Q539.8906,1260.5078 539.8906,1261.1172 L539.8906,1263.7422 L531.8906,1263.7422 Q531.2656,1263.7422 531,1263.5078 Q530.75,1263.2734 530.75,1262.8828 Q530.75,1262.5078 531.0156,1262.2734 Q531.2813,1262.0391 531.8906,1262.0391 L532.1563,1262.0391 L532.1563,1255.3828 L531.8906,1255.3828 Q531.2656,1255.3828 531,1255.1484 Q530.75,1254.9141 530.75,1254.5234 Q530.75,1254.1484 531,1253.9141 Q531.2656,1253.6797 531.8906,1253.6797 L539.5156,1253.6797 L539.5156,1256.2734 Q539.5156,1256.8828 539.2813,1257.1484 Q539.0625,1257.3984 538.6719,1257.3984 Q538.2969,1257.3984 538.0625,1257.1484 Q537.8281,1256.8828 537.8281,1256.2734 L537.8281,1255.3828 L533.8594,1255.3828 L533.8594,1257.8359 L535.3438,1257.8359 Q535.3438,1257.1797 535.4688,1256.9922 Q535.7344,1256.5859 536.2031,1256.5859 Q536.5781,1256.5859 536.8125,1256.8516 Q537.0469,1257.1016 537.0469,1257.7109 L537.0469,1259.6797 Q537.0469,1260.2266 536.9219,1260.4141 Q536.6563,1260.8047 536.2031,1260.8047 Q535.7344,1260.8047 535.4688,1260.3984 Q535.3438,1260.2109 535.3438,1259.5391 L533.8594,1259.5391 Z " fill="#000000"/><text fill="#000000" font-family="sans-serif" font-size="14" lengthAdjust="spacing" textLength="74.6826" x="549" y="1264.5391">MetricScore</text><line style="stroke:#181818;stroke-width:0.5;" x1="521" x2="625.6826" y1="1274.7422" y2="1274.7422"/><text fill="#000000" font-family="sans-serif" font-size="14" lengthAdjust="spacing" textLength="81.6689" x="526" y="1293.8496">metric: TEXT</text><text fill="#000000" font-family="sans-serif" font-size="14" lengthAdjust="spacing" textLength="87.1309" x="526" y="1312.4707">score: FLOAT</text><line style="stroke:#181818;stroke-width:0.5;" x1="521" x2="625.6826" y1="1319.9844" y2="1319.9844"/></g><!--class Source --><g class="entity" data-entity="Source " data-source-line="146" data-uid="ent0038" id="entity_Source "><rect fill="#F1F1F1" height="48" rx="2.5" ry="2.5" style="stroke:#181818;stroke-width:0.5;" width="80.248" x="1098.5" y="1463.2422"/><ellipse cx="1113.5" cy="1479.2422" fill="#ADD1B2" rx="11" ry="11" style="stroke:#181818;stroke-width:1;"/><path d="M1116.2656,1475.1172 Q1116.4219,1474.8984 1116.6094,1474.7891 Q1116.7969,1474.6797 1117.0156,1474.6797 Q1117.3906,1474.6797 1117.625,1474.9453 Q1117.8594,1475.1953 1117.8594,1475.8047 L1117.8594,1477.2578 Q1117.8594,1477.8672 1117.625,1478.1328 Q1117.3906,1478.3984 1117.0156,1478.3984 Q1116.6719,1478.3984 1116.4688,1478.1953 Q1116.2656,1478.0078 1116.1563,1477.4922 Q1116.1094,1477.1328 1115.9219,1476.9453 Q1115.5938,1476.5703 1114.9844,1476.3516 Q1114.375,1476.1328 1113.75,1476.1328 Q1112.9844,1476.1328 1112.3438,1476.4609 Q1111.7188,1476.7891 1111.2188,1477.5391 Q1110.7344,1478.2891 1110.7344,1479.3203 L1110.7344,1480.4141 Q1110.7344,1481.6484 1111.625,1482.4766 Q1112.5156,1483.2891 1114.1094,1483.2891 Q1115.0469,1483.2891 1115.7031,1483.0391 Q1116.0938,1482.8828 1116.5156,1482.4453 Q1116.7813,1482.1797 1116.9219,1482.1016 Q1117.0781,1482.0234 1117.2813,1482.0234 Q1117.6094,1482.0234 1117.8594,1482.2891 Q1118.125,1482.5391 1118.125,1482.8828 Q1118.125,1483.2266 1117.7813,1483.6328 Q1117.2813,1484.2109 1116.4844,1484.5391 Q1115.4063,1484.9922 1114.1094,1484.9922 Q1112.5938,1484.9922 1111.3906,1484.3672 Q1110.4063,1483.8672 1109.7188,1482.8047 Q1109.0313,1481.7266 1109.0313,1480.4453 L1109.0313,1479.2891 Q1109.0313,1477.9609 1109.6406,1476.8203 Q1110.2656,1475.6641 1111.3594,1475.0547 Q1112.4531,1474.4297 1113.6875,1474.4297 Q1114.4219,1474.4297 1115.0625,1474.6016 Q1115.7188,1474.7578 1116.2656,1475.1172 Z " fill="#000000"/><text fill="#000000" font-family="sans-serif" font-size="14" lengthAdjust="spacing" textLength="44.3584" x="1127.5" y="1485.0391">Source</text><line style="stroke:#181818;stroke-width:0.5;" x1="1099.5" x2="1177.748" y1="1495.2422" y2="1495.2422"/><line style="stroke:#181818;stroke-width:0.5;" x1="1099.5" x2="1177.748" y1="1503.2422" y2="1503.2422"/></g><g class="entity" data-entity="GMN50" data-uid="ent0051" id="entity_GMN50"><path d="M337,300.7422 L337,310.7422 A0,0 0 0 0 337,310.7422 L358,310.7422 A0,0 0 0 0 358,310.7422 L358,309.7422 L393.13,305.7422 L358,301.7422 L358,310.7422 L348,300.7422 L337,300.7422 A0,0 0 0 0 337,300.7422" fill="#FEFFDD" style="stroke:#181818;stroke-width:0.5;"/><path d="M348,300.7422 L348,310.7422 L358,310.7422 L348,300.7422" fill="#FEFFDD" style="stroke:#181818;stroke-width:0.5;"/></g><!--link Project to LabelSchema--><g class="link" data-entity-1="Project" data-entity-2="LabelSchema" data-source-line="126" data-uid="lnk21" id="link_Project_LabelSchema"><path codeLine="126" d="M859.469,155.5437 C888.889,180.2237 921.24,206.6322 956.5,233.2422 C969.7,243.2122 977.5926,248.9796 991.3726,258.6096" fill="none" id="Project-LabelSchema" style="stroke:#181818;stroke-width:1;"/><line style="stroke:#181818;stroke-width:1;" x1="853.8337" x2="858.9753" y1="156.0375" y2="149.9085"/><line style="stroke:#181818;stroke-width:1;" x1="856.1321" x2="861.2736" y1="157.9655" y2="151.8365"/><line style="stroke:#181818;stroke-width:1;" x1="859.469" x2="853.34" y1="155.5437" y2="150.4022"/><line style="stroke:#181818;stroke-width:1;" x1="996.9426" x2="992.36" y1="257.6222" y2="264.1796"/><line style="stroke:#181818;stroke-width:1;" x1="994.4835" x2="989.901" y1="255.9037" y2="262.4611"/><line style="stroke:#181818;stroke-width:1;" x1="991.3726" x2="997.93" y1="258.6096" y2="263.1922"/><text fill="#000000" font-family="sans-serif" font-size="13" lengthAdjust="spacing" textLength="188.5889" x="957.5" y="212.2705">A project solves exactly one task</text></g><!--link Project to InferencePipeline--><g class="link" data-entity-1="Project" data-entity-2="InferencePipeline" data-source-line="127" data-uid="lnk22" id="link_Project_InferencePipeline"><path codeLine="127" d="M720.0072,113.2303 C661.3772,119.6303 589.43,135.7722 534.5,180.2422 C505.6,203.6422 491.1054,236.1092 482.2054,264.4692" fill="none" id="Project-InferencePipeline" style="stroke:#181818;stroke-width:1;"/><line style="stroke:#181818;stroke-width:1;" x1="723.5496" x2="724.4177" y1="108.8199" y2="116.7726"/><line style="stroke:#181818;stroke-width:1;" x1="720.5673" x2="721.4354" y1="109.1454" y2="117.0982"/><line style="stroke:#181818;stroke-width:1;" x1="720.0072" x2="727.96" y1="113.2303" y2="112.3622"/><line style="stroke:#181818;stroke-width:1;" x1="484.8242" x2="477.1912" y1="269.4834" y2="267.088"/><line style="stroke:#181818;stroke-width:1;" x1="485.7224" x2="478.0895" y1="266.621" y2="264.2257"/><line style="stroke:#181818;stroke-width:1;" x1="482.2054" x2="479.81" y1="264.4692" y2="272.1022"/><text fill="#000000" font-family="sans-serif" font-size="13" lengthAdjust="spacing" textLength="210.2915" x="535.5" y="203.7705">Each project defines its own pipeline</text><text fill="#000000" font-family="sans-serif" font-size="13" lengthAdjust="spacing" textLength="145.2598" x="569.8218" y="221.0615">to configure the data flow</text></g><!--link Project to Dataset--><g class="link" data-entity-1="Project" data-entity-2="Dataset" data-source-line="128" data-uid="lnk23" id="link_Project_Dataset"><path codeLine="128" d="M889.01,113.2642 C961.91,119.5942 1064.94,135.7022 1150.5,180.2422 C1198.56,205.2622 1236.5995,246.6417 1259.6795,275.1817" fill="none" id="Project-Dataset" style="stroke:#181818;stroke-width:1;"/><line style="stroke:#181818;stroke-width:1;" x1="884.679" x2="885.371" y1="116.9032" y2="108.9332"/><line style="stroke:#181818;stroke-width:1;" x1="887.6677" x2="888.3598" y1="117.1627" y2="109.1927"/><line style="stroke:#181818;stroke-width:1;" x1="889.01" x2="881.04" y1="113.2642" y2="112.5722"/><line style="stroke:#181818;stroke-width:1;" x1="1265.305" x2="1259.0845" y1="275.7767" y2="280.8072"/><line style="stroke:#181818;stroke-width:1;" x1="1263.4186" x2="1257.1981" y1="273.444" y2="278.4745"/><line style="stroke:#181818;stroke-width:1;" x1="1259.6795" x2="1264.71" y1="275.1817" y2="281.4022"/><text fill="#000000" font-family="sans-serif" font-size="13" lengthAdjust="spacing" textLength="141.6353" x="1230.0654" y="195.2705">Dataset items are bound</text><text fill="#000000" font-family="sans-serif" font-size="13" lengthAdjust="spacing" textLength="161.1543" x="1222.1118" y="212.5615">to the project to ensure they</text><text fill="#000000" font-family="sans-serif" font-size="13" lengthAdjust="spacing" textLength="127.9116" x="1238.7332" y="229.8525">have consistent labels</text></g><!--link Project to ModelRevision--><g class="link" data-entity-1="Project" data-entity-2="ModelRevision" data-source-line="129" data-uid="lnk24" id="link_Project_ModelRevision"><path codeLine="129" d="M802.1386,158.3371 C798.2886,220.8971 787.25,334.2022 753.5,431.2422 C748.91,444.4422 751.0804,442.0351 744.3504,454.6351" fill="none" id="Project-ModelRevision" style="stroke:#181818;stroke-width:1;"/><line style="stroke:#181818;stroke-width:1;" x1="798.3919" x2="806.3767" y1="154.0989" y2="154.5903"/><line style="stroke:#181818;stroke-width:1;" x1="798.2076" x2="806.1925" y1="157.0933" y2="157.5847"/><line style="stroke:#181818;stroke-width:1;" x1="802.1386" x2="802.63" y1="158.3371" y2="150.3522"/><line style="stroke:#181818;stroke-width:1;" x1="739.6391" x2="741.1624" y1="463.4557" y2="473.339"/><line style="stroke:#181818;stroke-width:1;" x1="739.6391" x2="730.5776" y1="463.4557" y2="467.6854"/><line style="stroke:#181818;stroke-width:1;" x1="739.6391" x2="735.87" y1="463.4557" y2="470.5122"/><ellipse cx="742.4659" cy="458.1633" fill="none" rx="4" ry="4" style="stroke:#181818;stroke-width:1;"/><text fill="#000000" font-family="sans-serif" font-size="13" lengthAdjust="spacing" textLength="135.8271" x="797.9304" y="302.7705">Users can train multiple</text><text fill="#000000" font-family="sans-serif" font-size="13" lengthAdjust="spacing" textLength="146.688" x="796.1118" y="320.0615">models within one project</text></g><!--link LabelSchema to Label--><g class="link" data-entity-1="LabelSchema" data-entity-2="Label" data-source-line="131" data-uid="lnk25" id="link_LabelSchema_Label"><path codeLine="131" d="M1057.1341,356.3155 C1056.7341,366.1255 1056.7,368.5522 1056.5,378.2422 C1055.86,408.6922 1056.1749,434.5554 1056.9649,462.6254" fill="none" id="LabelSchema-Label" style="stroke:#181818;stroke-width:1;"/><line style="stroke:#181818;stroke-width:1;" x1="1053.3004" x2="1061.2937" y1="352.1559" y2="352.4818"/><line style="stroke:#181818;stroke-width:1;" x1="1053.1781" x2="1061.1715" y1="355.1534" y2="355.4793"/><line style="stroke:#181818;stroke-width:1;" x1="1057.1341" x2="1057.46" y1="356.3155" y2="348.3222"/><line style="stroke:#181818;stroke-width:1;" x1="1056.9649" x2="1063.1876" y1="462.6254" y2="470.4534"/><line style="stroke:#181818;stroke-width:1;" x1="1056.9649" x2="1051.1924" y1="462.6254" y2="470.791"/><line style="stroke:#181818;stroke-width:1;" x1="1056.9649" x2="1057.19" y1="462.6254" y2="470.6222"/><line style="stroke:#181818;stroke-width:1;" x1="1060.9071" x2="1052.9103" y1="460.5136" y2="460.7387"/><text fill="#000000" font-family="sans-serif" font-size="13" lengthAdjust="spacing" textLength="81.6563" x="1072.3123" y="401.7705">A task defines</text><text fill="#000000" font-family="sans-serif" font-size="13" lengthAdjust="spacing" textLength="107.6689" x="1061.1118" y="419.0615">one or more labels</text></g><!--link LabelSchema to ModelRevision--><g class="link" data-entity-1="LabelSchema" data-entity-2="ModelRevision" data-source-line="132" data-uid="lnk26" id="link_LabelSchema_ModelRevision"><path codeLine="132" d="M985.4566,352.561 C924.7266,390.131 857.3768,431.8111 792.9568,471.6711" fill="none" id="LabelSchema-ModelRevision" style="stroke:#181818;stroke-width:1;"/><line style="stroke:#181818;stroke-width:1;" x1="986.7539" x2="990.9627" y1="347.0549" y2="353.8583"/><line style="stroke:#181818;stroke-width:1;" x1="984.2026" x2="988.4115" y1="348.6332" y2="355.4366"/><line style="stroke:#181818;stroke-width:1;" x1="985.4566" x2="992.26" y1="352.561" y2="348.3522"/><line style="stroke:#181818;stroke-width:1;" x1="784.453" x2="780.807" y1="476.9328" y2="486.2445"/><line style="stroke:#181818;stroke-width:1;" x1="784.453" x2="774.493" y1="476.9328" y2="476.0399"/><line style="stroke:#181818;stroke-width:1;" x1="784.453" x2="777.65" y1="476.9328" y2="481.1422"/><ellipse cx="789.5553" cy="473.7758" fill="none" rx="4" ry="4" style="stroke:#181818;stroke-width:1;"/><text fill="#000000" font-family="sans-serif" font-size="13" lengthAdjust="spacing" textLength="96.0972" x="942.5" y="401.7705">A task may have</text><text fill="#000000" font-family="sans-serif" font-size="13" lengthAdjust="spacing" textLength="90.3145" x="949.0032" y="419.0615">multiple models</text></g><!--link InferencePipeline to Source--><g class="link" data-entity-1="InferencePipeline" data-entity-2="Source" data-source-line="134" data-uid="lnk27" id="link_InferencePipeline_Source"><path codeLine="134" d="M469.4854,347.4743 C468.9454,359.6443 468.77,365.5722 468.5,378.2422 C467.86,408.6922 468.1749,434.5554 468.9649,462.6254" fill="none" id="InferencePipeline-Source" style="stroke:#181818;stroke-width:1;"/><line style="stroke:#181818;stroke-width:1;" x1="465.6666" x2="473.6588" y1="343.3009" y2="343.6556"/><line style="stroke:#181818;stroke-width:1;" x1="465.5336" x2="473.5258" y1="346.298" y2="346.6526"/><line style="stroke:#181818;stroke-width:1;" x1="469.4854" x2="469.84" y1="347.4743" y2="339.4822"/><line style="stroke:#181818;stroke-width:1;" x1="473.0759" x2="465.0791" y1="466.5112" y2="466.7363"/><line style="stroke:#181818;stroke-width:1;" x1="472.9915" x2="464.9947" y1="463.5124" y2="463.7375"/><line style="stroke:#181818;stroke-width:1;" x1="468.9649" x2="469.19" y1="462.6254" y2="470.6222"/><text fill="#000000" font-family="sans-serif" font-size="13" lengthAdjust="spacing" textLength="149.6016" x="469.5" y="410.2705">A pipeline has one source</text></g><!--link InferencePipeline to Sink--><g class="link" data-entity-1="InferencePipeline" data-entity-2="Sink" data-source-line="135" data-uid="lnk28" id="link_InferencePipeline_Sink"><path codeLine="135" d="M385.7786,345.6685 C376.7986,349.0885 384.43,345.8022 375.5,348.2422 C324.08,362.2922 179.02,344.8122 137.5,378.2422 C109.72,400.6122 97.8013,430.4821 91.2413,462.8021" fill="none" id="InferencePipeline-Sink" style="stroke:#181818;stroke-width:1;"/><line style="stroke:#181818;stroke-width:1;" x1="395.1238" x2="400.4645" y1="342.1095" y2="333.6551"/><line style="stroke:#181818;stroke-width:1;" x1="395.1238" x2="404.7355" y1="342.1095" y2="344.8693"/><line style="stroke:#181818;stroke-width:1;" x1="395.1238" x2="402.6" y1="342.1095" y2="339.2622"/><ellipse cx="389.5167" cy="344.2449" fill="none" rx="4" ry="4" style="stroke:#181818;stroke-width:1;"/><line style="stroke:#181818;stroke-width:1;" x1="94.3657" x2="86.5256" y1="467.5178" y2="465.9265"/><line style="stroke:#181818;stroke-width:1;" x1="94.9625" x2="87.1223" y1="464.5777" y2="462.9864"/><line style="stroke:#181818;stroke-width:1;" x1="91.2413" x2="89.65" y1="462.8021" y2="470.6422"/><text fill="#000000" font-family="sans-serif" font-size="13" lengthAdjust="spacing" textLength="133.7007" x="138.5" y="410.2705">A pipeline has one sink</text></g><!--link InferencePipeline to DataCollectionPolicy--><g class="link" data-entity-1="InferencePipeline" data-entity-2="DataCollectionPolicy" data-source-line="136" data-uid="lnk29" id="link_InferencePipeline_DataCollectionPolicy"><path codeLine="136" d="M388.9733,342.4787 C381.9433,345.5087 382.26,345.3522 375.5,348.2422 C344,361.7022 326.03,351.5922 304.5,378.2422 C285.87,401.3022 279.8218,414.8051 276.7818,443.1151" fill="none" id="InferencePipeline-DataCollectionPolicy" style="stroke:#181818;stroke-width:1;"/><line style="stroke:#181818;stroke-width:1;" x1="391.0634" x2="394.2299" y1="337.2221" y2="344.5688"/><line style="stroke:#181818;stroke-width:1;" x1="388.3084" x2="391.4749" y1="338.4095" y2="345.7562"/><line style="stroke:#181818;stroke-width:1;" x1="388.9733" x2="396.32" y1="342.4787" y2="339.3122"/><line style="stroke:#181818;stroke-width:1;" x1="275.7141" x2="280.8257" y1="453.0579" y2="461.6528"/><line style="stroke:#181818;stroke-width:1;" x1="275.7141" x2="268.8943" y1="453.0579" y2="460.3716"/><line style="stroke:#181818;stroke-width:1;" x1="275.7141" x2="274.86" y1="453.0579" y2="461.0122"/><ellipse cx="276.3548" cy="447.0922" fill="none" rx="4" ry="4" style="stroke:#181818;stroke-width:1;"/><text fill="#000000" font-family="sans-serif" font-size="13" lengthAdjust="spacing" textLength="154.6416" x="305.5" y="401.7705">A pipeline may collect data</text><text fill="#000000" font-family="sans-serif" font-size="13" lengthAdjust="spacing" textLength="144.5171" x="312.3682" y="419.0615">based on multiple criteria</text></g><!--link InferencePipeline to ModelRevision--><g class="link" data-entity-1="InferencePipeline" data-entity-2="ModelRevision" data-source-line="137" data-uid="lnk30" id="link_InferencePipeline_ModelRevision"><path codeLine="137" d="M557.0598,334.7014 C582.9298,345.8214 602.96,357.9522 623.5,378.2422 C637.68,392.2522 654.4243,426.8109 670.0243,463.1509" fill="none" id="InferencePipeline-ModelRevision" style="stroke:#181818;stroke-width:1;"/><line style="stroke:#181818;stroke-width:1;" x1="551.8053" x2="554.9645" y1="336.7967" y2="329.4469"/><line style="stroke:#181818;stroke-width:1;" x1="554.5614" x2="557.7207" y1="337.9814" y2="330.6316"/><line style="stroke:#181818;stroke-width:1;" x1="557.0598" x2="549.71" y1="334.7014" y2="331.5422"/><line style="stroke:#181818;stroke-width:1;" x1="675.2778" x2="667.9265" y1="465.2487" y2="468.4044"/><line style="stroke:#181818;stroke-width:1;" x1="674.0944" x2="666.7431" y1="462.4919" y2="465.6477"/><line style="stroke:#181818;stroke-width:1;" x1="670.0243" x2="673.18" y1="463.1509" y2="470.5022"/><text fill="#000000" font-family="sans-serif" font-size="13" lengthAdjust="spacing" textLength="88.1689" x="656.5" y="393.2705">A pipeline uses</text><text fill="#000000" font-family="sans-serif" font-size="13" lengthAdjust="spacing" textLength="60.709" x="672.0359" y="410.5615">one model</text><text fill="#000000" font-family="sans-serif" font-size="13" lengthAdjust="spacing" textLength="72.2617" x="666.2595" y="427.8525">for inference</text></g><!--link Dataset to DatasetItem--><g class="link" data-entity-1="Dataset" data-entity-2="DatasetItem" data-source-line="139" data-uid="lnk31" id="link_Dataset_DatasetItem"><path codeLine="139" d="M1262.6587,336.5338 C1237.6287,375.9138 1195.5,452.7322 1195.5,530.7422 C1195.5,530.7422 1195.5,530.7422 1195.5,829.7422 C1195.5,860.0822 1195.5,875.1322 1195.5,905.0822" fill="none" id="Dataset-DatasetItem" style="stroke:#181818;stroke-width:1;"/><line style="stroke:#181818;stroke-width:1;" x1="1261.4285" x2="1268.1801" y1="331.0123" y2="335.3037"/><line style="stroke:#181818;stroke-width:1;" x1="1259.8193" x2="1266.5709" y1="333.5442" y2="337.8355"/><line style="stroke:#181818;stroke-width:1;" x1="1262.6587" x2="1266.95" y1="336.5338" y2="329.7822"/><line style="stroke:#181818;stroke-width:1;" x1="1195.5" x2="1201.5" y1="915.0822" y2="923.0822"/><line style="stroke:#181818;stroke-width:1;" x1="1195.5" x2="1189.5" y1="915.0822" y2="923.0822"/><line style="stroke:#181818;stroke-width:1;" x1="1195.5" x2="1195.5" y1="915.0822" y2="923.0822"/><ellipse cx="1195.5" cy="909.0822" fill="none" rx="4" ry="4" style="stroke:#181818;stroke-width:1;"/><text fill="#000000" font-family="sans-serif" font-size="13" lengthAdjust="spacing" textLength="81.6563" x="1210.5854" y="687.2705">The dataset is</text><text fill="#000000" font-family="sans-serif" font-size="13" lengthAdjust="spacing" textLength="70.0972" x="1218.1709" y="704.5615">the set of all</text><text fill="#000000" font-family="sans-serif" font-size="13" lengthAdjust="spacing" textLength="109.8271" x="1200.1118" y="721.8525">items of the project</text></g><!--link Dataset to Media--><g class="link" data-entity-1="Dataset" data-entity-2="Media" data-source-line="140" data-uid="lnk32" id="link_Dataset_Media"><path codeLine="140" d="M1330.4637,317.672 C1414.3437,338.982 1592.5,399.1022 1592.5,530.7422 C1592.5,530.7422 1592.5,530.7422 1592.5,1286.2422 C1592.5,1338.0122 1573.7074,1373.776 1543.1974,1410.636" fill="none" id="Dataset-Media" style="stroke:#181818;stroke-width:1;"/><line style="stroke:#181818;stroke-width:1;" x1="1325.6019" x2="1327.5718" y1="320.564" y2="312.8103"/><line style="stroke:#181818;stroke-width:1;" x1="1328.5096" x2="1330.4794" y1="321.3027" y2="313.549"/><line style="stroke:#181818;stroke-width:1;" x1="1330.4637" x2="1322.71" y1="317.672" y2="315.7022"/><line style="stroke:#181818;stroke-width:1;" x1="1536.8211" x2="1536.342" y1="1418.3395" y2="1428.328"/><line style="stroke:#181818;stroke-width:1;" x1="1536.8211" x2="1527.098" y1="1418.3395" y2="1420.6764"/><line style="stroke:#181818;stroke-width:1;" x1="1536.8211" x2="1531.72" y1="1418.3395" y2="1424.5022"/><ellipse cx="1540.6468" cy="1413.7174" fill="none" rx="4" ry="4" style="stroke:#181818;stroke-width:1;"/><text fill="#000000" font-family="sans-serif" font-size="13" lengthAdjust="spacing" textLength="120.688" x="1593.5" y="817.2705">The dataset contains</text><text fill="#000000" font-family="sans-serif" font-size="13" lengthAdjust="spacing" textLength="13.0063" x="1649.1467" y="834.5615">all</text><text fill="#000000" font-family="sans-serif" font-size="13" lengthAdjust="spacing" textLength="114.1753" x="1600.3682" y="851.8525">media of the project</text></g><!--link Dataset to DatasetView--><g class="link" data-entity-1="Dataset" data-entity-2="DatasetView" data-source-line="141" data-uid="lnk33" id="link_Dataset_DatasetView"><path codeLine="141" d="M1291.9189,337.6857 C1312.1789,404.2657 1362.8397,570.7219 1386.2897,647.7819" fill="none" id="Dataset-DatasetView" style="stroke:#181818;stroke-width:1;"/><line style="stroke:#181818;stroke-width:1;" x1="1286.9277" x2="1294.5812" y1="335.0234" y2="332.6945"/><line style="stroke:#181818;stroke-width:1;" x1="1287.8011" x2="1295.4546" y1="337.8935" y2="335.5645"/><line style="stroke:#181818;stroke-width:1;" x1="1291.9189" x2="1289.59" y1="337.6857" y2="330.0322"/><line style="stroke:#181818;stroke-width:1;" x1="1389.201" x2="1397.2701" y1="657.3487" y2="663.2554"/><line style="stroke:#181818;stroke-width:1;" x1="1389.201" x2="1385.7899" y1="657.3487" y2="666.7489"/><line style="stroke:#181818;stroke-width:1;" x1="1389.201" x2="1391.53" y1="657.3487" y2="665.0022"/><ellipse cx="1387.4542" cy="651.6086" fill="none" rx="4" ry="4" style="stroke:#181818;stroke-width:1;"/></g><!--link Media to Video--><g class="link" data-entity-1="Media" data-entity-2="Video" data-source-line="142" data-uid="lnk34" id="link_Media_Video"><path codeLine="142" d="M1536.5943,1574.4149 C1573.8443,1622.2649 1604.1329,1661.1586 1636.5329,1702.7786" fill="none" id="Media-Video" style="stroke:#181818;stroke-width:1;"/><line style="stroke:#181818;stroke-width:1;" x1="1530.9808" x2="1537.2935" y1="1573.7157" y2="1568.8014"/><line style="stroke:#181818;stroke-width:1;" x1="1532.8236" x2="1539.1363" y1="1576.0829" y2="1571.1687"/><line style="stroke:#181818;stroke-width:1;" x1="1536.5943" x2="1531.68" y1="1574.4149" y2="1568.1022"/><line style="stroke:#181818;stroke-width:1;" x1="1642.6757" x2="1652.3245" y1="1710.6695" y2="1713.2965"/><line style="stroke:#181818;stroke-width:1;" x1="1642.6757" x2="1642.8555" y1="1710.6695" y2="1720.6679"/><line style="stroke:#181818;stroke-width:1;" x1="1642.6757" x2="1647.59" y1="1710.6695" y2="1716.9822"/><ellipse cx="1638.9901" cy="1705.935" fill="none" rx="4" ry="4" style="stroke:#181818;stroke-width:1;"/><text fill="#000000" font-family="sans-serif" font-size="13" lengthAdjust="spacing" textLength="160.4243" x="1600.5" y="1652.2705">The media might be a video</text></g><!--link Media to VideoFrame--><g class="link" data-entity-1="Media" data-entity-2="VideoFrame" data-source-line="143" data-uid="lnk35" id="link_Media_VideoFrame"><path codeLine="143" d="M1402.2995,1555.5722 C1381.0595,1582.7122 1367.5,1610.2322 1367.5,1645.7422 C1367.5,1645.7422 1367.5,1645.7422 1367.5,1901.2422 C1367.5,1928.3222 1369.9214,1940.558 1380.4314,1962.948" fill="none" id="Media-VideoFrame" style="stroke:#181818;stroke-width:1;"/><line style="stroke:#181818;stroke-width:1;" x1="1401.6147" x2="1407.9148" y1="1549.957" y2="1554.8874"/><line style="stroke:#181818;stroke-width:1;" x1="1399.7658" x2="1406.0659" y1="1552.3195" y2="1557.25"/><line style="stroke:#181818;stroke-width:1;" x1="1402.2995" x2="1407.23" y1="1555.5722" y2="1549.2722"/><line style="stroke:#181818;stroke-width:1;" x1="1384.6806" x2="1393.5114" y1="1972.0003" y2="1976.6927"/><line style="stroke:#181818;stroke-width:1;" x1="1384.6806" x2="1382.6486" y1="1972.0003" y2="1981.7917"/><line style="stroke:#181818;stroke-width:1;" x1="1384.6806" x2="1388.08" y1="1972.0003" y2="1979.2422"/><ellipse cx="1382.1311" cy="1966.569" fill="none" rx="4" ry="4" style="stroke:#181818;stroke-width:1;"/><text fill="#000000" font-family="sans-serif" font-size="13" lengthAdjust="spacing" textLength="197.2661" x="1368.5" y="1774.7705">The media might be a video frame</text></g><!--link Video to VideoFrame--><g class="link" data-entity-1="Video" data-entity-2="VideoFrame" data-source-line="144" data-uid="lnk36" id="link_Video_VideoFrame"><path codeLine="144" d="M1625.0564,1826.9191 C1573.8064,1873.4391 1518.4382,1923.6842 1470.7682,1966.9542" fill="none" id="Video-VideoFrame" style="stroke:#181818;stroke-width:1;"/><line style="stroke:#181818;stroke-width:1;" x1="1625.3298" x2="1630.7066" y1="1821.2688" y2="1827.1924"/><line style="stroke:#181818;stroke-width:1;" x1="1623.1084" x2="1628.4853" y1="1823.2852" y2="1829.2088"/><line style="stroke:#181818;stroke-width:1;" x1="1625.0564" x2="1630.98" y1="1826.9191" y2="1821.5422"/><line style="stroke:#181818;stroke-width:1;" x1="1463.3636" x2="1461.4726" y1="1973.6753" y2="1983.4949"/><line style="stroke:#181818;stroke-width:1;" x1="1463.3636" x2="1453.4074" y1="1973.6753" y2="1974.6095"/><line style="stroke:#181818;stroke-width:1;" x1="1463.3636" x2="1457.44" y1="1973.6753" y2="1979.0522"/><ellipse cx="1467.8063" cy="1969.6427" fill="none" rx="4" ry="4" style="stroke:#181818;stroke-width:1;"/><text fill="#000000" font-family="sans-serif" font-size="13" lengthAdjust="spacing" textLength="109.1226" x="1574.6909" y="1897.2705">The video contains</text><text fill="#000000" font-family="sans-serif" font-size="13" lengthAdjust="spacing" textLength="131.5044" x="1567.1118" y="1914.5615">extracted video frames</text></g><!--link DatasetItem to Annotation--><g class="link" data-entity-1="DatasetItem" data-entity-2="Annotation" data-source-line="145" data-uid="lnk37" id="link_DatasetItem_Annotation"><path codeLine="145" d="M1125.6179,1033.3939 C1059.6779,1046.6939 966.43,1076.8722 919.5,1150.2422 C904.02,1174.4522 901.777,1191.6843 906.087,1218.3543" fill="none" id="DatasetItem-Annotation" style="stroke:#181818;stroke-width:1;"/><line style="stroke:#181818;stroke-width:1;" x1="1128.7481" x2="1130.3298" y1="1028.682" y2="1036.5241"/><line style="stroke:#181818;stroke-width:1;" x1="1125.8073" x2="1127.3891" y1="1029.2752" y2="1037.1172"/><line style="stroke:#181818;stroke-width:1;" x1="1125.6179" x2="1133.46" y1="1033.3939" y2="1031.8122"/><line style="stroke:#181818;stroke-width:1;" x1="906.7251" x2="908.48" y1="1222.3031" y2="1233.1622"/><ellipse cx="906.7251" cy="1222.3031" fill="none" rx="4" ry="4" style="stroke:#181818;stroke-width:1;"/><line style="stroke:#181818;stroke-width:1;" x1="911.7906" x2="903.8931" y1="1228.5753" y2="1229.8516"/><text fill="#000000" font-family="sans-serif" font-size="13" lengthAdjust="spacing" textLength="182.8379" x="924.8323" y="1165.2705">Every media has an annotation,</text><text fill="#000000" font-family="sans-serif" font-size="13" lengthAdjust="spacing" textLength="187.8906" x="924.1118" y="1182.5615">or a model-generated prediction,</text><text fill="#000000" font-family="sans-serif" font-size="13" lengthAdjust="spacing" textLength="110.5762" x="962.769" y="1199.8525">or it is unannotated</text></g><!--link DatasetItem to Source --><g class="link" data-entity-1="DatasetItem" data-entity-2="Source " data-source-line="146" data-uid="lnk39" id="link_DatasetItem_Source "><path codeLine="146" d="M1178.2807,1138.1864 C1173.1407,1173.6864 1170.1,1196.3322 1165.5,1233.2422 C1154.96,1317.8422 1146.4058,1403.7511 1142.1258,1448.2611" fill="none" id="DatasetItem-Source " style="stroke:#181818;stroke-width:1;"/><line style="stroke:#181818;stroke-width:1;" x1="1179.7136" x2="1174.9219" y1="1128.2896" y2="1119.5124"/><line style="stroke:#181818;stroke-width:1;" x1="1179.7136" x2="1186.7981" y1="1128.2896" y2="1121.232"/><line style="stroke:#181818;stroke-width:1;" x1="1179.7136" x2="1180.86" y1="1128.2896" y2="1120.3722"/><ellipse cx="1178.8539" cy="1134.2277" fill="none" rx="4" ry="4" style="stroke:#181818;stroke-width:1;"/><line style="stroke:#181818;stroke-width:1;" x1="1141.7429" x2="1140.69" y1="1452.2427" y2="1463.1922"/><ellipse cx="1141.7429" cy="1452.2427" fill="none" rx="4" ry="4" style="stroke:#181818;stroke-width:1;"/><line style="stroke:#181818;stroke-width:1;" x1="1145.0545" x2="1137.0912" y1="1459.5934" y2="1458.8277"/><text fill="#000000" font-family="sans-serif" font-size="13" lengthAdjust="spacing" textLength="135.1289" x="1166.5" y="1273.7705">Each media is acquired</text><text fill="#000000" font-family="sans-serif" font-size="13" lengthAdjust="spacing" textLength="98.2554" x="1186.7427" y="1291.0615">from a source, or</text><text fill="#000000" font-family="sans-serif" font-size="13" lengthAdjust="spacing" textLength="121.4243" x="1175.1582" y="1308.3525">uploaded by the user</text></g><!--link DatasetItem to Media--><g class="link" data-entity-1="DatasetItem" data-entity-2="Media" data-source-line="147" data-uid="lnk40" id="link_DatasetItem_Media"><path codeLine="147" d="M1252.1811,1127.3842 C1286.5511,1189.9642 1329.07,1265.5722 1372.5,1337.2422 C1384.58,1357.1722 1389.8197,1365.7097 1402.6997,1385.6097" fill="none" id="DatasetItem-Media" style="stroke:#181818;stroke-width:1;"/><line style="stroke:#181818;stroke-width:1;" x1="1246.7495" x2="1253.7616" y1="1125.8038" y2="1121.9526"/><line style="stroke:#181818;stroke-width:1;" x1="1248.1937" x2="1255.2058" y1="1128.4333" y2="1124.5822"/><line style="stroke:#181818;stroke-width:1;" x1="1252.1811" x2="1248.33" y1="1127.3842" y2="1120.3722"/><line style="stroke:#181818;stroke-width:1;" x1="1404.8731" x2="1410.85" y1="1388.9677" y2="1398.2022"/><ellipse cx="1404.8731" cy="1388.9677" fill="none" rx="4" ry="4" style="stroke:#181818;stroke-width:1;"/><line style="stroke:#181818;stroke-width:1;" x1="1412.0346" x2="1405.3186" y1="1392.6708" y2="1397.0176"/><text fill="#000000" font-family="sans-serif" font-size="13" lengthAdjust="spacing" textLength="109.8145" x="1412.8904" y="1282.2705">Dataset item refers</text><text fill="#000000" font-family="sans-serif" font-size="13" lengthAdjust="spacing" textLength="188.5952" x="1377.1118" y="1299.5615">to a certain media (except video)</text></g><!--link DatasetView to DatasetItem--><g class="link" data-entity-1="DatasetView" data-entity-2="DatasetItem" data-source-line="148" data-uid="lnk41" id="link_DatasetView_DatasetItem"><path codeLine="148" d="M1376.2892,739.025 C1347.6992,783.575 1309.2013,843.563 1267.3813,908.733" fill="none" id="DatasetView-DatasetItem" style="stroke:#181818;stroke-width:1;"/><line style="stroke:#181818;stroke-width:1;" x1="1375.0832" x2="1381.816" y1="733.4982" y2="737.819"/><line style="stroke:#181818;stroke-width:1;" x1="1373.4629" x2="1380.1957" y1="736.023" y2="740.3438"/><line style="stroke:#181818;stroke-width:1;" x1="1376.2892" x2="1380.61" y1="739.025" y2="732.2922"/><line style="stroke:#181818;stroke-width:1;" x1="1261.9806" x2="1262.7097" y1="917.1492" y2="927.1226"/><line style="stroke:#181818;stroke-width:1;" x1="1261.9806" x2="1252.6103" y1="917.1492" y2="920.6418"/><line style="stroke:#181818;stroke-width:1;" x1="1261.9806" x2="1257.66" y1="917.1492" y2="923.8822"/><ellipse cx="1265.221" cy="912.0995" fill="none" rx="4" ry="4" style="stroke:#181818;stroke-width:1;"/><text fill="#000000" font-family="sans-serif" font-size="13" lengthAdjust="spacing" textLength="136.5571" x="1341.2173" y="825.7705">A view is a set of media</text><text fill="#000000" font-family="sans-serif" font-size="13" lengthAdjust="spacing" textLength="134.3799" x="1344.1118" y="843.0615">filtered by some criteria</text></g><!--link ModelRevision to ModelRevision--><g class="link" data-entity-1="ModelRevision" data-entity-2="ModelRevision" data-source-line="150" data-uid="lnk42" id="link_ModelRevision_ModelRevision"><path codeLine="150" d="M785.5634,513.7676 C805.5434,515.0576 812.5,520.7022 812.5,531.7422 C812.5,542.7822 815.5226,547.7824 795.5426,549.0724" fill="none" id="ModelRevision-ModelRevision" style="stroke:#181818;stroke-width:1;"/><line style="stroke:#181818;stroke-width:1;" x1="781.314" x2="781.8294" y1="517.5016" y2="509.5182"/><line style="stroke:#181818;stroke-width:1;" x1="784.3077" x2="784.8232" y1="517.6949" y2="509.7115"/><line style="stroke:#181818;stroke-width:1;" x1="785.5634" x2="777.58" y1="513.7676" y2="513.2522"/><line style="stroke:#181818;stroke-width:1;" x1="785.5634" x2="777.9666" y1="549.7167" y2="556.2197"/><line style="stroke:#181818;stroke-width:1;" x1="785.5634" x2="777.1934" y1="549.7167" y2="544.2447"/><line style="stroke:#181818;stroke-width:1;" x1="785.5634" x2="777.58" y1="549.7167" y2="550.2322"/><ellipse cx="791.5509" cy="549.3302" fill="none" rx="4" ry="4" style="stroke:#181818;stroke-width:1;"/><text fill="#000000" font-family="sans-serif" font-size="13" lengthAdjust="spacing" textLength="150.2871" x="826.8218" y="520.2705">New revisions are created</text><text fill="#000000" font-family="sans-serif" font-size="13" lengthAdjust="spacing" textLength="159.707" x="822.1118" y="537.5615">after fine-tuning the weights</text><text fill="#000000" font-family="sans-serif" font-size="13" lengthAdjust="spacing" textLength="121.4053" x="843.0686" y="554.8525">of the parent revision</text></g><!--link ModelRevision to Annotation--><g class="link" data-entity-1="ModelRevision" data-entity-2="Annotation" data-source-line="151" data-uid="lnk43" id="link_ModelRevision_Annotation"><path codeLine="151" d="M788.8607,595.2068 C822.0107,623.7868 841.5,652.6922 841.5,697.7422 C841.5,697.7422 841.5,697.7422 841.5,1022.7422 C841.5,1098.5522 865.4365,1165.0407 889.1465,1216.7407" fill="none" id="ModelRevision-Annotation" style="stroke:#181818;stroke-width:1;"/><line style="stroke:#181818;stroke-width:1;" x1="785.8312" x2="777.5" y1="592.5949" y2="585.4122"/><ellipse cx="785.8312" cy="592.5949" fill="none" rx="4" ry="4" style="stroke:#181818;stroke-width:1;"/><line style="stroke:#181818;stroke-width:1;" x1="777.9176" x2="783.1414" y1="591.0536" y2="584.9945"/><line style="stroke:#181818;stroke-width:1;" x1="893.3151" x2="902.1038" y1="1225.8304" y2="1230.601"/><line style="stroke:#181818;stroke-width:1;" x1="893.3151" x2="891.1962" y1="1225.8304" y2="1235.6034"/><line style="stroke:#181818;stroke-width:1;" x1="893.3151" x2="896.65" y1="1225.8304" y2="1233.1022"/><ellipse cx="890.814" cy="1220.3766" fill="none" rx="4" ry="4" style="stroke:#181818;stroke-width:1;"/><text fill="#000000" font-family="sans-serif" font-size="13" lengthAdjust="spacing" textLength="163.3188" x="842.5" y="834.2705">Models generate predictions</text></g><!--link ModelRevision to LabelSchemaRevision--><g class="link" data-entity-1="ModelRevision" data-entity-2="LabelSchemaRevision" data-source-line="152" data-uid="lnk44" id="link_ModelRevision_LabelSchemaRevision"><path codeLine="152" d="M610.2936,580.1635 C528.8036,625.0735 421.5,686.2422 421.5,697.7422 C421.5,697.7422 421.5,697.7422 421.5,1022.7422 C421.5,1105.4322 411.4728,1194.3791 405.0428,1243.7691" fill="none" id="ModelRevision-LabelSchemaRevision" style="stroke:#181818;stroke-width:1;"/><line style="stroke:#181818;stroke-width:1;" x1="611.8661" x2="615.7274" y1="574.7296" y2="581.7361"/><line style="stroke:#181818;stroke-width:1;" x1="609.2387" x2="613.1" y1="576.1776" y2="583.1841"/><line style="stroke:#181818;stroke-width:1;" x1="610.2936" x2="617.3" y1="580.1635" y2="576.3022"/><line style="stroke:#181818;stroke-width:1;" x1="408.4929" x2="400.5599" y1="1248.2521" y2="1247.2193"/><line style="stroke:#181818;stroke-width:1;" x1="408.8802" x2="400.9472" y1="1245.2772" y2="1244.2444"/><line style="stroke:#181818;stroke-width:1;" x1="405.0428" x2="404.01" y1="1243.7691" y2="1251.7022"/></g><!--link ModelRevision to DatasetRevision--><g class="link" data-entity-1="ModelRevision" data-entity-2="DatasetRevision" data-source-line="153" data-uid="lnk45" id="link_ModelRevision_DatasetRevision"><path codeLine="153" d="M722.8906,600.5572 C732.6906,631.4272 739.5,662.2722 739.5,697.7422 C739.5,697.7422 739.5,697.7422 739.5,1022.7422 C739.5,1105.2022 734.9415,1194.1961 732.0215,1243.6561" fill="none" id="ModelRevision-DatasetRevision" style="stroke:#181818;stroke-width:1;"/><line style="stroke:#181818;stroke-width:1;" x1="717.8678" x2="725.4928" y1="597.955" y2="595.5344"/><line style="stroke:#181818;stroke-width:1;" x1="718.7756" x2="726.4006" y1="600.8144" y2="598.3937"/><line style="stroke:#181818;stroke-width:1;" x1="722.8906" x2="720.47" y1="600.5572" y2="592.9322"/><line style="stroke:#181818;stroke-width:1;" x1="735.7788" x2="727.7927" y1="1247.8849" y2="1247.4134"/><line style="stroke:#181818;stroke-width:1;" x1="735.9556" x2="727.9695" y1="1244.8901" y2="1244.4186"/><line style="stroke:#181818;stroke-width:1;" x1="732.0215" x2="731.55" y1="1243.6561" y2="1251.6422"/></g><!--link ModelRevision to EvaluationResult--><g class="link" data-entity-1="ModelRevision" data-entity-2="EvaluationResult" data-source-line="154" data-uid="lnk46" id="link_ModelRevision_EvaluationResult"><path codeLine="154" d="M611.0732,586.4812 C583.6132,607.8212 562.38,630.5722 547.5,663.2422 C528.15,705.7222 536.0919,753.1058 546.0219,787.5158" fill="none" id="ModelRevision-EvaluationResult" style="stroke:#181818;stroke-width:1;"/><line style="stroke:#181818;stroke-width:1;" x1="611.7771" x2="616.6861" y1="580.8683" y2="587.1851"/><line style="stroke:#181818;stroke-width:1;" x1="609.4083" x2="614.3173" y1="582.7091" y2="589.0259"/><line style="stroke:#181818;stroke-width:1;" x1="611.0732" x2="617.39" y1="586.4812" y2="581.5722"/><line style="stroke:#181818;stroke-width:1;" x1="550.9741" x2="543.2878" y1="790.25" y2="792.4681"/><line style="stroke:#181818;stroke-width:1;" x1="550.1423" x2="542.456" y1="787.3676" y2="789.5857"/><line style="stroke:#181818;stroke-width:1;" x1="546.0219" x2="548.24" y1="787.5158" y2="795.2022"/><text fill="#000000" font-family="sans-serif" font-size="13" lengthAdjust="spacing" textLength="120.6816" x="568.3682" y="678.2705">A model is evaluated</text><text fill="#000000" font-family="sans-serif" font-size="13" lengthAdjust="spacing" textLength="142.3208" x="559.3545" y="695.5615">with one or more metrics</text><text fill="#000000" font-family="sans-serif" font-size="13" lengthAdjust="spacing" textLength="156.8062" x="552.1118" y="712.8525">on a specific revision of the</text><text fill="#000000" font-family="sans-serif" font-size="13" lengthAdjust="spacing" textLength="105.5234" x="579.5591" y="730.1436">dataset and labels</text></g><!--link EvaluationResult to LabelSchemaRevision--><g class="link" data-entity-1="EvaluationResult" data-entity-2="LabelSchemaRevision" data-source-line="155" data-uid="lnk47" id="link_EvaluationResult_LabelSchemaRevision"><path codeLine="155" d="M550.8036,870.2215 C536.1036,936.3315 500.57,1082.1822 447.5,1203.2422 C440.22,1219.8622 434.449,1230.5013 425.469,1244.9213" fill="none" id="EvaluationResult-LabelSchemaRevision" style="stroke:#181818;stroke-width:1;"/><line style="stroke:#181818;stroke-width:1;" x1="547.7671" x2="555.5764" y1="865.4486" y2="867.185"/><line style="stroke:#181818;stroke-width:1;" x1="547.116" x2="554.9252" y1="868.3771" y2="870.1135"/><line style="stroke:#181818;stroke-width:1;" x1="550.8036" x2="552.54" y1="870.2215" y2="862.4122"/><line style="stroke:#181818;stroke-width:1;" x1="426.7499" x2="419.9591" y1="1250.4312" y2="1246.2023"/><line style="stroke:#181818;stroke-width:1;" x1="428.3358" x2="421.5449" y1="1247.8847" y2="1243.6557"/><line style="stroke:#181818;stroke-width:1;" x1="425.469" x2="421.24" y1="1244.9213" y2="1251.7122"/></g><!--link EvaluationResult to DatasetRevision--><g class="link" data-entity-1="EvaluationResult" data-entity-2="DatasetRevision" data-source-line="156" data-uid="lnk48" id="link_EvaluationResult_DatasetRevision"><path codeLine="156" d="M577.9123,869.6078 C582.2223,879.1878 583.53,882.4322 587.5,892.2422 C640.77,1023.9322 693.2529,1176.5019 716.0529,1244.0919" fill="none" id="EvaluationResult-DatasetRevision" style="stroke:#181818;stroke-width:1;"/><line style="stroke:#181818;stroke-width:1;" x1="572.6233" x2="579.919" y1="867.6012" y2="864.3189"/><line style="stroke:#181818;stroke-width:1;" x1="573.8542" x2="581.1498" y1="870.337" y2="867.0547"/><line style="stroke:#181818;stroke-width:1;" x1="577.9123" x2="574.63" y1="869.6078" y2="862.3122"/><line style="stroke:#181818;stroke-width:1;" x1="721.1216" x2="713.5413" y1="1246.6035" y2="1249.1606"/><line style="stroke:#181818;stroke-width:1;" x1="720.1627" x2="712.5824" y1="1243.7609" y2="1246.3179"/><line style="stroke:#181818;stroke-width:1;" x1="716.0529" x2="718.61" y1="1244.0919" y2="1251.6722"/></g><!--link EvaluationResult to MetricScore--><g class="link" data-entity-1="EvaluationResult" data-entity-2="MetricScore" data-source-line="157" data-uid="lnk49" id="link_EvaluationResult_MetricScore"><path codeLine="157" d="M560.7561,870.4284 C563.2461,951.3284 569.203,1144.866 571.973,1234.536" fill="none" id="EvaluationResult-MetricScore" style="stroke:#181818;stroke-width:1;"/><line style="stroke:#181818;stroke-width:1;" x1="556.6349" x2="564.6312" y1="866.5534" y2="866.3072"/><line style="stroke:#181818;stroke-width:1;" x1="556.7272" x2="564.7235" y1="869.5519" y2="869.3058"/><line style="stroke:#181818;stroke-width:1;" x1="560.7561" x2="560.51" y1="870.4284" y2="862.4322"/><line style="stroke:#181818;stroke-width:1;" x1="571.973" x2="578.2171" y1="1234.536" y2="1242.3469"/><line style="stroke:#181818;stroke-width:1;" x1="571.973" x2="566.2229" y1="1234.536" y2="1242.7174"/><line style="stroke:#181818;stroke-width:1;" x1="571.973" x2="572.22" y1="1234.536" y2="1242.5322"/><line style="stroke:#181818;stroke-width:1;" x1="575.9093" x2="567.9131" y1="1232.4135" y2="1232.6605"/></g><!--SRC=[hLVRRkCs47tNLt3LXzq0kQ1zw4DW670tpY95RfiuYm9DOT3KE6OZYIf9sLQJ_VVEaAAZYvraWUR958TdReTdc0y9p6KE378hRVLflST4oerXQpOOi4_Z_PzEJqVujyU6m-X3RLiyajsW7Au7H-KmYl1a2j70o7_X-ETVXuFPy0jOoIObsXwmpoehKh30nix5mGsat4gLcuKis8da3vfdWwFPS7140CE0yylmjZ8MCdzCWc4yJrZpi0ad03Ty355Kvt6jrTyWx1vxYXZ5AvCzTipkxivES9tp370r6VynONUNPr_lnj7tAFh89jmyCaqU8F458RVXHu0-vpD8RyK2CkxXBHwRsge8cFW9rY8jZLp2D2LhWpk_NLsTZqUNvAaFT0DBQJ0j3tXuUDWrUpCHN0cLAlsoN2Zx25LOkmJFyZbeo0LSom9IQcKts-2qP-a3a6QgopoN-SFMZ6vLgGMyk-YC6NUWKpoXyhbyc2RSSlpu- -rLouNC7t_40Ph_2Fm9VlsiqXIvW-suLgaKrNjgNpZBjpqXDN8-Ix7YhVfzPEJOW7Kalu14ybvBQWkCfXqkVlicORKjofxXQpnpNhVdsawhdVbSwOpRb_LA9dQ1oxFBoVZB-8Q82F9XOLkVwDusFhm4yKqce3P1P1JIj1NAl30jf3cg1vYfK6LkToEUajLhi5OYYkLPiGsYBjuPgj5xkF1_L0G_b3FYmmR5yWVA_FpiTl8dVVgh4U0epvLrkhWzlZO3ImDwgf49iEhpy48baEwK1RVR9b7N5zTY8ItUdr8tQeArjQLfPAEv91cPPc2r5AP_4yTBdfOkfnimPMfVv_U5WxaLIjTjzhWl_cddc9sUNurgBMnDagYU5-pv-U3W-Parf1bznIDMrFj6fKkQ2MikR5enXH9AyXzt0VfAYp1ZBXOR93zB3PFMCBNAMH4CxtEhQkcW4je5-FxDKxNg-GcoWUZX9nO_ms69HsTuAPBxd24UeGJFk8JSrDWLxY_u4iYZaJXmyHhvcTNsfPvOg_dayGw9P9ZWkMydox1D4cSzfi0oCZR8VRl07QfJxJwEecPrNHvFlk2-r5JFK9rxVnJ7MeRzsmJM1TWMN0sKyShdTz-8pmU7aVJRLDVLJxAwzs5lmOqBnq-jUClfxygVngcpwonknJlyOXhRvay7YJ8ItiGH0nEROUCJX7_9K6YaWPOytftYbefjVA14XDgxMk5lL3Kc0nQMBj2Dq4BajKWYrgHchIEaeU8J0scbveodANtnHCLrWvnn3zUDfGuYSjKYuHnk3UOq_KsmnhoC_9GDEsvCr6uyLkOqUWQCioLjnjjEkC7owZ4_eUB8cUy-x6sRYS4QRvKW5MxWc4rEL6ZFccVselzEPfQWgpeQeXtUJxunsAUsQWpEzVNW0NBGJkeBZGT4mqIwpfLvVHQIjckYElcEwwiIRnJEUyQpNFnJIeGbzcYLeLD_S_OH7h-LHQfuWgvdbUiQpQL-Uiw7gtpSLJaSKtDI82znd0dGrkcG2-0JFiAXiBvwUnjWwlqEqeuOpKGNUQ2gWwBuPOhtoSTgLDQyO57x8crusxrUbmYjwxNNPw61waeadYCO8yaxiALxNbD1LkwPuF8BnCPZAD019kxwLjvtcmyNNef3gnkTDl6suDlpB-pjiEmyB7TOTOUvbnj7GIet-6qiBwPA8wEb-k69u0I9MbE0a7CfDcK8rK63fF6C3jEYv_orB7SQTnFTOKY2jNcAq3i3vvzXIPbb5SEcO5OvlXjWZQFMIIesmzggVZDQx7pah5AOE_xrrDlziqicqNy0]--></g></svg>